;TYPE=PLATED
;Layer: PTH_Through_Via
;EasyEDA Pro Client v2.2.45.4, 2026-02-25 10:19:22
;Gerber Generator version 0.3
M48
METRIC,LZ,0000.00000
;Hole size 1 = 0.30500 METRIC
T01C0.30500
%
G05
G90
T01
X39.52355Y-10.36249
X67.57913Y-35.92676
X68.73737Y-36.38645
X66.32027Y-35.9259
X40.28355Y-18.00866
X41.55986Y-20.67698
X43.2416Y-19.33468
X41.9782Y-9.45233
X42.0726Y-10.23203
X42.14428Y-10.99404
X39.35311Y-13.11682
X43.1821Y-12.77158
X42.73225Y-7.78133
X47.84803Y-10.07245
X47.84803Y-9.05767
X44.21781Y-7.67672
X45.21633Y-7.67207
X46.24739Y-7.66626
X45.20122Y-10.29564
X44.32978Y-10.29564
X46.26831Y-10.29564
X45.20122Y-9.28085
X45.20122Y-11.36274
X47.8467Y-11.29189
X46.74647Y-12.92741
X47.42649Y-15.23945
X49.80915Y-17.41549
X49.80915Y-18.78075
X49.80915Y-16.05024
X51.2921Y-17.28603
X43.60446Y-20.28031
X43.46846Y-17.04764
X47.33407Y-16.74425
X57.87645Y-14.00996
X55.14178Y-17.01699
X68.74357Y-21.94191
X72.03902Y-24.60966
X70.04606Y-24.60966
X68.79065Y-24.60966
X67.45678Y-24.60966
X71.28578Y-21.98899
X67.23199Y-29.2629
X66.76341Y-28.02086
X73.14731Y-37.74371
X72.79423Y-35.0132
X74.46549Y-34.18933
X70.79342Y-35.0132
X62.64896Y-21.86868
X75.69632Y-21.58599
X61.87898Y-19.30271
X61.07866Y-10.75025
X74.33107Y-10.81302
X61.06156Y-26.36033
X60.75666Y-32.55777
X61.60666Y-32.55777
X62.45666Y-32.55777
X60.75666Y-33.40777
X61.60666Y-33.40777
X62.45666Y-33.40777
X60.75666Y-34.25777
X61.60666Y-34.25777
X62.45666Y-34.25777
X64.16264Y-33.44304
X61.56321Y-30.7221
X59.77047Y-35.2137
X56.75213Y-32.65623
X56.75213Y-33.91772
X56.04972Y-31.16538
X63.75279Y-36.51715
X66.12258Y-29.06575
X68.36476Y-32.32466
X67.80255Y-30.59975
X25.35857Y-28.65376
X25.35857Y-29.76652
X68.13988Y-31.41506
X70.28536Y-33.18305
X73.18105Y-33.0612
X71.58512Y-33.72536
X74.34219Y-32.33012
X76.70748Y-31.64203
X71.8397Y-29.21566
X75.03028Y-29.82147
X70.48605Y-29.26241
X73.61111Y-29.80355
X69.7303Y-30.34518
X32.13011Y-31.13313
X33.49566Y-31.04748
X34.88111Y-31.22082
X36.05098Y-31.09779
X36.11155Y-29.89195
X34.78569Y-29.9136
X33.38865Y-29.91184
X32.13609Y-29.9039
X36.09974Y-33.78393
X34.74268Y-33.77437
X33.39244Y-33.76482
X32.09308Y-33.79588
X36.12124Y-32.55828
X34.77978Y-32.71251
X33.18776Y-32.53917
X32.19257Y-32.53123
X25.38369Y-39.47273
X39.60769Y-39.61787
X55.41393Y-31.98085
X25.35857Y-31.21033
X25.35857Y-32.33922
X55.44798Y-33.31759
X45.24676Y-35.93315
X42.59716Y-38.29127
X44.93856Y-39.17527
X53.18387Y-23.44602
X53.52688Y-27.33647
X55.61263Y-22.15434
X25.96407Y-19.43784
X50.11844Y-13.82419
X56.24445Y-14.3442
X65.04482Y-27.3829
X63.08091Y-29.09241
X25.35857Y-27.46006
X27.73614Y-15.6668
X32.50972Y-10.73194
X33.25873Y-14.07561
X42.67258Y-8.91147
X39.01236Y-9.41559
X65.97847Y-33.11265
X66.31869Y-36.70641
M30