G04 Layer: TopLayer*
G04 EasyEDA Pro v2.2.45.4, 2026-02-25 10:19:21*
G04 Gerber Generator version 0.3*
G04 Scale: 100 percent, Rotated: No, Reflected: No*
G04 Dimensions in millimeters*
G04 Leading zeros omitted, absolute positions, 4 integers and 5 decimals*
G04 Generated by one-click*
%FSLAX45Y45*%
%MOMM*%
%AMRect*21,1,$1,$2,0,0,$3*%
%ADD10C,2.0*%
%ADD11C,1.0*%
%ADD12C,1.2*%
%ADD13R,1.2X1.2*%
%ADD14R,0.6X1.15001*%
%ADD15R,0.3X1.15001*%
%ADD16O,1.0X1.8*%
%ADD17O,1.0034X2.1*%
%ADD18O,1.0X2.1*%
%ADD19R,0.54X0.5*%
%ADD20R,0.56566X0.54*%
%ADD21R,0.80648X0.86401*%
%ADD22R,0.28001X0.665*%
%ADD23R,0.665X0.28001*%
%ADD24R,2.69999X2.69999*%
%ADD25R,0.5X0.54*%
%ADD26R,1.1X0.6*%
%ADD27R,1.5X0.9*%
%ADD28R,0.9X1.5*%
%ADD29R,0.9X0.9*%
%ADD30R,0.54X0.56566*%
%ADD31R,0.9X0.8*%
%ADD32R,0.8X0.9*%
%ADD33R,0.24X0.6*%
%ADD34R,0.6X0.24*%
%ADD35R,2.1X2.1*%
%ADD36R,0.25001X0.25001*%
%ADD37R,0.5X0.9*%
%ADD38O,0.8X0.28001*%
%ADD39O,0.28001X0.8*%
%ADD40R,1.7X1.7*%
%ADD41C,1.7*%
%ADD42R,1.8X2.49999*%
%ADD43R,1.8X2.8001*%
%ADD44R,1.8X2.99999*%
%ADD45R,1.2X2.2*%
%ADD46R,1.6X1.4*%
%ADD47R,0.7X1.6*%
%ADD48R,0.8X0.86401*%
%ADD49Rect,1.5X1.0X135.0*%
%ADD50C,0.61*%
%ADD51C,0.254*%
%ADD52C,0.4*%
%ADD53C,0.5*%
G75*


G04 PolygonModel Start*
G36*
G01X6112631Y-3124854D02*
G01X6133491Y-3103994D01*
G01X6138871Y-3098850D01*
G01X6182856Y-3099416D01*
G01X6200600Y-3125656D01*
G01X6222687Y-3125656D01*
G01X6223961Y-3124382D01*
G01X6223961Y-2955334D01*
G01X6216316Y-2947688D01*
G01X6114377Y-2948113D01*
G01X6105883Y-2954909D01*
G01X6105454Y-3124854D01*
G01X6112631Y-3124854D01*
G37*
G36*
G01X6211277Y-3510258D02*
G01X6287519Y-3510258D01*
G01X6348010Y-3449767D01*
G01X6408996Y-3450084D01*
G01X6415183Y-3455296D01*
G01X6414758Y-3567004D01*
G01X6407538Y-3574224D01*
G01X6222108Y-3575244D01*
G01X6211277Y-3564413D01*
G01X6211277Y-3510258D01*
G37*
G36*
G01X6261206Y-3092989D02*
G01X6696576Y-3092673D01*
G01X6707194Y-3107114D01*
G01X6705565Y-3217816D01*
G01X6639836Y-3146617D01*
G01X6552208Y-3147462D01*
G01X6500602Y-3199069D01*
G01X6501239Y-3238729D01*
G01X6501239Y-3244676D01*
G01X6355818Y-3244941D01*
G01X6350084Y-3239207D01*
G01X6350880Y-3191158D01*
G01X6334740Y-3175018D01*
G01X6266940Y-3174699D01*
G01X6261206Y-3168965D01*
G01X6261206Y-3092989D01*
G37*

G04 Rect Start*
G36*
G01X6352230Y-3390690D02*
G01X6352230Y-3303650D01*
G02X6362230Y-3293650I10000J0D01*
G01X6407220Y-3293650D01*
G02X6417220Y-3303650I0J-10000D01*
G01X6417220Y-3390690D01*
G02X6407220Y-3400690I-10000J0D01*
G01X6362230Y-3400690D01*
G02X6352230Y-3390690I0J10000D01*
G37*
G04 Rect End*

G04 Pad Start*
G54D10*
G01X6380312Y-3892926D03*
G01X6005150Y-3895538D03*
G54D11*
G01X2197100Y-2120900D03*
G01X4912990Y-4045528D03*
G54D12*
G01X5092391Y-4045528D03*
G01X3477149Y-1416577D03*
G01X3477149Y-1246477D03*
G54D13*
G01X3477149Y-1076377D03*
G54D12*
G01X3477149Y-1586677D03*
G01X3787844Y-1587343D03*
G54D13*
G01X3782047Y-1080527D03*
G54D12*
G01X3782047Y-1250527D03*
G01X3782047Y-1420527D03*
G01X2197100Y-1930400D03*
G54D14*
G01X5704815Y-1277645D03*
G01X5624805Y-1277645D03*
G01X5064811Y-1277645D03*
G01X5144795Y-1277645D03*
G54D15*
G01X5209794Y-1277645D03*
G01X5259807Y-1277645D03*
G01X5309794Y-1277645D03*
G01X5359806Y-1277645D03*
G01X5409794Y-1277645D03*
G01X5459806Y-1277645D03*
G01X5509793Y-1277645D03*
G01X5559806Y-1277645D03*
G54D16*
G01X4952797Y-805155D03*
G01X5816803Y-805155D03*
G54D18*
G01X4952797Y-1220140D03*
G01X5816803Y-1220140D03*
G54D19*
G01X7006312Y-2278113D03*
G01X7006312Y-2362136D03*
G01X6877481Y-2362136D03*
G01X6877481Y-2278113D03*
G01X6830220Y-3405250D03*
G01X6830220Y-3321227D03*
G01X6599808Y-3100172D03*
G01X6599808Y-3016149D03*
G54D20*
G01X6231534Y-3653101D03*
G01X6318097Y-3653101D03*
G01X6085934Y-3654890D03*
G01X5999371Y-3654890D03*
G54D21*
G01X5839007Y-3114333D03*
G01X5688334Y-3114333D03*
G54D22*
G01X6261062Y-3151160D03*
G01X6211049Y-3151160D03*
G01X6161062Y-3151160D03*
G01X6111050Y-3151160D03*
G01X6061062Y-3151160D03*
G54D23*
G01X5970308Y-3241915D03*
G01X5970308Y-3291902D03*
G01X5970308Y-3341914D03*
G01X5970308Y-3391902D03*
G01X5970308Y-3441914D03*
G54D22*
G01X6061062Y-3532668D03*
G01X6111050Y-3532668D03*
G01X6161062Y-3532668D03*
G01X6211049Y-3532668D03*
G01X6261062Y-3532668D03*
G54D23*
G01X6351816Y-3441914D03*
G01X6351816Y-3391902D03*
G01X6351816Y-3341914D03*
G01X6351816Y-3291902D03*
G01X6351816Y-3241915D03*
G54D24*
G01X6161062Y-3341914D03*
G54D25*
G01X4008404Y-1376976D03*
G01X4092427Y-1376976D03*
G01X4008404Y-981500D03*
G01X4092427Y-981500D03*
G54D26*
G01X4380751Y-1793023D03*
G01X4380751Y-1603031D03*
G01X4640771Y-1603031D03*
G01X4640771Y-1698027D03*
G01X4640771Y-1793023D03*
G54D19*
G01X4343018Y-3906111D03*
G01X4343018Y-3990134D03*
G54D20*
G01X2470449Y-1961272D03*
G01X2383886Y-1961272D03*
G01X4348096Y-3591773D03*
G01X4434659Y-3591773D03*
G01X4317787Y-2456552D03*
G01X4404350Y-2456552D03*
G01X4319462Y-2309318D03*
G01X4406025Y-2309318D03*
G54D27*
G01X4133243Y-3955390D03*
G01X4133243Y-3828390D03*
G01X4133243Y-3701390D03*
G01X4133243Y-3574390D03*
G01X4133243Y-3447390D03*
G01X4133243Y-3320390D03*
G01X4133243Y-3193390D03*
G01X4133243Y-3066390D03*
G01X4133243Y-2939390D03*
G01X4133243Y-2812390D03*
G01X4133243Y-2685390D03*
G01X4133243Y-2558390D03*
G01X4133243Y-2431390D03*
G01X4133243Y-2304390D03*
G54D28*
G01X3956738Y-2176399D03*
G01X3829738Y-2176399D03*
G01X3702738Y-2176399D03*
G01X3575738Y-2176399D03*
G01X3448738Y-2176399D03*
G01X3321738Y-2176399D03*
G01X3194738Y-2176399D03*
G01X3067738Y-2176399D03*
G01X2940738Y-2176399D03*
G01X2813738Y-2176399D03*
G01X2686738Y-2176399D03*
G01X2559738Y-2179396D03*
G54D27*
G01X2383234Y-2304390D03*
G01X2383234Y-2431390D03*
G01X2383234Y-2558390D03*
G01X2383234Y-2685390D03*
G01X2383234Y-2812390D03*
G01X2383234Y-2939390D03*
G01X2383234Y-3066390D03*
G01X2383234Y-3193390D03*
G01X2383234Y-3320390D03*
G01X2383234Y-3447390D03*
G01X2383234Y-3574390D03*
G01X2383234Y-3701390D03*
G01X2383234Y-3828390D03*
G01X2383234Y-3955390D03*
G54D29*
G01X3408251Y-3183382D03*
G01X3548256Y-3183382D03*
G01X3268246Y-3183382D03*
G01X3268246Y-3323387D03*
G01X3408251Y-3323387D03*
G01X3548256Y-3323387D03*
G01X3548256Y-3043377D03*
G01X3408251Y-3043377D03*
G01X3268246Y-3043377D03*
G54D20*
G01X4308763Y-2939142D03*
G01X4395326Y-2939142D03*
G01X4305823Y-2687540D03*
G01X4392386Y-2687540D03*
G54D30*
G01X5514463Y-1495531D03*
G01X5514463Y-1582095D03*
G01X5248016Y-1554379D03*
G01X5248016Y-1640942D03*
G54D31*
G01X5098674Y-1492864D03*
G01X5098674Y-1632869D03*
G54D32*
G01X4356026Y-3753873D03*
G01X4496030Y-3753873D03*
G54D33*
G01X4395441Y-1220390D03*
G01X4445505Y-1220390D03*
G01X4495543Y-1220390D03*
G01X4545581Y-1220390D03*
G01X4595365Y-1220390D03*
G01X4645403Y-1220390D03*
G54D34*
G01X4709919Y-1155798D03*
G01X4709919Y-1106039D03*
G01X4709919Y-1056001D03*
G01X4709919Y-1005963D03*
G01X4709919Y-955925D03*
G01X4709919Y-905887D03*
G54D33*
G01X4645428Y-840406D03*
G01X4595365Y-840406D03*
G01X4545581Y-840406D03*
G01X4495543Y-840406D03*
G01X4445505Y-840406D03*
G01X4395467Y-840406D03*
G54D34*
G01X4329935Y-905887D03*
G01X4329935Y-955925D03*
G01X4329935Y-1005963D03*
G01X4329935Y-1056001D03*
G01X4329935Y-1106039D03*
G01X4329935Y-1155798D03*
G54D35*
G01X4519927Y-1030347D03*
G54D36*
G01X4347435Y-1202889D03*
G01X4692418Y-1202889D03*
G01X4692418Y-857906D03*
G01X4347435Y-857906D03*
G54D30*
G01X4245340Y-1717557D03*
G01X4245340Y-1630994D03*
G54D19*
G01X4228265Y-1268017D03*
G01X4228265Y-1352040D03*
G54D25*
G01X4008404Y-1113326D03*
G01X4092427Y-1113326D03*
G01X4008404Y-1245151D03*
G01X4092427Y-1245151D03*
G54D20*
G01X4795123Y-1736289D03*
G01X4881686Y-1736289D03*
G01X4881686Y-1594915D03*
G01X4795123Y-1594915D03*
G01X4881686Y-1872368D03*
G01X4795123Y-1872368D03*
G54D30*
G01X5834696Y-3544469D03*
G01X5834696Y-3631032D03*
G54D20*
G01X3857543Y-2008882D03*
G01X3944106Y-2008882D03*
G01X3859241Y-1878998D03*
G01X3945804Y-1878998D03*
G01X3361395Y-2006449D03*
G01X3447959Y-2006449D03*
G01X3131373Y-2006449D03*
G01X3217936Y-2006449D03*
G01X2987914Y-2006449D03*
G01X2901351Y-2006449D03*
G01X4195898Y-1994654D03*
G01X4109335Y-1994654D03*
G01X4195656Y-1863882D03*
G01X4109093Y-1863882D03*
G01X5762345Y-3257696D03*
G01X5848908Y-3257696D03*
G01X5761433Y-3385095D03*
G01X5847996Y-3385095D03*
G01X6194628Y-2739174D03*
G01X6108064Y-2739174D03*
G01X6414288Y-2739645D03*
G01X6327725Y-2739645D03*
G54D25*
G01X7080703Y-3416678D03*
G01X7164726Y-3416678D03*
G01X7372091Y-3417688D03*
G01X7288068Y-3417688D03*
G01X7604321Y-3230461D03*
G01X7520297Y-3230461D03*
G54D20*
G01X7608976Y-3098713D03*
G01X7522413Y-3098713D03*
G54D37*
G01X6688759Y-3227564D03*
G01X6593763Y-3227564D03*
G01X6498767Y-3227564D03*
G01X6498767Y-3487558D03*
G01X6688759Y-3487558D03*
G54D38*
G01X7348709Y-3246517D03*
G01X7348709Y-3196504D03*
G01X7348709Y-3146517D03*
G01X7348709Y-3096504D03*
G01X7348709Y-3046517D03*
G54D39*
G01X7258692Y-3006512D03*
G01X7208704Y-3006512D03*
G01X7158692Y-3006512D03*
G54D38*
G01X7068700Y-3046517D03*
G01X7068700Y-3096504D03*
G01X7068700Y-3146517D03*
G01X7068700Y-3196504D03*
G01X7068700Y-3246517D03*
G54D39*
G01X7158692Y-3286496D03*
G01X7208704Y-3286496D03*
G01X7258692Y-3286496D03*
G54D40*
G01X7563930Y-3967258D03*
G54D41*
G01X7309930Y-3967258D03*
G01X7055930Y-3967258D03*
G01X6801930Y-3967258D03*
G54D42*
G01X2663914Y-865105D03*
G54D43*
G01X3078899Y-1545089D03*
G54D44*
G01X3243897Y-865080D03*
G54D43*
G01X2388908Y-1545089D03*
G54D45*
G01X7544308Y-1069810D03*
G01X5994298Y-1069810D03*
G54D46*
G01X6084316Y-2029803D03*
G01X7569302Y-2029803D03*
G54D47*
G01X7424318Y-2079790D03*
G01X7314311Y-2079790D03*
G01X7204329Y-2079790D03*
G01X7094322Y-2079790D03*
G01X6984314Y-2079790D03*
G01X6874307Y-2079790D03*
G01X6764325Y-2079790D03*
G01X6654317Y-2079790D03*
G01X6544310Y-2079790D03*
G54D19*
G01X4687067Y-1457208D03*
G01X4687067Y-1373185D03*
G01X4818079Y-1456446D03*
G01X4818079Y-1372423D03*
G54D48*
G01X4173968Y-835907D03*
G01X4033989Y-835907D03*
G54D49*
G01X5332584Y-2161819D03*
G01X5233586Y-2260818D03*
G01X5134587Y-2359816D03*
G01X5594197Y-2819425D03*
G01X5693195Y-2720427D03*
G01X5792212Y-2621447D03*
G01X5746251Y-2207798D03*
G01X5180566Y-2773482D03*
G54D25*
G01X6471513Y-3653066D03*
G01X6555536Y-3653066D03*
G54D30*
G01X6372188Y-2289651D03*
G01X6372188Y-2203088D03*
G01X6747185Y-2276843D03*
G01X6747185Y-2363406D03*
G01X7202517Y-2276843D03*
G01X7202517Y-2363406D03*
G54D20*
G01X4306803Y-2812097D03*
G01X4393366Y-2812097D03*
G04 Pad End*

G04 Via Start*
G54D50*
G01X3952355Y-1036249D03*
G01X6757913Y-3592676D03*
G01X6873737Y-3638645D03*
G01X6632027Y-3592590D03*
G01X4028355Y-1800866D03*
G01X4155986Y-2067698D03*
G01X4324160Y-1933468D03*
G01X4197820Y-945233D03*
G01X4207260Y-1023203D03*
G01X4214428Y-1099404D03*
G01X3935311Y-1311682D03*
G01X4318210Y-1277158D03*
G01X4273225Y-778133D03*
G01X4784803Y-1007245D03*
G01X4784803Y-905767D03*
G01X4421781Y-767672D03*
G01X4521633Y-767207D03*
G01X4624739Y-766626D03*
G01X4520122Y-1029564D03*
G01X4432978Y-1029564D03*
G01X4626831Y-1029564D03*
G01X4520122Y-928085D03*
G01X4520122Y-1136274D03*
G01X4784670Y-1129189D03*
G01X4674647Y-1292741D03*
G01X4742649Y-1523945D03*
G01X4980915Y-1741549D03*
G01X4980915Y-1878075D03*
G01X4980915Y-1605024D03*
G01X5129210Y-1728603D03*
G01X4360446Y-2028031D03*
G01X4346846Y-1704764D03*
G01X4733407Y-1674425D03*
G01X5787645Y-1400996D03*
G01X5514178Y-1701699D03*
G01X6874357Y-2194191D03*
G01X7203902Y-2460966D03*
G01X7004606Y-2460966D03*
G01X6879065Y-2460966D03*
G01X6745678Y-2460966D03*
G01X7128578Y-2198899D03*
G01X6723199Y-2926290D03*
G01X6676341Y-2802086D03*
G01X7314731Y-3774371D03*
G01X7279423Y-3501320D03*
G01X7446549Y-3418933D03*
G01X7079342Y-3501320D03*
G01X6264896Y-2186868D03*
G01X7569632Y-2158599D03*
G01X6187898Y-1930271D03*
G01X6107866Y-1075025D03*
G01X7433107Y-1081302D03*
G01X6106156Y-2636033D03*
G01X6075666Y-3255777D03*
G01X6160666Y-3255777D03*
G01X6245666Y-3255777D03*
G01X6075666Y-3340777D03*
G01X6160666Y-3340777D03*
G01X6245666Y-3340777D03*
G01X6075666Y-3425777D03*
G01X6160666Y-3425777D03*
G01X6245666Y-3425777D03*
G01X6416264Y-3344304D03*
G01X6156321Y-3072210D03*
G01X5977047Y-3521370D03*
G01X5675213Y-3265623D03*
G01X5675213Y-3391772D03*
G01X5604972Y-3116538D03*
G01X6375279Y-3651715D03*
G01X6612258Y-2906575D03*
G01X6836476Y-3232466D03*
G01X6780255Y-3059975D03*
G01X2535857Y-2865376D03*
G01X2535857Y-2976652D03*
G01X6813988Y-3141506D03*
G01X7028536Y-3318305D03*
G01X7318105Y-3306120D03*
G01X7158512Y-3372536D03*
G01X7434219Y-3233012D03*
G01X7670748Y-3164203D03*
G01X7183970Y-2921566D03*
G01X7503028Y-2982147D03*
G01X7048605Y-2926241D03*
G01X7361111Y-2980355D03*
G01X6973030Y-3034518D03*
G01X3213011Y-3113313D03*
G01X3349566Y-3104748D03*
G01X3488111Y-3122082D03*
G01X3605098Y-3109779D03*
G01X3611155Y-2989195D03*
G01X3478569Y-2991360D03*
G01X3338865Y-2991184D03*
G01X3213609Y-2990390D03*
G01X3609974Y-3378393D03*
G01X3474268Y-3377437D03*
G01X3339244Y-3376482D03*
G01X3209308Y-3379588D03*
G01X3612124Y-3255828D03*
G01X3477978Y-3271251D03*
G01X3318776Y-3253917D03*
G01X3219257Y-3253123D03*
G01X2538369Y-3947273D03*
G01X3960769Y-3961787D03*
G01X5541393Y-3198085D03*
G01X2535857Y-3121033D03*
G01X2535857Y-3233922D03*
G01X5544798Y-3331759D03*
G01X4524676Y-3593315D03*
G01X4259716Y-3829127D03*
G01X4493856Y-3917527D03*
G01X5318387Y-2344602D03*
G01X5352688Y-2733647D03*
G01X5561263Y-2215434D03*
G01X2596407Y-1943784D03*
G01X5011844Y-1382419D03*
G01X5624445Y-1434420D03*
G01X6504482Y-2738290D03*
G01X6308091Y-2909241D03*
G01X2535857Y-2746006D03*
G01X2773614Y-1566680D03*
G01X3250972Y-1073194D03*
G01X3325873Y-1407561D03*
G01X4267258Y-891147D03*
G01X3901236Y-941559D03*
G01X6597847Y-3311265D03*
G01X6631869Y-3670641D03*
G04 Via End*

G04 Track Start*
G54D51*
G01X5309794Y-1277645D02*
G01X5309794Y-1194882D01*
G01X5332096Y-1172580D01*
G01X5383358Y-1172580D01*
G01X5408466Y-1197688D02*
G01X5408466Y-1236397D01*
G01X5383358Y-1172580D02*
G01X5408466Y-1197688D01*
G01X5359806Y-1277645D02*
G01X5359806Y-1351986D01*
G01X5385451Y-1377630D02*
G01X5435667Y-1377630D01*
G01X5458683Y-1354614D01*
G01X5458683Y-1320091D01*
G01X5359806Y-1351986D02*
G01X5385451Y-1377630D01*
G01X5309794Y-1277645D02*
G01X5308900Y-1278539D01*
G01X5308900Y-1401886D01*
G01X4178917Y-2299542D02*
G01X4308381Y-2299542D01*
G01X4315442Y-2306603D01*
G01X4167147Y-2445483D02*
G01X4308381Y-2445483D01*
G01X4320150Y-2457252D01*
G01X4121607Y-1993124D02*
G01X4099638Y-1993124D01*
G01X4113761Y-1858691D02*
G01X4057268Y-1802198D01*
G01X4030590Y-1802198D01*
G01X4597109Y-1232720D02*
G01X4594756Y-1230366D01*
G01X3220083Y-2000088D02*
G01X3269515Y-1950656D01*
G01X4494570Y-1229335D02*
G01X4496677Y-1227227D01*
G01X4193203Y-1434718D02*
G01X4436276Y-1434718D01*
G01X4445807Y-1425187D02*
G01X4445807Y-1236120D01*
G01X4436276Y-1434718D02*
G01X4445807Y-1425187D01*
G01X3333430Y-2135960D02*
G01X3333430Y-2032389D01*
G01X3356446Y-2009373D01*
G01X3186966Y-2129683D02*
G01X3186966Y-2072143D01*
G01X3129426Y-2014604D01*
G01X3065610Y-2141191D02*
G01X3065610Y-2080512D01*
G01X2988193Y-2003096D01*
G01X4311513Y-1106529D02*
G01X4289894Y-1106529D01*
G01X4037836Y-833581D02*
G01X4037836Y-867058D01*
G01X4091190Y-920413D01*
G01X4095375Y-1103493D02*
G01X4089098Y-977953D01*
G01X4091190Y-920413D02*
G01X4092587Y-981497D01*
G01X4095375Y-1103493D01*
G01X4003312Y-1257281D02*
G01X3990758Y-1257281D01*
G01X4009589Y-1380729D02*
G01X3944726Y-1315867D01*
G01X3944726Y-1312728D01*
G01X3990758Y-1257281D02*
G01X3940018Y-1308020D01*
G01X4347503Y-1207065D02*
G01X4323441Y-1231127D01*
G01X4323441Y-1269835D01*
G01X4233470Y-1269835D02*
G01X4305656Y-1269835D01*
G01X4314025Y-1278204D01*
G01X4176977Y-835673D02*
G01X4234516Y-778133D01*
G01X4273225Y-778133D01*
G01X4714710Y-1007245D02*
G01X4784803Y-1007245D01*
G01X4718895Y-906813D02*
G01X4780619Y-906813D01*
G01X4781665Y-905767D01*
G01X4784803Y-905767D01*
G01X4396557Y-828234D02*
G01X4396557Y-793361D01*
G01X4414226Y-775692D01*
G01X4445843Y-831953D02*
G01X4445843Y-793826D01*
G01X4430964Y-778947D01*
G01X4624624Y-767789D02*
G01X4595795Y-796614D01*
G01X4595795Y-812890D01*
G01X4644616Y-820329D02*
G01X4644616Y-798476D01*
G01X4635317Y-789176D01*
G01X4495130Y-839393D02*
G01X4495130Y-793710D01*
G01X4521633Y-767207D01*
G01X4548498Y-794072D01*
G01X4548498Y-821155D01*
G01X4352618Y-856596D02*
G01X4367032Y-842182D01*
G01X4392140Y-842182D01*
G01X4691578Y-857061D02*
G01X4672049Y-837533D01*
G01X4655310Y-837533D01*
G01X4544748Y-1218812D02*
G01X4544748Y-1162318D01*
G01X4528706Y-1146277D01*
G01X4784670Y-1129189D02*
G01X4761654Y-1106174D01*
G01X4726084Y-1106174D01*
G01X4781183Y-1133374D02*
G01X4781183Y-1137559D01*
G01X4763049Y-1155692D02*
G01X4726782Y-1155692D01*
G01X4781183Y-1137559D02*
G01X4763049Y-1155692D01*
G01X4691386Y-1202770D02*
G01X4691386Y-1187078D01*
G01X4716494Y-1161969D01*
G01X4646401Y-1226832D02*
G01X4646401Y-1264495D01*
G01X4674647Y-1292741D01*
G01X4815881Y-1374343D02*
G01X4688248Y-1374343D01*
G01X4687201Y-1375389D01*
G01X4687201Y-1313665D01*
G01X4674647Y-1301110D01*
G01X4683017Y-1464314D02*
G01X4742649Y-1523945D01*
G01X4811696Y-1452806D02*
G01X4811696Y-1459083D01*
G01X4753110Y-1517669D01*
G01X4891467Y-1727426D02*
G01X4983269Y-1727426D01*
G01X4985622Y-1729780D01*
G01X4884405Y-1878075D02*
G01X4983269Y-1878075D01*
G01X4884405Y-1602670D02*
G01X4978561Y-1602670D01*
G01X4980915Y-1605024D01*
G01X4661744Y-1797350D02*
G01X4739422Y-1875029D01*
G01X4786500Y-1875029D01*
G01X4633497Y-1787934D02*
G01X4393400Y-2028031D01*
G01X4360446Y-2028031D01*
G01X4198358Y-1997285D02*
G01X4260344Y-1997285D01*
G01X4324160Y-1933468D01*
G01X4205158Y-1873051D02*
G01X4263744Y-1873051D01*
G01X4324160Y-1933468D01*
G01X4235951Y-1722549D02*
G01X4329061Y-1722549D01*
G01X4346846Y-1704764D01*
G01X4380323Y-1787411D02*
G01X4380323Y-1739287D01*
G01X4359400Y-1718364D01*
G01X4247459Y-1628393D02*
G01X4273614Y-1602239D01*
G01X4358353Y-1602239D01*
G01X4643436Y-1598054D02*
G01X4791992Y-1598054D01*
G01X4795131Y-1601193D01*
G01X4795131Y-1722549D01*
G01X4798270Y-1725687D01*
G01X4640297Y-1695348D02*
G01X4712483Y-1695348D01*
G01X4733407Y-1674425D01*
G01X4227582Y-1353250D02*
G01X4335338Y-1353250D01*
G01X4394970Y-1293617D01*
G01X4394970Y-1240263D01*
G01X4095532Y-1375568D02*
G01X4108551Y-1362549D01*
G01X4212238Y-1362549D01*
G54D52*
G01X5146863Y-1288009D02*
G01X5140586Y-1294286D01*
G01X5140586Y-1393672D01*
G01X5140587Y-1393692D02*
G01X5141632Y-1448074D01*
G01X5106062Y-1479459D02*
G01X5139540Y-1445981D01*
G54D51*
G01X5212249Y-1291148D02*
G01X5212249Y-1355581D01*
G01X5348618Y-1491950D02*
G01X5348618Y-1544322D01*
G01X5212249Y-1355581D02*
G01X5348618Y-1491950D01*
G01X5348618Y-1544322D02*
G01X5330657Y-1562282D01*
G01X5283564Y-1562282D01*
G01X5277112Y-1555829D01*
G01X5706043Y-1299517D02*
G01X5706043Y-1320440D01*
G01X5775091Y-1389488D01*
G01X5516235Y-1474475D02*
G01X5516235Y-1438410D01*
G01X5502706Y-1333374D02*
G01X5510408Y-1325672D01*
G01X5516235Y-1438410D02*
G01X5502706Y-1424881D01*
G01X5502706Y-1333374D01*
G01X5816937Y-1414596D02*
G01X5803337Y-1400996D01*
G01X5787645Y-1400996D01*
G01X6653092Y-2125144D02*
G01X6654661Y-2126713D01*
G01X6745678Y-2139267D02*
G01X6761371Y-2123575D01*
G01X6874357Y-2123575D02*
G01X6874357Y-2194191D01*
G01X6875927Y-2274224D02*
G01X6875927Y-2200468D01*
G01X7007744Y-2277362D02*
G01X6875927Y-2277362D01*
G01X7202333Y-2109451D02*
G01X7202333Y-2266377D01*
G01X7200763Y-2267946D01*
G01X7203902Y-2368379D02*
G01X7203902Y-2462535D01*
G01X7004606Y-2362102D02*
G01X7004606Y-2459396D01*
G01X6879065Y-2368379D02*
G01X6879065Y-2460966D01*
G01X6745678Y-2371518D02*
G01X6745678Y-2459396D01*
G01X7279423Y-3428349D02*
G01X7279423Y-3501320D01*
G01X7371224Y-3418933D02*
G01X7446549Y-3418933D01*
G01X7079342Y-3423641D02*
G01X7079342Y-3491904D01*
G01X5103317Y-1649748D02*
G01X5103317Y-1702710D01*
G01X5129210Y-1728603D01*
G01X5216721Y-1641092D02*
G01X5129210Y-1728603D01*
G01X5308900Y-1401886D02*
G01X5384218Y-1477204D01*
G01X5231538Y-1642335D02*
G01X5230296Y-1641092D01*
G01X5216721Y-1641092D01*
G01X5363916Y-1360978D02*
G01X5366802Y-1363966D01*
G01X5366802Y-1402314D01*
G01X5424858Y-1460370D01*
G01X4413918Y-2444824D02*
G01X4405936Y-2452806D01*
G01X4394730Y-2560352D02*
G01X4136979Y-2560352D01*
G01X4460533Y-2494549D02*
G01X4460533Y-2495109D01*
G01X4444189Y-2511452D01*
G01X4443629Y-2511452D01*
G01X4394730Y-2560352D01*
G01X4618824Y-2336258D02*
G01X4460533Y-2494549D01*
G01X6654661Y-2220697D02*
G01X6566480Y-2308878D01*
G01X6654661Y-2126713D02*
G01X6654661Y-2220697D01*
G01X6368467Y-2207268D02*
G01X6348067Y-2186868D01*
G01X6264896Y-2186868D01*
G01X6745678Y-2278931D02*
G01X6745678Y-2139267D01*
G01X4304117Y-2938568D02*
G01X4144053Y-2938568D01*
G01X4287640Y-2684348D02*
G01X4132283Y-2684348D01*
G01X4129930Y-2681994D01*
G01X7097192Y-2106313D02*
G01X7128578Y-2137698D01*
G01X7128578Y-2198899D01*
G01X6983237Y-2136149D02*
G01X6983237Y-2135107D01*
G01X7088607Y-2241519D02*
G01X6983237Y-2136149D01*
G01X7195617Y-2294512D02*
G01X7196252Y-2295147D01*
G01X7571986Y-2050320D02*
G01X7571986Y-2156245D01*
G01X7569632Y-2158599D01*
G01X6077266Y-2040904D02*
G01X6187898Y-1930271D01*
G01X6012141Y-1078163D02*
G01X6104728Y-1078163D01*
G01X6107866Y-1075025D01*
G01X7535108Y-1079732D02*
G01X7434676Y-1079732D01*
G01X7433107Y-1081302D01*
G01X6160958Y-3174678D02*
G01X6160958Y-3214179D01*
G01X6160320Y-3214817D01*
G01X5969402Y-3445872D02*
G01X5969402Y-3513725D01*
G01X6061146Y-3529971D02*
G01X5991382Y-3529971D01*
G01X5986604Y-3652297D02*
G01X5986604Y-3537616D01*
G01X5976091Y-3527104D01*
G01X6099373Y-3646563D02*
G01X6099373Y-3620760D01*
G01X6112753Y-3607381D01*
G01X6112753Y-3539528D01*
G01X6108930Y-3535705D01*
G01X6159581Y-3539528D02*
G01X6159581Y-3576799D01*
G01X6218832Y-3636051D01*
G01X5838235Y-3646937D02*
G01X5913495Y-3722196D01*
G01X5850102Y-3391772D02*
G01X5900274Y-3341599D01*
G01X5959048Y-3341599D01*
G01X5855836Y-3268490D02*
G01X5878772Y-3291426D01*
G01X5947580Y-3291426D01*
G01X5759791Y-3265623D02*
G01X5675213Y-3265623D01*
G01X5758357Y-3391772D02*
G01X5675213Y-3391772D01*
G01X5832899Y-3552325D02*
G01X5832899Y-3499285D01*
G01X5909158Y-3423026D01*
G01X5909158Y-3416357D01*
G01X5925502Y-3400014D01*
G01X5932171Y-3400014D01*
G01X5940413Y-3391772D01*
G01X5861570Y-3113671D02*
G01X6042192Y-3113671D01*
G01X6056527Y-3128006D01*
G01X5678080Y-3116538D02*
G01X5604972Y-3116538D01*
G54D52*
G01X6440946Y-3742504D02*
G01X6440946Y-3741907D01*
G01X6440946Y-3742504D02*
G01X6440952Y-3741901D01*
G01X6440979Y-3741874D02*
G01X6441305Y-3741548D01*
G54D51*
G01X5913495Y-3722196D02*
G01X6429598Y-3722196D01*
G01X6430793Y-3723390D01*
G01X6326624Y-3652671D02*
G01X6374324Y-3652671D01*
G01X6375279Y-3651715D01*
G01X6835042Y-3322777D02*
G01X6835042Y-3233900D01*
G01X6836476Y-3232466D01*
G01X6843643Y-3413089D02*
G01X6766234Y-3490498D01*
G01X6695992Y-3490498D01*
G01X7355532Y-3096974D02*
G01X7397661Y-3096974D01*
G01X4099638Y-1993124D02*
G01X4099638Y-2011350D01*
G01X4155986Y-2067698D01*
G01X2535857Y-2865376D02*
G01X2462748Y-2938485D01*
G01X2421893Y-2938485D01*
G01X7158986Y-3296086D02*
G01X7158986Y-3372062D01*
G01X7158512Y-3372536D01*
G01X7369711Y-3245913D02*
G01X7421318Y-3245913D01*
G01X7513062Y-3228711D02*
G01X7439953Y-3228711D01*
G01X7437086Y-3231578D01*
G01X7619142Y-3114030D02*
G01X7669315Y-3164203D01*
G01X7670748Y-3164203D01*
G01X7613408Y-3217243D02*
G01X7662147Y-3168503D01*
G01X7665014Y-3168503D01*
G01X7503028Y-2982147D02*
G01X7515930Y-2995049D01*
G01X7515930Y-3081059D01*
G01X7209158Y-2979280D02*
G01X7209158Y-2946755D01*
G01X7183970Y-2921566D01*
G01X7148951Y-2995049D02*
G01X7117414Y-2995049D01*
G01X7048605Y-2926241D01*
G01X7397661Y-3096974D02*
G01X7444628Y-3050007D01*
G01X7444628Y-2960652D01*
G01X7375445Y-3046297D02*
G01X7375445Y-2994690D01*
G01X7361111Y-2980355D01*
G01X7055490Y-3020313D02*
G01X7003884Y-2968709D01*
G01X7055490Y-3047073D02*
G01X7055490Y-3020313D01*
G01X7049173Y-3096948D02*
G01X7031007Y-3096948D01*
G01X6996977Y-3062917D01*
G01X6996977Y-3061331D01*
G01X6973030Y-3037385D01*
G01X7050128Y-3097903D02*
G01X7049173Y-3096948D01*
G01X6973030Y-3037385D02*
G01X6973030Y-3034518D01*
G54D52*
G01X7044305Y-3290113D02*
G01X7028536Y-3305882D01*
G01X7028536Y-3318305D01*
G01X7052907Y-3202191D02*
G01X7044305Y-3202190D01*
G01X7044305Y-3290113D01*
G01X7307205Y-3311974D02*
G01X7316761Y-3302417D01*
G01X7215460Y-3309107D02*
G01X7218327Y-3311974D01*
G01X7307205Y-3311974D01*
G54D51*
G01X7444628Y-2960652D02*
G01X7311541Y-2827566D01*
G01X6813988Y-3141506D02*
G01X6818288Y-3145806D01*
G01X7034748Y-3145806D01*
G01X3540807Y-3182361D02*
G01X3609616Y-3251169D01*
G01X3267723Y-3171610D02*
G01X3218267Y-3122154D01*
G01X3549408Y-3324278D02*
G01X3611766Y-3261921D01*
G01X3611766Y-3251169D02*
G01X3616066Y-3251169D01*
G01X2414998Y-3947273D02*
G01X2538369Y-3947273D01*
G01X4113169Y-3961787D02*
G01X3960769Y-3961787D01*
G01X5792257Y-3198085D02*
G01X5541393Y-3198085D01*
G01X2543028Y-3121033D02*
G01X2465619Y-3198443D01*
G01X2454868Y-3198443D01*
G01X5557381Y-3333671D02*
G01X5560857Y-3330195D01*
G01X5801273Y-3330195D01*
G01X5837711Y-3366634D01*
G01X5837711Y-3368712D01*
G01X5833252Y-3248934D02*
G01X5818528Y-3234211D01*
G01X5818528Y-3219139D01*
G01X5797354Y-3197965D01*
G01X5794388Y-3197965D01*
G01X4170122Y-3705129D02*
G01X4281935Y-3593315D01*
G01X4435799Y-3594271D02*
G01X4523721Y-3594271D01*
G01X4524676Y-3593315D01*
G54D52*
G01X4160963Y-3832950D02*
G01X4255893Y-3832950D01*
G01X4256530Y-3833587D01*
G01X4347001Y-3757133D02*
G01X4273732Y-3830402D01*
G01X4347638Y-3904307D02*
G01X4332984Y-3904307D01*
G01X4259716Y-3831039D01*
G54D51*
G01X4184536Y-3964196D02*
G01X4255256Y-3964196D01*
G01X4278829Y-3987769D01*
G01X4423614Y-3987769D01*
G01X4493856Y-3917527D01*
G01X4493537Y-3759045D02*
G01X4493856Y-3759363D01*
G01X4493856Y-3917527D01*
G01X4528419Y-3662203D02*
G01X4396537Y-3662203D01*
G01X4912600Y-4046384D02*
G01X4563930Y-3697714D01*
G01X4563930Y-3697316D01*
G01X4547587Y-3680973D01*
G01X4547189Y-3680973D01*
G01X4528419Y-3662203D01*
G01X4396537Y-3662203D02*
G01X4346364Y-3612030D01*
G01X4346364Y-3593315D01*
G01X4346364Y-3587661D01*
G01X4281935Y-3593315D02*
G01X4346364Y-3593315D01*
G01X4135638Y-3580852D02*
G01X4244053Y-3580852D01*
G01X4267189Y-3557715D01*
G01X4272738Y-3557715D01*
G01X4438825Y-3391628D02*
G01X5012946Y-3391628D01*
G01X5595667Y-2808907D01*
G01X5604268Y-2808907D01*
G01X4272738Y-3557715D02*
G01X4438825Y-3391628D01*
G01X4185094Y-3438934D02*
G01X4341173Y-3438934D01*
G01X4424079Y-3356028D01*
G01X4995744Y-3356028D01*
G01X4167892Y-3320670D02*
G01X4168133Y-3320428D01*
G01X4980998Y-3320428D01*
G01X5200019Y-2746549D02*
G01X5339786Y-2746549D01*
G01X5352688Y-2733647D01*
G01X5698880Y-2217584D02*
G01X5563413Y-2217584D01*
G01X5561263Y-2215434D01*
G01X2364178Y-2290693D02*
G01X2364178Y-2155943D01*
G01X2298237Y-2090001D01*
G01X2474558Y-1963853D02*
G01X2576337Y-1963853D01*
G01X2596407Y-1943784D01*
G01X5064884Y-1284940D02*
G01X5064884Y-1329379D01*
G01X5011844Y-1382419D01*
G01X5517045Y-1590026D02*
G01X5514178Y-1592893D01*
G01X5514178Y-1701699D01*
G01X6598513Y-3011706D02*
G01X6612258Y-2997961D01*
G01X6612258Y-2906575D01*
G01X7003884Y-2968709D02*
G01X6875345Y-2968709D01*
G01X6784079Y-3059975D01*
G01X6780255Y-3059975D01*
G01X7257714Y-3009618D02*
G01X7258974Y-3008358D01*
G01X7258974Y-2907366D01*
G01X7214774Y-2863166D01*
G01X6911683Y-2863166D01*
G01X6873959Y-2900890D01*
G01X6748599Y-2900890D01*
G01X6723199Y-2926290D01*
G01X7311541Y-2827566D02*
G01X6701821Y-2827566D01*
G01X6676341Y-2802086D01*
G54D52*
G01X5625640Y-1433225D02*
G01X5624445Y-1434420D01*
G01X6111087Y-2640965D02*
G01X6106156Y-2636033D01*
G54D51*
G01X6424206Y-2742591D02*
G01X6500182Y-2742591D01*
G01X6504482Y-2738290D01*
G01X6322426Y-2736857D02*
G01X6196277Y-2736857D01*
G01X2433365Y-3312407D02*
G01X2474220Y-3312407D01*
G01X2552705Y-3233922D01*
G01X2542819Y-2746006D02*
G01X2542819Y-2751203D01*
G01X2471627Y-2822395D01*
G01X2444390Y-2822395D01*
G01X2403616Y-3073414D02*
G01X2445546Y-3073414D01*
G01X2542308Y-2976652D01*
G01X3089703Y-1450566D02*
G01X3292903Y-1247366D01*
G01X3447722Y-1247366D01*
G01X2415595Y-1569905D02*
G01X2770388Y-1569905D01*
G01X2773614Y-1566680D01*
G01X3247747Y-882896D02*
G01X3231620Y-899023D01*
G01X3396115Y-1179632D02*
G01X3479976Y-1095772D01*
G01X2657500Y-876445D02*
G01X2883277Y-876445D01*
G01X3186465Y-1179632D01*
G01X3396115Y-1179632D01*
G01X3244522Y-918375D02*
G01X3244522Y-1066744D01*
G01X3250972Y-1073194D01*
G01X3325873Y-1407561D02*
G01X3325873Y-1427630D01*
G01X3450589Y-1552345D01*
G01X4325604Y-1057165D02*
G01X4256667Y-1057165D01*
G01X4214428Y-1099404D01*
G01X4003910Y-983499D02*
G01X4003910Y-984694D01*
G01X3952355Y-1036249D01*
G01X4003312Y-1111863D02*
G01X3952355Y-1060905D01*
G01X3952355Y-1036249D01*
G01X4310264Y-905482D02*
G01X4281594Y-905482D01*
G01X4267258Y-891147D01*
G01X3901236Y-941559D02*
G01X3878820Y-963975D01*
G01X3824542Y-1388814D02*
G01X3821676Y-1388814D01*
G01X3878820Y-963975D02*
G01X3878820Y-1285582D01*
G01X3876910Y-1287492D01*
G01X3876910Y-1336446D01*
G01X3824542Y-1388814D01*
G01X4314299Y-956505D02*
G01X4241243Y-956505D01*
G01X4231899Y-947160D02*
G01X4199618Y-947160D01*
G01X4197820Y-947160D02*
G01X4197820Y-945233D01*
G01X4241243Y-956505D02*
G01X4231899Y-947160D01*
G01X4319702Y-1005463D02*
G01X4225000Y-1005463D01*
G01X4207260Y-1023203D01*
G01X6597847Y-3242457D02*
G01X6597847Y-3311265D01*
G01X4712334Y-1059131D02*
G01X4712334Y-1100756D01*
G01X4712759Y-1101181D01*
G01X2335306Y-1980652D02*
G01X2364581Y-1980652D01*
G01X2389981Y-1955252D01*
G01X2197100Y-2120900D02*
G01X2197100Y-2118858D01*
G01X2225957Y-2090001D01*
G01X2298237Y-2090001D02*
G01X2225957Y-2090001D01*
G01X2196457Y-2090001D01*
G01X2335306Y-1980652D02*
G01X2225957Y-2090001D01*
G01X3586955Y-2131238D02*
G01X3579264Y-2131238D01*
G01X3706373Y-2157131D02*
G01X3706373Y-2121210D01*
G01X3819924Y-2007659D01*
G01X3855845Y-2007659D01*
G01X3857022Y-2008836D01*
G01X3842899Y-1867603D02*
G01X3842899Y-1875294D01*
G01X3586955Y-2131238D01*
G01X3969534Y-1993176D02*
G01X4085183Y-1994542D01*
G01X4086789Y-1992973D01*
G01X3956685Y-2005724D02*
G01X3969534Y-1993176D01*
G01X4086789Y-1992973D02*
G01X4099638Y-1993124D01*
G01X3957215Y-1868867D02*
G01X3963858Y-1875509D01*
G01X4114822Y-1875509D01*
G01X4121464Y-1868867D01*
G01X3448411Y-2002442D02*
G01X3456953Y-1993900D01*
G01X6332461Y-2884871D02*
G01X6308091Y-2909241D01*
G01X6332461Y-2749759D02*
G01X6332461Y-2884871D01*
G01X5384218Y-1477204D02*
G01X5384218Y-1599480D01*
G01X5424858Y-1460370D02*
G01X5424858Y-1619929D01*
G01X5017286Y-2333698D02*
G01X5086055Y-2333698D01*
G01X4765894Y-2336258D02*
G01X4618824Y-2336258D01*
G01X5210035Y-1892117D02*
G01X4765894Y-2336258D01*
G01X5384218Y-1599480D02*
G01X4732454Y-2251244D01*
G01X4439065Y-2251244D01*
G01X4404890Y-2285418D01*
G01X5424858Y-1619929D02*
G01X4749393Y-2295393D01*
G01X4599270Y-2295393D01*
G01X4449839Y-2444824D01*
G01X4413918Y-2444824D01*
G01X4391199Y-2628423D02*
G01X4391199Y-2676477D01*
G01X5230112Y-1934737D02*
G01X4787726Y-2377122D01*
G01X4642499Y-2377122D01*
G01X4391199Y-2628423D01*
G01X4802472Y-2419742D02*
G01X5245602Y-1976612D01*
G01X4820728Y-2467626D02*
G01X5269123Y-2019231D01*
G01X4660462Y-2419742D02*
G01X4802472Y-2419742D01*
G01X4840371Y-2510613D02*
G01X5017286Y-2333698D01*
G01X6599500Y-2406002D02*
G01X6745099Y-2551601D01*
G01X6737243Y-2274747D02*
G01X6650362Y-2361627D01*
G01X6578274Y-2449161D02*
G01X6726843Y-2597730D01*
G01X7021605Y-2597730D01*
G01X7134737Y-2484599D01*
G01X7134737Y-2319913D01*
G01X7160137Y-2294513D01*
G01X7195617Y-2294512D01*
G01X6745099Y-2551601D02*
G01X7001594Y-2551601D01*
G01X7088607Y-2464588D01*
G01X7088607Y-2241519D01*
G01X6566480Y-2308878D02*
G01X6173935Y-2308878D01*
G01X5757174Y-1892117D01*
G01X5210035Y-1892117D01*
G01X5269123Y-2019231D02*
G01X5710266Y-2019231D01*
G01X6140197Y-2449161D01*
G01X6578274Y-2449161D01*
G01X5245602Y-1976612D02*
G01X5724159Y-1976612D01*
G01X6153550Y-2406002D01*
G01X6599500Y-2406002D01*
G01X6650362Y-2361627D02*
G01X6168296Y-2361627D01*
G01X5741404Y-1934737D01*
G01X5230112Y-1934737D01*
G01X3910787Y-1774499D02*
G01X4212761Y-1472525D01*
G01X3931254Y-1811397D02*
G01X4227507Y-1515145D01*
G01X4470556Y-1515145D01*
G01X4597109Y-1388591D01*
G01X4597109Y-1232720D01*
G01X4212761Y-1472525D02*
G01X4455834Y-1472525D01*
G01X4494570Y-1433789D01*
G01X4494570Y-1229335D01*
G01X3895639Y-1732282D02*
G01X4193203Y-1434718D01*
G01X3792501Y-1732282D02*
G01X3895639Y-1732282D01*
G01X3269515Y-1950656D02*
G01X3635477Y-1950656D01*
G01X3811634Y-1774499D01*
G01X3910787Y-1774499D01*
G01X2896031Y-1994988D02*
G01X2986607Y-1904412D01*
G01X3620370Y-1904412D01*
G01X3792501Y-1732282D01*
G01X3456953Y-1993900D02*
G01X3649598Y-1993900D01*
G01X3832101Y-1811397D01*
G01X3931254Y-1811397D01*
G01X4126006Y-1201948D02*
G01X4100606Y-1227348D01*
G01X4100606Y-1234788D01*
G01X4312979Y-1156325D02*
G01X4292536Y-1156325D01*
G01X4246913Y-1201948D01*
G01X4126006Y-1201948D01*
G01X4289894Y-1106529D02*
G01X4238619Y-1157804D01*
G01X4147221Y-1157804D01*
G01X4099065Y-1109648D01*
G01X3420909Y-3181604D02*
G01X3480430Y-3122082D01*
G01X3488111Y-3122082D01*
G01X3418242Y-3049044D02*
G01X3418242Y-3052214D01*
G01X3488111Y-3122082D01*
G01X3538657Y-3049044D02*
G01X3538657Y-3071536D01*
G01X3488111Y-3122082D01*
G01X3276325Y-3182361D02*
G01X3276325Y-3177989D01*
G01X3349566Y-3104748D01*
G01X3274174Y-3051195D02*
G01X3296013Y-3051195D01*
G01X3349566Y-3104748D01*
G01X3394589Y-3149771D02*
G01X3349566Y-3104748D01*
G01X3276325Y-3317828D02*
G01X3276325Y-3304947D01*
G01X3560160Y-3180211D02*
G01X3605098Y-3135272D01*
G01X3605098Y-3109779D01*
G01X3318776Y-3253917D02*
G01X3337232Y-3253917D01*
G01X3377232Y-3293916D01*
G01X3380351Y-3198763D02*
G01X3373929Y-3198763D01*
G01X3318776Y-3253917D01*
G01X3261273Y-3324278D02*
G01X3219257Y-3282263D01*
G01X3219257Y-3253123D01*
G01X3518401Y-3211242D02*
G01X3518401Y-3222941D01*
G01X3477978Y-3263364D01*
G01X3477978Y-3271251D01*
G01X3411791Y-3193112D02*
G01X3411791Y-3205064D01*
G01X3477978Y-3271251D01*
G01X5678439Y-2693854D02*
G01X5711782Y-2727196D01*
G01X5531381Y-2693854D02*
G01X5678439Y-2693854D01*
G01X4980998Y-3320428D02*
G01X5414516Y-2886910D01*
G01X5414516Y-2731254D01*
G01X4995744Y-3356028D02*
G01X5450116Y-2901656D01*
G01X5450116Y-2775120D01*
G01X5531381Y-2693854D01*
G01X5414516Y-2731254D02*
G01X5567634Y-2578135D01*
G01X5715642Y-2578135D02*
G01X5750739Y-2613233D01*
G01X5806393Y-2613233D01*
G01X5715642Y-2578135D02*
G01X5567634Y-2578135D01*
G01X5210770Y-2234786D02*
G01X5318387Y-2342403D01*
G01X5318387Y-2344602D01*
G01X5387092Y-2211133D02*
G01X5333335Y-2157376D01*
G01X5387092Y-2367263D02*
G01X5387092Y-2211133D01*
G01X5204632Y-2549722D02*
G01X5387092Y-2367263D01*
G01X4150689Y-3191654D02*
G01X4363158Y-3191654D01*
G01X4159291Y-3077690D02*
G01X4184691Y-3052290D01*
G01X4434318Y-3052290D01*
G01X4387471Y-2807225D02*
G01X4407834Y-2807225D01*
G01X4397813Y-2946678D02*
G01X4489826Y-2854664D01*
G01X4407834Y-2807225D02*
G01X4448569Y-2766490D01*
G01X4448569Y-2631635D01*
G01X4660462Y-2419742D01*
G01X4715255Y-2549722D02*
G01X5204632Y-2549722D01*
G01X4363158Y-3191654D02*
G01X4578742Y-2976071D01*
G01X4578742Y-2686235D01*
G01X4715255Y-2549722D01*
G01X4434318Y-3052290D02*
G01X4535631Y-2950977D01*
G01X4535631Y-2666033D01*
G01X4691051Y-2510613D01*
G01X4840371Y-2510613D01*
G01X4489826Y-2854664D02*
G01X4489826Y-2649336D01*
G01X4671536Y-2467626D01*
G01X4820728Y-2467626D01*
G01X4298181Y-2819981D02*
G01X4160420Y-2819981D01*
G01X4156593Y-2816154D01*
G54D53*
G01X6873737Y-3638645D02*
G01X6824485Y-3589393D01*
G01X6754630Y-3589393D02*
G01X6757913Y-3592676D01*
G01X6824485Y-3589393D02*
G01X6754630Y-3589393D01*
G01X6721016Y-3589393D01*
G01X6693300Y-3589393D01*
G01X6689918Y-3586011D02*
G01X6689918Y-3499038D01*
G01X6634873Y-3589355D02*
G01X6693261Y-3589355D01*
G01X6720978Y-3589355D01*
G01X6693261Y-3589355D02*
G01X6689918Y-3586011D01*
G01X6632027Y-3592590D02*
G01X6632027Y-3592201D01*
G01X6634873Y-3589355D01*
G54D52*
G01X6442288Y-3604914D02*
G01X6380142Y-3542768D01*
G01X6440979Y-3741874D02*
G01X6442288Y-3604914D01*
G54D51*
G01X6554484Y-3654483D02*
G01X6615712Y-3654483D01*
G01X6631869Y-3670641D01*
G54D52*
G01X6440946Y-3742504D02*
G01X6440946Y-3772486D01*
G01X6382921Y-3830512D01*
G54D51*
G01X5150761Y-1221589D02*
G01X5150761Y-1252720D01*
G01X5170998Y-1201352D02*
G01X5150761Y-1221589D01*
G01X5170998Y-1185996D02*
G01X5170998Y-1201352D01*
G01X5178378Y-1181693D02*
G01X5170998Y-1185996D01*
G01X5240496Y-1119575D02*
G01X5178378Y-1181693D01*
G54D52*
G01X5625640Y-1305404D02*
G01X5625640Y-1433225D01*
G54D51*
G01X5528193Y-1119575D02*
G01X5240496Y-1119575D01*
G01X5617208Y-1226303D02*
G01X5617208Y-1219959D01*
G01X5598602Y-1201352D01*
G01X5598602Y-1188044D01*
G54D52*
G01X6111087Y-3104625D02*
G01X6111087Y-2640965D01*
G54D51*
G01X5597632Y-1189013D02*
G01X5528193Y-1119575D01*
G04 Track End*

M02*

