G04 Layer: InnerLayer1*
G04 EasyEDA Pro v2.2.45.4, 2026-02-25 10:19:21*
G04 Gerber Generator version 0.3*
G04 Scale: 100 percent, Rotated: No, Reflected: No*
G04 Dimensions in millimeters*
G04 Leading zeros omitted, absolute positions, 4 integers and 5 decimals*
G04 Generated by one-click*
%FSLAX45Y45*%
%MOMM*%
%ADD10C,2.0*%
%ADD11C,1.2*%
%ADD12R,1.2X1.2*%
%ADD13O,1.0X1.8*%
%ADD14O,1.0X2.1*%
%ADD15R,1.7X1.7*%
%ADD16C,1.7*%
%ADD17C,0.6113*%
%ADD18C,0.61*%
G75*


G04 PlaneZone Start*
G36*
G01X2683025Y-1801853D02*
G01X2683170Y-1790832D01*
G03X2784324Y-1793262I51134J21970D01*
G03X2884364Y-1793262I50020J24400D01*
G03X2984404Y-1793262I50020J24400D01*
G03X3084444Y-1793262I50020J24400D01*
G03X3179149Y-1802037I50020J24400D01*
G03X3204355Y-1822916I25206J4775D01*
G01X3667134Y-1822916D01*
G03X3692788Y-1797262I0J25654D01*
G01X3692788Y-698754D01*
G01X4916541Y-698754D01*
G03X4877143Y-765155I36255J-66401D01*
G01X4877143Y-845155D01*
G03X5028451Y-845155I75654J0D01*
G01X5028451Y-765155D01*
G03X4989052Y-698754I-75654J0D01*
G01X5780548Y-698754D01*
G03X5741149Y-765155I36255J-66401D01*
G01X5741149Y-845155D01*
G03X5892457Y-845155I75654J0D01*
G01X5892457Y-765155D01*
G03X5853059Y-698754I-75654J0D01*
G01X10466892Y-698754D01*
G02X10541238Y-773100I0J-74346D01*
G01X10542122Y-972353D01*
G01X7747599Y-969357D01*
G03X7721917Y-995067I-27J-25654D01*
G01X7728168Y-3840738D01*
G03X7753857Y-3866336I25654J56D01*
G01X10538327Y-3862484D01*
G01X10541238Y-4073107D01*
G02X10466892Y-4147446I-74346J7D01*
G01X2166892Y-4147446D01*
G02X2092546Y-4073100I0J74346D01*
G01X2093682Y-1826885D01*
G01X2657361Y-1827170D01*
G03X2683025Y-1801853I13J25654D01*
G37*
%LPC*%
G36*
G01X2111446Y-1930400D02*
G03X2282754Y-1930400I85654J0D01*
G03X2111446Y-1930400I-85654J0D01*
G37*
G36*
G01X2479703Y-2746006D02*
G03X2592011Y-2746006I56154J0D01*
G03X2479703Y-2746006I-56154J0D01*
G37*
G36*
G01X2535857Y-3032806D02*
G03X2543452Y-2921014I0J56154D01*
G03X2535857Y-2809222I-7595J55638D01*
G03X2528262Y-2921014I0J-56154D01*
G03X2535857Y-3032806I7595J-55638D01*
G37*
G36*
G01X2479703Y-3121033D02*
G03X2592011Y-3121033I56154J0D01*
G03X2479703Y-3121033I-56154J0D01*
G37*
G36*
G01X2479703Y-3233922D02*
G03X2592011Y-3233922I56154J0D01*
G03X2479703Y-3233922I-56154J0D01*
G37*
G36*
G01X2540253Y-1943784D02*
G03X2652561Y-1943784I56154J0D01*
G03X2540253Y-1943784I-56154J0D01*
G37*
G36*
G01X3792611Y-1335527D02*
G03X3796959Y-1166181I-10564J85000D01*
G01X3842047Y-1166181D01*
G03X3867701Y-1140527I0J25654D01*
G01X3867701Y-1020527D01*
G03X3842047Y-994873I-25654J0D01*
G01X3722047Y-994873D01*
G03X3696393Y-1020527I0J-25654D01*
G01X3696393Y-1140527D01*
G03X3722047Y-1166181I25654J0D01*
G01X3767134Y-1166181D01*
G03X3771483Y-1335527I14912J-84346D01*
G03X3765687Y-1504604I10564J-85000D01*
G03X3790819Y-1672945I22157J-82739D01*
G03X3804204Y-1503266I-2975J85602D01*
G03X3792611Y-1335527I-22157J82739D01*
G37*
G36*
G01X3845082Y-941559D02*
G03X3957390Y-941559I56154J0D01*
G03X3845082Y-941559I-56154J0D01*
G37*
G36*
G01X3972201Y-1800866D02*
G03X4084509Y-1800866I56154J0D01*
G03X3972201Y-1800866I-56154J0D01*
G37*
G36*
G01X4099832Y-2067698D02*
G03X4212140Y-2067698I56154J0D01*
G03X4099832Y-2067698I-56154J0D01*
G37*
G36*
G01X4147437Y-920436D02*
G03X4162691Y-989043I50382J-24797D01*
G03X4151358Y-1028520I44568J-34161D01*
G03X4169930Y-1065153I55902J5317D01*
G03X4219688Y-1155311I44499J-34251D01*
G03X4251759Y-1057455I-5260J55907D01*
G03X4263014Y-1016511I-44499J34251D01*
G03X4242388Y-979394I-55754J-6693D01*
G03X4253972Y-945707I-44569J34160D01*
G03X4311560Y-856641I13287J54560D01*
G03X4211106Y-890674I-44301J-34506D01*
G03X4147437Y-920436I-13287J-54560D01*
G37*
G36*
G01X4203562Y-3829127D02*
G03X4315870Y-3829127I56154J0D01*
G03X4203562Y-3829127I-56154J0D01*
G37*
G36*
G01X4217071Y-778133D02*
G03X4329379Y-778133I56154J0D01*
G03X4217071Y-778133I-56154J0D01*
G37*
G36*
G01X4380563Y-2080458D02*
G03X4364953Y-1972058I-20117J52427D01*
G03X4304043Y-1881041I-40793J38590D01*
G03X4319653Y-1989441I20117J-52427D01*
G03X4380563Y-2080458I40793J-38590D01*
G37*
G36*
G01X4290691Y-1704764D02*
G03X4403000Y-1704764I56154J0D01*
G03X4290691Y-1704764I-56154J0D01*
G37*
G36*
G01X4468522Y-3593315D02*
G03X4580830Y-3593315I56154J0D01*
G03X4468522Y-3593315I-56154J0D01*
G37*
G36*
G01X4618493Y-1292741D02*
G03X4730802Y-1292741I56154J0D01*
G03X4618493Y-1292741I-56154J0D01*
G37*
G36*
G01X4784803Y-1063399D02*
G03X4808862Y-956506I0J56154D01*
G03X4784803Y-849612I-24058J50739D01*
G03X4760745Y-956506I0J-56154D01*
G03X4784803Y-1063399I24058J-50739D01*
G37*
G36*
G01X5028451Y-1275140D02*
G01X5028451Y-1165140D01*
G03X4877143Y-1165140I-75654J0D01*
G01X4877143Y-1275140D01*
G03X5028451Y-1275140I75654J0D01*
G37*
G36*
G01X4924761Y-1741549D02*
G03X5037069Y-1741549I56154J0D01*
G03X4924761Y-1741549I-56154J0D01*
G37*
G36*
G01X5006737Y-4045528D02*
G03X5178045Y-4045528I85654J0D01*
G03X5006737Y-4045528I-85654J0D01*
G37*
G36*
G01X5037646Y-1170203D02*
G03X5153952Y-1170203I58153J0D01*
G03X5037646Y-1170203I-58153J0D01*
G37*
G36*
G01X5263410Y-2624985D02*
G03X5394718Y-2624985I65654J0D01*
G03X5263410Y-2624985I-65654J0D01*
G37*
G36*
G01X5485239Y-3198085D02*
G03X5597547Y-3198085I56154J0D01*
G03X5485239Y-3198085I-56154J0D01*
G37*
G36*
G01X5488644Y-3331759D02*
G03X5600952Y-3331759I56154J0D01*
G03X5488644Y-3331759I-56154J0D01*
G37*
G36*
G01X5532099Y-2356296D02*
G03X5663407Y-2356296I65654J0D01*
G03X5532099Y-2356296I-65654J0D01*
G37*
G36*
G01X5568291Y-1434420D02*
G03X5680599Y-1434420I56154J0D01*
G03X5568291Y-1434420I-56154J0D01*
G37*
G36*
G01X5615648Y-1170203D02*
G03X5731955Y-1170203I58153J0D01*
G03X5615648Y-1170203I-58153J0D01*
G37*
G36*
G01X5619059Y-3391772D02*
G03X5731368Y-3391772I56154J0D01*
G03X5619059Y-3391772I-56154J0D01*
G37*
G36*
G01X5619059Y-3265623D02*
G03X5731368Y-3265623I56154J0D01*
G03X5619059Y-3265623I-56154J0D01*
G37*
G36*
G01X5892457Y-1275140D02*
G01X5892457Y-1165140D01*
G03X5741149Y-1165140I-75654J0D01*
G01X5741149Y-1275140D01*
G03X5892457Y-1275140I75654J0D01*
G37*
G36*
G01X5879496Y-3895538D02*
G03X6130804Y-3895538I125654J0D01*
G03X5879496Y-3895538I-125654J0D01*
G37*
G36*
G01X6050002Y-2636033D02*
G03X6162310Y-2636033I56154J0D01*
G03X6050002Y-2636033I-56154J0D01*
G37*
G36*
G01X6100167Y-3072210D02*
G03X6212475Y-3072210I56154J0D01*
G03X6100167Y-3072210I-56154J0D01*
G37*
G36*
G01X6208742Y-2186868D02*
G03X6321050Y-2186868I56154J0D01*
G03X6208742Y-2186868I-56154J0D01*
G37*
G36*
G01X6251937Y-2909241D02*
G03X6364245Y-2909241I56154J0D01*
G03X6251937Y-2909241I-56154J0D01*
G37*
G36*
G01X6254658Y-3892926D02*
G03X6505966Y-3892926I125654J0D01*
G03X6254658Y-3892926I-125654J0D01*
G37*
G36*
G01X6360110Y-3344304D02*
G03X6472418Y-3344304I56154J0D01*
G03X6360110Y-3344304I-56154J0D01*
G37*
G36*
G01X6376124Y-1029805D02*
G03X6527432Y-1029805I75654J0D01*
G03X6376124Y-1029805I-75654J0D01*
G37*
G36*
G01X6575873Y-3592590D02*
G03X6688181Y-3592590I56154J0D01*
G03X6575873Y-3592590I-56154J0D01*
G37*
G36*
G01X6620187Y-2802086D02*
G03X6732495Y-2802086I56154J0D01*
G03X6620187Y-2802086I-56154J0D01*
G37*
G36*
G01X6667045Y-2926290D02*
G03X6779353Y-2926290I56154J0D01*
G03X6667045Y-2926290I-56154J0D01*
G37*
G36*
G01X6689524Y-2460966D02*
G03X6801832Y-2460966I56154J0D01*
G03X6689524Y-2460966I-56154J0D01*
G37*
G36*
G01X6912584Y-3967258D02*
G03X6691276Y-3967258I-110654J0D01*
G03X6912584Y-3967258I110654J0D01*
G37*
G36*
G01X6701759Y-3592676D02*
G03X6814067Y-3592676I56154J0D01*
G03X6701759Y-3592676I-56154J0D01*
G37*
G36*
G01X6835456Y-3193394D02*
G03X6829224Y-3087458I-21468J51888D01*
G03X6758787Y-3008086I-48969J27483D01*
G03X6765019Y-3114022I21468J-51888D01*
G03X6835456Y-3193394I48969J-27483D01*
G37*
G36*
G01X6817583Y-3638645D02*
G03X6929891Y-3638645I56154J0D01*
G03X6817583Y-3638645I-56154J0D01*
G37*
G36*
G01X6818203Y-2194191D02*
G03X6930511Y-2194191I56154J0D01*
G03X6818203Y-2194191I-56154J0D01*
G37*
G36*
G01X7166584Y-3967258D02*
G03X6945276Y-3967258I-110654J0D01*
G03X7166584Y-3967258I110654J0D01*
G37*
G36*
G01X6992451Y-2926241D02*
G03X7104759Y-2926241I56154J0D01*
G03X6992451Y-2926241I-56154J0D01*
G37*
G36*
G01X7102358Y-3372536D02*
G03X7214666Y-3372536I56154J0D01*
G03X7102358Y-3372536I-56154J0D01*
G37*
G36*
G01X7127816Y-2921566D02*
G03X7240124Y-2921566I56154J0D01*
G03X7127816Y-2921566I-56154J0D01*
G37*
G36*
G01X7147748Y-2460966D02*
G03X7260056Y-2460966I56154J0D01*
G03X7147748Y-2460966I-56154J0D01*
G37*
G36*
G01X7176148Y-1029805D02*
G03X7327456Y-1029805I75654J0D01*
G03X7176148Y-1029805I-75654J0D01*
G37*
G36*
G01X7420584Y-3967258D02*
G03X7199276Y-3967258I-110654J0D01*
G03X7420584Y-3967258I110654J0D01*
G37*
G36*
G01X7223269Y-3501320D02*
G03X7335577Y-3501320I56154J0D01*
G03X7223269Y-3501320I-56154J0D01*
G37*
G36*
G01X7258577Y-3774371D02*
G03X7370885Y-3774371I56154J0D01*
G03X7258577Y-3774371I-56154J0D01*
G37*
G36*
G01X7378065Y-3233012D02*
G03X7490373Y-3233012I56154J0D01*
G03X7378065Y-3233012I-56154J0D01*
G37*
G36*
G01X7446874Y-2982147D02*
G03X7559182Y-2982147I56154J0D01*
G03X7446874Y-2982147I-56154J0D01*
G37*
G36*
G01X7478930Y-3856604D02*
G03X7453276Y-3882258I0J-25654D01*
G01X7453276Y-4052258D01*
G03X7478930Y-4077912I25654J0D01*
G01X7648930Y-4077912D01*
G03X7674584Y-4052258I0J25654D01*
G01X7674584Y-3882258D01*
G03X7648930Y-3856604I-25654J0D01*
G01X7478930Y-3856604D01*
G37*
%LPD*%
G36*
G01X6104896Y-3908238D02*
G02X6104896Y-3882838I0J12700D01*
G01X6130804Y-3882838D01*
G02X6130804Y-3908238I0J-12700D01*
G01X6104896Y-3908238D01*
G37*
G36*
G01X7453276Y-3979958D02*
G02X7453276Y-3954558I0J12700D01*
G01X7479184Y-3954558D01*
G02X7479184Y-3979958I0J-12700D01*
G01X7453276Y-3979958D01*
G37*
G36*
G01X4877143Y-1232840D02*
G02X4877143Y-1207440I0J12700D01*
G01X4903051Y-1207440D01*
G02X4903051Y-1232840I0J-12700D01*
G01X4877143Y-1232840D01*
G37*
G36*
G01X5152137Y-4058228D02*
G02X5152137Y-4032828I0J12700D01*
G01X5178045Y-4032828D01*
G02X5178045Y-4058228I0J-12700D01*
G01X5152137Y-4058228D01*
G37*
G36*
G01X4877143Y-817855D02*
G02X4877143Y-792455I0J12700D01*
G01X4903051Y-792455D01*
G02X4903051Y-817855I0J-12700D01*
G01X4877143Y-817855D01*
G37*
G36*
G01X2256846Y-1943100D02*
G02X2256846Y-1917700I0J12700D01*
G01X2282754Y-1917700D01*
G02X2282754Y-1943100I0J-12700D01*
G01X2256846Y-1943100D01*
G37*
G36*
G01X2111446Y-1943100D02*
G02X2111446Y-1917700I0J12700D01*
G01X2137354Y-1917700D01*
G02X2137354Y-1943100I0J-12700D01*
G01X2111446Y-1943100D01*
G37*
G36*
G01X5002543Y-1232840D02*
G02X5002543Y-1207440I0J12700D01*
G01X5028451Y-1207440D01*
G02X5028451Y-1232840I0J-12700D01*
G01X5002543Y-1232840D01*
G37*
G36*
G01X5866549Y-1232840D02*
G02X5866549Y-1207440I0J12700D01*
G01X5892457Y-1207440D01*
G02X5892457Y-1232840I0J-12700D01*
G01X5866549Y-1232840D01*
G37*
G36*
G01X5741149Y-1232840D02*
G02X5741149Y-1207440I0J12700D01*
G01X5767057Y-1207440D01*
G02X5767057Y-1232840I0J-12700D01*
G01X5741149Y-1232840D01*
G37*
G36*
G01X5006737Y-4058228D02*
G02X5006737Y-4032828I0J12700D01*
G01X5032645Y-4032828D01*
G02X5032645Y-4058228I0J-12700D01*
G01X5006737Y-4058228D01*
G37*
G36*
G01X5866549Y-817855D02*
G02X5866549Y-792455I0J12700D01*
G01X5892457Y-792455D01*
G02X5892457Y-817855I0J-12700D01*
G01X5866549Y-817855D01*
G37*
G36*
G01X5741149Y-817855D02*
G02X5741149Y-792455I0J12700D01*
G01X5767057Y-792455D01*
G02X5767057Y-817855I0J-12700D01*
G01X5741149Y-817855D01*
G37*
G36*
G01X5002543Y-817855D02*
G02X5002543Y-792455I0J12700D01*
G01X5028451Y-792455D01*
G02X5028451Y-817855I0J-12700D01*
G01X5002543Y-817855D01*
G37*
G36*
G01X5879496Y-3908238D02*
G02X5879496Y-3882838I0J12700D01*
G01X5905404Y-3882838D01*
G02X5905404Y-3908238I0J-12700D01*
G01X5879496Y-3908238D01*
G37*
G36*
G01X7648676Y-3979958D02*
G02X7648676Y-3954558I0J12700D01*
G01X7674584Y-3954558D01*
G02X7674584Y-3979958I0J-12700D01*
G01X7648676Y-3979958D01*
G37*
G36*
G01X5105091Y-3985782D02*
G02X5079691Y-3985782I-12700J0D01*
G01X5079691Y-3959874D01*
G02X5105091Y-3959874I12700J0D01*
G01X5105091Y-3985782D01*
G37*
G36*
G01X5079691Y-4105274D02*
G02X5105091Y-4105274I12700J0D01*
G01X5105091Y-4131182D01*
G02X5079691Y-4131182I-12700J0D01*
G01X5079691Y-4105274D01*
G37*
G36*
G01X5804103Y-894900D02*
G02X5829503Y-894900I12700J0D01*
G01X5829503Y-920808D01*
G02X5804103Y-920808I-12700J0D01*
G01X5804103Y-894900D01*
G37*
G36*
G01X4940097Y-894900D02*
G02X4965497Y-894900I12700J0D01*
G01X4965497Y-920808D01*
G02X4940097Y-920808I-12700J0D01*
G01X4940097Y-894900D01*
G37*
G36*
G01X7551230Y-4052004D02*
G02X7576630Y-4052004I12700J0D01*
G01X7576630Y-4077912D01*
G02X7551230Y-4077912I-12700J0D01*
G01X7551230Y-4052004D01*
G37*
G36*
G01X7576630Y-3882512D02*
G02X7551230Y-3882512I-12700J0D01*
G01X7551230Y-3856604D01*
G02X7576630Y-3856604I12700J0D01*
G01X7576630Y-3882512D01*
G37*
G36*
G01X2209800Y-1870654D02*
G02X2184400Y-1870654I-12700J0D01*
G01X2184400Y-1844746D01*
G02X2209800Y-1844746I12700J0D01*
G01X2209800Y-1870654D01*
G37*
G36*
G01X4940097Y-1324886D02*
G02X4965497Y-1324886I12700J0D01*
G01X4965497Y-1350794D01*
G02X4940097Y-1350794I-12700J0D01*
G01X4940097Y-1324886D01*
G37*
G36*
G01X4965497Y-1115394D02*
G02X4940097Y-1115394I-12700J0D01*
G01X4940097Y-1089486D01*
G02X4965497Y-1089486I12700J0D01*
G01X4965497Y-1115394D01*
G37*
G36*
G01X5804103Y-1324886D02*
G02X5829503Y-1324886I12700J0D01*
G01X5829503Y-1350794D01*
G02X5804103Y-1350794I-12700J0D01*
G01X5804103Y-1324886D01*
G37*
G36*
G01X5829503Y-1115394D02*
G02X5804103Y-1115394I-12700J0D01*
G01X5804103Y-1089486D01*
G02X5829503Y-1089486I12700J0D01*
G01X5829503Y-1115394D01*
G37*
G36*
G01X2184400Y-1990146D02*
G02X2209800Y-1990146I12700J0D01*
G01X2209800Y-2016054D01*
G02X2184400Y-2016054I-12700J0D01*
G01X2184400Y-1990146D01*
G37*
G36*
G01X6017850Y-3795792D02*
G02X5992450Y-3795792I-12700J0D01*
G01X5992450Y-3769884D01*
G02X6017850Y-3769884I12700J0D01*
G01X6017850Y-3795792D01*
G37*
G36*
G01X5992450Y-3995284D02*
G02X6017850Y-3995284I12700J0D01*
G01X6017850Y-4021192D01*
G02X5992450Y-4021192I-12700J0D01*
G01X5992450Y-3995284D01*
G37*
G04 PlaneZone End*

G04 Pad Start*
G54D10*
G01X6380312Y-3892926D03*
G01X6005150Y-3895538D03*
G54D11*
G01X5092391Y-4045528D03*
G01X3477149Y-1416577D03*
G01X3477149Y-1246477D03*
G54D12*
G01X3477149Y-1076377D03*
G54D11*
G01X3477149Y-1586677D03*
G01X3787844Y-1587343D03*
G54D12*
G01X3782047Y-1080527D03*
G54D11*
G01X3782047Y-1250527D03*
G01X3782047Y-1420527D03*
G01X2197100Y-1930400D03*
G54D13*
G01X4952797Y-805155D03*
G01X5816803Y-805155D03*
G54D14*
G01X4952797Y-1220140D03*
G01X5816803Y-1220140D03*
G54D15*
G01X7563930Y-3967258D03*
G54D16*
G01X7309930Y-3967258D03*
G01X7055930Y-3967258D03*
G01X6801930Y-3967258D03*
G04 Pad End*

G04 Via Start*
G54D18*
G01X3952355Y-1036249D03*
G01X6757913Y-3592676D03*
G01X6873737Y-3638645D03*
G01X6632027Y-3592590D03*
G01X4028355Y-1800866D03*
G01X4155986Y-2067698D03*
G01X4324160Y-1933468D03*
G01X4197820Y-945233D03*
G01X4207260Y-1023203D03*
G01X4214428Y-1099404D03*
G01X3935311Y-1311682D03*
G01X4318210Y-1277158D03*
G01X4273225Y-778133D03*
G01X4784803Y-1007245D03*
G01X4784803Y-905767D03*
G01X4421781Y-767672D03*
G01X4521633Y-767207D03*
G01X4624739Y-766626D03*
G01X4520122Y-1029564D03*
G01X4432978Y-1029564D03*
G01X4626831Y-1029564D03*
G01X4520122Y-928085D03*
G01X4520122Y-1136274D03*
G01X4784670Y-1129189D03*
G01X4674647Y-1292741D03*
G01X4742649Y-1523945D03*
G01X4980915Y-1741549D03*
G01X4980915Y-1878075D03*
G01X4980915Y-1605024D03*
G01X5129210Y-1728603D03*
G01X4360446Y-2028031D03*
G01X4346846Y-1704764D03*
G01X4733407Y-1674425D03*
G01X5787645Y-1400996D03*
G01X5514178Y-1701699D03*
G01X6874357Y-2194191D03*
G01X7203902Y-2460966D03*
G01X7004606Y-2460966D03*
G01X6879065Y-2460966D03*
G01X6745678Y-2460966D03*
G01X7128578Y-2198899D03*
G01X6723199Y-2926290D03*
G01X6676341Y-2802086D03*
G01X7314731Y-3774371D03*
G01X7279423Y-3501320D03*
G01X7446549Y-3418933D03*
G01X7079342Y-3501320D03*
G01X6264896Y-2186868D03*
G01X7569632Y-2158599D03*
G01X6187898Y-1930271D03*
G01X6107866Y-1075025D03*
G01X7433107Y-1081302D03*
G01X6106156Y-2636033D03*
G01X6075666Y-3255777D03*
G01X6160666Y-3255777D03*
G01X6245666Y-3255777D03*
G01X6075666Y-3340777D03*
G01X6160666Y-3340777D03*
G01X6245666Y-3340777D03*
G01X6075666Y-3425777D03*
G01X6160666Y-3425777D03*
G01X6245666Y-3425777D03*
G01X6416264Y-3344304D03*
G01X6156321Y-3072210D03*
G01X5977047Y-3521370D03*
G01X5675213Y-3265623D03*
G01X5675213Y-3391772D03*
G01X5604972Y-3116538D03*
G01X6375279Y-3651715D03*
G01X6612258Y-2906575D03*
G01X6836476Y-3232466D03*
G01X6780255Y-3059975D03*
G01X2535857Y-2865376D03*
G01X2535857Y-2976652D03*
G01X6813988Y-3141506D03*
G01X7028536Y-3318305D03*
G01X7318105Y-3306120D03*
G01X7158512Y-3372536D03*
G01X7434219Y-3233012D03*
G01X7670748Y-3164203D03*
G01X7183970Y-2921566D03*
G01X7503028Y-2982147D03*
G01X7048605Y-2926241D03*
G01X7361111Y-2980355D03*
G01X6973030Y-3034518D03*
G01X3213011Y-3113313D03*
G01X3349566Y-3104748D03*
G01X3488111Y-3122082D03*
G01X3605098Y-3109779D03*
G01X3611155Y-2989195D03*
G01X3478569Y-2991360D03*
G01X3338865Y-2991184D03*
G01X3213609Y-2990390D03*
G01X3609974Y-3378393D03*
G01X3474268Y-3377437D03*
G01X3339244Y-3376482D03*
G01X3209308Y-3379588D03*
G01X3612124Y-3255828D03*
G01X3477978Y-3271251D03*
G01X3318776Y-3253917D03*
G01X3219257Y-3253123D03*
G01X2538369Y-3947273D03*
G01X3960769Y-3961787D03*
G01X5541393Y-3198085D03*
G01X2535857Y-3121033D03*
G01X2535857Y-3233922D03*
G01X5544798Y-3331759D03*
G01X4524676Y-3593315D03*
G01X4259716Y-3829127D03*
G01X4493856Y-3917527D03*
G01X5318387Y-2344602D03*
G01X5352688Y-2733647D03*
G01X5561263Y-2215434D03*
G01X2596407Y-1943784D03*
G01X5011844Y-1382419D03*
G01X5624445Y-1434420D03*
G01X6504482Y-2738290D03*
G01X6308091Y-2909241D03*
G01X2535857Y-2746006D03*
G01X2773614Y-1566680D03*
G01X3250972Y-1073194D03*
G01X3325873Y-1407561D03*
G01X4267258Y-891147D03*
G01X3901236Y-941559D03*
G01X6597847Y-3311265D03*
G01X6631869Y-3670641D03*
G04 Via End*

M02*

