G04 Layer: InnerLayer2*
G04 EasyEDA Pro v2.2.45.4, 2026-02-25 10:19:21*
G04 Gerber Generator version 0.3*
G04 Scale: 100 percent, Rotated: No, Reflected: No*
G04 Dimensions in millimeters*
G04 Leading zeros omitted, absolute positions, 4 integers and 5 decimals*
G04 Generated by one-click*
%FSLAX45Y45*%
%MOMM*%
%ADD10C,2.0*%
%ADD11C,1.2*%
%ADD12R,1.2X1.2*%
%ADD13O,1.0X1.8*%
%ADD14O,1.0X2.1*%
%ADD15R,1.7X1.7*%
%ADD16C,1.7*%
%ADD17C,0.6122*%
%ADD18C,0.61*%
G75*


G04 PlaneZone Start*
G36*
G01X2683025Y-1801853D02*
G01X2683170Y-1790832D01*
G03X2784324Y-1793262I51134J21970D01*
G03X2884364Y-1793262I50020J24400D01*
G03X2984404Y-1793262I50020J24400D01*
G03X3084444Y-1793262I50020J24400D01*
G03X3179149Y-1802037I50020J24400D01*
G03X3204355Y-1822916I25206J4775D01*
G01X3667134Y-1822916D01*
G03X3692788Y-1797262I0J25654D01*
G01X3692788Y-698754D01*
G01X4916541Y-698754D01*
G03X4877143Y-765155I36255J-66401D01*
G01X4877143Y-845155D01*
G03X5028451Y-845155I75654J0D01*
G01X5028451Y-765155D01*
G03X4989052Y-698754I-75654J0D01*
G01X5780548Y-698754D01*
G03X5741149Y-765155I36255J-66401D01*
G01X5741149Y-845155D01*
G03X5892457Y-845155I75654J0D01*
G01X5892457Y-765155D01*
G03X5853059Y-698754I-75654J0D01*
G01X10466892Y-698754D01*
G02X10541238Y-773100I0J-74346D01*
G01X10542122Y-972353D01*
G01X7747599Y-969357D01*
G03X7721917Y-995067I-27J-25654D01*
G01X7726671Y-3159106D01*
G03X7614595Y-3164326I-55922J-5097D01*
G03X7726693Y-3169054I56154J123D01*
G01X7728168Y-3840738D01*
G03X7753857Y-3866336I25654J56D01*
G01X10538327Y-3862484D01*
G01X10541238Y-4073107D01*
G02X10466892Y-4147446I-74346J7D01*
G01X2166892Y-4147446D01*
G02X2092546Y-4073100I0J74346D01*
G01X2093682Y-1826885D01*
G01X2657361Y-1827170D01*
G03X2683025Y-1801853I13J25654D01*
G37*
%LPC*%
G36*
G01X2111446Y-1930400D02*
G03X2282754Y-1930400I85654J0D01*
G03X2111446Y-1930400I-85654J0D01*
G37*
G36*
G01X2479703Y-2746006D02*
G03X2592011Y-2746006I56154J0D01*
G03X2479703Y-2746006I-56154J0D01*
G37*
G36*
G01X2535857Y-3032806D02*
G03X2543452Y-2921014I0J56154D01*
G03X2535857Y-2809222I-7595J55638D01*
G03X2528262Y-2921014I0J-56154D01*
G03X2535857Y-3032806I7595J-55638D01*
G37*
G36*
G01X2479703Y-3121033D02*
G03X2592011Y-3121033I56154J0D01*
G03X2479703Y-3121033I-56154J0D01*
G37*
G36*
G01X2479703Y-3233922D02*
G03X2592011Y-3233922I56154J0D01*
G03X2479703Y-3233922I-56154J0D01*
G37*
G36*
G01X2482215Y-3947273D02*
G03X2594523Y-3947273I56154J0D01*
G03X2482215Y-3947273I-56154J0D01*
G37*
G36*
G01X3153154Y-3379588D02*
G03X3265462Y-3379588I56154J0D01*
G03X3153154Y-3379588I-56154J0D01*
G37*
G36*
G01X3156857Y-3113313D02*
G03X3269165Y-3113313I56154J0D01*
G03X3156857Y-3113313I-56154J0D01*
G37*
G36*
G01X3157454Y-2990390D02*
G03X3269763Y-2990390I56154J0D01*
G03X3157454Y-2990390I-56154J0D01*
G37*
G36*
G01X3163105Y-3252675D02*
G03X3268809Y-3279541I56152J-448D01*
G03X3374928Y-3254365I49967J25624D01*
G03X3269224Y-3227499I-56152J448D01*
G03X3163105Y-3252675I-49967J-25624D01*
G37*
G36*
G01X3282711Y-2991184D02*
G03X3395019Y-2991184I56154J0D01*
G03X3282711Y-2991184I-56154J0D01*
G37*
G36*
G01X3283090Y-3376482D02*
G03X3395398Y-3376482I56154J0D01*
G03X3283090Y-3376482I-56154J0D01*
G37*
G36*
G01X3293412Y-3104748D02*
G03X3405720Y-3104748I56154J0D01*
G03X3293412Y-3104748I-56154J0D01*
G37*
G36*
G01X3472308Y-3433557D02*
G03X3494305Y-3324980I1961J56120D01*
G03X3479939Y-3215131I-16326J53728D01*
G03X3457942Y-3323709I-1961J-56120D01*
G03X3472308Y-3433557I16326J-53728D01*
G37*
G36*
G01X3422415Y-2991360D02*
G03X3534723Y-2991360I56154J0D01*
G03X3422415Y-2991360I-56154J0D01*
G37*
G36*
G01X3431957Y-3122082D02*
G03X3544265Y-3122082I56154J0D01*
G03X3431957Y-3122082I-56154J0D01*
G37*
G36*
G01X3548944Y-3109779D02*
G03X3661252Y-3109779I56154J0D01*
G03X3548944Y-3109779I-56154J0D01*
G37*
G36*
G01X3553820Y-3378393D02*
G03X3666128Y-3378393I56154J0D01*
G03X3553820Y-3378393I-56154J0D01*
G37*
G36*
G01X3555001Y-2989195D02*
G03X3667309Y-2989195I56154J0D01*
G03X3555001Y-2989195I-56154J0D01*
G37*
G36*
G01X3555970Y-3255828D02*
G03X3668278Y-3255828I56154J0D01*
G03X3555970Y-3255828I-56154J0D01*
G37*
G36*
G01X3792611Y-1335527D02*
G03X3796959Y-1166181I-10564J85000D01*
G01X3842047Y-1166181D01*
G03X3867701Y-1140527I0J25654D01*
G01X3867701Y-1020527D01*
G03X3842047Y-994873I-25654J0D01*
G01X3722047Y-994873D01*
G03X3696393Y-1020527I0J-25654D01*
G01X3696393Y-1140527D01*
G03X3722047Y-1166181I25654J0D01*
G01X3767134Y-1166181D01*
G03X3771483Y-1335527I14912J-84346D01*
G03X3765687Y-1504604I10564J-85000D01*
G03X3790819Y-1672945I22157J-82739D01*
G03X3804204Y-1503266I-2975J85602D01*
G03X3792611Y-1335527I-22157J82739D01*
G37*
G36*
G01X3979031Y-1085662D02*
G03X3940942Y-981267I-26676J49413D01*
G03X3874560Y-892146I-39706J39708D01*
G03X3912649Y-996541I26676J-49413D01*
G03X3979031Y-1085662I39706J-39708D01*
G37*
G36*
G01X3879157Y-1311682D02*
G03X3991465Y-1311682I56154J0D01*
G03X3879157Y-1311682I-56154J0D01*
G37*
G36*
G01X3904615Y-3961787D02*
G03X4016923Y-3961787I56154J0D01*
G03X3904615Y-3961787I-56154J0D01*
G37*
G36*
G01X3972201Y-1800866D02*
G03X4084509Y-1800866I56154J0D01*
G03X3972201Y-1800866I-56154J0D01*
G37*
G36*
G01X4099832Y-2067698D02*
G03X4212140Y-2067698I56154J0D01*
G03X4099832Y-2067698I-56154J0D01*
G37*
G36*
G01X4147437Y-920436D02*
G03X4162691Y-989043I50382J-24797D01*
G03X4169930Y-1065153I44568J-34160D01*
G03X4219688Y-1155311I44499J-34251D01*
G03X4251759Y-1057455I-5260J55907D01*
G03X4242388Y-979394I-44499J34251D01*
G03X4253972Y-945707I-44569J34160D01*
G03X4311560Y-856641I13287J54560D01*
G03X4211106Y-890674I-44301J-34506D01*
G03X4147437Y-920436I-13287J-54560D01*
G37*
G36*
G01X4262056Y-1277158D02*
G03X4374364Y-1277158I56154J0D01*
G03X4262056Y-1277158I-56154J0D01*
G37*
G36*
G01X4304292Y-2028031D02*
G03X4416600Y-2028031I56154J0D01*
G03X4304292Y-2028031I-56154J0D01*
G37*
G36*
G01X4471587Y-741736D02*
G03X4365628Y-767933I-49806J-25935D01*
G03X4471827Y-793142I56154J261D01*
G03X4573311Y-789175I49806J25935D01*
G03X4680892Y-766309I51428J22549D01*
G03X4573060Y-744657I-56153J-317D01*
G03X4471587Y-741736I-51428J-22549D01*
G37*
G36*
G01X4520122Y-1192428D02*
G03X4537630Y-1082919I0J56154D01*
G03X4573477Y-1047072I-17508J53355D01*
G03X4682985Y-1029564I53355J17508D01*
G03X4573477Y-1012056I-56154J0D01*
G03X4544180Y-978825I-53355J-17508D01*
G03X4520122Y-871931I-24058J50739D01*
G03X4496063Y-978824I0J-56154D01*
G03X4476550Y-994141I24059J-50739D01*
G03X4376824Y-1029564I-43572J-35423D01*
G03X4476550Y-1064986I56154J0D01*
G03X4502613Y-1082919I43572J35423D01*
G03X4520122Y-1192428I17508J-53355D01*
G37*
G36*
G01X4437702Y-3917527D02*
G03X4550010Y-3917527I56154J0D01*
G03X4437702Y-3917527I-56154J0D01*
G37*
G36*
G01X4677253Y-1674425D02*
G03X4789561Y-1674425I56154J0D01*
G03X4677253Y-1674425I-56154J0D01*
G37*
G36*
G01X4686495Y-1523945D02*
G03X4798803Y-1523945I56154J0D01*
G03X4686495Y-1523945I-56154J0D01*
G37*
G36*
G01X4728516Y-1129189D02*
G03X4840824Y-1129189I56154J0D01*
G03X4728516Y-1129189I-56154J0D01*
G37*
G36*
G01X5038922Y-1431613D02*
G03X5008469Y-1326366I-27077J49194D01*
G03X5028451Y-1275140I-55672J51227D01*
G01X5028451Y-1165140D01*
G03X4877143Y-1165140I-75654J0D01*
G01X4877143Y-1275140D01*
G03X4966294Y-1349580I75654J0D01*
G03X5038922Y-1431613I45551J-32839D01*
G37*
G36*
G01X4924761Y-1878075D02*
G03X5037069Y-1878075I56154J0D01*
G03X4924761Y-1878075I-56154J0D01*
G37*
G36*
G01X4924761Y-1605024D02*
G03X5037069Y-1605024I56154J0D01*
G03X4924761Y-1605024I-56154J0D01*
G37*
G36*
G01X5006737Y-4045528D02*
G03X5178045Y-4045528I85654J0D01*
G03X5006737Y-4045528I-85654J0D01*
G37*
G36*
G01X5037646Y-1170203D02*
G03X5153952Y-1170203I58153J0D01*
G03X5037646Y-1170203I-58153J0D01*
G37*
G36*
G01X5073056Y-1728603D02*
G03X5185364Y-1728603I56154J0D01*
G03X5073056Y-1728603I-56154J0D01*
G37*
G36*
G01X5262233Y-2344602D02*
G03X5374541Y-2344602I56154J0D01*
G03X5262233Y-2344602I-56154J0D01*
G37*
G36*
G01X5364617Y-2788520D02*
G03X5366182Y-2679139I-11929J54872D01*
G03X5315116Y-2560830I-37118J54154D01*
G03X5317780Y-2689662I13948J-64155D01*
G03X5364617Y-2788520I34908J-43986D01*
G37*
G36*
G01X5458024Y-1701699D02*
G03X5570332Y-1701699I56154J0D01*
G03X5458024Y-1701699I-56154J0D01*
G37*
G36*
G01X5506866Y-3242369D02*
G03X5590465Y-3170786I34527J44285D01*
G03X5639499Y-3072253I14506J54248D01*
G03X5555899Y-3143836I-34527J-44285D01*
G03X5506866Y-3242369I-14506J-54248D01*
G37*
G36*
G01X5488644Y-3331759D02*
G03X5600952Y-3331759I56154J0D01*
G03X5488644Y-3331759I-56154J0D01*
G37*
G36*
G01X5505109Y-2215434D02*
G03X5617417Y-2215434I56154J0D01*
G03X5505109Y-2215434I-56154J0D01*
G37*
G36*
G01X5532099Y-2356296D02*
G03X5663407Y-2356296I65654J0D01*
G03X5532099Y-2356296I-65654J0D01*
G37*
G36*
G01X5568291Y-1434420D02*
G03X5680599Y-1434420I56154J0D01*
G03X5568291Y-1434420I-56154J0D01*
G37*
G36*
G01X5615648Y-1170203D02*
G03X5731955Y-1170203I58153J0D01*
G03X5615648Y-1170203I-58153J0D01*
G37*
G36*
G01X5774970Y-1455701D02*
G03X5812566Y-1350675I12674J54705D01*
G03X5892457Y-1275140I4237J75535D01*
G01X5892457Y-1165140D01*
G03X5741149Y-1165140I-75654J0D01*
G01X5741149Y-1275140D01*
G03X5787391Y-1344842I75654J0D01*
G03X5774970Y-1455701I253J-56154D01*
G37*
G36*
G01X5879496Y-3895538D02*
G03X6130804Y-3895538I125654J0D01*
G03X5879496Y-3895538I-125654J0D01*
G37*
G36*
G01X5920893Y-3521370D02*
G03X6033201Y-3521370I56154J0D01*
G03X5920893Y-3521370I-56154J0D01*
G37*
G36*
G01X6019512Y-3340777D02*
G03X6038964Y-3383277I56154J0D01*
G03X6035959Y-3465484I36702J-42500D01*
G03X6118166Y-3462479I39707J39707D01*
G03X6203166Y-3462479I42500J36702D01*
G03X6285373Y-3465484I42500J36702D01*
G03X6282368Y-3383277I-39707J39707D01*
G03X6301820Y-3340777I-36702J42500D01*
G03X6282368Y-3298277I-56154J0D01*
G03X6285373Y-3216070I-36702J42500D01*
G03X6203166Y-3219075I-39707J-39707D01*
G03X6118166Y-3219075I-42500J-36702D01*
G03X6035959Y-3216070I-42500J-36702D01*
G03X6038964Y-3298277I39707J-39707D01*
G03X6019512Y-3340777I36702J-42500D01*
G37*
G36*
G01X6050002Y-2636033D02*
G03X6162310Y-2636033I56154J0D01*
G03X6050002Y-2636033I-56154J0D01*
G37*
G36*
G01X6051712Y-1075025D02*
G03X6164020Y-1075025I56154J0D01*
G03X6051712Y-1075025I-56154J0D01*
G37*
G36*
G01X6100167Y-3072210D02*
G03X6212475Y-3072210I56154J0D01*
G03X6100167Y-3072210I-56154J0D01*
G37*
G36*
G01X6131744Y-1930271D02*
G03X6244053Y-1930271I56154J0D01*
G03X6131744Y-1930271I-56154J0D01*
G37*
G36*
G01X6251937Y-2909241D02*
G03X6364245Y-2909241I56154J0D01*
G03X6251937Y-2909241I-56154J0D01*
G37*
G36*
G01X6254658Y-3892926D02*
G03X6505966Y-3892926I125654J0D01*
G03X6254658Y-3892926I-125654J0D01*
G37*
G36*
G01X6319125Y-3651715D02*
G03X6431433Y-3651715I56154J0D01*
G03X6319125Y-3651715I-56154J0D01*
G37*
G36*
G01X6360110Y-3344304D02*
G03X6472418Y-3344304I56154J0D01*
G03X6360110Y-3344304I-56154J0D01*
G37*
G36*
G01X6376124Y-1029805D02*
G03X6527432Y-1029805I75654J0D01*
G03X6376124Y-1029805I-75654J0D01*
G37*
G36*
G01X6448328Y-2738290D02*
G03X6560636Y-2738290I56154J0D01*
G03X6448328Y-2738290I-56154J0D01*
G37*
G36*
G01X6541693Y-3311265D02*
G03X6654001Y-3311265I56154J0D01*
G03X6541693Y-3311265I-56154J0D01*
G37*
G36*
G01X6556104Y-2906575D02*
G03X6668412Y-2906575I56154J0D01*
G03X6556104Y-2906575I-56154J0D01*
G37*
G36*
G01X6575715Y-3670641D02*
G03X6688023Y-3670641I56154J0D01*
G03X6575715Y-3670641I-56154J0D01*
G37*
G36*
G01X6620187Y-2802086D02*
G03X6732495Y-2802086I56154J0D01*
G03X6620187Y-2802086I-56154J0D01*
G37*
G36*
G01X6667045Y-2926290D02*
G03X6779353Y-2926290I56154J0D01*
G03X6667045Y-2926290I-56154J0D01*
G37*
G36*
G01X6912584Y-3967258D02*
G03X6691276Y-3967258I-110654J0D01*
G03X6912584Y-3967258I110654J0D01*
G37*
G36*
G01X6795179Y-3194416D02*
G03X6849953Y-3286979I41297J-38050D01*
G03X6855285Y-3179556I-13477J54513D01*
G03X6829224Y-3087458I-41297J38050D01*
G03X6758787Y-3008086I-48969J27483D01*
G03X6765019Y-3114022I21468J-51888D01*
G03X6795179Y-3194416I48969J-27483D01*
G37*
G36*
G01X6822911Y-2460966D02*
G03X6935219Y-2460966I56154J0D01*
G03X6822911Y-2460966I-56154J0D01*
G37*
G36*
G01X6916876Y-3034518D02*
G03X7029184Y-3034518I56154J0D01*
G03X6916876Y-3034518I-56154J0D01*
G37*
G36*
G01X7166584Y-3967258D02*
G03X6945276Y-3967258I-110654J0D01*
G03X7166584Y-3967258I110654J0D01*
G37*
G36*
G01X6948452Y-2460966D02*
G03X7060760Y-2460966I56154J0D01*
G03X6948452Y-2460966I-56154J0D01*
G37*
G36*
G01X6972382Y-3318305D02*
G03X7084690Y-3318305I56154J0D01*
G03X6972382Y-3318305I-56154J0D01*
G37*
G36*
G01X7023188Y-3501320D02*
G03X7135496Y-3501320I56154J0D01*
G03X7023188Y-3501320I-56154J0D01*
G37*
G36*
G01X7072423Y-2198899D02*
G03X7184732Y-2198899I56154J0D01*
G03X7072423Y-2198899I-56154J0D01*
G37*
G36*
G01X7127816Y-2921566D02*
G03X7240124Y-2921566I56154J0D01*
G03X7127816Y-2921566I-56154J0D01*
G37*
G36*
G01X7176148Y-1029805D02*
G03X7327456Y-1029805I75654J0D01*
G03X7176148Y-1029805I-75654J0D01*
G37*
G36*
G01X7420584Y-3967258D02*
G03X7199276Y-3967258I-110654J0D01*
G03X7420584Y-3967258I110654J0D01*
G37*
G36*
G01X7261951Y-3306120D02*
G03X7374259Y-3306120I56154J0D01*
G03X7261951Y-3306120I-56154J0D01*
G37*
G36*
G01X7304956Y-2980355D02*
G03X7417265Y-2980355I56154J0D01*
G03X7304956Y-2980355I-56154J0D01*
G37*
G36*
G01X7376952Y-1081302D02*
G03X7489261Y-1081302I56154J0D01*
G03X7376952Y-1081302I-56154J0D01*
G37*
G36*
G01X7390395Y-3418933D02*
G03X7502703Y-3418933I56154J0D01*
G03X7390395Y-3418933I-56154J0D01*
G37*
G36*
G01X7446874Y-2982147D02*
G03X7559182Y-2982147I56154J0D01*
G03X7446874Y-2982147I-56154J0D01*
G37*
G36*
G01X7478930Y-3856604D02*
G03X7453276Y-3882258I0J-25654D01*
G01X7453276Y-4052258D01*
G03X7478930Y-4077912I25654J0D01*
G01X7648930Y-4077912D01*
G03X7674584Y-4052258I0J25654D01*
G01X7674584Y-3882258D01*
G03X7648930Y-3856604I-25654J0D01*
G01X7478930Y-3856604D01*
G37*
G36*
G01X7513478Y-2158599D02*
G03X7625786Y-2158599I56154J0D01*
G03X7513478Y-2158599I-56154J0D01*
G37*
%LPD*%
G36*
G01X7199276Y-3979958D02*
G02X7199276Y-3954558I0J12700D01*
G01X7225184Y-3954558D01*
G02X7225184Y-3979958I0J-12700D01*
G01X7199276Y-3979958D01*
G37*
G36*
G01X7394676Y-3979958D02*
G02X7394676Y-3954558I0J12700D01*
G01X7420584Y-3954558D01*
G02X7420584Y-3979958I0J-12700D01*
G01X7394676Y-3979958D01*
G37*
G36*
G01X7297230Y-4052004D02*
G02X7322630Y-4052004I12700J0D01*
G01X7322630Y-4077912D01*
G02X7297230Y-4077912I-12700J0D01*
G01X7297230Y-4052004D01*
G37*
G36*
G01X7322630Y-3882512D02*
G02X7297230Y-3882512I-12700J0D01*
G01X7297230Y-3856604D01*
G02X7322630Y-3856604I12700J0D01*
G01X7322630Y-3882512D01*
G37*
G04 PlaneZone End*

G04 Pad Start*
G54D10*
G01X6380312Y-3892926D03*
G01X6005150Y-3895538D03*
G54D11*
G01X5092391Y-4045528D03*
G01X3477149Y-1416577D03*
G01X3477149Y-1246477D03*
G54D12*
G01X3477149Y-1076377D03*
G54D11*
G01X3477149Y-1586677D03*
G01X3787844Y-1587343D03*
G54D12*
G01X3782047Y-1080527D03*
G54D11*
G01X3782047Y-1250527D03*
G01X3782047Y-1420527D03*
G01X2197100Y-1930400D03*
G54D13*
G01X4952797Y-805155D03*
G01X5816803Y-805155D03*
G54D14*
G01X4952797Y-1220140D03*
G01X5816803Y-1220140D03*
G54D15*
G01X7563930Y-3967258D03*
G54D16*
G01X7309930Y-3967258D03*
G01X7055930Y-3967258D03*
G01X6801930Y-3967258D03*
G04 Pad End*

G04 Via Start*
G54D18*
G01X3952355Y-1036249D03*
G01X6757913Y-3592676D03*
G01X6873737Y-3638645D03*
G01X6632027Y-3592590D03*
G01X4028355Y-1800866D03*
G01X4155986Y-2067698D03*
G01X4324160Y-1933468D03*
G01X4197820Y-945233D03*
G01X4207260Y-1023203D03*
G01X4214428Y-1099404D03*
G01X3935311Y-1311682D03*
G01X4318210Y-1277158D03*
G01X4273225Y-778133D03*
G01X4784803Y-1007245D03*
G01X4784803Y-905767D03*
G01X4421781Y-767672D03*
G01X4521633Y-767207D03*
G01X4624739Y-766626D03*
G01X4520122Y-1029564D03*
G01X4432978Y-1029564D03*
G01X4626831Y-1029564D03*
G01X4520122Y-928085D03*
G01X4520122Y-1136274D03*
G01X4784670Y-1129189D03*
G01X4674647Y-1292741D03*
G01X4742649Y-1523945D03*
G01X4980915Y-1741549D03*
G01X4980915Y-1878075D03*
G01X4980915Y-1605024D03*
G01X5129210Y-1728603D03*
G01X4360446Y-2028031D03*
G01X4346846Y-1704764D03*
G01X4733407Y-1674425D03*
G01X5787645Y-1400996D03*
G01X5514178Y-1701699D03*
G01X6874357Y-2194191D03*
G01X7203902Y-2460966D03*
G01X7004606Y-2460966D03*
G01X6879065Y-2460966D03*
G01X6745678Y-2460966D03*
G01X7128578Y-2198899D03*
G01X6723199Y-2926290D03*
G01X6676341Y-2802086D03*
G01X7314731Y-3774371D03*
G01X7279423Y-3501320D03*
G01X7446549Y-3418933D03*
G01X7079342Y-3501320D03*
G01X6264896Y-2186868D03*
G01X7569632Y-2158599D03*
G01X6187898Y-1930271D03*
G01X6107866Y-1075025D03*
G01X7433107Y-1081302D03*
G01X6106156Y-2636033D03*
G01X6075666Y-3255777D03*
G01X6160666Y-3255777D03*
G01X6245666Y-3255777D03*
G01X6075666Y-3340777D03*
G01X6160666Y-3340777D03*
G01X6245666Y-3340777D03*
G01X6075666Y-3425777D03*
G01X6160666Y-3425777D03*
G01X6245666Y-3425777D03*
G01X6416264Y-3344304D03*
G01X6156321Y-3072210D03*
G01X5977047Y-3521370D03*
G01X5675213Y-3265623D03*
G01X5675213Y-3391772D03*
G01X5604972Y-3116538D03*
G01X6375279Y-3651715D03*
G01X6612258Y-2906575D03*
G01X6836476Y-3232466D03*
G01X6780255Y-3059975D03*
G01X2535857Y-2865376D03*
G01X2535857Y-2976652D03*
G01X6813988Y-3141506D03*
G01X7028536Y-3318305D03*
G01X7318105Y-3306120D03*
G01X7158512Y-3372536D03*
G01X7434219Y-3233012D03*
G01X7670748Y-3164203D03*
G01X7183970Y-2921566D03*
G01X7503028Y-2982147D03*
G01X7048605Y-2926241D03*
G01X7361111Y-2980355D03*
G01X6973030Y-3034518D03*
G01X3213011Y-3113313D03*
G01X3349566Y-3104748D03*
G01X3488111Y-3122082D03*
G01X3605098Y-3109779D03*
G01X3611155Y-2989195D03*
G01X3478569Y-2991360D03*
G01X3338865Y-2991184D03*
G01X3213609Y-2990390D03*
G01X3609974Y-3378393D03*
G01X3474268Y-3377437D03*
G01X3339244Y-3376482D03*
G01X3209308Y-3379588D03*
G01X3612124Y-3255828D03*
G01X3477978Y-3271251D03*
G01X3318776Y-3253917D03*
G01X3219257Y-3253123D03*
G01X2538369Y-3947273D03*
G01X3960769Y-3961787D03*
G01X5541393Y-3198085D03*
G01X2535857Y-3121033D03*
G01X2535857Y-3233922D03*
G01X5544798Y-3331759D03*
G01X4524676Y-3593315D03*
G01X4259716Y-3829127D03*
G01X4493856Y-3917527D03*
G01X5318387Y-2344602D03*
G01X5352688Y-2733647D03*
G01X5561263Y-2215434D03*
G01X2596407Y-1943784D03*
G01X5011844Y-1382419D03*
G01X5624445Y-1434420D03*
G01X6504482Y-2738290D03*
G01X6308091Y-2909241D03*
G01X2535857Y-2746006D03*
G01X2773614Y-1566680D03*
G01X3250972Y-1073194D03*
G01X3325873Y-1407561D03*
G01X4267258Y-891147D03*
G01X3901236Y-941559D03*
G01X6597847Y-3311265D03*
G01X6631869Y-3670641D03*
G04 Via End*

M02*

