G04 Layer: BottomLayer*
G04 EasyEDA Pro v2.2.45.4, 2026-02-25 10:19:21*
G04 Gerber Generator version 0.3*
G04 Scale: 100 percent, Rotated: No, Reflected: No*
G04 Dimensions in millimeters*
G04 Leading zeros omitted, absolute positions, 4 integers and 5 decimals*
G04 Generated by one-click*
%FSLAX45Y45*%
%MOMM*%
%ADD10C,2.0*%
%ADD11C,1.2*%
%ADD12R,1.2X1.2*%
%ADD13O,1.0X1.8*%
%ADD14O,1.0X2.1*%
%ADD15R,1.7X1.7*%
%ADD16C,1.7*%
%ADD17C,0.6179*%
%ADD18C,0.61*%
%ADD19C,0.254*%
%ADD20C,0.4*%
G75*


G04 Pad Start*
G54D10*
G01X6380312Y-3892926D03*
G01X6005150Y-3895538D03*
G54D11*
G01X5092391Y-4045528D03*
G01X3477149Y-1416577D03*
G01X3477149Y-1246477D03*
G54D12*
G01X3477149Y-1076377D03*
G54D11*
G01X3477149Y-1586677D03*
G01X3787844Y-1587343D03*
G54D12*
G01X3782047Y-1080527D03*
G54D11*
G01X3782047Y-1250527D03*
G01X3782047Y-1420527D03*
G01X2197100Y-1930400D03*
G54D13*
G01X4952797Y-805155D03*
G01X5816803Y-805155D03*
G54D14*
G01X4952797Y-1220140D03*
G01X5816803Y-1220140D03*
G54D15*
G01X7563930Y-3967258D03*
G54D16*
G01X7309930Y-3967258D03*
G01X7055930Y-3967258D03*
G01X6801930Y-3967258D03*
G04 Pad End*

G04 Via Start*
G54D18*
G01X3952355Y-1036249D03*
G01X6757913Y-3592676D03*
G01X6873737Y-3638645D03*
G01X6632027Y-3592590D03*
G01X4028355Y-1800866D03*
G01X4155986Y-2067698D03*
G01X4324160Y-1933468D03*
G01X4197820Y-945233D03*
G01X4207260Y-1023203D03*
G01X4214428Y-1099404D03*
G01X3935311Y-1311682D03*
G01X4318210Y-1277158D03*
G01X4273225Y-778133D03*
G01X4784803Y-1007245D03*
G01X4784803Y-905767D03*
G01X4421781Y-767672D03*
G01X4521633Y-767207D03*
G01X4624739Y-766626D03*
G01X4520122Y-1029564D03*
G01X4432978Y-1029564D03*
G01X4626831Y-1029564D03*
G01X4520122Y-928085D03*
G01X4520122Y-1136274D03*
G01X4784670Y-1129189D03*
G01X4674647Y-1292741D03*
G01X4742649Y-1523945D03*
G01X4980915Y-1741549D03*
G01X4980915Y-1878075D03*
G01X4980915Y-1605024D03*
G01X5129210Y-1728603D03*
G01X4360446Y-2028031D03*
G01X4346846Y-1704764D03*
G01X4733407Y-1674425D03*
G01X5787645Y-1400996D03*
G01X5514178Y-1701699D03*
G01X6874357Y-2194191D03*
G01X7203902Y-2460966D03*
G01X7004606Y-2460966D03*
G01X6879065Y-2460966D03*
G01X6745678Y-2460966D03*
G01X7128578Y-2198899D03*
G01X6723199Y-2926290D03*
G01X6676341Y-2802086D03*
G01X7314731Y-3774371D03*
G01X7279423Y-3501320D03*
G01X7446549Y-3418933D03*
G01X7079342Y-3501320D03*
G01X6264896Y-2186868D03*
G01X7569632Y-2158599D03*
G01X6187898Y-1930271D03*
G01X6107866Y-1075025D03*
G01X7433107Y-1081302D03*
G01X6106156Y-2636033D03*
G01X6075666Y-3255777D03*
G01X6160666Y-3255777D03*
G01X6245666Y-3255777D03*
G01X6075666Y-3340777D03*
G01X6160666Y-3340777D03*
G01X6245666Y-3340777D03*
G01X6075666Y-3425777D03*
G01X6160666Y-3425777D03*
G01X6245666Y-3425777D03*
G01X6416264Y-3344304D03*
G01X6156321Y-3072210D03*
G01X5977047Y-3521370D03*
G01X5675213Y-3265623D03*
G01X5675213Y-3391772D03*
G01X5604972Y-3116538D03*
G01X6375279Y-3651715D03*
G01X6612258Y-2906575D03*
G01X6836476Y-3232466D03*
G01X6780255Y-3059975D03*
G01X2535857Y-2865376D03*
G01X2535857Y-2976652D03*
G01X6813988Y-3141506D03*
G01X7028536Y-3318305D03*
G01X7318105Y-3306120D03*
G01X7158512Y-3372536D03*
G01X7434219Y-3233012D03*
G01X7670748Y-3164203D03*
G01X7183970Y-2921566D03*
G01X7503028Y-2982147D03*
G01X7048605Y-2926241D03*
G01X7361111Y-2980355D03*
G01X6973030Y-3034518D03*
G01X3213011Y-3113313D03*
G01X3349566Y-3104748D03*
G01X3488111Y-3122082D03*
G01X3605098Y-3109779D03*
G01X3611155Y-2989195D03*
G01X3478569Y-2991360D03*
G01X3338865Y-2991184D03*
G01X3213609Y-2990390D03*
G01X3609974Y-3378393D03*
G01X3474268Y-3377437D03*
G01X3339244Y-3376482D03*
G01X3209308Y-3379588D03*
G01X3612124Y-3255828D03*
G01X3477978Y-3271251D03*
G01X3318776Y-3253917D03*
G01X3219257Y-3253123D03*
G01X2538369Y-3947273D03*
G01X3960769Y-3961787D03*
G01X5541393Y-3198085D03*
G01X2535857Y-3121033D03*
G01X2535857Y-3233922D03*
G01X5544798Y-3331759D03*
G01X4524676Y-3593315D03*
G01X4259716Y-3829127D03*
G01X4493856Y-3917527D03*
G01X5318387Y-2344602D03*
G01X5352688Y-2733647D03*
G01X5561263Y-2215434D03*
G01X2596407Y-1943784D03*
G01X5011844Y-1382419D03*
G01X5624445Y-1434420D03*
G01X6504482Y-2738290D03*
G01X6308091Y-2909241D03*
G01X2535857Y-2746006D03*
G01X2773614Y-1566680D03*
G01X3250972Y-1073194D03*
G01X3325873Y-1407561D03*
G01X4267258Y-891147D03*
G01X3901236Y-941559D03*
G01X6597847Y-3311265D03*
G01X6631869Y-3670641D03*
G04 Via End*

G04 Track Start*
G54D19*
G01X3830093Y-1205574D02*
G01X3830093Y-1223067D01*
G01X3869947Y-1337821D02*
G01X3818268Y-1389499D01*
G01X4348676Y-2016262D02*
G01X4305593Y-2016262D01*
G01X4086755Y-1797424D01*
G01X4086755Y-1776675D01*
G01X4052545Y-1742465D01*
G01X3985432Y-1742465D01*
G01X3835528Y-1592562D01*
G01X7314731Y-3889712D02*
G01X7314731Y-3774371D01*
G01X6416264Y-3344304D02*
G01X6416264Y-3179929D01*
G01X6311140Y-3074805D01*
G01X6156321Y-3074805D01*
G01X7183970Y-2921566D02*
G01X7442447Y-2921566D01*
G01X7503028Y-2982147D01*
G01X7063986Y-3935482D02*
G01X7066853Y-3935482D01*
G01X6930941Y-3131808D02*
G01X6930941Y-3130985D01*
G01X6930941Y-3128070D01*
G01X6923479Y-3120608D02*
G01X6930941Y-3130985D01*
G01X6676341Y-2802086D02*
G01X6676341Y-2820419D01*
G01X6723812Y-2867890D01*
G01X6747390Y-2867890D01*
G01X6781600Y-2902100D01*
G01X6781600Y-2925677D01*
G54D20*
G01X5624445Y-1434420D02*
G01X5624880Y-1434855D01*
G01X5624880Y-1880462D01*
G01X6111173Y-2366755D01*
G01X6111173Y-2631016D01*
G01X6106156Y-2636033D01*
G54D19*
G01X6930941Y-3128070D02*
G01X6923479Y-3120608D01*
G01X6709725Y-2931129D02*
G01X6718361Y-2931129D01*
G01X4155986Y-2067700D02*
G01X4155986Y-2077377D01*
G01X6718361Y-2931129D02*
G01X6723199Y-2926290D01*
G01X6636449Y-2848174D02*
G01X6670658Y-2882384D01*
G01X6670658Y-2892062D01*
G01X6709725Y-2931129D01*
G01X2773614Y-1566680D02*
G01X3318706Y-1566680D01*
G01X3457398Y-1427988D01*
G01X3250972Y-1073194D02*
G01X3325873Y-1148095D01*
G01X3325873Y-1407561D01*
G01X4214428Y-1099404D02*
G01X4167958Y-1099404D01*
G01X3825546Y-1098472D02*
G01X3821723Y-1094649D01*
G01X3886848Y-1098472D02*
G01X3825546Y-1098472D01*
G01X3907925Y-941559D02*
G01X3901236Y-941559D01*
G01X4267258Y-891146D02*
G01X4267258Y-885413D01*
G01X3964071Y-885413D01*
G01X3907925Y-941559D01*
G01X2560480Y-3233922D02*
G01X2585879Y-3208523D01*
G01X5467443Y-3245600D02*
G01X5529248Y-3307404D01*
G01X5529248Y-3316210D01*
G01X2552705Y-3233923D02*
G01X2560480Y-3233922D01*
G01X5529248Y-3316210D02*
G01X5544798Y-3331759D01*
G01X2585879Y-3208523D02*
G01X2585879Y-3153602D01*
G01X2594257Y-3145224D01*
G01X2594257Y-3096843D01*
G01X5529712Y-3186403D02*
G01X5529712Y-3158160D01*
G01X5541394Y-3198084D02*
G01X5529712Y-3186403D01*
G01X2542308Y-2976652D02*
G01X2605284Y-2913676D01*
G01X6533482Y-3017585D02*
G01X6624172Y-3108275D01*
G01X6720565Y-3108275D01*
G01X6743365Y-3131075D01*
G01X6743753Y-3131075D01*
G01X6766883Y-3154206D01*
G01X6801288Y-3154206D01*
G01X6813988Y-3141506D01*
G01X6180511Y-3013810D02*
G01X6184286Y-3017585D01*
G01X6533482Y-3017585D01*
G01X5058510Y-3013810D02*
G01X6180511Y-3013810D01*
G01X6780255Y-3059975D02*
G01X6754654Y-3085577D01*
G01X6748212Y-3085577D01*
G01X6735311Y-3072675D01*
G01X6638918Y-3072675D01*
G01X6538044Y-2971800D01*
G01X5080000Y-2971800D01*
G01X4395450Y-2477750D02*
G01X5079449Y-3161749D01*
G01X5442043Y-3161749D01*
G01X5467443Y-3187149D01*
G01X5467443Y-3245600D01*
G01X4432300Y-2387600D02*
G01X5058510Y-3013810D01*
G01X3911600Y-2387600D02*
G01X4432300Y-2387600D01*
G01X3606800Y-2692400D02*
G01X3911600Y-2387600D01*
G01X5080000Y-2971800D02*
G01X4450680Y-2342480D01*
G01X2817371Y-2641600D02*
G01X2593595Y-2865376D01*
G01X2535857Y-2865376D01*
G01X2594257Y-3096843D02*
G01X2588451Y-3091037D01*
G01X2588451Y-3079590D01*
G01X2877473Y-2790567D01*
G01X2863086Y-2743324D02*
G01X2532163Y-3074247D01*
G01X2532163Y-3110168D01*
G01X2543028Y-3121033D01*
G01X2605284Y-2913676D02*
G01X2622547Y-2913676D01*
G01X2843771Y-2692400D01*
G01X3606800Y-2692400D01*
G01X5137795Y-2889895D02*
G01X6194954Y-2889895D01*
G01X6236675Y-2848174D01*
G01X6636449Y-2848174D01*
G01X6676342Y-2802085D02*
G01X6675392Y-2801135D01*
G01X6224009Y-2801135D01*
G01X6176308Y-2848836D01*
G01X5160236Y-2848836D01*
G01X5529712Y-3158160D02*
G01X5484539Y-3112987D01*
G01X5094187Y-3112987D01*
G01X4414335Y-2433135D01*
G01X5160236Y-2848836D02*
G01X4397831Y-2086431D01*
G01X4155986Y-2077377D02*
G01X4213376Y-2134767D01*
G01X4382667Y-2134767D01*
G01X5137795Y-2889895D01*
G01X4033924Y-1863046D02*
G01X4033924Y-1794939D01*
G01X4214386Y-2043508D02*
G01X4033924Y-1863046D01*
G01X4214386Y-2080593D02*
G01X4214386Y-2043508D01*
G01X4220225Y-2086431D02*
G01X4214386Y-2080593D01*
G01X4397831Y-2086431D02*
G01X4220225Y-2086431D01*
G01X3869947Y-1232444D02*
G01X3869947Y-1337821D01*
G01X4197820Y-945233D02*
G01X4048404Y-1094649D01*
G01X3890671Y-1094649D01*
G01X3886848Y-1098472D01*
G01X4167958Y-1099404D02*
G01X4085134Y-1182228D01*
G01X3920163Y-1182228D01*
G01X3869947Y-1232444D01*
G01X3894888Y-1140779D02*
G01X3830093Y-1205574D01*
G01X4207260Y-1023203D02*
G01X4185623Y-1023203D01*
G01X4068048Y-1140779D01*
G01X3894888Y-1140779D01*
G01X6930941Y-3130985D02*
G01X6932137Y-3132182D01*
G01X6932137Y-3824261D01*
G01X6836805Y-3919593D01*
G01X6828522Y-3919593D01*
G01X6923479Y-3120608D02*
G01X6729161Y-2926290D01*
G01X6723199Y-2926290D01*
G01X6781600Y-2925677D02*
G01X6970136Y-3114213D01*
G01X6970136Y-3841632D01*
G01X7063986Y-3935482D01*
G01X6304142Y-2913192D02*
G01X6286464Y-2930871D01*
G01X6286464Y-2930825D02*
G01X5109759Y-2930825D01*
G01X4480107Y-2301040D01*
G01X2800276Y-2593140D02*
G01X2645070Y-2748346D01*
G01X2545158Y-2748346D01*
G01X2542819Y-2746006D01*
G01X4480107Y-2301040D02*
G01X3862971Y-2301040D01*
G01X3570871Y-2593140D01*
G01X2800276Y-2593140D01*
G01X4450680Y-2342480D02*
G01X3886200Y-2342480D01*
G01X3587080Y-2641600D01*
G01X2817371Y-2641600D01*
G01X2877473Y-2790567D02*
G01X3643822Y-2790567D01*
G01X3956639Y-2477750D01*
G01X4395450Y-2477750D01*
G01X4414335Y-2433135D02*
G01X3936584Y-2433135D01*
G01X3626396Y-2743324D01*
G01X2863086Y-2743324D01*
G04 Track End*

M02*

