G04 Layer: TopSolderMaskLayer*
G04 EasyEDA Pro v2.2.45.4, 2026-02-25 10:19:21*
G04 Gerber Generator version 0.3*
G04 Scale: 100 percent, Rotated: No, Reflected: No*
G04 Dimensions in millimeters*
G04 Leading zeros omitted, absolute positions, 4 integers and 5 decimals*
G04 Generated by one-click*
%FSLAX45Y45*%
%MOMM*%
%AMRoundRect*1,1,$1,$2,$3*1,1,$1,$4,$5*1,1,$1,0-$2,0-$3*1,1,$1,0-$4,0-$5*20,1,$1,$2,$3,$4,$5,0*20,1,$1,$4,$5,0-$2,0-$3,0*20,1,$1,0-$2,0-$3,0-$4,0-$5,0*20,1,$1,0-$4,0-$5,$2,$3,0*4,1,4,$2,$3,$4,$5,0-$2,0-$3,0-$4,0-$5,$2,$3,0*%
%ADD10C,2.1016*%
%ADD11C,1.102*%
%ADD12C,1.302*%
%ADD13RoundRect,0.09459X-0.60371X0.60371X0.60371X0.60371*%
%ADD14RoundRect,0.08875X-0.30643X0.58143X0.30643X0.58143*%
%ADD15RoundRect,0.0838X-0.16026X0.58526X0.16026X0.58526*%
%ADD16RoundRect,0.08109X-0.16026X0.58526X0.16026X0.58526*%
%ADD17O,1.102X1.902*%
%ADD18O,1.102X2.202*%
%ADD19RoundRect,0.08722X-0.27739X-0.25739X-0.27739X0.25739*%
%ADD20RoundRect,0.08771X-0.28977X0.27695X0.28977X0.27695*%
%ADD21RoundRect,0.09138X-0.40835X0.43711X0.40835X0.43711*%
%ADD22RoundRect,0.08051X-0.15075X0.34325X0.15075X0.34325*%
%ADD23RoundRect,0.08051X-0.34325X0.15075X0.34325X0.15075*%
%ADD24RoundRect,0.09842X-1.35179X1.35179X1.35179X1.35179*%
%ADD25RoundRect,0.08722X-0.25739X0.27739X0.25739X0.27739*%
%ADD26RoundRect,0.08906X-0.55647X0.30647X0.55647X0.30647*%
%ADD27RoundRect,0.09093X-0.75455X0.45455X0.75455X0.45455*%
%ADD28RoundRect,0.09093X-0.45455X-0.75455X-0.45455X0.75455*%
%ADD29RoundRect,0.09258X-0.45471X-0.45471X-0.45471X0.45471*%
%ADD30RoundRect,0.08771X-0.27695X-0.28977X-0.27695X0.28977*%
%ADD31RoundRect,0.09164X-0.45518X-0.40518X-0.45518X0.40518*%
%ADD32RoundRect,0.09164X-0.40518X0.45518X0.40518X0.45518*%
%ADD33RoundRect,0.07831X-0.13165X-0.31164X-0.13165X0.31164*%
%ADD34RoundRect,0.07831X-0.31164X0.13165X0.31164X0.13165*%
%ADD35RoundRect,0.09712X-1.05224X-1.05224X-1.05224X1.05224*%
%ADD36RoundRect,0.07882X-0.13639X-0.13639X-0.13639X0.13639*%
%ADD37RoundRect,0.08722X-0.25739X0.45739X0.25739X0.45739*%
%ADD38O,0.902X0.38201*%
%ADD39O,0.38201X0.902*%
%ADD40RoundRect,0.09654X-0.85273X0.85273X0.85273X0.85273*%
%ADD41C,1.802*%
%ADD42RoundRect,0.09681X-0.90259X1.25259X0.90259X1.25259*%
%ADD43RoundRect,0.09681X-0.90259X1.40264X0.90259X1.40264*%
%ADD44RoundRect,0.09681X-0.90259X1.50259X0.90259X1.50259*%
%ADD45RoundRect,0.09459X-0.6037X1.1037X0.6037X1.1037*%
%ADD46RoundRect,0.09551X-0.80324X0.70324X0.80324X0.70324*%
%ADD47RoundRect,0.09049X-0.35575X0.80575X0.35575X0.80575*%
%ADD48RoundRect,0.09131X-0.40514X0.43715X0.40514X0.43715*%
%ADD49RoundRect,0.09169X0.17678X-0.88978X-0.88978X0.17678*%
%ADD50RoundRect,0.09336X0.17678X-0.88999X-0.88999X0.17678*%
G75*


G04 Pad Start*
G54D10*
G01X6380312Y-3892926D03*
G01X6005150Y-3895538D03*
G54D11*
G01X2197100Y-2120900D03*
G01X4912990Y-4045528D03*
G54D12*
G01X5092391Y-4045528D03*
G01X3477149Y-1416577D03*
G01X3477149Y-1246477D03*
G54D13*
G01X3477149Y-1076377D03*
G54D12*
G01X3477149Y-1586677D03*
G01X3787844Y-1587343D03*
G54D13*
G01X3782047Y-1080527D03*
G54D12*
G01X3782047Y-1250527D03*
G01X3782047Y-1420527D03*
G01X2197100Y-1930400D03*
G54D14*
G01X5704815Y-1277645D03*
G01X5624805Y-1277645D03*
G01X5064811Y-1277645D03*
G01X5144795Y-1277645D03*
G54D16*
G01X5209794Y-1277645D03*
G01X5259807Y-1277645D03*
G01X5309794Y-1277645D03*
G01X5359806Y-1277645D03*
G01X5409794Y-1277645D03*
G01X5459806Y-1277645D03*
G01X5509793Y-1277645D03*
G01X5559806Y-1277645D03*
G54D17*
G01X4952797Y-805155D03*
G01X5816803Y-805155D03*
G54D18*
G01X4952797Y-1220140D03*
G01X5816803Y-1220140D03*
G54D19*
G01X7006312Y-2278113D03*
G01X7006312Y-2362136D03*
G01X6877481Y-2362136D03*
G01X6877481Y-2278113D03*
G01X6830220Y-3405250D03*
G01X6830220Y-3321227D03*
G01X6599808Y-3100172D03*
G01X6599808Y-3016149D03*
G54D20*
G01X6231534Y-3653101D03*
G01X6318097Y-3653101D03*
G01X6085934Y-3654890D03*
G01X5999371Y-3654890D03*
G54D21*
G01X5839007Y-3114333D03*
G01X5688334Y-3114333D03*
G54D22*
G01X6261062Y-3151160D03*
G01X6211049Y-3151160D03*
G01X6161062Y-3151160D03*
G01X6111050Y-3151160D03*
G01X6061062Y-3151160D03*
G54D23*
G01X5970308Y-3241915D03*
G01X5970308Y-3291902D03*
G01X5970308Y-3341914D03*
G01X5970308Y-3391902D03*
G01X5970308Y-3441914D03*
G54D22*
G01X6061062Y-3532668D03*
G01X6111050Y-3532668D03*
G01X6161062Y-3532668D03*
G01X6211049Y-3532668D03*
G01X6261062Y-3532668D03*
G54D23*
G01X6351816Y-3441914D03*
G01X6351816Y-3391902D03*
G01X6351816Y-3341914D03*
G01X6351816Y-3291902D03*
G01X6351816Y-3241915D03*
G54D24*
G01X6161062Y-3341914D03*
G54D25*
G01X4008404Y-1376976D03*
G01X4092427Y-1376976D03*
G01X4008404Y-981500D03*
G01X4092427Y-981500D03*
G54D26*
G01X4380751Y-1793023D03*
G01X4380751Y-1603031D03*
G01X4640771Y-1603031D03*
G01X4640771Y-1698027D03*
G01X4640771Y-1793023D03*
G54D19*
G01X4343018Y-3906111D03*
G01X4343018Y-3990134D03*
G54D20*
G01X2470449Y-1961272D03*
G01X2383886Y-1961272D03*
G01X4348096Y-3591773D03*
G01X4434659Y-3591773D03*
G01X4317787Y-2456552D03*
G01X4404350Y-2456552D03*
G01X4319462Y-2309318D03*
G01X4406025Y-2309318D03*
G54D27*
G01X4133243Y-3955390D03*
G01X4133243Y-3828390D03*
G01X4133243Y-3701390D03*
G01X4133243Y-3574390D03*
G01X4133243Y-3447390D03*
G01X4133243Y-3320390D03*
G01X4133243Y-3193390D03*
G01X4133243Y-3066390D03*
G01X4133243Y-2939390D03*
G01X4133243Y-2812390D03*
G01X4133243Y-2685390D03*
G01X4133243Y-2558390D03*
G01X4133243Y-2431390D03*
G01X4133243Y-2304390D03*
G54D28*
G01X3956738Y-2176399D03*
G01X3829738Y-2176399D03*
G01X3702738Y-2176399D03*
G01X3575738Y-2176399D03*
G01X3448738Y-2176399D03*
G01X3321738Y-2176399D03*
G01X3194738Y-2176399D03*
G01X3067738Y-2176399D03*
G01X2940738Y-2176399D03*
G01X2813738Y-2176399D03*
G01X2686738Y-2176399D03*
G01X2559738Y-2179396D03*
G54D27*
G01X2383234Y-2304390D03*
G01X2383234Y-2431390D03*
G01X2383234Y-2558390D03*
G01X2383234Y-2685390D03*
G01X2383234Y-2812390D03*
G01X2383234Y-2939390D03*
G01X2383234Y-3066390D03*
G01X2383234Y-3193390D03*
G01X2383234Y-3320390D03*
G01X2383234Y-3447390D03*
G01X2383234Y-3574390D03*
G01X2383234Y-3701390D03*
G01X2383234Y-3828390D03*
G01X2383234Y-3955390D03*
G54D29*
G01X3408251Y-3183382D03*
G01X3548256Y-3183382D03*
G01X3268246Y-3183382D03*
G01X3268246Y-3323387D03*
G01X3408251Y-3323387D03*
G01X3548256Y-3323387D03*
G01X3548256Y-3043377D03*
G01X3408251Y-3043377D03*
G01X3268246Y-3043377D03*
G54D20*
G01X4308763Y-2939142D03*
G01X4395326Y-2939142D03*
G01X4305823Y-2687540D03*
G01X4392386Y-2687540D03*
G54D30*
G01X5514463Y-1495531D03*
G01X5514463Y-1582095D03*
G01X5248016Y-1554379D03*
G01X5248016Y-1640942D03*
G54D31*
G01X5098674Y-1492864D03*
G01X5098674Y-1632869D03*
G54D32*
G01X4356026Y-3753873D03*
G01X4496030Y-3753873D03*
G54D33*
G01X4395441Y-1220390D03*
G01X4445505Y-1220390D03*
G01X4495543Y-1220390D03*
G01X4545581Y-1220390D03*
G01X4595365Y-1220390D03*
G01X4645403Y-1220390D03*
G54D34*
G01X4709919Y-1155798D03*
G01X4709919Y-1106039D03*
G01X4709919Y-1056001D03*
G01X4709919Y-1005963D03*
G01X4709919Y-955925D03*
G01X4709919Y-905887D03*
G54D33*
G01X4645428Y-840406D03*
G01X4595365Y-840406D03*
G01X4545581Y-840406D03*
G01X4495543Y-840406D03*
G01X4445505Y-840406D03*
G01X4395467Y-840406D03*
G54D34*
G01X4329935Y-905887D03*
G01X4329935Y-955925D03*
G01X4329935Y-1005963D03*
G01X4329935Y-1056001D03*
G01X4329935Y-1106039D03*
G01X4329935Y-1155798D03*
G54D35*
G01X4519927Y-1030347D03*
G54D36*
G01X4347435Y-1202889D03*
G01X4692418Y-1202889D03*
G01X4692418Y-857906D03*
G01X4347435Y-857906D03*
G54D30*
G01X4245340Y-1717557D03*
G01X4245340Y-1630994D03*
G54D19*
G01X4228265Y-1268017D03*
G01X4228265Y-1352040D03*
G54D25*
G01X4008404Y-1113326D03*
G01X4092427Y-1113326D03*
G01X4008404Y-1245151D03*
G01X4092427Y-1245151D03*
G54D20*
G01X4795123Y-1736289D03*
G01X4881686Y-1736289D03*
G01X4881686Y-1594915D03*
G01X4795123Y-1594915D03*
G01X4881686Y-1872368D03*
G01X4795123Y-1872368D03*
G54D30*
G01X5834696Y-3544469D03*
G01X5834696Y-3631032D03*
G54D20*
G01X3857543Y-2008882D03*
G01X3944106Y-2008882D03*
G01X3859241Y-1878998D03*
G01X3945804Y-1878998D03*
G01X3361395Y-2006449D03*
G01X3447959Y-2006449D03*
G01X3131373Y-2006449D03*
G01X3217936Y-2006449D03*
G01X2987914Y-2006449D03*
G01X2901351Y-2006449D03*
G01X4195898Y-1994654D03*
G01X4109335Y-1994654D03*
G01X4195656Y-1863882D03*
G01X4109093Y-1863882D03*
G01X5762345Y-3257696D03*
G01X5848908Y-3257696D03*
G01X5761433Y-3385095D03*
G01X5847996Y-3385095D03*
G01X6194628Y-2739174D03*
G01X6108064Y-2739174D03*
G01X6414288Y-2739645D03*
G01X6327725Y-2739645D03*
G54D25*
G01X7080703Y-3416678D03*
G01X7164726Y-3416678D03*
G01X7372091Y-3417688D03*
G01X7288068Y-3417688D03*
G01X7604321Y-3230461D03*
G01X7520297Y-3230461D03*
G54D20*
G01X7608976Y-3098713D03*
G01X7522413Y-3098713D03*
G54D37*
G01X6688759Y-3227564D03*
G01X6593763Y-3227564D03*
G01X6498767Y-3227564D03*
G01X6498767Y-3487558D03*
G01X6688759Y-3487558D03*
G54D38*
G01X7348709Y-3246517D03*
G01X7348709Y-3196504D03*
G01X7348709Y-3146517D03*
G01X7348709Y-3096504D03*
G01X7348709Y-3046517D03*
G54D39*
G01X7258692Y-3006512D03*
G01X7208704Y-3006512D03*
G01X7158692Y-3006512D03*
G54D38*
G01X7068700Y-3046517D03*
G01X7068700Y-3096504D03*
G01X7068700Y-3146517D03*
G01X7068700Y-3196504D03*
G01X7068700Y-3246517D03*
G54D39*
G01X7158692Y-3286496D03*
G01X7208704Y-3286496D03*
G01X7258692Y-3286496D03*
G54D40*
G01X7563930Y-3967258D03*
G54D41*
G01X7309930Y-3967258D03*
G01X7055930Y-3967258D03*
G01X6801930Y-3967258D03*
G54D42*
G01X2663914Y-865105D03*
G54D43*
G01X3078899Y-1545089D03*
G54D44*
G01X3243897Y-865080D03*
G54D43*
G01X2388908Y-1545089D03*
G54D45*
G01X7544308Y-1069810D03*
G01X5994298Y-1069810D03*
G54D46*
G01X6084316Y-2029803D03*
G01X7569302Y-2029803D03*
G54D47*
G01X7424318Y-2079790D03*
G01X7314311Y-2079790D03*
G01X7204329Y-2079790D03*
G01X7094322Y-2079790D03*
G01X6984314Y-2079790D03*
G01X6874307Y-2079790D03*
G01X6764325Y-2079790D03*
G01X6654317Y-2079790D03*
G01X6544310Y-2079790D03*
G54D19*
G01X4687067Y-1457208D03*
G01X4687067Y-1373185D03*
G01X4818079Y-1456446D03*
G01X4818079Y-1372423D03*
G54D48*
G01X4173968Y-835907D03*
G01X4033989Y-835907D03*
G54D49*
G01X5332584Y-2161819D03*
G01X5233586Y-2260818D03*
G01X5134587Y-2359816D03*
G01X5594197Y-2819425D03*
G01X5693195Y-2720427D03*
G01X5792212Y-2621447D03*
G54D50*
G01X5746251Y-2207798D03*
G01X5180566Y-2773482D03*
G54D25*
G01X6471513Y-3653066D03*
G01X6555536Y-3653066D03*
G54D30*
G01X6372188Y-2289651D03*
G01X6372188Y-2203088D03*
G01X6747185Y-2276843D03*
G01X6747185Y-2363406D03*
G01X7202517Y-2276843D03*
G01X7202517Y-2363406D03*
G54D20*
G01X4306803Y-2812097D03*
G01X4393366Y-2812097D03*
G04 Pad End*

M02*

