G04 Layer: DrillDrawingLayer*
G04 EasyEDA Pro v2.2.45.4, 2026-02-25 10:19:21*
G04 Gerber Generator version 0.3*
G04 Scale: 100 percent, Rotated: No, Reflected: No*
G04 Dimensions in millimeters*
G04 Leading zeros omitted, absolute positions, 4 integers and 5 decimals*
G04 Generated by one-click*
%FSLAX45Y45*%
%MOMM*%
%AMIconRect*4,1,4,0.28,-0.28,-0.28,-0.28,-0.28,0.28,0.28,0.28,0.28,-0.28,0*4,0,4,0.233333,-0.233333,0.233333,0.233333,-0.233333,0.233333,-0.233333,-0.233333,0.233333,-0.233333,0*%
%AMIconTriangle*4,1,3,-0.339593,0.240473,0.339593,0.240473,0,-0.37884,-0.339593,0.240473,0*4,0,3,-0.265673,0.19404,0,-0.27342,0.266233,0.19404,-0.265673,0.19404,0*%
%AMIconStar6*4,1,12,0.12068,0.20888,0.298527,0.172713,0.241313,0,0.298527,-0.17206,0.12068,-0.208227,0,-0.344073,-0.120073,-0.208227,-0.298573,-0.17206,-0.240707,0,-0.298573,0.17206,-0.120073,0.20888,0,0.344073,0.12068,0.20888,0*4,0,12,-0.000467,0.273467,-0.090067,0.171733,-0.237533,0.136733,-0.193667,-0.007467,-0.237533,-0.1372,-0.090067,-0.171733,-0.000467,-0.273933,0.090067,-0.171733,0.237533,-0.1372,0.194133,0.007,0.237533,0.1372,0.090067,0.171267,-0.000467,0.273467,0*%
%AMIconStar4*4,1,8,-0.311733,0.311733,0,0.202533,0.311733,0.311733,0.202533,0,0.311733,-0.311733,0,-0.202533,-0.304407,-0.311733,-0.202533,0,-0.311733,0.311733,0*4,0,8,0.233333,-0.233333,0.1512,0,0.233333,0.233333,0,0.1512,-0.233333,0.233333,-0.1512,0,-0.233333,-0.233333,0,-0.1512,0.233333,-0.233333,0*%
%AMIconPlus*4,1,12,0.1736,-0.28,-0.1736,-0.28,-0.1736,-0.1736,-0.28,-0.1736,-0.28,0.1736,-0.1736,0.1736,-0.1736,0.28,0.1736,0.28,0.1736,0.1736,0.28,0.1736,0.28,-0.1736,0.1736,-0.1736,0.1736,-0.28,0*4,0,12,0.126933,-0.233333,0.126933,-0.126933,0.233333,-0.126933,0.233333,0.126933,0.126933,0.126933,0.126933,0.233333,-0.126933,0.233333,-0.126933,0.126933,-0.233333,0.126933,-0.233333,-0.126933,-0.126933,-0.126933,-0.126933,-0.233333,0.126933,-0.233333,0*%
%AMIconX*4,1,16,0.28,-0.28,0.076347,-0.28,0,-0.203653,-0.076347,-0.28,-0.28,-0.28,-0.28,-0.076347,-0.203653,0,-0.28,0.076347,-0.28,0.28,-0.076347,0.28,0,0.203653,0.076347,0.28,0.28,0.28,0.28,0.076347,0.203653,0,0.28,-0.076347,0.28,-0.28,0*4,0,16,0.23352,-0.23296,0.23352,-0.095853,0.137107,0.000093,0.23352,0.095853,0.23352,0.2331,0.095853,0.2331,0,0.137107,-0.095853,0.2331,-0.23352,0.2331,-0.23352,0.095853,-0.137107,0.000093,-0.23352,-0.095853,-0.23352,-0.23296,-0.095853,-0.23296,0,-0.137107,0.095853,-0.23296,0.23352,-0.23296,0*%
%AMIconDiamond*4,1,4,0,-0.364,-0.364,0,0,0.364,0.364,0,0,-0.364,0*4,0,4,0,-0.284807,0.284807,0,0,0.28504,-0.284807,0,0,-0.284807,0*%
%AMIconRect2*4,1,6,0.28,-0.28,-0.28,-0.28,-0.28,0.28,-0.23352,0.2331,-0.233333,-0.233333,0.23352,-0.233333,0.28,-0.28,0*4,1,6,0.28,-0.28,0.23352,-0.233333,0.23352,0.2331,-0.23352,0.2331,-0.28,0.28,0.28,0.28,0.28,-0.28,0*4,1,6,0.186853,-0.186667,-0.186667,-0.186667,-0.186667,0.186853,-0.14,0.140187,-0.14,-0.14,0.140187,-0.14,0.186853,-0.186667,0*4,1,6,0.186853,-0.186667,0.140187,-0.14,0.140187,0.140187,-0.14,0.140187,-0.186667,0.186853,0.186853,0.186853,0.186853,-0.186667,0*%
%AMCharA*4,1,8,-0.170893,-0.26096,-0.21448,-0.244347,-0.021187,0.26096,0.0224,0.26096,0.21448,-0.244347,0.170893,-0.26096,0.10696,-0.09268,-0.106587,-0.09268,-0.170893,-0.26096,0*4,0,3,-0.088667,-0.046013,0.089133,-0.046013,0.000467,0.18732,-0.088667,-0.046013,0*%
%AMCharB*4,1,17,-0.183587,-0.26516,-0.183587,0.26516,0.046947,0.26516,0.123293,0.241453,0.15596,0.212427,0.183587,0.159787,0.1834,0.093053,0.160067,0.04732,0.132627,0.01792,0.121053,0.01176,0.132627,0.005413,0.160067,-0.023987,0.1834,-0.06972,0.183587,-0.159787,0.15596,-0.212427,0.123293,-0.24164,0.046947,-0.26516,-0.183587,-0.26516,0*4,0,10,-0.13692,-0.218493,0.043213,-0.218493,0.103413,-0.1988,0.120213,-0.182187,0.139347,-0.14392,0.139347,-0.08596,0.120213,-0.048347,0.103413,-0.03164,0.043213,-0.012133,-0.13692,-0.012133,-0.13692,-0.218493,0*4,0,10,-0.13692,0.034533,0.04312,0.034533,0.103413,0.054973,0.120213,0.071773,0.139347,0.109293,0.139347,0.143733,0.120213,0.182187,0.103413,0.1988,0.043213,0.218493,-0.13692,0.218493,-0.13692,0.034533,0*%
%ADD10IconRect*%
%ADD11C,0.616X0.522667*%
%ADD12IconTriangle*%
%ADD13IconStar6*%
%ADD14IconStar4*%
%ADD15IconPlus*%
%ADD16IconX*%
%ADD17IconDiamond*%
%ADD18IconRect2*%
%ADD19CharA*%
%ADD20CharB*%
G75*


G04 Drill Drawing Start*
G54D10*
G01X6005150Y-3895538D03*
G01X6380312Y-3892926D03*
G54D11*
G01X4952797Y-805155D03*
G01X5816803Y-805155D03*
G54D12*
G01X4952797Y-1220140D03*
G01X5816803Y-1220140D03*
G54D13*
G01X5095799Y-1170203D03*
G01X5673801Y-1170203D03*
G54D14*
G01X2433891Y-1205084D03*
G01X3033915Y-1205084D03*
G54D15*
G01X6451778Y-1029805D03*
G01X7251802Y-1029805D03*
G54D16*
G01X5329064Y-2624985D03*
G01X5597753Y-2356296D03*
G54D17*
G01X6801930Y-3967258D03*
G01X7055930Y-3967258D03*
G01X7309930Y-3967258D03*
G01X7563930Y-3967258D03*
G54D18*
G01X2734304Y-1768862D03*
G01X2834344Y-1768862D03*
G01X2934384Y-1768862D03*
G01X3034424Y-1768862D03*
G01X3134464Y-1768862D03*
G54D19*
G01X2197100Y-1930400D03*
G01X3477149Y-1586677D03*
G01X3477149Y-1416577D03*
G01X3477149Y-1246477D03*
G01X3477149Y-1076377D03*
G01X3782047Y-1420527D03*
G01X3782047Y-1250527D03*
G01X3782047Y-1080527D03*
G01X3787844Y-1587343D03*
G01X5092391Y-4045528D03*
G54D20*
G01X2535857Y-3233922D03*
G01X2535857Y-3121033D03*
G01X2535857Y-2976652D03*
G01X2535857Y-2865376D03*
G01X2535857Y-2746006D03*
G01X2538369Y-3947273D03*
G01X2596407Y-1943784D03*
G01X2773614Y-1566680D03*
G01X3209308Y-3379588D03*
G01X3213011Y-3113313D03*
G01X3213609Y-2990390D03*
G01X3219257Y-3253123D03*
G01X3250972Y-1073194D03*
G01X3318776Y-3253917D03*
G01X3325873Y-1407561D03*
G01X3338865Y-2991184D03*
G01X3339244Y-3376482D03*
G01X3349566Y-3104748D03*
G01X3474268Y-3377437D03*
G01X3477978Y-3271251D03*
G01X3478569Y-2991360D03*
G01X3488111Y-3122082D03*
G01X3605098Y-3109779D03*
G01X3609974Y-3378393D03*
G01X3611155Y-2989195D03*
G01X3612124Y-3255828D03*
G01X3901236Y-941559D03*
G01X3935311Y-1311682D03*
G01X3952355Y-1036249D03*
G01X3960769Y-3961787D03*
G01X4028355Y-1800866D03*
G01X4155986Y-2067698D03*
G01X4197820Y-945233D03*
G01X4207260Y-1023203D03*
G01X4214428Y-1099404D03*
G01X4259716Y-3829127D03*
G01X4267258Y-891147D03*
G01X4273225Y-778133D03*
G01X4318210Y-1277158D03*
G01X4324160Y-1933468D03*
G01X4346846Y-1704764D03*
G01X4360446Y-2028031D03*
G01X4421781Y-767672D03*
G01X4432978Y-1029564D03*
G01X4493856Y-3917527D03*
G01X4520122Y-1136274D03*
G01X4520122Y-1029564D03*
G01X4520122Y-928085D03*
G01X4521633Y-767207D03*
G01X4524676Y-3593315D03*
G01X4624739Y-766626D03*
G01X4626831Y-1029564D03*
G01X4674647Y-1292741D03*
G01X4733407Y-1674425D03*
G01X4742649Y-1523945D03*
G01X4784670Y-1129189D03*
G01X4784803Y-1007245D03*
G01X4784803Y-905767D03*
G01X4980915Y-1878075D03*
G01X4980915Y-1741549D03*
G01X4980915Y-1605024D03*
G01X5011844Y-1382419D03*
G01X5129210Y-1728603D03*
G01X5318387Y-2344602D03*
G01X5352688Y-2733647D03*
G01X5514178Y-1701699D03*
G01X5541393Y-3198085D03*
G01X5544798Y-3331759D03*
G01X5561263Y-2215434D03*
G01X5604972Y-3116538D03*
G01X5624445Y-1434420D03*
G01X5675213Y-3391772D03*
G01X5675213Y-3265623D03*
G01X5787645Y-1400996D03*
G01X5977047Y-3521370D03*
G01X6075666Y-3425777D03*
G01X6075666Y-3340777D03*
G01X6075666Y-3255777D03*
G01X6106156Y-2636033D03*
G01X6107866Y-1075025D03*
G01X6156321Y-3072210D03*
G01X6160666Y-3425777D03*
G01X6160666Y-3340777D03*
G01X6160666Y-3255777D03*
G01X6187898Y-1930271D03*
G01X6245666Y-3425777D03*
G01X6245666Y-3340777D03*
G01X6245666Y-3255777D03*
G01X6264896Y-2186868D03*
G01X6308091Y-2909241D03*
G01X6375279Y-3651715D03*
G01X6416264Y-3344304D03*
G01X6504482Y-2738290D03*
G01X6597847Y-3311265D03*
G01X6612258Y-2906575D03*
G01X6631869Y-3670641D03*
G01X6632027Y-3592590D03*
G01X6676341Y-2802086D03*
G01X6723199Y-2926290D03*
G01X6745678Y-2460966D03*
G01X6757913Y-3592676D03*
G01X6780255Y-3059975D03*
G01X6813988Y-3141506D03*
G01X6836476Y-3232466D03*
G01X6873737Y-3638645D03*
G01X6874357Y-2194191D03*
G01X6879065Y-2460966D03*
G01X6973030Y-3034518D03*
G01X7004606Y-2460966D03*
G01X7028536Y-3318305D03*
G01X7048605Y-2926241D03*
G01X7079342Y-3501320D03*
G01X7128578Y-2198899D03*
G01X7158512Y-3372536D03*
G01X7183970Y-2921566D03*
G01X7203902Y-2460966D03*
G01X7279423Y-3501320D03*
G01X7314731Y-3774371D03*
G01X7318105Y-3306120D03*
G01X7361111Y-2980355D03*
G01X7433107Y-1081302D03*
G01X7434219Y-3233012D03*
G01X7446549Y-3418933D03*
G01X7503028Y-2982147D03*
G01X7569632Y-2158599D03*
G01X7670748Y-3164203D03*
G04 Drill Drawing End*

M02*

