G04 Layer: TopPasteMaskLayer*
G04 EasyEDA Pro v2.2.45.4, 2026-02-25 10:19:21*
G04 Gerber Generator version 0.3*
G04 Scale: 100 percent, Rotated: No, Reflected: No*
G04 Dimensions in millimeters*
G04 Leading zeros omitted, absolute positions, 4 integers and 5 decimals*
G04 Generated by one-click*
%FSLAX45Y45*%
%MOMM*%
%AMRect*21,1,$1,$2,0,0,$3*%
%ADD10C,1.0*%
%ADD11R,0.54X0.5*%
%ADD12R,0.28001X0.665*%
%ADD13R,0.665X0.28001*%
%ADD14R,2.69999X2.69999*%
%ADD15R,0.5X0.54*%
%ADD16R,1.1069X0.6*%
%ADD17R,1.1X0.6*%
%ADD18R,1.5X0.9*%
%ADD19R,0.9X1.5*%
%ADD20R,0.9X0.9*%
%ADD21R,0.9X0.8*%
%ADD22R,0.8X0.9*%
%ADD23R,0.5X0.9*%
%ADD24O,0.8X0.28001*%
%ADD25O,0.28001X0.8*%
%ADD26R,1.8X2.49999*%
%ADD27R,1.8X2.8001*%
%ADD28R,1.8X2.99999*%
%ADD29R,1.2X2.2*%
%ADD30R,1.6X1.4*%
%ADD31R,0.7X1.6*%
%ADD32Rect,1.5X1.0X135.0*%
G75*


G04 PolygonModel Start*
G36*
G01X5734804Y-1335148D02*
G01X5674805Y-1335148D01*
G01X5674805Y-1220147D01*
G01X5734804Y-1220147D01*
G01X5734804Y-1335148D01*
G37*
G36*
G01X5654805Y-1335148D02*
G01X5594805Y-1335148D01*
G01X5594805Y-1220147D01*
G01X5654805Y-1220147D01*
G01X5654805Y-1335148D01*
G37*
G36*
G01X5094806Y-1335148D02*
G01X5034806Y-1335148D01*
G01X5034806Y-1220147D01*
G01X5094806Y-1220147D01*
G01X5094806Y-1335148D01*
G37*
G36*
G01X5174806Y-1335148D02*
G01X5114806Y-1335148D01*
G01X5114806Y-1220147D01*
G01X5174806Y-1220147D01*
G01X5174806Y-1335148D01*
G37*
G36*
G01X5224808Y-1335148D02*
G01X5194805Y-1335148D01*
G01X5194805Y-1220147D01*
G01X5224808Y-1220147D01*
G01X5224808Y-1335148D01*
G37*
G36*
G01X5274808Y-1335148D02*
G01X5244805Y-1335148D01*
G01X5244805Y-1220147D01*
G01X5274808Y-1220147D01*
G01X5274808Y-1335148D01*
G37*
G36*
G01X5324808Y-1335148D02*
G01X5294805Y-1335148D01*
G01X5294805Y-1220147D01*
G01X5324808Y-1220147D01*
G01X5324808Y-1335148D01*
G37*
G36*
G01X5374808Y-1335148D02*
G01X5344805Y-1335148D01*
G01X5344805Y-1220147D01*
G01X5374808Y-1220147D01*
G01X5374808Y-1335148D01*
G37*
G36*
G01X5424808Y-1335148D02*
G01X5394805Y-1335148D01*
G01X5394805Y-1220147D01*
G01X5424808Y-1220147D01*
G01X5424808Y-1335148D01*
G37*
G36*
G01X5474807Y-1335148D02*
G01X5444805Y-1335148D01*
G01X5444805Y-1220147D01*
G01X5474807Y-1220147D01*
G01X5474807Y-1335148D01*
G37*
G36*
G01X5524807Y-1335148D02*
G01X5494805Y-1335148D01*
G01X5494805Y-1220147D01*
G01X5524807Y-1220147D01*
G01X5524807Y-1335148D01*
G37*
G36*
G01X5574807Y-1335148D02*
G01X5544805Y-1335148D01*
G01X5544805Y-1220147D01*
G01X5574807Y-1220147D01*
G01X5574807Y-1335148D01*
G37*
G36*
G01X5002797Y-845157D02*
G02X4902797Y-845157I-50000J0D01*
G01X4902797Y-765157D01*
G02X5002797Y-765157I50000J0D01*
G01X5002797Y-845157D01*
G37*
G36*
G01X5866803Y-845157D02*
G02X5766803Y-845157I-50000J0D01*
G01X5766803Y-765157D01*
G02X5866803Y-765157I50000J0D01*
G01X5866803Y-845157D01*
G37*
G36*
G01X5002797Y-1275143D02*
G02X4902797Y-1275143I-50000J0D01*
G01X4902797Y-1165141D01*
G02X5002797Y-1165141I50000J0D01*
G01X5002797Y-1275143D01*
G37*
G36*
G01X5866803Y-1275143D02*
G02X5766803Y-1275143I-50000J0D01*
G01X5766803Y-1165141D01*
G02X5866803Y-1165141I50000J0D01*
G01X5866803Y-1275143D01*
G37*
G36*
G01X6261315Y-3630101D02*
G01X6261315Y-3676101D01*
G01X6257315Y-3680101D01*
G01X6207251Y-3680101D01*
G01X6203251Y-3676101D01*
G01X6203251Y-3630101D01*
G01X6207251Y-3626101D01*
G01X6257315Y-3626101D01*
G01X6261315Y-3630101D01*
G37*
G36*
G01X6288316Y-3630101D02*
G01X6288316Y-3676101D01*
G01X6292316Y-3680101D01*
G01X6342379Y-3680101D01*
G01X6346380Y-3676101D01*
G01X6346380Y-3630101D01*
G01X6342379Y-3626101D01*
G01X6292316Y-3626101D01*
G01X6288316Y-3630101D01*
G37*
G36*
G01X6056153Y-3677890D02*
G01X6056153Y-3631890D01*
G01X6060153Y-3627890D01*
G01X6110217Y-3627890D01*
G01X6114217Y-3631890D01*
G01X6114217Y-3677890D01*
G01X6110217Y-3681890D01*
G01X6060153Y-3681890D01*
G01X6056153Y-3677890D01*
G37*
G36*
G01X6029153Y-3677890D02*
G01X6029153Y-3631890D01*
G01X6025152Y-3627890D01*
G01X5975089Y-3627890D01*
G01X5971088Y-3631890D01*
G01X5971088Y-3677890D01*
G01X5975089Y-3681890D01*
G01X6025152Y-3681890D01*
G01X6029153Y-3677890D01*
G37*
G36*
G01X5883172Y-3069334D02*
G01X5803173Y-3069334D01*
G01X5798171Y-3074335D01*
G01X5798171Y-3097132D01*
G01X5835171Y-3097132D01*
G01X5835171Y-3130132D01*
G01X5798171Y-3130132D01*
G01X5798171Y-3154335D01*
G01X5803173Y-3159334D01*
G01X5883172Y-3159334D01*
G01X5888171Y-3154335D01*
G01X5888171Y-3074335D01*
G01X5883172Y-3069334D01*
G37*
G36*
G01X5644169Y-3159332D02*
G01X5724168Y-3159332D01*
G01X5729170Y-3154330D01*
G01X5729170Y-3131534D01*
G01X5692169Y-3131534D01*
G01X5692169Y-3098534D01*
G01X5729170Y-3098534D01*
G01X5729170Y-3074330D01*
G01X5724168Y-3069332D01*
G01X5644169Y-3069332D01*
G01X5639170Y-3074330D01*
G01X5639170Y-3154330D01*
G01X5644169Y-3159332D01*
G37*
G36*
G01X2440667Y-1984271D02*
G01X2440667Y-1938272D01*
G01X2444668Y-1934271D01*
G01X2494731Y-1934271D01*
G01X2498732Y-1938272D01*
G01X2498732Y-1984271D01*
G01X2494731Y-1988272D01*
G01X2444668Y-1988272D01*
G01X2440667Y-1984271D01*
G37*
G36*
G01X2413667Y-1984271D02*
G01X2413667Y-1938272D01*
G01X2409667Y-1934271D01*
G01X2359603Y-1934271D01*
G01X2355603Y-1938272D01*
G01X2355603Y-1984271D01*
G01X2359603Y-1988272D01*
G01X2409667Y-1988272D01*
G01X2413667Y-1984271D01*
G37*
G36*
G01X4377877Y-3568774D02*
G01X4377877Y-3614773D01*
G01X4373877Y-3618774D01*
G01X4323813Y-3618774D01*
G01X4319813Y-3614773D01*
G01X4319813Y-3568774D01*
G01X4323813Y-3564773D01*
G01X4373877Y-3564773D01*
G01X4377877Y-3568774D01*
G37*
G36*
G01X4404877Y-3568774D02*
G01X4404877Y-3614773D01*
G01X4408878Y-3618774D01*
G01X4458941Y-3618774D01*
G01X4462942Y-3614773D01*
G01X4462942Y-3568774D01*
G01X4458941Y-3564773D01*
G01X4408878Y-3564773D01*
G01X4404877Y-3568774D01*
G37*
G36*
G01X4347568Y-2433552D02*
G01X4347568Y-2479552D01*
G01X4343568Y-2483552D01*
G01X4293504Y-2483552D01*
G01X4289504Y-2479552D01*
G01X4289504Y-2433552D01*
G01X4293504Y-2429552D01*
G01X4343568Y-2429552D01*
G01X4347568Y-2433552D01*
G37*
G36*
G01X4374569Y-2433552D02*
G01X4374569Y-2479552D01*
G01X4378569Y-2483552D01*
G01X4428632Y-2483552D01*
G01X4432633Y-2479552D01*
G01X4432633Y-2433552D01*
G01X4428632Y-2429552D01*
G01X4378569Y-2429552D01*
G01X4374569Y-2433552D01*
G37*
G36*
G01X4349244Y-2286319D02*
G01X4349244Y-2332318D01*
G01X4345243Y-2336319D01*
G01X4295180Y-2336319D01*
G01X4291179Y-2332318D01*
G01X4291179Y-2286319D01*
G01X4295180Y-2282318D01*
G01X4345243Y-2282318D01*
G01X4349244Y-2286319D01*
G37*
G36*
G01X4376244Y-2286319D02*
G01X4376244Y-2332318D01*
G01X4380244Y-2336319D01*
G01X4430308Y-2336319D01*
G01X4434308Y-2332318D01*
G01X4434308Y-2286319D01*
G01X4430308Y-2282318D01*
G01X4380244Y-2282318D01*
G01X4376244Y-2286319D01*
G37*
G36*
G01X4338545Y-2916142D02*
G01X4338545Y-2962141D01*
G01X4334544Y-2966142D01*
G01X4284481Y-2966142D01*
G01X4280480Y-2962141D01*
G01X4280480Y-2916142D01*
G01X4284481Y-2912141D01*
G01X4334544Y-2912141D01*
G01X4338545Y-2916142D01*
G37*
G36*
G01X4365545Y-2916142D02*
G01X4365545Y-2962141D01*
G01X4369545Y-2966142D01*
G01X4419609Y-2966142D01*
G01X4423609Y-2962141D01*
G01X4423609Y-2916142D01*
G01X4419609Y-2912141D01*
G01X4369545Y-2912141D01*
G01X4365545Y-2916142D01*
G37*
G36*
G01X4335605Y-2664541D02*
G01X4335605Y-2710540D01*
G01X4331604Y-2714541D01*
G01X4281541Y-2714541D01*
G01X4277540Y-2710540D01*
G01X4277540Y-2664541D01*
G01X4281541Y-2660540D01*
G01X4331604Y-2660540D01*
G01X4335605Y-2664541D01*
G37*
G36*
G01X4362605Y-2664541D02*
G01X4362605Y-2710540D01*
G01X4366605Y-2714541D01*
G01X4416669Y-2714541D01*
G01X4420669Y-2710540D01*
G01X4420669Y-2664541D01*
G01X4416669Y-2660540D01*
G01X4366605Y-2660540D01*
G01X4362605Y-2664541D01*
G37*
G36*
G01X5537463Y-1525313D02*
G01X5491464Y-1525313D01*
G01X5487463Y-1521312D01*
G01X5487463Y-1471249D01*
G01X5491464Y-1467249D01*
G01X5537463Y-1467249D01*
G01X5541464Y-1471249D01*
G01X5541464Y-1521312D01*
G01X5537463Y-1525313D01*
G37*
G36*
G01X5537463Y-1552313D02*
G01X5491464Y-1552313D01*
G01X5487463Y-1556314D01*
G01X5487463Y-1606377D01*
G01X5491464Y-1610378D01*
G01X5537463Y-1610378D01*
G01X5541464Y-1606377D01*
G01X5541464Y-1556314D01*
G01X5537463Y-1552313D01*
G37*
G36*
G01X5271016Y-1584160D02*
G01X5225016Y-1584160D01*
G01X5221016Y-1580160D01*
G01X5221016Y-1530096D01*
G01X5225016Y-1526096D01*
G01X5271016Y-1526096D01*
G01X5275016Y-1530096D01*
G01X5275016Y-1580160D01*
G01X5271016Y-1584160D01*
G37*
G36*
G01X5271016Y-1611160D02*
G01X5225016Y-1611160D01*
G01X5221016Y-1615161D01*
G01X5221016Y-1665224D01*
G01X5225016Y-1669225D01*
G01X5271016Y-1669225D01*
G01X5275016Y-1665224D01*
G01X5275016Y-1615161D01*
G01X5271016Y-1611160D01*
G37*
G36*
G01X4222341Y-1687776D02*
G01X4268340Y-1687776D01*
G01X4272340Y-1691776D01*
G01X4272340Y-1741840D01*
G01X4268340Y-1745840D01*
G01X4222341Y-1745840D01*
G01X4218340Y-1741840D01*
G01X4218340Y-1691776D01*
G01X4222341Y-1687776D01*
G37*
G36*
G01X4222341Y-1660775D02*
G01X4268340Y-1660775D01*
G01X4272340Y-1656775D01*
G01X4272340Y-1606712D01*
G01X4268340Y-1602711D01*
G01X4222341Y-1602711D01*
G01X4218340Y-1606712D01*
G01X4218340Y-1656775D01*
G01X4222341Y-1660775D01*
G37*
G36*
G01X4824904Y-1713290D02*
G01X4824904Y-1759289D01*
G01X4820904Y-1763290D01*
G01X4770840Y-1763290D01*
G01X4766840Y-1759289D01*
G01X4766840Y-1713290D01*
G01X4770840Y-1709289D01*
G01X4820904Y-1709289D01*
G01X4824904Y-1713290D01*
G37*
G36*
G01X4851904Y-1713290D02*
G01X4851904Y-1759289D01*
G01X4855905Y-1763290D01*
G01X4905968Y-1763290D01*
G01X4909969Y-1759289D01*
G01X4909969Y-1713290D01*
G01X4905968Y-1709289D01*
G01X4855905Y-1709289D01*
G01X4851904Y-1713290D01*
G37*
G36*
G01X4851904Y-1617914D02*
G01X4851904Y-1571915D01*
G01X4855905Y-1567915D01*
G01X4905968Y-1567915D01*
G01X4909969Y-1571915D01*
G01X4909969Y-1617914D01*
G01X4905968Y-1621915D01*
G01X4855905Y-1621915D01*
G01X4851904Y-1617914D01*
G37*
G36*
G01X4824904Y-1617914D02*
G01X4824904Y-1571915D01*
G01X4820904Y-1567915D01*
G01X4770840Y-1567915D01*
G01X4766840Y-1571915D01*
G01X4766840Y-1617914D01*
G01X4770840Y-1621915D01*
G01X4820904Y-1621915D01*
G01X4824904Y-1617914D01*
G37*
G36*
G01X4851904Y-1895368D02*
G01X4851904Y-1849368D01*
G01X4855905Y-1845368D01*
G01X4905968Y-1845368D01*
G01X4909969Y-1849368D01*
G01X4909969Y-1895368D01*
G01X4905968Y-1899368D01*
G01X4855905Y-1899368D01*
G01X4851904Y-1895368D01*
G37*
G36*
G01X4824904Y-1895368D02*
G01X4824904Y-1849368D01*
G01X4820904Y-1845368D01*
G01X4770840Y-1845368D01*
G01X4766840Y-1849368D01*
G01X4766840Y-1895368D01*
G01X4770840Y-1899368D01*
G01X4820904Y-1899368D01*
G01X4824904Y-1895368D01*
G37*
G36*
G01X5857696Y-3574250D02*
G01X5811696Y-3574250D01*
G01X5807696Y-3570250D01*
G01X5807696Y-3520187D01*
G01X5811696Y-3516186D01*
G01X5857696Y-3516186D01*
G01X5861696Y-3520187D01*
G01X5861696Y-3570250D01*
G01X5857696Y-3574250D01*
G37*
G36*
G01X5857696Y-3601251D02*
G01X5811696Y-3601251D01*
G01X5807696Y-3605251D01*
G01X5807696Y-3655315D01*
G01X5811696Y-3659315D01*
G01X5857696Y-3659315D01*
G01X5861696Y-3655315D01*
G01X5861696Y-3605251D01*
G01X5857696Y-3601251D01*
G37*
G36*
G01X3887325Y-1985882D02*
G01X3887325Y-2031882D01*
G01X3883324Y-2035882D01*
G01X3833261Y-2035882D01*
G01X3829260Y-2031882D01*
G01X3829260Y-1985882D01*
G01X3833261Y-1981882D01*
G01X3883324Y-1981882D01*
G01X3887325Y-1985882D01*
G37*
G36*
G01X3914325Y-1985882D02*
G01X3914325Y-2031882D01*
G01X3918325Y-2035882D01*
G01X3968389Y-2035882D01*
G01X3972389Y-2031882D01*
G01X3972389Y-1985882D01*
G01X3968389Y-1981882D01*
G01X3918325Y-1981882D01*
G01X3914325Y-1985882D01*
G37*
G36*
G01X3889022Y-1855998D02*
G01X3889022Y-1901997D01*
G01X3885022Y-1905998D01*
G01X3834958Y-1905998D01*
G01X3830958Y-1901997D01*
G01X3830958Y-1855998D01*
G01X3834958Y-1851998D01*
G01X3885022Y-1851998D01*
G01X3889022Y-1855998D01*
G37*
G36*
G01X3916022Y-1855998D02*
G01X3916022Y-1901997D01*
G01X3920023Y-1905998D01*
G01X3970086Y-1905998D01*
G01X3974087Y-1901997D01*
G01X3974087Y-1855998D01*
G01X3970086Y-1851998D01*
G01X3920023Y-1851998D01*
G01X3916022Y-1855998D01*
G37*
G36*
G01X3391177Y-1983449D02*
G01X3391177Y-2029449D01*
G01X3387176Y-2033449D01*
G01X3337113Y-2033449D01*
G01X3333112Y-2029449D01*
G01X3333112Y-1983449D01*
G01X3337113Y-1979449D01*
G01X3387176Y-1979449D01*
G01X3391177Y-1983449D01*
G37*
G36*
G01X3418177Y-1983449D02*
G01X3418177Y-2029449D01*
G01X3422178Y-2033449D01*
G01X3472241Y-2033449D01*
G01X3476241Y-2029449D01*
G01X3476241Y-1983449D01*
G01X3472241Y-1979449D01*
G01X3422178Y-1979449D01*
G01X3418177Y-1983449D01*
G37*
G36*
G01X3161155Y-1983449D02*
G01X3161155Y-2029449D01*
G01X3157154Y-2033449D01*
G01X3107091Y-2033449D01*
G01X3103090Y-2029449D01*
G01X3103090Y-1983449D01*
G01X3107091Y-1979449D01*
G01X3157154Y-1979449D01*
G01X3161155Y-1983449D01*
G37*
G36*
G01X3188155Y-1983449D02*
G01X3188155Y-2029449D01*
G01X3192155Y-2033449D01*
G01X3242219Y-2033449D01*
G01X3246219Y-2029449D01*
G01X3246219Y-1983449D01*
G01X3242219Y-1979449D01*
G01X3192155Y-1979449D01*
G01X3188155Y-1983449D01*
G37*
G36*
G01X2958133Y-2029449D02*
G01X2958133Y-1983449D01*
G01X2962133Y-1979449D01*
G01X3012197Y-1979449D01*
G01X3016197Y-1983449D01*
G01X3016197Y-2029449D01*
G01X3012197Y-2033449D01*
G01X2962133Y-2033449D01*
G01X2958133Y-2029449D01*
G37*
G36*
G01X2931133Y-2029449D02*
G01X2931133Y-1983449D01*
G01X2927132Y-1979449D01*
G01X2877069Y-1979449D01*
G01X2873068Y-1983449D01*
G01X2873068Y-2029449D01*
G01X2877069Y-2033449D01*
G01X2927132Y-2033449D01*
G01X2931133Y-2029449D01*
G37*
G36*
G01X4166117Y-2017654D02*
G01X4166117Y-1971654D01*
G01X4170117Y-1967654D01*
G01X4220181Y-1967654D01*
G01X4224181Y-1971654D01*
G01X4224181Y-2017654D01*
G01X4220181Y-2021654D01*
G01X4170117Y-2021654D01*
G01X4166117Y-2017654D01*
G37*
G36*
G01X4139116Y-2017654D02*
G01X4139116Y-1971654D01*
G01X4135116Y-1967654D01*
G01X4085053Y-1967654D01*
G01X4081052Y-1971654D01*
G01X4081052Y-2017654D01*
G01X4085053Y-2021654D01*
G01X4135116Y-2021654D01*
G01X4139116Y-2017654D01*
G37*
G36*
G01X4165874Y-1886882D02*
G01X4165874Y-1840882D01*
G01X4169875Y-1836882D01*
G01X4219938Y-1836882D01*
G01X4223939Y-1840882D01*
G01X4223939Y-1886882D01*
G01X4219938Y-1890882D01*
G01X4169875Y-1890882D01*
G01X4165874Y-1886882D01*
G37*
G36*
G01X4138874Y-1886882D02*
G01X4138874Y-1840882D01*
G01X4134874Y-1836882D01*
G01X4084810Y-1836882D01*
G01X4080810Y-1840882D01*
G01X4080810Y-1886882D01*
G01X4084810Y-1890882D01*
G01X4134874Y-1890882D01*
G01X4138874Y-1886882D01*
G37*
G36*
G01X5792127Y-3234696D02*
G01X5792127Y-3280695D01*
G01X5788126Y-3284696D01*
G01X5738063Y-3284696D01*
G01X5734062Y-3280695D01*
G01X5734062Y-3234696D01*
G01X5738063Y-3230696D01*
G01X5788126Y-3230696D01*
G01X5792127Y-3234696D01*
G37*
G36*
G01X5819127Y-3234696D02*
G01X5819127Y-3280695D01*
G01X5823127Y-3284696D01*
G01X5873191Y-3284696D01*
G01X5877191Y-3280695D01*
G01X5877191Y-3234696D01*
G01X5873191Y-3230696D01*
G01X5823127Y-3230696D01*
G01X5819127Y-3234696D01*
G37*
G36*
G01X5791215Y-3362096D02*
G01X5791215Y-3408095D01*
G01X5787214Y-3412096D01*
G01X5737151Y-3412096D01*
G01X5733150Y-3408095D01*
G01X5733150Y-3362096D01*
G01X5737151Y-3358095D01*
G01X5787214Y-3358095D01*
G01X5791215Y-3362096D01*
G37*
G36*
G01X5818215Y-3362096D02*
G01X5818215Y-3408095D01*
G01X5822215Y-3412096D01*
G01X5872279Y-3412096D01*
G01X5876279Y-3408095D01*
G01X5876279Y-3362096D01*
G01X5872279Y-3358095D01*
G01X5822215Y-3358095D01*
G01X5818215Y-3362096D01*
G37*
G36*
G01X6164846Y-2762174D02*
G01X6164846Y-2716174D01*
G01X6168847Y-2712174D01*
G01X6218910Y-2712174D01*
G01X6222911Y-2716174D01*
G01X6222911Y-2762174D01*
G01X6218910Y-2766174D01*
G01X6168847Y-2766174D01*
G01X6164846Y-2762174D01*
G37*
G36*
G01X6137846Y-2762174D02*
G01X6137846Y-2716174D01*
G01X6133845Y-2712174D01*
G01X6083782Y-2712174D01*
G01X6079782Y-2716174D01*
G01X6079782Y-2762174D01*
G01X6083782Y-2766174D01*
G01X6133845Y-2766174D01*
G01X6137846Y-2762174D01*
G37*
G36*
G01X6384507Y-2762645D02*
G01X6384507Y-2716646D01*
G01X6388507Y-2712645D01*
G01X6438571Y-2712645D01*
G01X6442571Y-2716646D01*
G01X6442571Y-2762645D01*
G01X6438571Y-2766645D01*
G01X6388507Y-2766645D01*
G01X6384507Y-2762645D01*
G37*
G36*
G01X6357507Y-2762645D02*
G01X6357507Y-2716646D01*
G01X6353506Y-2712645D01*
G01X6303443Y-2712645D01*
G01X6299442Y-2716646D01*
G01X6299442Y-2762645D01*
G01X6303443Y-2766645D01*
G01X6353506Y-2766645D01*
G01X6357507Y-2762645D01*
G37*
G36*
G01X7579195Y-3121712D02*
G01X7579195Y-3075713D01*
G01X7583195Y-3071712D01*
G01X7633259Y-3071712D01*
G01X7637259Y-3075713D01*
G01X7637259Y-3121712D01*
G01X7633259Y-3125713D01*
G01X7583195Y-3125713D01*
G01X7579195Y-3121712D01*
G37*
G36*
G01X7552194Y-3121712D02*
G01X7552194Y-3075713D01*
G01X7548194Y-3071712D01*
G01X7498131Y-3071712D01*
G01X7494130Y-3075713D01*
G01X7494130Y-3121712D01*
G01X7498131Y-3125713D01*
G01X7548194Y-3125713D01*
G01X7552194Y-3121712D01*
G37*
G36*
G01X4129140Y-850204D02*
G01X4129140Y-822554D01*
G01X4156559Y-793179D01*
G01X4206887Y-793179D01*
G01X4213287Y-799580D01*
G01X4213287Y-873179D01*
G01X4206887Y-879579D01*
G01X4156559Y-879579D01*
G01X4129140Y-850204D01*
G37*
G36*
G01X4077575Y-851330D02*
G01X4077575Y-823679D01*
G01X4050156Y-794304D01*
G01X3999828Y-794304D01*
G01X3993428Y-800705D01*
G01X3993428Y-874304D01*
G01X3999828Y-880705D01*
G01X4050156Y-880705D01*
G01X4077575Y-851330D01*
G37*
G36*
G01X6349188Y-2259869D02*
G01X6395188Y-2259869D01*
G01X6399188Y-2263870D01*
G01X6399188Y-2313933D01*
G01X6395188Y-2317934D01*
G01X6349188Y-2317934D01*
G01X6345188Y-2313933D01*
G01X6345188Y-2263870D01*
G01X6349188Y-2259869D01*
G37*
G36*
G01X6349188Y-2232869D02*
G01X6395188Y-2232869D01*
G01X6399188Y-2228869D01*
G01X6399188Y-2178805D01*
G01X6395188Y-2174805D01*
G01X6349188Y-2174805D01*
G01X6345188Y-2178805D01*
G01X6345188Y-2228869D01*
G01X6349188Y-2232869D01*
G37*
G36*
G01X6770185Y-2306624D02*
G01X6724185Y-2306624D01*
G01X6720185Y-2302624D01*
G01X6720185Y-2252560D01*
G01X6724185Y-2248560D01*
G01X6770185Y-2248560D01*
G01X6774185Y-2252560D01*
G01X6774185Y-2302624D01*
G01X6770185Y-2306624D01*
G37*
G36*
G01X6770185Y-2333624D02*
G01X6724185Y-2333624D01*
G01X6720185Y-2337625D01*
G01X6720185Y-2387688D01*
G01X6724185Y-2391689D01*
G01X6770185Y-2391689D01*
G01X6774185Y-2387688D01*
G01X6774185Y-2337625D01*
G01X6770185Y-2333624D01*
G37*
G36*
G01X7225517Y-2306624D02*
G01X7179518Y-2306624D01*
G01X7175517Y-2302624D01*
G01X7175517Y-2252560D01*
G01X7179518Y-2248560D01*
G01X7225517Y-2248560D01*
G01X7229518Y-2252560D01*
G01X7229518Y-2302624D01*
G01X7225517Y-2306624D01*
G37*
G36*
G01X7225517Y-2333624D02*
G01X7179518Y-2333624D01*
G01X7175517Y-2337625D01*
G01X7175517Y-2387688D01*
G01X7179518Y-2391689D01*
G01X7225517Y-2391689D01*
G01X7229518Y-2387688D01*
G01X7229518Y-2337625D01*
G01X7225517Y-2333624D01*
G37*
G36*
G01X4336584Y-2789097D02*
G01X4336584Y-2835096D01*
G01X4332584Y-2839097D01*
G01X4282520Y-2839097D01*
G01X4278520Y-2835096D01*
G01X4278520Y-2789097D01*
G01X4282520Y-2785097D01*
G01X4332584Y-2785097D01*
G01X4336584Y-2789097D01*
G37*
G36*
G01X4363584Y-2789097D02*
G01X4363584Y-2835096D01*
G01X4367585Y-2839097D01*
G01X4417648Y-2839097D01*
G01X4421649Y-2835096D01*
G01X4421649Y-2789097D01*
G01X4417648Y-2785097D01*
G01X4367585Y-2785097D01*
G01X4363584Y-2789097D01*
G37*

G04 Rect Start*
G36*
G01X4504219Y-1137927D02*
G01X4414219Y-1137927D01*
G02X4411719Y-1135427I0J2500D01*
G01X4411719Y-1045427D01*
G02X4414219Y-1042927I2500J0D01*
G01X4504219Y-1042927D01*
G02X4506719Y-1045427I0J-2500D01*
G01X4506719Y-1135427D01*
G02X4504219Y-1137927I-2500J0D01*
G37*
G36*
G01X4624488Y-1137670D02*
G01X4534488Y-1137670D01*
G02X4531988Y-1135170I0J2500D01*
G01X4531988Y-1045170D01*
G02X4534488Y-1042670I2500J0D01*
G01X4624488Y-1042670D01*
G02X4626988Y-1045170I0J-2500D01*
G01X4626988Y-1135170D01*
G02X4624488Y-1137670I-2500J0D01*
G37*
G36*
G01X4504657Y-1018309D02*
G01X4414657Y-1018309D01*
G02X4412157Y-1015808I0J2500D01*
G01X4412157Y-925809D01*
G02X4414657Y-923309I2500J0D01*
G01X4504657Y-923309D01*
G02X4507157Y-925809I0J-2500D01*
G01X4507157Y-1015808D01*
G02X4504657Y-1018309I-2500J0D01*
G37*
G36*
G01X4625312Y-1018052D02*
G01X4535312Y-1018052D01*
G02X4532812Y-1015552I0J2500D01*
G01X4532812Y-925552D01*
G02X4535312Y-923052I2500J0D01*
G01X4625312Y-923052D01*
G02X4627812Y-925552I0J-2500D01*
G01X4627812Y-1015552D01*
G02X4625312Y-1018052I-2500J0D01*
G37*
G04 Rect End*

G04 Pad Start*
G54D10*
G01X2197100Y-2120900D03*
G01X4912990Y-4045528D03*
G54D11*
G01X7006312Y-2278113D03*
G01X7006312Y-2362136D03*
G01X6877481Y-2362136D03*
G01X6877481Y-2278113D03*
G01X6830220Y-3405250D03*
G01X6830220Y-3321227D03*
G01X6599808Y-3100172D03*
G01X6599808Y-3016149D03*
G54D12*
G01X6261062Y-3151160D03*
G01X6211049Y-3151160D03*
G01X6161062Y-3151160D03*
G01X6111050Y-3151160D03*
G01X6061062Y-3151160D03*
G54D13*
G01X5970308Y-3241915D03*
G01X5970308Y-3291902D03*
G01X5970308Y-3341914D03*
G01X5970308Y-3391902D03*
G01X5970308Y-3441914D03*
G54D12*
G01X6061062Y-3532668D03*
G01X6111050Y-3532668D03*
G01X6161062Y-3532668D03*
G01X6211049Y-3532668D03*
G01X6261062Y-3532668D03*
G54D13*
G01X6351816Y-3441914D03*
G01X6351816Y-3391902D03*
G01X6351816Y-3341914D03*
G01X6351816Y-3291902D03*
G01X6351816Y-3241915D03*
G54D14*
G01X6161062Y-3341914D03*
G54D15*
G01X4008404Y-1376976D03*
G01X4092427Y-1376976D03*
G01X4008404Y-981500D03*
G01X4092427Y-981500D03*
G54D17*
G01X4380751Y-1793023D03*
G01X4380751Y-1603031D03*
G01X4640771Y-1603031D03*
G01X4640771Y-1698027D03*
G01X4640771Y-1793023D03*
G54D11*
G01X4343018Y-3906111D03*
G01X4343018Y-3990134D03*
G54D18*
G01X4133243Y-3955390D03*
G01X4133243Y-3828390D03*
G01X4133243Y-3701390D03*
G01X4133243Y-3574390D03*
G01X4133243Y-3447390D03*
G01X4133243Y-3320390D03*
G01X4133243Y-3193390D03*
G01X4133243Y-3066390D03*
G01X4133243Y-2939390D03*
G01X4133243Y-2812390D03*
G01X4133243Y-2685390D03*
G01X4133243Y-2558390D03*
G01X4133243Y-2431390D03*
G01X4133243Y-2304390D03*
G54D19*
G01X3956738Y-2176399D03*
G01X3829738Y-2176399D03*
G01X3702738Y-2176399D03*
G01X3575738Y-2176399D03*
G01X3448738Y-2176399D03*
G01X3321738Y-2176399D03*
G01X3194738Y-2176399D03*
G01X3067738Y-2176399D03*
G01X2940738Y-2176399D03*
G01X2813738Y-2176399D03*
G01X2686738Y-2176399D03*
G01X2559738Y-2179396D03*
G54D18*
G01X2383234Y-2304390D03*
G01X2383234Y-2431390D03*
G01X2383234Y-2558390D03*
G01X2383234Y-2685390D03*
G01X2383234Y-2812390D03*
G01X2383234Y-2939390D03*
G01X2383234Y-3066390D03*
G01X2383234Y-3193390D03*
G01X2383234Y-3320390D03*
G01X2383234Y-3447390D03*
G01X2383234Y-3574390D03*
G01X2383234Y-3701390D03*
G01X2383234Y-3828390D03*
G01X2383234Y-3955390D03*
G54D20*
G01X3408251Y-3183382D03*
G01X3548256Y-3183382D03*
G01X3268246Y-3183382D03*
G01X3268246Y-3323387D03*
G01X3408251Y-3323387D03*
G01X3548256Y-3323387D03*
G01X3548256Y-3043377D03*
G01X3408251Y-3043377D03*
G01X3268246Y-3043377D03*
G54D21*
G01X5098674Y-1492864D03*
G01X5098674Y-1632869D03*
G54D22*
G01X4356026Y-3753873D03*
G01X4496030Y-3753873D03*
G54D11*
G01X4228265Y-1268017D03*
G01X4228265Y-1352040D03*
G54D15*
G01X4008404Y-1113326D03*
G01X4092427Y-1113326D03*
G01X4008404Y-1245151D03*
G01X4092427Y-1245151D03*
G01X7080703Y-3416678D03*
G01X7164726Y-3416678D03*
G01X7372091Y-3417688D03*
G01X7288068Y-3417688D03*
G01X7604321Y-3230461D03*
G01X7520297Y-3230461D03*
G54D23*
G01X6688759Y-3227564D03*
G01X6593763Y-3227564D03*
G01X6498767Y-3227564D03*
G01X6498767Y-3487558D03*
G01X6688759Y-3487558D03*
G54D24*
G01X7348709Y-3246517D03*
G01X7348709Y-3196504D03*
G01X7348709Y-3146517D03*
G01X7348709Y-3096504D03*
G01X7348709Y-3046517D03*
G54D25*
G01X7258692Y-3006512D03*
G01X7208704Y-3006512D03*
G01X7158692Y-3006512D03*
G54D24*
G01X7068700Y-3046517D03*
G01X7068700Y-3096504D03*
G01X7068700Y-3146517D03*
G01X7068700Y-3196504D03*
G01X7068700Y-3246517D03*
G54D25*
G01X7158692Y-3286496D03*
G01X7208704Y-3286496D03*
G01X7258692Y-3286496D03*
G54D26*
G01X2663914Y-865105D03*
G54D27*
G01X3078899Y-1545089D03*
G54D28*
G01X3243897Y-865080D03*
G54D27*
G01X2388908Y-1545089D03*
G54D29*
G01X7544308Y-1069810D03*
G01X5994298Y-1069810D03*
G54D30*
G01X6084316Y-2029803D03*
G01X7569302Y-2029803D03*
G54D31*
G01X7424318Y-2079790D03*
G01X7314311Y-2079790D03*
G01X7204329Y-2079790D03*
G01X7094322Y-2079790D03*
G01X6984314Y-2079790D03*
G01X6874307Y-2079790D03*
G01X6764325Y-2079790D03*
G01X6654317Y-2079790D03*
G01X6544310Y-2079790D03*
G54D11*
G01X4687067Y-1457208D03*
G01X4687067Y-1373185D03*
G01X4818079Y-1456446D03*
G01X4818079Y-1372423D03*
G54D32*
G01X5332584Y-2161819D03*
G01X5233586Y-2260818D03*
G01X5134587Y-2359816D03*
G01X5594197Y-2819425D03*
G01X5693195Y-2720427D03*
G01X5792212Y-2621447D03*
G01X5746251Y-2207798D03*
G01X5180566Y-2773482D03*
G54D15*
G01X6471513Y-3653066D03*
G01X6555536Y-3653066D03*
G04 Pad End*

M02*

