G04 Layer: BottomSilkscreenLayer*
G04 EasyEDA Pro v2.2.45.4, 2026-02-25 10:19:21*
G04 Gerber Generator version 0.3*
G04 Scale: 100 percent, Rotated: No, Reflected: No*
G04 Dimensions in millimeters*
G04 Leading zeros omitted, absolute positions, 4 integers and 5 decimals*
G04 Generated by one-click*
%FSLAX45Y45*%
%MOMM*%
%ADD10C,0.1*%
%ADD11C,0.45888*%
%ADD12C,0.2341*%
G75*


G04 Image Start*
G36*
G01X7161288Y-3199143D02*
G01X7161521Y-3200612D01*
G01X7161754Y-3202084D01*
G01X7159389Y-3201709D01*
G01X7158255Y-3198890D01*
G01X7158445Y-3200252D01*
G01X7158633Y-3201613D01*
G01X7156019Y-3201406D01*
G01X7154467Y-3201284D01*
G01X7154235Y-3200235D01*
G01X7153994Y-3199158D01*
G01X7152758Y-3198963D01*
G01X7151525Y-3198767D01*
G01X7152125Y-3200175D01*
G01X7152727Y-3201581D01*
G01X7150557Y-3200865D01*
G01X7148390Y-3200148D01*
G01X7147903Y-3200992D01*
G01X7146181Y-3199998D01*
G01X7146498Y-3199718D01*
G01X7146813Y-3199436D01*
G01X7146093Y-3198622D01*
G01X7145045Y-3198029D01*
G01X7143995Y-3197434D01*
G01X7144561Y-3198512D01*
G01X7145126Y-3199585D01*
G01X7143854Y-3199878D01*
G01X7142579Y-3200171D01*
G01X7143357Y-3199708D01*
G01X7144133Y-3199247D01*
G01X7143398Y-3198342D01*
G01X7142666Y-3197435D01*
G01X7140233Y-3197403D01*
G01X7141099Y-3199011D01*
G01X7141869Y-3197679D01*
G01X7142303Y-3198486D01*
G01X7142739Y-3199295D01*
G01X7140862Y-3199265D01*
G01X7138985Y-3199230D01*
G01X7138247Y-3198831D01*
G01X7137509Y-3198434D01*
G01X7138367Y-3197739D01*
G01X7139227Y-3197042D01*
G01X7137837Y-3196240D01*
G01X7137863Y-3197134D01*
G01X7137891Y-3198030D01*
G01X7136719Y-3196790D01*
G01X7135550Y-3195549D01*
G01X7136199Y-3197173D01*
G01X7136850Y-3198798D01*
G01X7135940Y-3198311D01*
G01X7135030Y-3197821D01*
G01X7135553Y-3198982D01*
G01X7136075Y-3200140D01*
G01X7134302Y-3198172D01*
G01X7133610Y-3197761D01*
G01X7132920Y-3197351D01*
G01X7134023Y-3197304D01*
G01X7135128Y-3197259D01*
G01X7134743Y-3196544D01*
G01X7134360Y-3195827D01*
G01X7132161Y-3195085D01*
G01X7129963Y-3194341D01*
G01X7130833Y-3195521D01*
G01X7131705Y-3196702D01*
G01X7129659Y-3195166D01*
G01X7127616Y-3193631D01*
G01X7126336Y-3194106D01*
G01X7125057Y-3194579D01*
G01X7123294Y-3193142D01*
G01X7121533Y-3191703D01*
G01X7117864Y-3190098D01*
G01X7114192Y-3188494D01*
G01X7116041Y-3190107D01*
G01X7117892Y-3191721D01*
G01X7109968Y-3186718D01*
G01X7102045Y-3181712D01*
G01X7101322Y-3182101D01*
G01X7100602Y-3182489D01*
G01X7102878Y-3184369D01*
G01X7105155Y-3186250D01*
G01X7107656Y-3188055D01*
G01X7110156Y-3189856D01*
G01X7110374Y-3190671D01*
G01X7108398Y-3190351D01*
G01X7106424Y-3190032D01*
G01X7105020Y-3188841D01*
G01X7103618Y-3187653D01*
G01X7102980Y-3187997D01*
G01X7102339Y-3188339D01*
G01X7098254Y-3186485D01*
G01X7094168Y-3184633D01*
G01X7096069Y-3184444D01*
G01X7097968Y-3184253D01*
G01X7098409Y-3185074D01*
G01X7098851Y-3185898D01*
G01X7098822Y-3184907D01*
G01X7098791Y-3183919D01*
G01X7097862Y-3183772D01*
G01X7096933Y-3183623D01*
G01X7096368Y-3181514D01*
G01X7100539Y-3181858D01*
G01X7099519Y-3181562D01*
G01X7098497Y-3181265D01*
G01X7097324Y-3178013D01*
G01X7096748Y-3180860D01*
G01X7096294Y-3177512D01*
G01X7093753Y-3181913D01*
G01X7095790Y-3183200D01*
G01X7094321Y-3182992D01*
G01X7092854Y-3182784D01*
G01X7092549Y-3182256D01*
G01X7092245Y-3181726D01*
G01X7093792Y-3180895D01*
G01X7092894Y-3180922D01*
G01X7091999Y-3180948D01*
G01X7089404Y-3178434D01*
G01X7092082Y-3173796D01*
G01X7093274Y-3174484D01*
G01X7093962Y-3173292D01*
G01X7093130Y-3173011D01*
G01X7092301Y-3172729D01*
G01X7100198Y-3159149D01*
G01X7108096Y-3145566D01*
G01X7109265Y-3145511D01*
G01X7110433Y-3145455D01*
G01X7109928Y-3144474D01*
G01X7109425Y-3143492D01*
G01X7111979Y-3139896D01*
G01X7114534Y-3136298D01*
G01X7117386Y-3132385D01*
G01X7117216Y-3131263D01*
G01X7117044Y-3130143D01*
G01X7122544Y-3124346D01*
G01X7121387Y-3123038D01*
G01X7125056Y-3116682D01*
G01X7126002Y-3116765D01*
G01X7126950Y-3116846D01*
G01X7125860Y-3115290D01*
G01X7130562Y-3107146D01*
G01X7132454Y-3107312D01*
G01X7131364Y-3105756D01*
G01X7157026Y-3061502D01*
G01X7156675Y-3064477D01*
G01X7157490Y-3063162D01*
G01X7158306Y-3061845D01*
G01X7157114Y-3061156D01*
G01X7160899Y-3054600D01*
G01X7162091Y-3055289D01*
G01X7163812Y-3052308D01*
G01X7162620Y-3051620D01*
G01X7166346Y-3045165D01*
G01X7167228Y-3045346D01*
G01X7168107Y-3045525D01*
G01X7168306Y-3043478D01*
G01X7168501Y-3041433D01*
G01X7171852Y-3035629D01*
G01X7172666Y-3035794D01*
G01X7173479Y-3035961D01*
G01X7173590Y-3032477D01*
G01X7175760Y-3028789D01*
G01X7177934Y-3025100D01*
G01X7194193Y-2996345D01*
G01X7210453Y-2967592D01*
G01X7211879Y-2965858D01*
G01X7213308Y-2964125D01*
G01X7214651Y-2964420D01*
G01X7215996Y-2964716D01*
G01X7215979Y-2963770D01*
G01X7215964Y-2962826D01*
G01X7216472Y-2964152D01*
G01X7216982Y-2965478D01*
G01X7218343Y-2964745D01*
G01X7219353Y-2965745D01*
G01X7220364Y-2966745D01*
G01X7221530Y-2964726D01*
G01X7232111Y-2971096D01*
G01X7242693Y-2977463D01*
G01X7240318Y-2977025D01*
G01X7243528Y-2979421D01*
G01X7246738Y-2981814D01*
G01X7247618Y-2981788D01*
G01X7248496Y-2981761D01*
G01X7247798Y-2982138D01*
G01X7247098Y-2982511D01*
G01X7250643Y-2985602D01*
G01X7254185Y-2988691D01*
G01X7266275Y-3002157D01*
G01X7267101Y-3002540D01*
G01X7267928Y-3002921D01*
G01X7267395Y-3003062D01*
G01X7266864Y-3003204D01*
G01X7270091Y-3007592D01*
G01X7273319Y-3011981D01*
G01X7276847Y-3018260D01*
G01X7280375Y-3024538D01*
G01X7283066Y-3030543D01*
G01X7283331Y-3030535D01*
G01X7283434Y-3030937D01*
G01X7283553Y-3031416D01*
G01X7287633Y-3042645D01*
G01X7288771Y-3042341D01*
G01X7289777Y-3040405D01*
G01X7288750Y-3041220D01*
G01X7287726Y-3042033D01*
G01X7286507Y-3037347D01*
G01X7285290Y-3032660D01*
G01X7286476Y-3032347D01*
G01X7287664Y-3032033D01*
G01X7286662Y-3032848D01*
G01X7285665Y-3033662D01*
G01X7289450Y-3035847D01*
G01X7290009Y-3034443D01*
G01X7290564Y-3033039D01*
G01X7289438Y-3031779D01*
G01X7288540Y-3032694D01*
G01X7287640Y-3033608D01*
G01X7288191Y-3032490D01*
G01X7288745Y-3031373D01*
G01X7287978Y-3031396D01*
G01X7287212Y-3031418D01*
G01X7288093Y-3030401D01*
G01X7288976Y-3029383D01*
G01X7288520Y-3027410D01*
G01X7288067Y-3025436D01*
G01X7289052Y-3025052D01*
G01X7290038Y-3024665D01*
G01X7290244Y-3023195D01*
G01X7290453Y-3021726D01*
G01X7289785Y-3022786D01*
G01X7289116Y-3023849D01*
G01X7288761Y-3022518D01*
G01X7288403Y-3021188D01*
G01X7288931Y-3020375D01*
G01X7289456Y-3019561D01*
G01X7290056Y-3018309D01*
G01X7290653Y-3017056D01*
G01X7290082Y-3014551D01*
G01X7289510Y-3012042D01*
G01X7291060Y-3012913D01*
G01X7290555Y-3011950D01*
G01X7290051Y-3010988D01*
G01X7291158Y-3011163D01*
G01X7292266Y-3011337D01*
G01X7291274Y-3014254D01*
G01X7293740Y-3009648D01*
G01X7292205Y-3009208D01*
G01X7290669Y-3008770D01*
G01X7292174Y-3006163D01*
G01X7292486Y-3007329D01*
G01X7293844Y-3006963D01*
G01X7295203Y-3006601D01*
G01X7295193Y-3006279D01*
G01X7300937Y-3006279D01*
G01X7301161Y-3007115D01*
G01X7302611Y-3004603D01*
G01X7303346Y-3004581D01*
G01X7304077Y-3004558D01*
G01X7301882Y-3006868D01*
G01X7302895Y-3006641D01*
G01X7303910Y-3006412D01*
G01X7304862Y-3003906D01*
G01X7305811Y-3001398D01*
G01X7302615Y-3003318D01*
G01X7303197Y-3002264D01*
G01X7303777Y-3001209D01*
G01X7302712Y-3000594D01*
G01X7302712Y-3000594D01*
G01X7300937Y-3006279D01*
G01X7295193Y-3006279D01*
G01X7295175Y-3005729D01*
G01X7295149Y-3004861D01*
G01X7293188Y-3004549D01*
G01X7293973Y-3003912D01*
G01X7294758Y-3003277D01*
G01X7295632Y-3003415D01*
G01X7296507Y-3003554D01*
G01X7297640Y-3001897D01*
G01X7298771Y-3000243D01*
G01X7297119Y-2999321D01*
G01X7295467Y-2998397D01*
G01X7296398Y-2996353D01*
G01X7297330Y-2994308D01*
G01X7298995Y-2995269D01*
G01X7300027Y-2993481D01*
G01X7300009Y-2993471D01*
G01X7305027Y-2993471D01*
G01X7305271Y-2994380D01*
G01X7305516Y-2995290D01*
G01X7306019Y-2993677D01*
G01X7306521Y-2992067D01*
G01X7307501Y-2987586D01*
G01X7308483Y-2983106D01*
G01X7309954Y-2982058D01*
G01X7311422Y-2981008D01*
G01X7311772Y-2978806D01*
G01X7311251Y-2978505D01*
G01X7310584Y-2980108D01*
G01X7309960Y-2980939D01*
G01X7309336Y-2981771D01*
G01X7309807Y-2978466D01*
G01X7308338Y-2977618D01*
G01X7308640Y-2978745D01*
G01X7308941Y-2979875D01*
G01X7306808Y-2983570D01*
G01X7307005Y-2984437D01*
G01X7307203Y-2985308D01*
G01X7306648Y-2987850D01*
G01X7306093Y-2990395D01*
G01X7305561Y-2991932D01*
G01X7305027Y-2993471D01*
G01X7305027Y-2993471D01*
G01X7300009Y-2993471D01*
G01X7297704Y-2992140D01*
G01X7302403Y-2985932D01*
G01X7301523Y-2985958D01*
G01X7300645Y-2985985D01*
G01X7302006Y-2983627D01*
G01X7302209Y-2982357D01*
G01X7302409Y-2981086D01*
G01X7303513Y-2983084D01*
G01X7303295Y-2981715D01*
G01X7303079Y-2980347D01*
G01X7304942Y-2978836D01*
G01X7301239Y-2976698D01*
G01X7301834Y-2975651D01*
G01X7302427Y-2974604D01*
G01X7302870Y-2972948D01*
G01X7303315Y-2971293D01*
G01X7305112Y-2972870D01*
G01X7306910Y-2974448D01*
G01X7306016Y-2972553D01*
G01X7305122Y-2970662D01*
G01X7304773Y-2969413D01*
G01X7304422Y-2968167D01*
G01X7305196Y-2967537D01*
G01X7305971Y-2966911D01*
G01X7305708Y-2965751D01*
G01X7305448Y-2964592D01*
G01X7306015Y-2965565D01*
G01X7306582Y-2966534D01*
G01X7306784Y-2965264D01*
G01X7306985Y-2963992D01*
G01X7308304Y-2961707D01*
G01X7304868Y-2959724D01*
G01X7305282Y-2958174D01*
G01X7305698Y-2956625D01*
G01X7306884Y-2954530D01*
G01X7308873Y-2955678D01*
G01X7308541Y-2954440D01*
G01X7309667Y-2954023D01*
G01X7310792Y-2953608D01*
G01X7308958Y-2952549D01*
G01X7309068Y-2951897D01*
G01X7309181Y-2951244D01*
G01X7307757Y-2951688D01*
G01X7306336Y-2952132D01*
G01X7307465Y-2952311D01*
G01X7308594Y-2952488D01*
G01X7307693Y-2954050D01*
G01X7306548Y-2952639D01*
G01X7305777Y-2953055D01*
G01X7305003Y-2953471D01*
G01X7304647Y-2952808D01*
G01X7304289Y-2952143D01*
G01X7305625Y-2949830D01*
G01X7307197Y-2950550D01*
G01X7307557Y-2950825D01*
G01X7307918Y-2951104D01*
G01X7308718Y-2950455D01*
G01X7309517Y-2949807D01*
G01X7307376Y-2949401D01*
G01X7305233Y-2948994D01*
G01X7304923Y-2947835D01*
G01X7306909Y-2948982D01*
G01X7307941Y-2947194D01*
G01X7306153Y-2946161D01*
G01X7306318Y-2945662D01*
G01X7306485Y-2945160D01*
G01X7308144Y-2941748D01*
G01X7312427Y-2944244D01*
G01X7311198Y-2944306D01*
G01X7309971Y-2944369D01*
G01X7310854Y-2944902D01*
G01X7311739Y-2945436D01*
G01X7310474Y-2945560D01*
G01X7309213Y-2945682D01*
G01X7310725Y-2946162D01*
G01X7312233Y-2946643D01*
G01X7311349Y-2948173D01*
G01X7311814Y-2949421D01*
G01X7312275Y-2950669D01*
G01X7311692Y-2950984D01*
G01X7311110Y-2951296D01*
G01X7311500Y-2952022D01*
G01X7311889Y-2952745D01*
G01X7309824Y-2956321D01*
G01X7310633Y-2956296D01*
G01X7311441Y-2956273D01*
G01X7310672Y-2957606D01*
G01X7311481Y-2957580D01*
G01X7312289Y-2957557D01*
G01X7311828Y-2958528D01*
G01X7311366Y-2959502D01*
G01X7311126Y-2960091D01*
G01X7310885Y-2960681D01*
G01X7311262Y-2962090D01*
G01X7309696Y-2964802D01*
G01X7310051Y-2965458D01*
G01X7310404Y-2966116D01*
G01X7309767Y-2968124D01*
G01X7309131Y-2970129D01*
G01X7310356Y-2970836D01*
G01X7309467Y-2971558D01*
G01X7308576Y-2972278D01*
G01X7310177Y-2972228D01*
G01X7309448Y-2973491D01*
G01X7310768Y-2974253D01*
G01X7310955Y-2973070D01*
G01X7311143Y-2971886D01*
G01X7312456Y-2971354D01*
G01X7313771Y-2970823D01*
G01X7312358Y-2971021D01*
G01X7310945Y-2971217D01*
G01X7311278Y-2969117D01*
G01X7312269Y-2969275D01*
G01X7313258Y-2969432D01*
G01X7313686Y-2967841D01*
G01X7314114Y-2966252D01*
G01X7312857Y-2967515D01*
G01X7311599Y-2968774D01*
G01X7311941Y-2966587D01*
G01X7312281Y-2964399D01*
G01X7312417Y-2962888D01*
G01X7312555Y-2961379D01*
G01X7313031Y-2957680D01*
G01X7313504Y-2953980D01*
G01X7313527Y-2952615D01*
G01X7313549Y-2951246D01*
G01X7313942Y-2950565D01*
G01X7314301Y-2951229D01*
G01X7314657Y-2951892D01*
G01X7315237Y-2951579D01*
G01X7315815Y-2951268D01*
G01X7315770Y-2950086D01*
G01X7315723Y-2948903D01*
G01X7315281Y-2949643D01*
G01X7314842Y-2950383D01*
G01X7313738Y-2949746D01*
G01X7314030Y-2944953D01*
G01X7314667Y-2944611D01*
G01X7315306Y-2944267D01*
G01X7316010Y-2945577D01*
G01X7316211Y-2944303D01*
G01X7316414Y-2943027D01*
G01X7315764Y-2943605D01*
G01X7315112Y-2944181D01*
G01X7314106Y-2943601D01*
G01X7314255Y-2941180D01*
G01X7314400Y-2938759D01*
G01X7314639Y-2938346D01*
G01X7315047Y-2938675D01*
G01X7315453Y-2939003D01*
G01X7316458Y-2939396D01*
G01X7316566Y-2937075D01*
G01X7316673Y-2934752D01*
G01X7316066Y-2934402D01*
G01X7316018Y-2935911D01*
G01X7315968Y-2937421D01*
G01X7315579Y-2938094D01*
G01X7314350Y-2937384D01*
G01X7314523Y-2936094D01*
G01X7314698Y-2934805D01*
G01X7314640Y-2928810D01*
G01X7314579Y-2922816D01*
G01X7314229Y-2918849D01*
G01X7313884Y-2914882D01*
G01X7314619Y-2913608D01*
G01X7313811Y-2913631D01*
G01X7313001Y-2913657D01*
G01X7313767Y-2912331D01*
G01X7313557Y-2909474D01*
G01X7313346Y-2906619D01*
G01X7312603Y-2906779D01*
G01X7311856Y-2906940D01*
G01X7312584Y-2906513D01*
G01X7313315Y-2906084D01*
G01X7312764Y-2903670D01*
G01X7312213Y-2901258D01*
G01X7312972Y-2899942D01*
G01X7312039Y-2899969D01*
G01X7311104Y-2899999D01*
G01X7311848Y-2899598D01*
G01X7312589Y-2899199D01*
G01X7312126Y-2897949D01*
G01X7311663Y-2896703D01*
G01X7312565Y-2895142D01*
G01X7311592Y-2894073D01*
G01X7310619Y-2893006D01*
G01X7311645Y-2891229D01*
G01X7310711Y-2891256D01*
G01X7309776Y-2891286D01*
G01X7310496Y-2890898D01*
G01X7311214Y-2890512D01*
G01X7310542Y-2888279D01*
G01X7309868Y-2886048D01*
G01X7310247Y-2885411D01*
G01X7310626Y-2884776D01*
G01X7310703Y-2885653D01*
G01X7310782Y-2886532D01*
G01X7311937Y-2889002D01*
G01X7313093Y-2891473D01*
G01X7312389Y-2892694D01*
G01X7312737Y-2895188D01*
G01X7313084Y-2897682D01*
G01X7314181Y-2902506D01*
G01X7315278Y-2907326D01*
G01X7315153Y-2905638D01*
G01X7315029Y-2903948D01*
G01X7314390Y-2899040D01*
G01X7313753Y-2894130D01*
G01X7312704Y-2893524D01*
G01X7313613Y-2891949D01*
G01X7312221Y-2885756D01*
G01X7310831Y-2879564D01*
G01X7308231Y-2869602D01*
G01X7305632Y-2859642D01*
G01X7303410Y-2852626D01*
G01X7301189Y-2845608D01*
G01X7300496Y-2845630D01*
G01X7299804Y-2845650D01*
G01X7299978Y-2844557D01*
G01X7300150Y-2843466D01*
G01X7297920Y-2838149D01*
G01X7295689Y-2832835D01*
G01X7295209Y-2832621D01*
G01X7294977Y-2832516D01*
G01X7295102Y-2833511D01*
G01X7295280Y-2834921D01*
G01X7299340Y-2844884D01*
G01X7303695Y-2856418D01*
G01X7307355Y-2870214D01*
G01X7311013Y-2884009D01*
G01X7310206Y-2884437D01*
G01X7309397Y-2884862D01*
G01X7309797Y-2883691D01*
G01X7310194Y-2882521D01*
G01X7309449Y-2882543D01*
G01X7308700Y-2882565D01*
G01X7309477Y-2881219D01*
G01X7309131Y-2879919D01*
G01X7308783Y-2878622D01*
G01X7307617Y-2878934D01*
G01X7308469Y-2877458D01*
G01X7308123Y-2876158D01*
G01X7307775Y-2874861D01*
G01X7307070Y-2875011D01*
G01X7306361Y-2875162D01*
G01X7307866Y-2874283D01*
G01X7303796Y-2859805D01*
G01X7303188Y-2859970D01*
G01X7302581Y-2860132D01*
G01X7303415Y-2858687D01*
G01X7302250Y-2854508D01*
G01X7300030Y-2850094D01*
G01X7299507Y-2849968D01*
G01X7298983Y-2849845D01*
G01X7299561Y-2849184D01*
G01X7300141Y-2848525D01*
G01X7299260Y-2848233D01*
G01X7298381Y-2847943D01*
G01X7296670Y-2839782D01*
G01X7296111Y-2839800D01*
G01X7295554Y-2839815D01*
G01X7294280Y-2835555D01*
G01X7293009Y-2831296D01*
G01X7292432Y-2830964D01*
G01X7290685Y-2826823D01*
G01X7289139Y-2823159D01*
G01X7289621Y-2823159D01*
G01X7290825Y-2825555D01*
G01X7292026Y-2827949D01*
G01X7292696Y-2829160D01*
G01X7293366Y-2830373D01*
G01X7293866Y-2831721D01*
G01X7293866Y-2831721D01*
G01X7294364Y-2833067D01*
G01X7294743Y-2832411D01*
G01X7294544Y-2831470D01*
G01X7294518Y-2830607D01*
G01X7291090Y-2823115D01*
G01X7289621Y-2823159D01*
G01X7289139Y-2823159D01*
G01X7288937Y-2822679D01*
G01X7287808Y-2822713D01*
G01X7287581Y-2821386D01*
G01X7287354Y-2820056D01*
G01X7286021Y-2818078D01*
G01X7284689Y-2816103D01*
G01X7284676Y-2816067D01*
G01X7285901Y-2816067D01*
G01X7287689Y-2817099D01*
G01X7287068Y-2818175D01*
G01X7288445Y-2820609D01*
G01X7288445Y-2820609D01*
G01X7289819Y-2823045D01*
G01X7290404Y-2822033D01*
G01X7288642Y-2818547D01*
G01X7286879Y-2815063D01*
G01X7286589Y-2814875D01*
G01X7285901Y-2816067D01*
G01X7284676Y-2816067D01*
G01X7283777Y-2813553D01*
G01X7282864Y-2811006D01*
G01X7284248Y-2813083D01*
G01X7285631Y-2815158D01*
G01X7286210Y-2814155D01*
G01X7284533Y-2811324D01*
G01X7282855Y-2808496D01*
G01X7282471Y-2810908D01*
G01X7281950Y-2810607D01*
G01X7280607Y-2808342D01*
G01X7279261Y-2806076D01*
G01X7277888Y-2803934D01*
G01X7276514Y-2801788D01*
G01X7277015Y-2801656D01*
G01X7277518Y-2801521D01*
G01X7282169Y-2809455D01*
G01X7281925Y-2807904D01*
G01X7281676Y-2806353D01*
G01X7279620Y-2803204D01*
G01X7277565Y-2800053D01*
G01X7276049Y-2799667D01*
G01X7274534Y-2799279D01*
G01X7276800Y-2799092D01*
G01X7276401Y-2798351D01*
G01X7276003Y-2797614D01*
G01X7275268Y-2798008D01*
G01X7274532Y-2798404D01*
G01X7274170Y-2797731D01*
G01X7273806Y-2797055D01*
G01X7274414Y-2796729D01*
G01X7275020Y-2796401D01*
G01X7270045Y-2789160D01*
G01X7269736Y-2788679D01*
G01X7269428Y-2788197D01*
G01X7269248Y-2789336D01*
G01X7269066Y-2790474D01*
G01X7268349Y-2789588D01*
G01X7267630Y-2788701D01*
G01X7269105Y-2787506D01*
G01X7268399Y-2786632D01*
G01X7267690Y-2785756D01*
G01X7267009Y-2786123D01*
G01X7266327Y-2786492D01*
G01X7267788Y-2787335D01*
G01X7266678Y-2787632D01*
G01X7265953Y-2786372D01*
G01X7265232Y-2785112D01*
G01X7266021Y-2785544D01*
G01X7266812Y-2785977D01*
G01X7266787Y-2785126D01*
G01X7266763Y-2784280D01*
G01X7265754Y-2784427D01*
G01X7264747Y-2784576D01*
G01X7263076Y-2782650D01*
G01X7261406Y-2780727D01*
G01X7262148Y-2779442D01*
G01X7261781Y-2778075D01*
G01X7260628Y-2778275D01*
G01X7259476Y-2778472D01*
G01X7258477Y-2776616D01*
G01X7258871Y-2776158D01*
G01X7259263Y-2775698D01*
G01X7258095Y-2774378D01*
G01X7258121Y-2775217D01*
G01X7258144Y-2776055D01*
G01X7257168Y-2775089D01*
G01X7256190Y-2774123D01*
G01X7256354Y-2773086D01*
G01X7256518Y-2772045D01*
G01X7254890Y-2771584D01*
G01X7253261Y-2771118D01*
G01X7253443Y-2769971D01*
G01X7253625Y-2768827D01*
G01X7252325Y-2768077D01*
G01X7252346Y-2768813D01*
G01X7252369Y-2769550D01*
G01X7251440Y-2768747D01*
G01X7250508Y-2767942D01*
G01X7250087Y-2767641D01*
G01X7249667Y-2767337D01*
G01X7250245Y-2766676D01*
G01X7250825Y-2766017D01*
G01X7248182Y-2764743D01*
G01X7245541Y-2763471D01*
G01X7246603Y-2761632D01*
G01X7244524Y-2760931D01*
G01X7242444Y-2760225D01*
G01X7242462Y-2759001D01*
G01X7242479Y-2757773D01*
G01X7240094Y-2756739D01*
G01X7237709Y-2755703D01*
G01X7234916Y-2752967D01*
G01X7232125Y-2750233D01*
G01X7233688Y-2750965D01*
G01X7235253Y-2751698D01*
G01X7233450Y-2750006D01*
G01X7231650Y-2748313D01*
G01X7225416Y-2745336D01*
G01X7229521Y-2746485D01*
G01X7226811Y-2744449D01*
G01X7224102Y-2742416D01*
G01X7220334Y-2740525D01*
G01X7216570Y-2738633D01*
G01X7218620Y-2739212D01*
G01X7220671Y-2739790D01*
G01X7215920Y-2736463D01*
G01X7211168Y-2733133D01*
G01X7205061Y-2730147D01*
G01X7198957Y-2727159D01*
G01X7198366Y-2728182D01*
G01X7194719Y-2726076D01*
G01X7194745Y-2726886D01*
G01X7194768Y-2727694D01*
G01X7192245Y-2726131D01*
G01X7189722Y-2724572D01*
G01X7192061Y-2725336D01*
G01X7194403Y-2726102D01*
G01X7192177Y-2724714D01*
G01X7189951Y-2723323D01*
G01X7190583Y-2722985D01*
G01X7191214Y-2722645D01*
G01X7189980Y-2721581D01*
G01X7188748Y-2720515D01*
G01X7185145Y-2718258D01*
G01X7181543Y-2716000D01*
G01X7180564Y-2716030D01*
G01X7179582Y-2716058D01*
G01X7177232Y-2714587D01*
G01X7174880Y-2713115D01*
G01X7176051Y-2714530D01*
G01X7177221Y-2715942D01*
G01X7170366Y-2711297D01*
G01X7167671Y-2710460D01*
G01X7164974Y-2709624D01*
G01X7167253Y-2710746D01*
G01X7169531Y-2711865D01*
G01X7168900Y-2712205D01*
G01X7168271Y-2712543D01*
G01X7164997Y-2710458D01*
G01X7161725Y-2708373D01*
G01X7159554Y-2707313D01*
G01X7157385Y-2706255D01*
G01X7158998Y-2707931D01*
G01X7160614Y-2709608D01*
G01X7159600Y-2711363D01*
G01X7158338Y-2710634D01*
G01X7159217Y-2710148D01*
G01X7160094Y-2709660D01*
G01X7158871Y-2709792D01*
G01X7157651Y-2709924D01*
G01X7155795Y-2708319D01*
G01X7153941Y-2706714D01*
G01X7155798Y-2707628D01*
G01X7157656Y-2708540D01*
G01X7155863Y-2706138D01*
G01X7154420Y-2705194D01*
G01X7153366Y-2707019D01*
G01X7151761Y-2706746D01*
G01X7150158Y-2706471D01*
G01X7149815Y-2705200D01*
G01X7149476Y-2703928D01*
G01X7148297Y-2703248D01*
G01X7148326Y-2704173D01*
G01X7148353Y-2705101D01*
G01X7146872Y-2703680D01*
G01X7145388Y-2702257D01*
G01X7145942Y-2703624D01*
G01X7146497Y-2704989D01*
G01X7143542Y-2705617D01*
G01X7144528Y-2704819D01*
G01X7145510Y-2704023D01*
G01X7144454Y-2703413D01*
G01X7143561Y-2702434D01*
G01X7142670Y-2701459D01*
G01X7143283Y-2703068D01*
G01X7143896Y-2704680D01*
G01X7141355Y-2703213D01*
G01X7140697Y-2703566D01*
G01X7140037Y-2703921D01*
G01X7140914Y-2704826D01*
G01X7141792Y-2705732D01*
G01X7139797Y-2704372D01*
G01X7137800Y-2703011D01*
G01X7138549Y-2702121D01*
G01X7139295Y-2701229D01*
G01X7138501Y-2700827D01*
G01X7137705Y-2700423D01*
G01X7136187Y-2700300D01*
G01X7134667Y-2700179D01*
G01X7136144Y-2700694D01*
G01X7137619Y-2701212D01*
G01X7136411Y-2701963D01*
G01X7135205Y-2702712D01*
G01X7135762Y-2703459D01*
G01X7136318Y-2704202D01*
G01X7134953Y-2703127D01*
G01X7133588Y-2702048D01*
G01X7132785Y-2701031D01*
G01X7131981Y-2700015D01*
G01X7131293Y-2701207D01*
G01X7130163Y-2701027D01*
G01X7129033Y-2700850D01*
G01X7129664Y-2700510D01*
G01X7130293Y-2700172D01*
G01X7129644Y-2699370D01*
G01X7128995Y-2698570D01*
G01X7127542Y-2698171D01*
G01X7126087Y-2697770D01*
G01X7127231Y-2700360D01*
G01X7123978Y-2699681D01*
G01X7120726Y-2699004D01*
G01X7121222Y-2698419D01*
G01X7121716Y-2697833D01*
G01X7120938Y-2697463D01*
G01X7120158Y-2697092D01*
G01X7119052Y-2696600D01*
G01X7117948Y-2696106D01*
G01X7119251Y-2699193D01*
G01X7118119Y-2698563D01*
G01X7118672Y-2699668D01*
G01X7119225Y-2700770D01*
G01X7116542Y-2698541D01*
G01X7115735Y-2697958D01*
G01X7116675Y-2697107D01*
G01X7117611Y-2696258D01*
G01X7116499Y-2696771D01*
G01X7115386Y-2697281D01*
G01X7115419Y-2698403D01*
G01X7113124Y-2698040D01*
G01X7112067Y-2697429D01*
G01X7112447Y-2697121D01*
G01X7110779Y-2695058D01*
G01X7110980Y-2696248D01*
G01X7111183Y-2697435D01*
G01X7108513Y-2697225D01*
G01X7105845Y-2697016D01*
G01X7105326Y-2696716D01*
G01X7106186Y-2696019D01*
G01X7107044Y-2695324D01*
G01X7105725Y-2694562D01*
G01X7104831Y-2696110D01*
G01X7105023Y-2697169D01*
G01X7105213Y-2698226D01*
G01X7104990Y-2697739D01*
G01X7104766Y-2697249D01*
G01X7102180Y-2696917D01*
G01X7099596Y-2696583D01*
G01X7099145Y-2696323D01*
G01X7100249Y-2694410D01*
G01X7099100Y-2694227D01*
G01X7097947Y-2694045D01*
G01X7097302Y-2693673D01*
G01X7097519Y-2694933D01*
G01X7097732Y-2696194D01*
G01X7095917Y-2696154D01*
G01X7094099Y-2696117D01*
G01X7093284Y-2695813D01*
G01X7092471Y-2695508D01*
G01X7092445Y-2694645D01*
G01X7092419Y-2693786D01*
G01X7092922Y-2694718D01*
G01X7093422Y-2695649D01*
G01X7093368Y-2693853D01*
G01X7092283Y-2693681D01*
G01X7091194Y-2693510D01*
G01X7091405Y-2694749D01*
G01X7091617Y-2695992D01*
G01X7091305Y-2695990D01*
G01X7090994Y-2695990D01*
G01X7089231Y-2695966D01*
G01X7087469Y-2695939D01*
G01X7086857Y-2695586D01*
G01X7087411Y-2694516D01*
G01X7087966Y-2693447D01*
G01X7087233Y-2694021D01*
G01X7086497Y-2694595D01*
G01X7086148Y-2693945D01*
G01X7085798Y-2693292D01*
G01X7085028Y-2694624D01*
G01X7084644Y-2693913D01*
G01X7084262Y-2693199D01*
G01X7083104Y-2695205D01*
G01X7085791Y-2694745D01*
G01X7086028Y-2695626D01*
G01X7082674Y-2695816D01*
G01X7079320Y-2696003D01*
G01X7078236Y-2695377D01*
G01X7077548Y-2696569D01*
G01X7075848Y-2695587D01*
G01X7076643Y-2693285D01*
G01X7072591Y-2694370D01*
G01X7072379Y-2693717D01*
G01X7072163Y-2693064D01*
G01X7072165Y-2694180D01*
G01X7072170Y-2695294D01*
G01X7073456Y-2694726D01*
G01X7074744Y-2694156D01*
G01X7075508Y-2694596D01*
G01X7074638Y-2696083D01*
G01X7072801Y-2695916D01*
G01X7070963Y-2695753D01*
G01X7071327Y-2693376D01*
G01X7069494Y-2694072D01*
G01X7067659Y-2694766D01*
G01X7067437Y-2694074D01*
G01X7067211Y-2693384D01*
G01X7067210Y-2694375D01*
G01X7067209Y-2695368D01*
G01X7067649Y-2695622D01*
G01X7070604Y-2694830D01*
G01X7069973Y-2695923D01*
G01X7068158Y-2696315D01*
G01X7066344Y-2696704D01*
G01X7066855Y-2695818D01*
G01X7064097Y-2696307D01*
G01X7061336Y-2696798D01*
G01X7061184Y-2695376D01*
G01X7061030Y-2693956D01*
G01X7059402Y-2694714D01*
G01X7057772Y-2695474D01*
G01X7057647Y-2695000D01*
G01X7057518Y-2694527D01*
G01X7052563Y-2695653D01*
G01X7051617Y-2695107D01*
G01X7049851Y-2695677D01*
G01X7048083Y-2696246D01*
G01X7049460Y-2697041D01*
G01X7050189Y-2695778D01*
G01X7050543Y-2696434D01*
G01X7050895Y-2697089D01*
G01X7054975Y-2695457D01*
G01X7055697Y-2695874D01*
G01X7054977Y-2697121D01*
G01X7050363Y-2698357D01*
G01X7049045Y-2697596D01*
G01X7049074Y-2698531D01*
G01X7049102Y-2699464D01*
G01X7048685Y-2698687D01*
G01X7048265Y-2697911D01*
G01X7043530Y-2699180D01*
G01X7042503Y-2698587D01*
G01X7034726Y-2700454D01*
G01X7026947Y-2702321D01*
G01X7026050Y-2701803D01*
G01X7027036Y-2700095D01*
G01X7008749Y-2704925D01*
G01X7004461Y-2706220D01*
G01X7000176Y-2707517D01*
G01X7000782Y-2709779D01*
G01X7002274Y-2707195D01*
G01X7002894Y-2707960D01*
G01X7003512Y-2708722D01*
G01X7002547Y-2710394D01*
G01X7001968Y-2709904D01*
G01X7001390Y-2709417D01*
G01X7001098Y-2710299D01*
G01X7000807Y-2711183D01*
G01X7000413Y-2710454D01*
G01X7000020Y-2709723D01*
G01X6998947Y-2711581D01*
G01X6997158Y-2710549D01*
G01X6998191Y-2708761D01*
G01X6998553Y-2709170D01*
G01X6998913Y-2709577D01*
G01X6999322Y-2709215D01*
G01X6999727Y-2708853D01*
G01X6999420Y-2708476D01*
G01X6999111Y-2708102D01*
G01X6993073Y-2710575D01*
G01X6987033Y-2713046D01*
G01X6986388Y-2714113D01*
G01X6985744Y-2715178D01*
G01X6986748Y-2715160D01*
G01X6987752Y-2715144D01*
G01X6986269Y-2715710D01*
G01X6984788Y-2716274D01*
G01X6985010Y-2715098D01*
G01X6985231Y-2713923D01*
G01X6982732Y-2715011D01*
G01X6980229Y-2716100D01*
G01X6982067Y-2716046D01*
G01X6981337Y-2717310D01*
G01X6980682Y-2716936D01*
G01X6979840Y-2716459D01*
G01X6976364Y-2718106D01*
G01X6972890Y-2719750D01*
G01X6972568Y-2721770D01*
G01X6973293Y-2721749D01*
G01X6974017Y-2721730D01*
G01X6973717Y-2722249D01*
G01X6972235Y-2722484D01*
G01X6970756Y-2722720D01*
G01X6971632Y-2722233D01*
G01X6972510Y-2721748D01*
G01X6971081Y-2720923D01*
G01X6969748Y-2721509D01*
G01X6968417Y-2722098D01*
G01X6968269Y-2723035D01*
G01X6968122Y-2723971D01*
G01X6968844Y-2723948D01*
G01X6969569Y-2723927D01*
G01X6969268Y-2724448D01*
G01X6967786Y-2724683D01*
G01X6966307Y-2724920D01*
G01X6967964Y-2724000D01*
G01X6967231Y-2722638D01*
G01X6966059Y-2723337D01*
G01X6964889Y-2724034D01*
G01X6965404Y-2725416D01*
G01X6965921Y-2726803D01*
G01X6965400Y-2726003D01*
G01X6964878Y-2725206D01*
G01X6961399Y-2726060D01*
G01X6958831Y-2727756D01*
G01X6958667Y-2728658D01*
G01X6958503Y-2729563D01*
G01X6959368Y-2729538D01*
G01X6960234Y-2729510D01*
G01X6959375Y-2729973D01*
G01X6958519Y-2730435D01*
G01X6958100Y-2729301D01*
G01X6957682Y-2728171D01*
G01X6955672Y-2729457D01*
G01X6953662Y-2730745D01*
G01X6953615Y-2732222D01*
G01X6953567Y-2733699D01*
G01X6952661Y-2732803D01*
G01X6951754Y-2731907D01*
G01X6948523Y-2734212D01*
G01X6948432Y-2737091D01*
G01X6947428Y-2736098D01*
G01X6946424Y-2735108D01*
G01X6945449Y-2736797D01*
G01X6945713Y-2738061D01*
G01X6945974Y-2739326D01*
G01X6945388Y-2737935D01*
G01X6944800Y-2736546D01*
G01X6944260Y-2737322D01*
G01X6943720Y-2738101D01*
G01X6942754Y-2739133D01*
G01X6942211Y-2739860D01*
G01X6941670Y-2740589D01*
G01X6941326Y-2739951D01*
G01X6940985Y-2739313D01*
G01X6939179Y-2740775D01*
G01X6938891Y-2741274D01*
G01X6940679Y-2742307D01*
G01X6939950Y-2743569D01*
G01X6939178Y-2742132D01*
G01X6937775Y-2742510D01*
G01X6936372Y-2742884D01*
G01X6935978Y-2743566D01*
G01X6936511Y-2743674D01*
G01X6937046Y-2743784D01*
G01X6936882Y-2744088D01*
G01X6937170Y-2744254D01*
G01X6936826Y-2744850D01*
G01X6936555Y-2744694D01*
G01X6936882Y-2744088D01*
G01X6936574Y-2743910D01*
G01X6936230Y-2744506D01*
G01X6936555Y-2744694D01*
G01X6936393Y-2744996D01*
G01X6935214Y-2743899D01*
G01X6932648Y-2745987D01*
G01X6930081Y-2748070D01*
G01X6930112Y-2749023D01*
G01X6930140Y-2749975D01*
G01X6929253Y-2748331D01*
G01X6928581Y-2749495D01*
G01X6927583Y-2750305D01*
G01X6926582Y-2751114D01*
G01X6927471Y-2751088D01*
G01X6928362Y-2751063D01*
G01X6928419Y-2752955D01*
G01X6928005Y-2752185D01*
G01X6927588Y-2751414D01*
G01X6926508Y-2752400D01*
G01X6925425Y-2753388D01*
G01X6925070Y-2752728D01*
G01X6924713Y-2752065D01*
G01X6924058Y-2753200D01*
G01X6925509Y-2754993D01*
G01X6924742Y-2755404D01*
G01X6923976Y-2755815D01*
G01X6923327Y-2755015D01*
G01X6922679Y-2754212D01*
G01X6922053Y-2755297D01*
G01X6922435Y-2756010D01*
G01X6922819Y-2756722D01*
G01X6921787Y-2758510D01*
G01X6921398Y-2757787D01*
G01X6921007Y-2757062D01*
G01X6921670Y-2756706D01*
G01X6922334Y-2756348D01*
G01X6921166Y-2755674D01*
G01X6919752Y-2757224D01*
G01X6918340Y-2758772D01*
G01X6918370Y-2759725D01*
G01X6918397Y-2760678D01*
G01X6917954Y-2759857D01*
G01X6917512Y-2759032D01*
G01X6917081Y-2759778D01*
G01X6917025Y-2761481D01*
G01X6916966Y-2763183D01*
G01X6916387Y-2761656D01*
G01X6915807Y-2760130D01*
G01X6915389Y-2761637D01*
G01X6914970Y-2763145D01*
G01X6914142Y-2763005D01*
G01X6913315Y-2762862D01*
G01X6913673Y-2764162D01*
G01X6914033Y-2765464D01*
G01X6914044Y-2764476D01*
G01X6914052Y-2763486D01*
G01X6915314Y-2764215D01*
G01X6913897Y-2766669D01*
G01X6913080Y-2765148D01*
G01X6912035Y-2766207D01*
G01X6910991Y-2767264D01*
G01X6910652Y-2766632D01*
G01X6910310Y-2766000D01*
G01X6909278Y-2767788D01*
G01X6909721Y-2768610D01*
G01X6910210Y-2769332D01*
G01X6909972Y-2769420D01*
G01X6908921Y-2769808D01*
G01X6909203Y-2771361D01*
G01X6908622Y-2769961D01*
G01X6908037Y-2768561D01*
G01X6907111Y-2769910D01*
G01X6906185Y-2771260D01*
G01X6905391Y-2772391D01*
G01X6904595Y-2773521D01*
G01X6903579Y-2774286D01*
G01X6902559Y-2775052D01*
G01X6902585Y-2775900D01*
G01X6902610Y-2776747D01*
G01X6901215Y-2775942D01*
G01X6899544Y-2780695D01*
G01X6899137Y-2779938D01*
G01X6898727Y-2779180D01*
G01X6897008Y-2782158D01*
G01X6897390Y-2782871D01*
G01X6897774Y-2783583D01*
G01X6896742Y-2785371D01*
G01X6895964Y-2783924D01*
G01X6896627Y-2783568D01*
G01X6897289Y-2783209D01*
G01X6895937Y-2782428D01*
G01X6894024Y-2786514D01*
G01X6893172Y-2786972D01*
G01X6892318Y-2787432D01*
G01X6890734Y-2791755D01*
G01X6889149Y-2796080D01*
G01X6888573Y-2796234D01*
G01X6887998Y-2796386D01*
G01X6888441Y-2795518D01*
G01X6888882Y-2794647D01*
G01X6889309Y-2793430D01*
G01X6889733Y-2792212D01*
G01X6889534Y-2791572D01*
G01X6889336Y-2790936D01*
G01X6887476Y-2795026D01*
G01X6885614Y-2799118D01*
G01X6885548Y-2797886D01*
G01X6885483Y-2796658D01*
G01X6883944Y-2799344D01*
G01X6882407Y-2802032D01*
G01X6883944Y-2801382D01*
G01X6885482Y-2800734D01*
G01X6886614Y-2801191D01*
G01X6887743Y-2801649D01*
G01X6890056Y-2802457D01*
G01X6892372Y-2803266D01*
G01X6887697Y-2804690D01*
G01X6889650Y-2805817D01*
G01X6890970Y-2804999D01*
G01X6892289Y-2804177D01*
G01X6892649Y-2804549D01*
G01X6893008Y-2804918D01*
G01X6896478Y-2804754D01*
G01X6899950Y-2804591D01*
G01X6900630Y-2803415D01*
G01X6901584Y-2803966D01*
G01X6903777Y-2803378D01*
G01X6902755Y-2802568D01*
G01X6902362Y-2801105D01*
G01X6903141Y-2801818D01*
G01X6903921Y-2802535D01*
G01X6904182Y-2801797D01*
G01X6904442Y-2801062D01*
G01X6908062Y-2801269D01*
G01X6911683Y-2801474D01*
G01X6912382Y-2801157D01*
G01X6913083Y-2800837D01*
G01X6913831Y-2801761D01*
G01X6914578Y-2802682D01*
G01X6914156Y-2803057D01*
G01X6913732Y-2803431D01*
G01X6914455Y-2804242D01*
G01X6917436Y-2804584D01*
G01X6920419Y-2804929D01*
G01X6920944Y-2804018D01*
G01X6919823Y-2803370D01*
G01X6919109Y-2803753D01*
G01X6918398Y-2804137D01*
G01X6916084Y-2802801D01*
G01X6915280Y-2804193D01*
G01X6915093Y-2803487D01*
G01X6914902Y-2802781D01*
G01X6915665Y-2801369D01*
G01X6917421Y-2800993D01*
G01X6919179Y-2800615D01*
G01X6918365Y-2800095D01*
G01X6917548Y-2799574D01*
G01X6919398Y-2799814D01*
G01X6921246Y-2800052D01*
G01X6919428Y-2797694D01*
G01X6920653Y-2798325D01*
G01X6922588Y-2800135D01*
G01X6924525Y-2801945D01*
G01X6925093Y-2800962D01*
G01X6924198Y-2800099D01*
G01X6923307Y-2799236D01*
G01X6924878Y-2800298D01*
G01X6926452Y-2801362D01*
G01X6926963Y-2800476D01*
G01X6925820Y-2799012D01*
G01X6928629Y-2800572D01*
G01X6931437Y-2802129D01*
G01X6931361Y-2803079D01*
G01X6931286Y-2804030D01*
G01X6931810Y-2802544D01*
G01X6932335Y-2801061D01*
G01X6934607Y-2802373D01*
G01X6933920Y-2803563D01*
G01X6936682Y-2804976D01*
G01X6935797Y-2804101D01*
G01X6934910Y-2803225D01*
G01X6935891Y-2801525D01*
G01X6940064Y-2803934D01*
G01X6939645Y-2804684D01*
G01X6939224Y-2805434D01*
G01X6940207Y-2804920D01*
G01X6941192Y-2804403D01*
G01X6941045Y-2805404D01*
G01X6940902Y-2806403D01*
G01X6941834Y-2805977D01*
G01X6942763Y-2805551D01*
G01X6945004Y-2807766D01*
G01X6944410Y-2808795D01*
G01X6942672Y-2808299D01*
G01X6940934Y-2807806D01*
G01X6941025Y-2808140D01*
G01X6941113Y-2808475D01*
G01X6956413Y-2813467D01*
G01X6961259Y-2815711D01*
G01X6966101Y-2817955D01*
G01X6966085Y-2817459D01*
G01X6966069Y-2816960D01*
G01X6973358Y-2821412D01*
G01X6980646Y-2825866D01*
G01X6919409Y-2932108D01*
G01X6858171Y-3038349D01*
G01X6857054Y-3040883D01*
G01X6834852Y-3028147D01*
G01X6837463Y-3029132D01*
G01X6840074Y-3030115D01*
G01X6837510Y-3028364D01*
G01X6834943Y-3026613D01*
G01X6832266Y-3025272D01*
G01X6829586Y-3023930D01*
G01X6829425Y-3022436D01*
G01X6829264Y-3020938D01*
G01X6827488Y-3020757D01*
G01X6825716Y-3020576D01*
G01X6824491Y-3019253D01*
G01X6823268Y-3017933D01*
G01X6821814Y-3016607D01*
G01X6820361Y-3015282D01*
G01X6821003Y-3014937D01*
G01X6821647Y-3014590D01*
G01X6821212Y-3013788D01*
G01X6820781Y-3012985D01*
G01X6819954Y-3013428D01*
G01X6819127Y-3013874D01*
G01X6817583Y-3011968D01*
G01X6818171Y-3011651D01*
G01X6818757Y-3011335D01*
G01X6817912Y-3009762D01*
G01X6815966Y-3010284D01*
G01X6815331Y-3009498D01*
G01X6814695Y-3008711D01*
G01X6815283Y-3008394D01*
G01X6815869Y-3008079D01*
G01X6815422Y-3007243D01*
G01X6814974Y-3006409D01*
G01X6815005Y-3007462D01*
G01X6815035Y-3008512D01*
G01X6812379Y-3005941D01*
G01X6811205Y-3004500D01*
G01X6810032Y-3003058D01*
G01X6811639Y-3001757D01*
G01X6810941Y-3000893D01*
G01X6810240Y-3000031D01*
G01X6810090Y-3000991D01*
G01X6809937Y-3001953D01*
G01X6808851Y-3001781D01*
G01X6807768Y-3001610D01*
G01X6809492Y-2999620D01*
G01X6809073Y-2998496D01*
G01X6808658Y-2997370D01*
G01X6807911Y-2997771D01*
G01X6807165Y-2998174D01*
G01X6808626Y-2999017D01*
G01X6808087Y-2999163D01*
G01X6807547Y-2999306D01*
G01X6806267Y-2997312D01*
G01X6804988Y-2995316D01*
G01X6805708Y-2994734D01*
G01X6806429Y-2994151D01*
G01X6803370Y-2989229D01*
G01X6802804Y-2989102D01*
G01X6802240Y-2988973D01*
G01X6802830Y-2987950D01*
G01X6800784Y-2983834D01*
G01X6798741Y-2979718D01*
G01X6798642Y-2982816D01*
G01X6800589Y-2984949D01*
G01X6800058Y-2985869D01*
G01X6802414Y-2989357D01*
G01X6802937Y-2989715D01*
G01X6803457Y-2990074D01*
G01X6803275Y-2990963D01*
G01X6803095Y-2991850D01*
G01X6802582Y-2991554D01*
G01X6799995Y-2987644D01*
G01X6799782Y-2986393D01*
G01X6799566Y-2985142D01*
G01X6798529Y-2984977D01*
G01X6797490Y-2984811D01*
G01X6798252Y-2983492D01*
G01X6797196Y-2983257D01*
G01X6796385Y-2980863D01*
G01X6795575Y-2978471D01*
G01X6796432Y-2977688D01*
G01X6797292Y-2976905D01*
G01X6795079Y-2970895D01*
G01X6792862Y-2964885D01*
G01X6787827Y-2943738D01*
G01X6787194Y-2944927D01*
G01X6787538Y-2946911D01*
G01X6787883Y-2948899D01*
G01X6789099Y-2949602D01*
G01X6788531Y-2951027D01*
G01X6787961Y-2952452D01*
G01X6789412Y-2955445D01*
G01X6790864Y-2958435D01*
G01X6790432Y-2959245D01*
G01X6790002Y-2960055D01*
G01X6790806Y-2960320D01*
G01X6791608Y-2960586D01*
G01X6791059Y-2961196D01*
G01X6790507Y-2961807D01*
G01X6791442Y-2963276D01*
G01X6792375Y-2964748D01*
G01X6791651Y-2964981D01*
G01X6790924Y-2965215D01*
G01X6791937Y-2965213D01*
G01X6792950Y-2965214D01*
G01X6792478Y-2965651D01*
G01X6792009Y-2966088D01*
G01X6795843Y-2975966D01*
G01X6796098Y-2976759D01*
G01X6796356Y-2977550D01*
G01X6795132Y-2976714D01*
G01X6793906Y-2975877D01*
G01X6794496Y-2974854D01*
G01X6794120Y-2973444D01*
G01X6793740Y-2972034D01*
G01X6793219Y-2972938D01*
G01X6791717Y-2967778D01*
G01X6790280Y-2968163D01*
G01X6790996Y-2967385D01*
G01X6791711Y-2966604D01*
G01X6790047Y-2966043D01*
G01X6791207Y-2964724D01*
G01X6789543Y-2964162D01*
G01X6790616Y-2962304D01*
G01X6789810Y-2962328D01*
G01X6789001Y-2962354D01*
G01X6790074Y-2960495D01*
G01X6789291Y-2960240D01*
G01X6788508Y-2959987D01*
G01X6788657Y-2956508D01*
G01X6787415Y-2956840D01*
G01X6788422Y-2955096D01*
G01X6787383Y-2951391D01*
G01X6786342Y-2947687D01*
G01X6787275Y-2946071D01*
G01X6786467Y-2946094D01*
G01X6785658Y-2946119D01*
G01X6786379Y-2944870D01*
G01X6786067Y-2943004D01*
G01X6785752Y-2941136D01*
G01X6785462Y-2939921D01*
G01X6785170Y-2938706D01*
G01X6785801Y-2937613D01*
G01X6785231Y-2935847D01*
G01X6784662Y-2934079D01*
G01X6785310Y-2932957D01*
G01X6784880Y-2928469D01*
G01X6785761Y-2910345D01*
G01X6788078Y-2910375D01*
G01X6788485Y-2906733D01*
G01X6787970Y-2908225D01*
G01X6787454Y-2909712D01*
G01X6786714Y-2909734D01*
G01X6785976Y-2909759D01*
G01X6786261Y-2908091D01*
G01X6786544Y-2906422D01*
G01X6789282Y-2906120D01*
G01X6788029Y-2905537D01*
G01X6786777Y-2904952D01*
G01X6786044Y-2905283D01*
G01X6785313Y-2905614D01*
G01X6784643Y-2910817D01*
G01X6785181Y-2911978D01*
G01X6784458Y-2914938D01*
G01X6783737Y-2917897D01*
G01X6784881Y-2918558D01*
G01X6782357Y-2922930D01*
G01X6783581Y-2922602D01*
G01X6783958Y-2925576D01*
G01X6782833Y-2927565D01*
G01X6781710Y-2929556D01*
G01X6780897Y-2926524D01*
G01X6779013Y-2926629D01*
G01X6777127Y-2926737D01*
G01X6777307Y-2925612D01*
G01X6777483Y-2924489D01*
G01X6779114Y-2921665D01*
G01X6780541Y-2921600D01*
G01X6781970Y-2921537D01*
G01X6778959Y-2920555D01*
G01X6780166Y-2918466D01*
G01X6779646Y-2916852D01*
G01X6779125Y-2915235D01*
G01X6777823Y-2914483D01*
G01X6778459Y-2912478D01*
G01X6779098Y-2910471D01*
G01X6778743Y-2909812D01*
G01X6778388Y-2909156D01*
G01X6779077Y-2907964D01*
G01X6779397Y-2908556D01*
G01X6779717Y-2909151D01*
G01X6780688Y-2907469D01*
G01X6779928Y-2907490D01*
G01X6779166Y-2907514D01*
G01X6781434Y-2905445D01*
G01X6778335Y-2903656D01*
G01X6778738Y-2901901D01*
G01X6779324Y-2900054D01*
G01X6779911Y-2898208D01*
G01X6782517Y-2899713D01*
G01X6782327Y-2899008D01*
G01X6782139Y-2898301D01*
G01X6780868Y-2897567D01*
G01X6781387Y-2896277D01*
G01X6781908Y-2894989D01*
G01X6782086Y-2894593D01*
G01X6788465Y-2894593D01*
G01X6788889Y-2894477D01*
G01X6789315Y-2894365D01*
G01X6790650Y-2889641D01*
G01X6791987Y-2884917D01*
G01X6790657Y-2886783D01*
G01X6789324Y-2888650D01*
G01X6789471Y-2889676D01*
G01X6789620Y-2890703D01*
G01X6789620Y-2890703D01*
G01X6788465Y-2894593D01*
G01X6782086Y-2894593D01*
G01X6783330Y-2891840D01*
G01X6784756Y-2888689D01*
G01X6784940Y-2888274D01*
G01X6785122Y-2887857D01*
G01X6783788Y-2887491D01*
G01X6782455Y-2887123D01*
G01X6783683Y-2882507D01*
G01X6784125Y-2882320D01*
G01X6786580Y-2885332D01*
G01X6787251Y-2884169D01*
G01X6785466Y-2883137D01*
G01X6786498Y-2881349D01*
G01X6784710Y-2880317D01*
G01X6786292Y-2877577D01*
G01X6787459Y-2877262D01*
G01X6788624Y-2876950D01*
G01X6787482Y-2874824D01*
G01X6805478Y-2843269D01*
G01X6823471Y-2811712D01*
G01X6825424Y-2808467D01*
G01X6826826Y-2806137D01*
G01X6879192Y-2806137D01*
G01X6880336Y-2806797D01*
G01X6882305Y-2806195D01*
G01X6884272Y-2805592D01*
G01X6884786Y-2805393D01*
G01X6885498Y-2805009D01*
G01X6886094Y-2805353D01*
G01X6885382Y-2805737D01*
G01X6884669Y-2806120D01*
G01X6884143Y-2805817D01*
G01X6883692Y-2806597D01*
G01X6887282Y-2805825D01*
G01X6887256Y-2805051D01*
G01X6887233Y-2804278D01*
G01X6883687Y-2805184D01*
G01X6880139Y-2806088D01*
G01X6880873Y-2804227D01*
G01X6881608Y-2802365D01*
G01X6880399Y-2804250D01*
G01X6880399Y-2804250D01*
G01X6879192Y-2806137D01*
G01X6826826Y-2806137D01*
G01X6827375Y-2805225D01*
G01X6828046Y-2804023D01*
G01X6828714Y-2802819D01*
G01X6830834Y-2799275D01*
G01X6832951Y-2795729D01*
G01X6833600Y-2794514D01*
G01X6834251Y-2793301D01*
G01X6843821Y-2776663D01*
G01X6844914Y-2776259D01*
G01X6846010Y-2775854D01*
G01X6844875Y-2775198D01*
G01X6848454Y-2768380D01*
G01X6851798Y-2766692D01*
G01X6853849Y-2762896D01*
G01X6853004Y-2762409D01*
G01X6856970Y-2758435D01*
G01X6857224Y-2758910D01*
G01X6857479Y-2759382D01*
G01X6858620Y-2756106D01*
G01X6859797Y-2755671D01*
G01X6860976Y-2755235D01*
G01X6860566Y-2754476D01*
G01X6860160Y-2753717D01*
G01X6860752Y-2753398D01*
G01X6861344Y-2753078D01*
G01X6865716Y-2739949D01*
G01X6867668Y-2732337D01*
G01X6869619Y-2724722D01*
G01X6871275Y-2714951D01*
G01X6872932Y-2705178D01*
G01X6873708Y-2695295D01*
G01X6874480Y-2685414D01*
G01X6874496Y-2676681D01*
G01X6874509Y-2667947D01*
G01X6874025Y-2660516D01*
G01X6873539Y-2653083D01*
G01X6872449Y-2644695D01*
G01X6871361Y-2636304D01*
G01X6869856Y-2628497D01*
G01X6868353Y-2620688D01*
G01X6866039Y-2612262D01*
G01X6863722Y-2603836D01*
G01X6860511Y-2594769D01*
G01X6857304Y-2585700D01*
G01X6853232Y-2576772D01*
G01X6849159Y-2567847D01*
G01X6844661Y-2559699D01*
G01X6840162Y-2551553D01*
G01X6835200Y-2544025D01*
G01X6830235Y-2536497D01*
G01X6825962Y-2530824D01*
G01X6821687Y-2525148D01*
G01X6816195Y-2518834D01*
G01X6810704Y-2512517D01*
G01X6803506Y-2505464D01*
G01X6796312Y-2498410D01*
G01X6788607Y-2492041D01*
G01X6780905Y-2485674D01*
G01X6772381Y-2479790D01*
G01X6763855Y-2473909D01*
G01X6737818Y-2459821D01*
G01X6722434Y-2453431D01*
G01X6713794Y-2450502D01*
G01X6705155Y-2447575D01*
G01X6695644Y-2445163D01*
G01X6686132Y-2442753D01*
G01X6677991Y-2441326D01*
G01X6669849Y-2439901D01*
G01X6657294Y-2438957D01*
G01X6644735Y-2438014D01*
G01X6638359Y-2438030D01*
G01X6631981Y-2438045D01*
G01X6622424Y-2438653D01*
G01X6612869Y-2439265D01*
G01X6604186Y-2440569D01*
G01X6595507Y-2441872D01*
G01X6582890Y-2444616D01*
G01X6566050Y-2449332D01*
G01X6557362Y-2452519D01*
G01X6548676Y-2455703D01*
G01X6539773Y-2459843D01*
G01X6530867Y-2463982D01*
G01X6523911Y-2467913D01*
G01X6516953Y-2471843D01*
G01X6511942Y-2474909D01*
G01X6506930Y-2477977D01*
G01X6490264Y-2490142D01*
G01X6483048Y-2496536D01*
G01X6475831Y-2502931D01*
G01X6469900Y-2509043D01*
G01X6463968Y-2515152D01*
G01X6457858Y-2522353D01*
G01X6451746Y-2529551D01*
G01X6444798Y-2539050D01*
G01X6437854Y-2548548D01*
G01X6429033Y-2564116D01*
G01X6420214Y-2579686D01*
G01X6386846Y-2641473D01*
G01X6386522Y-2641562D01*
G01X6386195Y-2641651D01*
G01X6370240Y-2632877D01*
G01X6354283Y-2624101D01*
G01X6355636Y-2620782D01*
G01X6356985Y-2617465D01*
G01X6360049Y-2611096D01*
G01X6363114Y-2604726D01*
G01X6400796Y-2539072D01*
G01X6406903Y-2529883D01*
G01X6413005Y-2520694D01*
G01X6424514Y-2505088D01*
G01X6430913Y-2497343D01*
G01X6437312Y-2489595D01*
G01X6444056Y-2482680D01*
G01X6450797Y-2475763D01*
G01X6457574Y-2469744D01*
G01X6464355Y-2463724D01*
G01X6471618Y-2457985D01*
G01X6478884Y-2452248D01*
G01X6488192Y-2446097D01*
G01X6497498Y-2439949D01*
G01X6504874Y-2435865D01*
G01X6512252Y-2431782D01*
G01X6520881Y-2427624D01*
G01X6529510Y-2423468D01*
G01X6546986Y-2416614D01*
G01X6556760Y-2413486D01*
G01X6566534Y-2410362D01*
G01X6577284Y-2407982D01*
G01X6588032Y-2405604D01*
G01X6596286Y-2404297D01*
G01X6604538Y-2402991D01*
G01X6622951Y-2401382D01*
G01X6637346Y-2400943D01*
G01X6645812Y-2401115D01*
G01X6654282Y-2401287D01*
G01X6677232Y-2403717D01*
G01X6698025Y-2407616D01*
G01X6703961Y-2409038D01*
G01X6709896Y-2410456D01*
G01X6722065Y-2414156D01*
G01X6730332Y-2417046D01*
G01X6738600Y-2419940D01*
G01X6747223Y-2423579D01*
G01X6755846Y-2427220D01*
G01X6772641Y-2436667D01*
G01X6789438Y-2446116D01*
G01X6795664Y-2450475D01*
G01X6801887Y-2454837D01*
G01X6810570Y-2461812D01*
G01X6819256Y-2468788D01*
G01X6827431Y-2476657D01*
G01X6835607Y-2484525D01*
G01X6849526Y-2500331D01*
G01X6853898Y-2505832D01*
G01X6858273Y-2511334D01*
G01X6864461Y-2520376D01*
G01X6870650Y-2529415D01*
G01X6874305Y-2535672D01*
G01X6877961Y-2541926D01*
G01X6881146Y-2548108D01*
G01X6884334Y-2554288D01*
G01X6888150Y-2562820D01*
G01X6891963Y-2571352D01*
G01X6899014Y-2590713D01*
G01X6905405Y-2614266D01*
G01X6908697Y-2632061D01*
G01X6909756Y-2640619D01*
G01X6910813Y-2649176D01*
G01X6911372Y-2659830D01*
G01X6911932Y-2670481D01*
G01X6911903Y-2677221D01*
G01X6911873Y-2683957D01*
G01X6910234Y-2706850D01*
G01X6911374Y-2704926D01*
G01X6912513Y-2702999D01*
G01X6913786Y-2703735D01*
G01X6914406Y-2700914D01*
G01X6916273Y-2701992D01*
G01X6917346Y-2700133D01*
G01X6917969Y-2701290D01*
G01X6919285Y-2699811D01*
G01X7028110Y-2699811D01*
G01X7028737Y-2700166D01*
G01X7029518Y-2700612D01*
G01X7040807Y-2698004D01*
G01X7043059Y-2697765D01*
G01X7045315Y-2697525D01*
G01X7046661Y-2696686D01*
G01X7048009Y-2695851D01*
G01X7043281Y-2696603D01*
G01X7038552Y-2697353D01*
G01X7031254Y-2698981D01*
G01X7028110Y-2699811D01*
G01X7028110Y-2699811D01*
G01X6919285Y-2699811D01*
G01X6923427Y-2695158D01*
G01X6925679Y-2695514D01*
G01X6926545Y-2693222D01*
G01X6931653Y-2691872D01*
G01X6934008Y-2687792D01*
G01X6935190Y-2687589D01*
G01X6936373Y-2687389D01*
G01X6936538Y-2688007D01*
G01X6936706Y-2688626D01*
G01X6937893Y-2686569D01*
G01X6938277Y-2687281D01*
G01X6938660Y-2687994D01*
G01X6939702Y-2686514D01*
G01X6940077Y-2685540D01*
G01X6941269Y-2686228D01*
G01X6944022Y-2681460D01*
G01X6944805Y-2681821D01*
G01X6945591Y-2682181D01*
G01X6947468Y-2683054D01*
G01X6948138Y-2681895D01*
G01X6948809Y-2680737D01*
G01X6951872Y-2679820D01*
G01X6954939Y-2678902D01*
G01X6955103Y-2677856D01*
G01X6955270Y-2676811D01*
G01X6956149Y-2677852D01*
G01X6957027Y-2678893D01*
G01X6956873Y-2678173D01*
G01X6956720Y-2677458D01*
G01X6958151Y-2676600D01*
G01X6959583Y-2675744D01*
G01X6959936Y-2675352D01*
G01X6960291Y-2674960D01*
G01X6960804Y-2674265D01*
G01X6961318Y-2673567D01*
G01X6961379Y-2674793D01*
G01X6961441Y-2676022D01*
G01X6962034Y-2675171D01*
G01X6962629Y-2674324D01*
G01X6963104Y-2673273D01*
G01X6963581Y-2672223D01*
G01X6966470Y-2672858D01*
G01X6967153Y-2671675D01*
G01X6967595Y-2672499D01*
G01X6968038Y-2673321D01*
G01X6967985Y-2671584D01*
G01X6969204Y-2671211D01*
G01X6970420Y-2670837D01*
G01X6971119Y-2670077D01*
G01X6971823Y-2669316D01*
G01X6973637Y-2669261D01*
G01X6973898Y-2669749D01*
G01X6974158Y-2670233D01*
G01X6976080Y-2668768D01*
G01X6978001Y-2667305D01*
G01X6978118Y-2666778D01*
G01X6978233Y-2666249D01*
G01X6979425Y-2666937D01*
G01X6979745Y-2667175D01*
G01X6980068Y-2667414D01*
G01X6982481Y-2666566D01*
G01X6984892Y-2665721D01*
G01X6985297Y-2665025D01*
G01X6985700Y-2664328D01*
G01X6987747Y-2664977D01*
G01X6989794Y-2665628D01*
G01X6989348Y-2662825D01*
G01X6990136Y-2664212D01*
G01X6991386Y-2663826D01*
G01X6992633Y-2663437D01*
G01X6991395Y-2662722D01*
G01X6992007Y-2661662D01*
G01X6994438Y-2662517D01*
G01X6996870Y-2663373D01*
G01X6996771Y-2663190D01*
G01X7018143Y-2663190D01*
G01X7020750Y-2662246D01*
G01X7023353Y-2661303D01*
G01X7023938Y-2662392D01*
G01X7026011Y-2661764D01*
G01X7028084Y-2661140D01*
G01X7027913Y-2660505D01*
G01X7027759Y-2659923D01*
G01X7125723Y-2659923D01*
G01X7128935Y-2660557D01*
G01X7128935Y-2660557D01*
G01X7132143Y-2661193D01*
G01X7132464Y-2660636D01*
G01X7130667Y-2659965D01*
G01X7128868Y-2659296D01*
G01X7127583Y-2659114D01*
G01X7126296Y-2658931D01*
G01X7125723Y-2659923D01*
G01X7027759Y-2659923D01*
G01X7027745Y-2659868D01*
G01X7027346Y-2659638D01*
G01X7026957Y-2661003D01*
G01X7026346Y-2660685D01*
G01X7025736Y-2660365D01*
G01X7022242Y-2661257D01*
G01X7022242Y-2661257D01*
G01X7018745Y-2662147D01*
G01X7018143Y-2663190D01*
G01X6996771Y-2663190D01*
G01X6995795Y-2661374D01*
G01X6997047Y-2661572D01*
G01X6998302Y-2661772D01*
G01X6999605Y-2659515D01*
G01X7001989Y-2660892D01*
G01X7002718Y-2659629D01*
G01X7003541Y-2661160D01*
G01X7003486Y-2659431D01*
G01X7003431Y-2657704D01*
G01X7005816Y-2657626D01*
G01X7006068Y-2658567D01*
G01X7003672Y-2658662D01*
G01X7005263Y-2659604D01*
G01X7006212Y-2658647D01*
G01X7007158Y-2657689D01*
G01X7009174Y-2658372D01*
G01X7011192Y-2659053D01*
G01X7010966Y-2657732D01*
G01X7010739Y-2656408D01*
G01X7013271Y-2657869D01*
G01X7014570Y-2655619D01*
G01X7017000Y-2656474D01*
G01X7019432Y-2657327D01*
G01X7018892Y-2656297D01*
G01X7018349Y-2655265D01*
G01X7019324Y-2655816D01*
G01X7020301Y-2656365D01*
G01X7021624Y-2655877D01*
G01X7022944Y-2655387D01*
G01X7022430Y-2654302D01*
G01X7021918Y-2653214D01*
G01X7023688Y-2654547D01*
G01X7025461Y-2655879D01*
G01X7025442Y-2655216D01*
G01X7025420Y-2654553D01*
G01X7027349Y-2655667D01*
G01X7027328Y-2654951D01*
G01X7027305Y-2654234D01*
G01X7028619Y-2654010D01*
G01X7029931Y-2653785D01*
G01X7030878Y-2652144D01*
G01X7033773Y-2653815D01*
G01X7036746Y-2653019D01*
G01X7036715Y-2651142D01*
G01X7037269Y-2652591D01*
G01X7037824Y-2654037D01*
G01X7038034Y-2653429D01*
G01X7038247Y-2652821D01*
G01X7039592Y-2650818D01*
G01X7043040Y-2652809D01*
G01X7043900Y-2652112D01*
G01X7044759Y-2651417D01*
G01X7046585Y-2652471D01*
G01X7047273Y-2651279D01*
G01X7046081Y-2650591D01*
G01X7046723Y-2649478D01*
G01X7048325Y-2649801D01*
G01X7049926Y-2650122D01*
G01X7050576Y-2650374D01*
G01X7051226Y-2650623D01*
G01X7052358Y-2651156D01*
G01X7053488Y-2651688D01*
G01X7053463Y-2650879D01*
G01X7053439Y-2650071D01*
G01X7055676Y-2651175D01*
G01X7056541Y-2651744D01*
G01X7057403Y-2652313D01*
G01X7056899Y-2651611D01*
G01X7056397Y-2650907D01*
G01X7058441Y-2648839D01*
G01X7059974Y-2650049D01*
G01X7061503Y-2651261D01*
G01X7061465Y-2649936D01*
G01X7064713Y-2651812D01*
G01X7064401Y-2650646D01*
G01X7065891Y-2650249D01*
G01X7067383Y-2649849D01*
G01X7066839Y-2649233D01*
G01X7066293Y-2648619D01*
G01X7066835Y-2647679D01*
G01X7070814Y-2649387D01*
G01X7074794Y-2651099D01*
G01X7072973Y-2648745D01*
G01X7077561Y-2651283D01*
G01X7077538Y-2650475D01*
G01X7077513Y-2649665D01*
G01X7079301Y-2650698D01*
G01X7080933Y-2649822D01*
G01X7077426Y-2648601D01*
G01X7078019Y-2647574D01*
G01X7083454Y-2650712D01*
G01X7083432Y-2649978D01*
G01X7083411Y-2649247D01*
G01X7085714Y-2651456D01*
G01X7085550Y-2650728D01*
G01X7085386Y-2649997D01*
G01X7087400Y-2650090D01*
G01X7089413Y-2650179D01*
G01X7091065Y-2651132D01*
G01X7091710Y-2650015D01*
G01X7089429Y-2649150D01*
G01X7087146Y-2648284D01*
G01X7087976Y-2646847D01*
G01X7090752Y-2648653D01*
G01X7093526Y-2650456D01*
G01X7094699Y-2650415D01*
G01X7095876Y-2650373D01*
G01X7097763Y-2651920D01*
G01X7098171Y-2651212D01*
G01X7097165Y-2649857D01*
G01X7096160Y-2648505D01*
G01X7097959Y-2650031D01*
G01X7099762Y-2651556D01*
G01X7099734Y-2650660D01*
G01X7099708Y-2649765D01*
G01X7103355Y-2651870D01*
G01X7103974Y-2650797D01*
G01X7101767Y-2649784D01*
G01X7099562Y-2648769D01*
G01X7100268Y-2648388D01*
G01X7100979Y-2648006D01*
G01X7103488Y-2649669D01*
G01X7105998Y-2651329D01*
G01X7106656Y-2651155D01*
G01X7107313Y-2650977D01*
G01X7110166Y-2652624D01*
G01X7110140Y-2651815D01*
G01X7110116Y-2651009D01*
G01X7113833Y-2653155D01*
G01X7113790Y-2651716D01*
G01X7115779Y-2652507D01*
G01X7117772Y-2653297D01*
G01X7118125Y-2654624D01*
G01X7118483Y-2655951D01*
G01X7119908Y-2653483D01*
G01X7117122Y-2651766D01*
G01X7114337Y-2650053D01*
G01X7119364Y-2652199D01*
G01X7124396Y-2654344D01*
G01X7124549Y-2655765D01*
G01X7125209Y-2656345D01*
G01X7125866Y-2656923D01*
G01X7126274Y-2657253D01*
G01X7126680Y-2657581D01*
G01X7127618Y-2658017D01*
G01X7128561Y-2658453D01*
G01X7127474Y-2656383D01*
G01X7128714Y-2655922D01*
G01X7129955Y-2655463D01*
G01X7129363Y-2654711D01*
G01X7128772Y-2653956D01*
G01X7133977Y-2656838D01*
G01X7134400Y-2658417D01*
G01X7134824Y-2659993D01*
G01X7135592Y-2659105D01*
G01X7136363Y-2658216D01*
G01X7138659Y-2659542D01*
G01X7139538Y-2658061D01*
G01X7139600Y-2659290D01*
G01X7139662Y-2660517D01*
G01X7140102Y-2659776D01*
G01X7140540Y-2659038D01*
G01X7142615Y-2660259D01*
G01X7143171Y-2661363D01*
G01X7143725Y-2662466D01*
G01X7142494Y-2662536D01*
G01X7141260Y-2662606D01*
G01X7141712Y-2662879D01*
G01X7142161Y-2663153D01*
G01X7150441Y-2665288D01*
G01X7150953Y-2664402D01*
G01X7147991Y-2663589D01*
G01X7149813Y-2663060D01*
G01X7151636Y-2662529D01*
G01X7152442Y-2663200D01*
G01X7153247Y-2663867D01*
G01X7153638Y-2664216D01*
G01X7152381Y-2664681D01*
G01X7151121Y-2665147D01*
G01X7152826Y-2665973D01*
G01X7154593Y-2666357D01*
G01X7156358Y-2666739D01*
G01X7153598Y-2664988D01*
G01X7154858Y-2664522D01*
G01X7156115Y-2664057D01*
G01X7159623Y-2666082D01*
G01X7161194Y-2666133D01*
G01X7162764Y-2666183D01*
G01X7163525Y-2667124D01*
G01X7164289Y-2668067D01*
G01X7161894Y-2668162D01*
G01X7162550Y-2668555D01*
G01X7163207Y-2668946D01*
G01X7176380Y-2673355D01*
G01X7182243Y-2675588D01*
G01X7188103Y-2677822D01*
G01X7184925Y-2676151D01*
G01X7181744Y-2674482D01*
G01X7183049Y-2674132D01*
G01X7184355Y-2673784D01*
G01X7186671Y-2676030D01*
G01X7188986Y-2678279D01*
G01X7196052Y-2681563D01*
G01X7203118Y-2684852D01*
G01X7219169Y-2694218D01*
G01X7235215Y-2703585D01*
G01X7245388Y-2710743D01*
G01X7252492Y-2716440D01*
G01X7259598Y-2722134D01*
G01X7260849Y-2722613D01*
G01X7262098Y-2723091D01*
G01X7261036Y-2722868D01*
G01X7259971Y-2722646D01*
G01X7264695Y-2726851D01*
G01X7269419Y-2731059D01*
G01X7274788Y-2736581D01*
G01X7280154Y-2742104D01*
G01X7281132Y-2742106D01*
G01X7282113Y-2742109D01*
G01X7281435Y-2742328D01*
G01X7280760Y-2742548D01*
G01X7286812Y-2749532D01*
G01X7292867Y-2756514D01*
G01X7293675Y-2757181D01*
G01X7294481Y-2757848D01*
G01X7294570Y-2758383D01*
G01X7294658Y-2758918D01*
G01X7298715Y-2764131D01*
G01X7302774Y-2769342D01*
G01X7304409Y-2769295D01*
G01X7302930Y-2770089D01*
G01X7304335Y-2771921D01*
G01X7305739Y-2773752D01*
G01X7307344Y-2774679D01*
G01X7306879Y-2774926D01*
G01X7306415Y-2775177D01*
G01X7309870Y-2779371D01*
G01X7310903Y-2779645D01*
G01X7310298Y-2780692D01*
G01X7311767Y-2782622D01*
G01X7313238Y-2784550D01*
G01X7314651Y-2784856D01*
G01X7313947Y-2785045D01*
G01X7313240Y-2785232D01*
G01X7316622Y-2790733D01*
G01X7320000Y-2796234D01*
G01X7325305Y-2806875D01*
G01X7330607Y-2817516D01*
G01X7333756Y-2825269D01*
G01X7336908Y-2833021D01*
G01X7341324Y-2846016D01*
G01X7344288Y-2856501D01*
G01X7347253Y-2866984D01*
G01X7349143Y-2876420D01*
G01X7351033Y-2885854D01*
G01X7353481Y-2906340D01*
G01X7354231Y-2916309D01*
G01X7354398Y-2925939D01*
G01X7354562Y-2935570D01*
G01X7353641Y-2948548D01*
G01X7352723Y-2961527D01*
G01X7351465Y-2970059D01*
G01X7350210Y-2978592D01*
G01X7349454Y-2979903D01*
G01X7350716Y-2980631D01*
G01X7350094Y-2980967D01*
G01X7349470Y-2981302D01*
G01X7348073Y-2988243D01*
G01X7348252Y-2988745D01*
G01X7348432Y-2989245D01*
G01X7347999Y-2990188D01*
G01X7347569Y-2991131D01*
G01X7345411Y-2999421D01*
G01X7343254Y-3007712D01*
G01X7343511Y-3008268D01*
G01X7343767Y-3008826D01*
G01X7343151Y-3009649D01*
G01X7342533Y-3010474D01*
G01X7338859Y-3020669D01*
G01X7339961Y-3021305D01*
G01X7339058Y-3022174D01*
G01X7338152Y-3023041D01*
G01X7335074Y-3030800D01*
G01X7331998Y-3038560D01*
G01X7332731Y-3037916D01*
G01X7333465Y-3037275D01*
G01X7329876Y-3043760D01*
G01X7326289Y-3050243D01*
G01X7326721Y-3051049D01*
G01X7327156Y-3051855D01*
G01X7323463Y-3056584D01*
G01X7324404Y-3058389D01*
G01X7323803Y-3058053D01*
G01X7323203Y-3057716D01*
G01X7314489Y-3073150D01*
G01X7305776Y-3088582D01*
G01X7290562Y-3115283D01*
G01X7275346Y-3141983D01*
G01X7275249Y-3141009D01*
G01X7275152Y-3140033D01*
G01X7271860Y-3147381D01*
G01X7271427Y-3146576D01*
G01X7270996Y-3145773D01*
G01X7269651Y-3148601D01*
G01X7268305Y-3151425D01*
G01X7267960Y-3150779D01*
G01X7267611Y-3150133D01*
G01X7266702Y-3152531D01*
G01X7265793Y-3154927D01*
G01X7265373Y-3154148D01*
G01X7264951Y-3153365D01*
G01X7264230Y-3155497D01*
G01X7263511Y-3157627D01*
G01X7263101Y-3156868D01*
G01X7262693Y-3156108D01*
G01X7262193Y-3157297D01*
G01X7261692Y-3158486D01*
G01X7260833Y-3159181D01*
G01X7259971Y-3159876D01*
G01X7255889Y-3163666D01*
G01X7256357Y-3164537D01*
G01X7256827Y-3165409D01*
G01X7255931Y-3165438D01*
G01X7255036Y-3165463D01*
G01X7255508Y-3164452D01*
G01X7254309Y-3165346D01*
G01X7253108Y-3166242D01*
G01X7252123Y-3167755D01*
G01X7252944Y-3167731D01*
G01X7253768Y-3167705D01*
G01X7253714Y-3165950D01*
G01X7254156Y-3166774D01*
G01X7254600Y-3167596D01*
G01X7253608Y-3169313D01*
G01X7253202Y-3168985D01*
G01X7252794Y-3168656D01*
G01X7251261Y-3167958D01*
G01X7250877Y-3170381D01*
G01X7249980Y-3168714D01*
G01X7249251Y-3169977D01*
G01X7250443Y-3170665D01*
G01X7249681Y-3171984D01*
G01X7249009Y-3171153D01*
G01X7248338Y-3170323D01*
G01X7247245Y-3171323D01*
G01X7246151Y-3172319D01*
G01X7245124Y-3173722D01*
G01X7244094Y-3175125D01*
G01X7243165Y-3175154D01*
G01X7242235Y-3175180D01*
G01X7241124Y-3176465D01*
G01X7240013Y-3177748D01*
G01X7239256Y-3177592D01*
G01X7238501Y-3177438D01*
G01X7239675Y-3180098D01*
G01X7238618Y-3180130D01*
G01X7237562Y-3180160D01*
G01X7238387Y-3179718D01*
G01X7239207Y-3179277D01*
G01X7237448Y-3178261D01*
G01X7236768Y-3178859D01*
G01X7236087Y-3179460D01*
G01X7236576Y-3180796D01*
G01X7237069Y-3182133D01*
G01X7236545Y-3181332D01*
G01X7236023Y-3180535D01*
G01X7234284Y-3180962D01*
G01X7232547Y-3181390D01*
G01X7229899Y-3183081D01*
G01X7229843Y-3186186D01*
G01X7229356Y-3184896D01*
G01X7228867Y-3183609D01*
G01X7225169Y-3185473D01*
G01X7225734Y-3185799D01*
G01X7223424Y-3186515D01*
G01X7221111Y-3187230D01*
G01X7220947Y-3188261D01*
G01X7220784Y-3189290D01*
G01X7221521Y-3189267D01*
G01X7222257Y-3189246D01*
G01X7222236Y-3188492D01*
G01X7222213Y-3187740D01*
G01X7224306Y-3188948D01*
G01X7221078Y-3189867D01*
G01X7217853Y-3190785D01*
G01X7217305Y-3190469D01*
G01X7218986Y-3189929D01*
G01X7220665Y-3189389D01*
G01X7220286Y-3188683D01*
G01X7219907Y-3187980D01*
G01X7214897Y-3190266D01*
G01X7214371Y-3191980D01*
G01X7213563Y-3191185D01*
G01X7199770Y-3194896D01*
G01X7185979Y-3198607D01*
G01X7186332Y-3198905D01*
G01X7186683Y-3199201D01*
G01X7187293Y-3199413D01*
G01X7187901Y-3199626D01*
G01X7186554Y-3200124D01*
G01X7185209Y-3200620D01*
G01X7185157Y-3198872D01*
G01X7183942Y-3198681D01*
G01X7182726Y-3198486D01*
G01X7182157Y-3199471D01*
G01X7179316Y-3198845D01*
G01X7179340Y-3199663D01*
G01X7179366Y-3200481D01*
G01X7182042Y-3199824D01*
G01X7184716Y-3199168D01*
G01X7183572Y-3201150D01*
G01X7181388Y-3201047D01*
G01X7179202Y-3200947D01*
G01X7176577Y-3201918D01*
G01X7174807Y-3200896D01*
G01X7175680Y-3200191D01*
G01X7176552Y-3199484D01*
G01X7175008Y-3199434D01*
G01X7173466Y-3199383D01*
G01X7173146Y-3199937D01*
G01X7173902Y-3200177D01*
G01X7174659Y-3200415D01*
G01X7174393Y-3201850D01*
G01X7169005Y-3201918D01*
G01X7163619Y-3201987D01*
G01X7162765Y-3201750D01*
G01X7161910Y-3201514D01*
G01X7162564Y-3200839D01*
G01X7163219Y-3200167D01*
G01X7162705Y-3200472D01*
G01X7162194Y-3200778D01*
G01X7161743Y-3199960D01*
G01X7161288Y-3199143D01*
G37*
G36*
G01X6899437Y-2802727D02*
G01X6898967Y-2804232D01*
G01X6897789Y-2803789D01*
G01X6896611Y-2803350D01*
G01X6894643Y-2803463D01*
G01X6892676Y-2803573D01*
G01X6892647Y-2802648D01*
G01X6892621Y-2801723D01*
G01X6892992Y-2802416D01*
G01X6893366Y-2803109D01*
G01X6895818Y-2802549D01*
G01X6898273Y-2801990D01*
G01X6897885Y-2802663D01*
G01X6900112Y-2802538D01*
G01X6902338Y-2802416D01*
G01X6901449Y-2802894D01*
G01X6900559Y-2803374D01*
G01X6899437Y-2802727D01*
G37*
G36*
G01X5867143Y-2069656D02*
G01X5807202Y-2173913D01*
G01X5747265Y-2278169D01*
G01X5731766Y-2269221D01*
G01X5791858Y-2164655D01*
G01X5851952Y-2060091D01*
G01X5854502Y-2052821D01*
G01X5857049Y-2045553D01*
G01X5858671Y-2039733D01*
G01X5860291Y-2033915D01*
G01X5861448Y-2027035D01*
G01X5862604Y-2020152D01*
G01X5863042Y-2012784D01*
G01X5863477Y-2005416D01*
G01X5862891Y-1996806D01*
G01X5862303Y-1988194D01*
G01X5859079Y-1971958D01*
G01X5853304Y-1956085D01*
G01X5849719Y-1948977D01*
G01X5846137Y-1941868D01*
G01X5837209Y-1928866D01*
G01X5832063Y-1923121D01*
G01X5826914Y-1917374D01*
G01X5821059Y-1912317D01*
G01X5815207Y-1907261D01*
G01X5807818Y-1902449D01*
G01X5800427Y-1897640D01*
G01X5792464Y-1893538D01*
G01X5784500Y-1889438D01*
G01X5769353Y-1884018D01*
G01X5761249Y-1882222D01*
G01X5753148Y-1880425D01*
G01X5744015Y-1879726D01*
G01X5734880Y-1879030D01*
G01X5726205Y-1879569D01*
G01X5717528Y-1880111D01*
G01X5699734Y-1883473D01*
G01X5692287Y-1886050D01*
G01X5684838Y-1888626D01*
G01X5672235Y-1894352D01*
G01X5667418Y-1897098D01*
G01X5662603Y-1899846D01*
G01X5656977Y-1903785D01*
G01X5651354Y-1907723D01*
G01X5645435Y-1913079D01*
G01X5639513Y-1918434D01*
G01X5634887Y-1923678D01*
G01X5630260Y-1928918D01*
G01X5626072Y-1934731D01*
G01X5621884Y-1940542D01*
G01X5507032Y-2139471D01*
G01X5490941Y-2130181D01*
G01X5606137Y-1930655D01*
G01X5609075Y-1924123D01*
G01X5612015Y-1917589D01*
G01X5614258Y-1910941D01*
G01X5616505Y-1904291D01*
G01X5618230Y-1895868D01*
G01X5619957Y-1887446D01*
G01X5620501Y-1881075D01*
G01X5621047Y-1874704D01*
G01X5620768Y-1860690D01*
G01X5618771Y-1844412D01*
G01X5615771Y-1833891D01*
G01X5612771Y-1823368D01*
G01X5609269Y-1815733D01*
G01X5605770Y-1808100D01*
G01X5602546Y-1802671D01*
G01X5599322Y-1797243D01*
G01X5595731Y-1792361D01*
G01X5592138Y-1787480D01*
G01X5587577Y-1782396D01*
G01X5583015Y-1777310D01*
G01X5579509Y-1774057D01*
G01X5576000Y-1770803D01*
G01X5570165Y-1766246D01*
G01X5564331Y-1761690D01*
G01X5553749Y-1755578D01*
G01X5543170Y-1749464D01*
G01X5536176Y-1746690D01*
G01X5529186Y-1743915D01*
G01X5518260Y-1740815D01*
G01X5509728Y-1739074D01*
G01X5503756Y-1738411D01*
G01X5497781Y-1737748D01*
G01X5490461Y-1737809D01*
G01X5483139Y-1737869D01*
G01X5469345Y-1739564D01*
G01X5462019Y-1741287D01*
G01X5454691Y-1743012D01*
G01X5439494Y-1748853D01*
G01X5433076Y-1752127D01*
G01X5426661Y-1755402D01*
G01X5418985Y-1760676D01*
G01X5411310Y-1765955D01*
G01X5405229Y-1771581D01*
G01X5399148Y-1777211D01*
G01X5394537Y-1782495D01*
G01X5389929Y-1787779D01*
G01X5385534Y-1793924D01*
G01X5381140Y-1800067D01*
G01X5265647Y-2000107D01*
G01X5250112Y-1991138D01*
G01X5310436Y-1887105D01*
G01X5370764Y-1783071D01*
G01X5375184Y-1777676D01*
G01X5379602Y-1772283D01*
G01X5389045Y-1761841D01*
G01X5396353Y-1755334D01*
G01X5403663Y-1748825D01*
G01X5411909Y-1743258D01*
G01X5420157Y-1737689D01*
G01X5427152Y-1734177D01*
G01X5434149Y-1730668D01*
G01X5446577Y-1725955D01*
G01X5459774Y-1722420D01*
G01X5472896Y-1720283D01*
G01X5481242Y-1719815D01*
G01X5489588Y-1719344D01*
G01X5498211Y-1720017D01*
G01X5506833Y-1720693D01*
G01X5514285Y-1722236D01*
G01X5521736Y-1723782D01*
G01X5534879Y-1728009D01*
G01X5542953Y-1731492D01*
G01X5551026Y-1734974D01*
G01X5570141Y-1746010D01*
G01X5576965Y-1751161D01*
G01X5583788Y-1756314D01*
G01X5596426Y-1767664D01*
G01X5608153Y-1779830D01*
G01X5612977Y-1786480D01*
G01X5617799Y-1793132D01*
G01X5621100Y-1798935D01*
G01X5624398Y-1804736D01*
G01X5627818Y-1812578D01*
G01X5631237Y-1820423D01*
G01X5634365Y-1832258D01*
G01X5637491Y-1844094D01*
G01X5637982Y-1851929D01*
G01X5638475Y-1859761D01*
G01X5637699Y-1871234D01*
G01X5636924Y-1882704D01*
G01X5634782Y-1893135D01*
G01X5632638Y-1903562D01*
G01X5637623Y-1898748D01*
G01X5642609Y-1893932D01*
G01X5655871Y-1883315D01*
G01X5662012Y-1879414D01*
G01X5668150Y-1875513D01*
G01X5674178Y-1872533D01*
G01X5680205Y-1869550D01*
G01X5686788Y-1867222D01*
G01X5693368Y-1864895D01*
G01X5701399Y-1863379D01*
G01X5709428Y-1861866D01*
G01X5716373Y-1861190D01*
G01X5723321Y-1860512D01*
G01X5728907Y-1860473D01*
G01X5734491Y-1860433D01*
G01X5742569Y-1861268D01*
G01X5750647Y-1862099D01*
G01X5767046Y-1866171D01*
G01X5783194Y-1871442D01*
G01X5791068Y-1874774D01*
G01X5798941Y-1878108D01*
G01X5809352Y-1884204D01*
G01X5819761Y-1890302D01*
G01X5825746Y-1894792D01*
G01X5831730Y-1899285D01*
G01X5842397Y-1908909D01*
G01X5847459Y-1914592D01*
G01X5852521Y-1920276D01*
G01X5857389Y-1927362D01*
G01X5862255Y-1934450D01*
G01X5868753Y-1947222D01*
G01X5874320Y-1960946D01*
G01X5876375Y-1968499D01*
G01X5878430Y-1976048D01*
G01X5880499Y-1989958D01*
G01X5881392Y-2004778D01*
G01X5880688Y-2014702D01*
G01X5879988Y-2024626D01*
G01X5878371Y-2032832D01*
G01X5876754Y-2041037D01*
G01X5874511Y-2048483D01*
G01X5872270Y-2055930D01*
G01X5867143Y-2069656D01*
G37*
G36*
G01X6246197Y-2540528D02*
G01X6240000Y-2540935D01*
G01X6233805Y-2541344D01*
G01X6221067Y-2541321D01*
G01X6213308Y-2540492D01*
G01X6205547Y-2539665D01*
G01X6196547Y-2537894D01*
G01X6187548Y-2536123D01*
G01X6180101Y-2533880D01*
G01X6172653Y-2531638D01*
G01X6165860Y-2528953D01*
G01X6159063Y-2526270D01*
G01X6149609Y-2521312D01*
G01X6140155Y-2516353D01*
G01X6132514Y-2511006D01*
G01X6124870Y-2505660D01*
G01X6120033Y-2501656D01*
G01X6115193Y-2497651D01*
G01X6110177Y-2492781D01*
G01X6105162Y-2487915D01*
G01X6100112Y-2482170D01*
G01X6095060Y-2476424D01*
G01X6090122Y-2469667D01*
G01X6085186Y-2462908D01*
G01X6076640Y-2448239D01*
G01X6070070Y-2432880D01*
G01X6067622Y-2425027D01*
G01X6065171Y-2417172D01*
G01X6063680Y-2408585D01*
G01X6062187Y-2399996D01*
G01X6061584Y-2391700D01*
G01X6060982Y-2383406D01*
G01X6061282Y-2371662D01*
G01X6062420Y-2363361D01*
G01X6063558Y-2355062D01*
G01X6065778Y-2346579D01*
G01X6068000Y-2338094D01*
G01X6074422Y-2321240D01*
G01X6079325Y-2311356D01*
G01X6084226Y-2301470D01*
G01X6192092Y-2114630D01*
G01X6208731Y-2124237D01*
G01X6151911Y-2223140D01*
G01X6095087Y-2322045D01*
G01X6092177Y-2329467D01*
G01X6089265Y-2336888D01*
G01X6087213Y-2343287D01*
G01X6085158Y-2349686D01*
G01X6083638Y-2356914D01*
G01X6082116Y-2364143D01*
G01X6081509Y-2369593D01*
G01X6080904Y-2375044D01*
G01X6080753Y-2388675D01*
G01X6081419Y-2395440D01*
G01X6082084Y-2402208D01*
G01X6084768Y-2416830D01*
G01X6087525Y-2425134D01*
G01X6090281Y-2433435D01*
G01X6094309Y-2441616D01*
G01X6098337Y-2449795D01*
G01X6109961Y-2466793D01*
G01X6121671Y-2479993D01*
G01X6128171Y-2485717D01*
G01X6134669Y-2491442D01*
G01X6141083Y-2496083D01*
G01X6147498Y-2500728D01*
G01X6157562Y-2506084D01*
G01X6167624Y-2511442D01*
G01X6183908Y-2517412D01*
G01X6190947Y-2519101D01*
G01X6197989Y-2520792D01*
G01X6205421Y-2521928D01*
G01X6212852Y-2523062D01*
G01X6227795Y-2523796D01*
G01X6236518Y-2523149D01*
G01X6245242Y-2522503D01*
G01X6255359Y-2520021D01*
G01X6265474Y-2517542D01*
G01X6271753Y-2515118D01*
G01X6278035Y-2512695D01*
G01X6285194Y-2509093D01*
G01X6292355Y-2505492D01*
G01X6298639Y-2501308D01*
G01X6304921Y-2497126D01*
G01X6311290Y-2491595D01*
G01X6317657Y-2486063D01*
G01X6323120Y-2480132D01*
G01X6328583Y-2474199D01*
G01X6333847Y-2467374D01*
G01X6339108Y-2460547D01*
G01X6395866Y-2362797D01*
G01X6452626Y-2265050D01*
G01X6468678Y-2274317D01*
G01X6409395Y-2376567D01*
G01X6350110Y-2478819D01*
G01X6338927Y-2492226D01*
G01X6333224Y-2498074D01*
G01X6327524Y-2503920D01*
G01X6321848Y-2508590D01*
G01X6316174Y-2513262D01*
G01X6310437Y-2517043D01*
G01X6304698Y-2520822D01*
G01X6299071Y-2523838D01*
G01X6293443Y-2526855D01*
G01X6285419Y-2530184D01*
G01X6277393Y-2533514D01*
G01X6268338Y-2536007D01*
G01X6259284Y-2538504D01*
G01X6252741Y-2539515D01*
G01X6246197Y-2540528D01*
G37*
G36*
G01X5125782Y-1887695D02*
G01X5117491Y-1888691D01*
G01X5109198Y-1889685D01*
G01X5100680Y-1889653D01*
G01X5092161Y-1889623D01*
G01X5084337Y-1888768D01*
G01X5076516Y-1887915D01*
G01X5064935Y-1885950D01*
G01X5054683Y-1883063D01*
G01X5044429Y-1880175D01*
G01X5028872Y-1874085D01*
G01X5015184Y-1866138D01*
G01X5001494Y-1858190D01*
G01X4995620Y-1853491D01*
G01X4989748Y-1848790D01*
G01X4983773Y-1843291D01*
G01X4977802Y-1837790D01*
G01X4971685Y-1830775D01*
G01X4965567Y-1823762D01*
G01X4960959Y-1817445D01*
G01X4956348Y-1811126D01*
G01X4951986Y-1803526D01*
G01X4947620Y-1795926D01*
G01X4945173Y-1790273D01*
G01X4942729Y-1784622D01*
G01X4940203Y-1777437D01*
G01X4937678Y-1770249D01*
G01X4936207Y-1763233D01*
G01X4934737Y-1756214D01*
G01X4933932Y-1751037D01*
G01X4933124Y-1745858D01*
G01X4932662Y-1737988D01*
G01X4932199Y-1730114D01*
G01X4932659Y-1722435D01*
G01X4933119Y-1714754D01*
G01X4934324Y-1707503D01*
G01X4935530Y-1700253D01*
G01X4938057Y-1691381D01*
G01X4940586Y-1682510D01*
G01X4943283Y-1675329D01*
G01X4945982Y-1668145D01*
G01X5004890Y-1565676D01*
G01X5063800Y-1463210D01*
G01X5079854Y-1472479D01*
G01X5023406Y-1570803D01*
G01X4966957Y-1669129D01*
G01X4963866Y-1676805D01*
G01X4960775Y-1684483D01*
G01X4958701Y-1690910D01*
G01X4956631Y-1697336D01*
G01X4953252Y-1712869D01*
G01X4952554Y-1721377D01*
G01X4951859Y-1729885D01*
G01X4952241Y-1737087D01*
G01X4952624Y-1744290D01*
G01X4953598Y-1751210D01*
G01X4954573Y-1758130D01*
G01X4956805Y-1766469D01*
G01X4959042Y-1774806D01*
G01X4961665Y-1781326D01*
G01X4964290Y-1787848D01*
G01X4967360Y-1793573D01*
G01X4970428Y-1799300D01*
G01X4973991Y-1804721D01*
G01X4977552Y-1810140D01*
G01X4982665Y-1816450D01*
G01X4987780Y-1822758D01*
G01X4997285Y-1832444D01*
G01X5003720Y-1837817D01*
G01X5010156Y-1843186D01*
G01X5030201Y-1855656D01*
G01X5044584Y-1862013D01*
G01X5052360Y-1864570D01*
G01X5060135Y-1867130D01*
G01X5067848Y-1868712D01*
G01X5075564Y-1870293D01*
G01X5083806Y-1871158D01*
G01X5092048Y-1872025D01*
G01X5099325Y-1871921D01*
G01X5106600Y-1871817D01*
G01X5114393Y-1870762D01*
G01X5122188Y-1869711D01*
G01X5129672Y-1867704D01*
G01X5137159Y-1865699D01*
G01X5143642Y-1863201D01*
G01X5150126Y-1860702D01*
G01X5156735Y-1857366D01*
G01X5163343Y-1854032D01*
G01X5170353Y-1849311D01*
G01X5177360Y-1844591D01*
G01X5183858Y-1838833D01*
G01X5190357Y-1833072D01*
G01X5201932Y-1819891D01*
G01X5205752Y-1814945D01*
G01X5209575Y-1810000D01*
G01X5323744Y-1613289D01*
G01X5340383Y-1622896D01*
G01X5232848Y-1809132D01*
G01X5226575Y-1818621D01*
G01X5220300Y-1828112D01*
G01X5209694Y-1841108D01*
G01X5198055Y-1852968D01*
G01X5191248Y-1858398D01*
G01X5184439Y-1863827D01*
G01X5178799Y-1867324D01*
G01X5173156Y-1870820D01*
G01X5158202Y-1878079D01*
G01X5150019Y-1881082D01*
G01X5141835Y-1884084D01*
G01X5133809Y-1885890D01*
G01X5125782Y-1887695D01*
G37*
G36*
G01X6057951Y-2132141D02*
G01X6051617Y-2145967D01*
G01X5918283Y-2376907D01*
G01X5902223Y-2367634D01*
G01X5969726Y-2250263D01*
G01X6037227Y-2132891D01*
G01X6039834Y-2125344D01*
G01X6042442Y-2117800D01*
G01X6043969Y-2110283D01*
G01X6045499Y-2102768D01*
G01X6045762Y-2095932D01*
G01X6046023Y-2089095D01*
G01X6045013Y-2082204D01*
G01X6044004Y-2075311D01*
G01X6039784Y-2063919D01*
G01X6037224Y-2059321D01*
G01X6034662Y-2054722D01*
G01X6030576Y-2049498D01*
G01X6026492Y-2044275D01*
G01X6021036Y-2039268D01*
G01X6015583Y-2034261D01*
G01X6010158Y-2030293D01*
G01X6004733Y-2026322D01*
G01X5969522Y-2005993D01*
G01X5978123Y-1991095D01*
G01X5997894Y-2002616D01*
G01X6017664Y-2014138D01*
G01X6022734Y-2017746D01*
G01X6027803Y-2021355D01*
G01X6032330Y-2025212D01*
G01X6036859Y-2029071D01*
G01X6048052Y-2041673D01*
G01X6051170Y-2046427D01*
G01X6054291Y-2051181D01*
G01X6057033Y-2056752D01*
G01X6059778Y-2062325D01*
G01X6064863Y-2081301D01*
G01X6065272Y-2087505D01*
G01X6065685Y-2093708D01*
G01X6065324Y-2099851D01*
G01X6064964Y-2105995D01*
G01X6062426Y-2118834D01*
G01X6060189Y-2125486D01*
G01X6057951Y-2132141D01*
G37*
G36*
G01X4930443Y-1477121D02*
G01X4927911Y-1484480D01*
G01X4789454Y-1725177D01*
G01X4773361Y-1715886D01*
G01X4841040Y-1598220D01*
G01X4908720Y-1480552D01*
G01X4913735Y-1465965D01*
G01X4915111Y-1459425D01*
G01X4916486Y-1452885D01*
G01X4917235Y-1440544D01*
G01X4916870Y-1435518D01*
G01X4916503Y-1430495D01*
G01X4915016Y-1424228D01*
G01X4913531Y-1417961D01*
G01X4910840Y-1412281D01*
G01X4908150Y-1406599D01*
G01X4904569Y-1401468D01*
G01X4900991Y-1396334D01*
G01X4892094Y-1387069D01*
G01X4887264Y-1383005D01*
G01X4882433Y-1378943D01*
G01X4862776Y-1367224D01*
G01X4843117Y-1355504D01*
G01X4851649Y-1340725D01*
G01X4870217Y-1351583D01*
G01X4888782Y-1362439D01*
G01X4891346Y-1364190D01*
G01X4893913Y-1365941D01*
G01X4899738Y-1370501D01*
G01X4905565Y-1375062D01*
G01X4910997Y-1380593D01*
G01X4916431Y-1386124D01*
G01X4921585Y-1393771D01*
G01X4926741Y-1401416D01*
G01X4929485Y-1407741D01*
G01X4932227Y-1414069D01*
G01X4936044Y-1428782D01*
G01X4936530Y-1436001D01*
G01X4937018Y-1443221D01*
G01X4936513Y-1449507D01*
G01X4936010Y-1455791D01*
G01X4934493Y-1462777D01*
G01X4932980Y-1469762D01*
G01X4930443Y-1477121D01*
G37*
G36*
G01X7098301Y-3048259D02*
G01X7093544Y-3049535D01*
G01X7088785Y-3050808D01*
G01X7084198Y-3050494D01*
G01X7079610Y-3050182D01*
G01X7065903Y-3042268D01*
G01X7063339Y-3038451D01*
G01X7060773Y-3034635D01*
G01X7059496Y-3029878D01*
G01X7058223Y-3025119D01*
G01X7058535Y-3020531D01*
G01X7058849Y-3015944D01*
G01X7066762Y-3002238D01*
G01X7070577Y-2999673D01*
G01X7074395Y-2997109D01*
G01X7079152Y-2995832D01*
G01X7083911Y-2994559D01*
G01X7088480Y-2994904D01*
G01X7093048Y-2995251D01*
G01X7099118Y-2998498D01*
G01X7105190Y-3001746D01*
G01X7107614Y-3004670D01*
G01X7110036Y-3007590D01*
G01X7111654Y-3010985D01*
G01X7113271Y-3014381D01*
G01X7113834Y-3017688D01*
G01X7114395Y-3020998D01*
G01X7114122Y-3025209D01*
G01X7113848Y-3029423D01*
G01X7105934Y-3043129D01*
G01X7102119Y-3045695D01*
G01X7098301Y-3048259D01*
G37*
G36*
G01X7014147Y-2990136D02*
G01X7006516Y-2995266D01*
G01X6997000Y-2997816D01*
G01X6992413Y-2997502D01*
G01X6987825Y-2997190D01*
G01X6974115Y-2989275D01*
G01X6971551Y-2985457D01*
G01X6968986Y-2981642D01*
G01X6966435Y-2972126D01*
G01X6967063Y-2962952D01*
G01X6974976Y-2949246D01*
G01X6982607Y-2944115D01*
G01X6992123Y-2941566D01*
G01X6996693Y-2941911D01*
G01X7001261Y-2942258D01*
G01X7013405Y-2948753D01*
G01X7015826Y-2951676D01*
G01X7018249Y-2954597D01*
G01X7019867Y-2957991D01*
G01X7021483Y-2961388D01*
G01X7022046Y-2964695D01*
G01X7022608Y-2968004D01*
G01X7022334Y-2972216D01*
G01X7022060Y-2976430D01*
G01X7014147Y-2990136D01*
G37*
G36*
G01X7017886Y-2704438D02*
G01X7011406Y-2706459D01*
G01X7008231Y-2707406D01*
G01X7007015Y-2706704D01*
G01X7010054Y-2705839D01*
G01X7013094Y-2704973D01*
G01X7014036Y-2703341D01*
G01X7014376Y-2704611D01*
G01X7016512Y-2704111D01*
G01X7018649Y-2703609D01*
G01X7019603Y-2701957D01*
G01X7019986Y-2702671D01*
G01X7020370Y-2703382D01*
G01X7021482Y-2701456D01*
G01X7021815Y-2702073D01*
G01X7022145Y-2702689D01*
G01X7023744Y-2702175D01*
G01X7025341Y-2701660D01*
G01X7025004Y-2700404D01*
G01X7025651Y-2700778D01*
G01X7025879Y-2702100D01*
G01X7026103Y-2703423D01*
G01X7024368Y-2702421D01*
G01X7017886Y-2704438D01*
G37*
G36*
G01X7199662Y-3197367D02*
G01X7199372Y-3198252D01*
G01X7199078Y-3199136D01*
G01X7198344Y-3197767D01*
G01X7193521Y-3199059D01*
G01X7194584Y-3197218D01*
G01X7195974Y-3198021D01*
G01X7195807Y-3197391D01*
G01X7195639Y-3196763D01*
G01X7197236Y-3196248D01*
G01X7198831Y-3195735D01*
G01X7199174Y-3196370D01*
G01X7199515Y-3197003D01*
G01X7199635Y-3196419D01*
G01X7199755Y-3195831D01*
G01X7200342Y-3196023D01*
G01X7200928Y-3196212D01*
G01X7202443Y-3195248D01*
G01X7203956Y-3194283D01*
G01X7205178Y-3195388D01*
G01X7205866Y-3194196D01*
G01X7207454Y-3195112D01*
G01X7206460Y-3196834D01*
G01X7205883Y-3196346D01*
G01X7205303Y-3195856D01*
G01X7205013Y-3196741D01*
G01X7204719Y-3197624D01*
G01X7203995Y-3196279D01*
G01X7202502Y-3196681D01*
G01X7201008Y-3197079D01*
G01X7201052Y-3198607D01*
G01X7200357Y-3197988D01*
G01X7199662Y-3197367D01*
G37*
G36*
G01X6781919Y-2931947D02*
G01X6783111Y-2932635D01*
G01X6782079Y-2934423D01*
G01X6780817Y-2933694D01*
G01X6781530Y-2933312D01*
G01X6782242Y-2932928D01*
G01X6780979Y-2932199D01*
G01X6780101Y-2933680D01*
G01X6780056Y-2932569D01*
G01X6780010Y-2931460D01*
G01X6779218Y-2932085D01*
G01X6778425Y-2932712D01*
G01X6778954Y-2931683D01*
G01X6779484Y-2930658D01*
G01X6780684Y-2930987D01*
G01X6781887Y-2931318D01*
G01X6780739Y-2930553D01*
G01X6779592Y-2929785D01*
G01X6779037Y-2928726D01*
G01X6778480Y-2927668D01*
G01X6780627Y-2929060D01*
G01X6782775Y-2930455D01*
G01X6782676Y-2930794D01*
G01X6782576Y-2931135D01*
G01X6781919Y-2931947D01*
G37*
G36*
G01X6837687Y-2772898D02*
G01X6835653Y-2773012D01*
G01X6836303Y-2770968D01*
G01X6836951Y-2768920D01*
G01X6837314Y-2768824D01*
G01X6837676Y-2768726D01*
G01X6838698Y-2770755D01*
G01X6839721Y-2772783D01*
G01X6837687Y-2772898D01*
G37*
G36*
G01X7155633Y-3028998D02*
G01X7154725Y-3029978D01*
G01X7158351Y-3021573D01*
G01X7159258Y-3020593D01*
G01X7160168Y-3019611D01*
G01X7156541Y-3028015D01*
G01X7155633Y-3028998D01*
G37*
G36*
G01X6783724Y-2942129D02*
G01X6783098Y-2943935D01*
G01X6782470Y-2945739D01*
G01X6781168Y-2945454D01*
G01X6779864Y-2945167D01*
G01X6779494Y-2944478D01*
G01X6779124Y-2943793D01*
G01X6779964Y-2943110D01*
G01X6780806Y-2942429D01*
G01X6782367Y-2943331D01*
G01X6783046Y-2942729D01*
G01X6783724Y-2942129D01*
G37*
G36*
G01X7059912Y-2696832D02*
G01X7057227Y-2697551D01*
G01X7055949Y-2696814D01*
G01X7056981Y-2695026D01*
G01X7057917Y-2695965D01*
G01X7061128Y-2694640D01*
G01X7060521Y-2695735D01*
G01X7059912Y-2696832D01*
G37*
G36*
G01X6779360Y-2918485D02*
G01X6778361Y-2920215D01*
G01X6776714Y-2918913D01*
G01X6776411Y-2917787D01*
G01X6776109Y-2916663D01*
G01X6778822Y-2915978D01*
G01X6779091Y-2917229D01*
G01X6779360Y-2918485D01*
G37*
G36*
G01X6782778Y-2938029D02*
G01X6783760Y-2939903D01*
G01X6781399Y-2940305D01*
G01X6781347Y-2938795D01*
G01X6781293Y-2937283D01*
G01X6782497Y-2937078D01*
G01X6783703Y-2936874D01*
G01X6783727Y-2937720D01*
G01X6783753Y-2938568D01*
G01X6783267Y-2938299D01*
G01X6782778Y-2938029D01*
G37*
G36*
G01X7221175Y-2962589D02*
G01X7224723Y-2964702D01*
G01X7224205Y-2965599D01*
G01X7221295Y-2963919D01*
G01X7219849Y-2964697D01*
G01X7219491Y-2964033D01*
G01X7219133Y-2963372D01*
G01X7219821Y-2962180D01*
G01X7220205Y-2962891D01*
G01X7220588Y-2963605D01*
G01X7221175Y-2962589D01*
G37*
G36*
G01X7308508Y-2934616D02*
G01X7308050Y-2934738D01*
G01X7307334Y-2933856D01*
G01X7306619Y-2932971D01*
G01X7308017Y-2930549D01*
G01X7310927Y-2932229D01*
G01X7308968Y-2934494D01*
G01X7308508Y-2934616D01*
G37*
G36*
G01X6778954Y-2939592D02*
G01X6777850Y-2939890D01*
G01X6777438Y-2938779D01*
G01X6777026Y-2937670D01*
G01X6777974Y-2936027D01*
G01X6780955Y-2937747D01*
G01X6780059Y-2939298D01*
G01X6778954Y-2939592D01*
G37*
G36*
G01X4860280Y-2287571D02*
G01X4851742Y-2302360D01*
G01X4806874Y-2276456D01*
G01X4810919Y-2269294D01*
G01X4814965Y-2262133D01*
G01X4814794Y-2261133D01*
G01X4807583Y-2257059D01*
G01X4800373Y-2252984D01*
G01X4795978Y-2260306D01*
G01X4791584Y-2267628D01*
G01X4776795Y-2259090D01*
G01X4785333Y-2244301D01*
G01X4792800Y-2248445D01*
G01X4800267Y-2252589D01*
G01X4804474Y-2245455D01*
G01X4808682Y-2238321D01*
G01X4808502Y-2237836D01*
G01X4808323Y-2237352D01*
G01X4779111Y-2220572D01*
G01X4770572Y-2215666D01*
G01X4841798Y-2215666D01*
G01X4841973Y-2216688D01*
G01X4841973Y-2216688D01*
G01X4849183Y-2220763D01*
G01X4856394Y-2224837D01*
G01X4860789Y-2217515D01*
G01X4865183Y-2210193D01*
G01X4872345Y-2214239D01*
G01X4879506Y-2218285D01*
G01X4880000Y-2218200D01*
G01X4880495Y-2218116D01*
G01X4888505Y-2204241D01*
G01X4888378Y-2203763D01*
G01X4888250Y-2203286D01*
G01X4858827Y-2186471D01*
G01X4850313Y-2201069D01*
G01X4841798Y-2215666D01*
G01X4770572Y-2215666D01*
G01X4749900Y-2203792D01*
G01X4737112Y-2225651D01*
G01X4724324Y-2247511D01*
G01X4716857Y-2243367D01*
G01X4709391Y-2239223D01*
G01X4701044Y-2253373D01*
G01X4701130Y-2253876D01*
G01X4701215Y-2254379D01*
G01X4708356Y-2258590D01*
G01X4715496Y-2262801D01*
G01X4698275Y-2292629D01*
G01X4683487Y-2284091D01*
G01X4687565Y-2276873D01*
G01X4691643Y-2269656D01*
G01X4691468Y-2269182D01*
G01X4691292Y-2268708D01*
G01X4669099Y-2255981D01*
G01X4646906Y-2243253D01*
G01X4642512Y-2250575D01*
G01X4638117Y-2257897D01*
G01X4630956Y-2253851D01*
G01X4623795Y-2249805D01*
G01X4623306Y-2249889D01*
G01X4622817Y-2249972D01*
G01X4618606Y-2257113D01*
G01X4614395Y-2264253D01*
G01X4571005Y-2239373D01*
G01X4570509Y-2239457D01*
G01X4570013Y-2239542D01*
G01X4552913Y-2268861D01*
G01X4508045Y-2242957D01*
G01X4512123Y-2235739D01*
G01X4516202Y-2228522D01*
G01X4516024Y-2228044D01*
G01X4515847Y-2227565D01*
G01X4508696Y-2223525D01*
G01X4501544Y-2219485D01*
G01X4497150Y-2226807D01*
G01X4492755Y-2234129D01*
G01X4478579Y-2226030D01*
G01X4464402Y-2217932D01*
G01X4463910Y-2218016D01*
G01X4463418Y-2218100D01*
G01X4459207Y-2225240D01*
G01X4454996Y-2232381D01*
G01X4440207Y-2223842D01*
G01X4444253Y-2216681D01*
G01X4448298Y-2209520D01*
G01X4448214Y-2209026D01*
G01X4448129Y-2208531D01*
G01X4434215Y-2200498D01*
G01X4433745Y-2200672D01*
G01X4433275Y-2200846D01*
G01X4429096Y-2207930D01*
G01X4424917Y-2215015D01*
G01X4410128Y-2206476D01*
G01X4414206Y-2199259D01*
G01X4418284Y-2192042D01*
G01X4418108Y-2191567D01*
G01X4417933Y-2191092D01*
G01X4406296Y-2184441D01*
G01X4442724Y-2184441D01*
G01X4442811Y-2184950D01*
G01X4442898Y-2185459D01*
G01X4471852Y-2202175D01*
G01X4472322Y-2202001D01*
G01X4472793Y-2201827D01*
G01X4476972Y-2194742D01*
G01X4481150Y-2187658D01*
G01X4494937Y-2195618D01*
G01X4490891Y-2202779D01*
G01X4486845Y-2209940D01*
G01X4486845Y-2209940D01*
G01X4487016Y-2210940D01*
G01X4501438Y-2219089D01*
G01X4505421Y-2212260D01*
G01X4525606Y-2212260D01*
G01X4525774Y-2213245D01*
G01X4532915Y-2217456D01*
G01X4540055Y-2221667D01*
G01X4536009Y-2228828D01*
G01X4531964Y-2235990D01*
G01X4532048Y-2236484D01*
G01X4532048Y-2236484D01*
G01X4532133Y-2236978D01*
G01X4546008Y-2244989D01*
G01X4546482Y-2244862D01*
G01X4546957Y-2244735D01*
G01X4563651Y-2215821D01*
G01X4563476Y-2215350D01*
G01X4563302Y-2214880D01*
G01X4556218Y-2210701D01*
G01X4549134Y-2206522D01*
G01X4557672Y-2191733D01*
G01X4587500Y-2208955D01*
G01X4579409Y-2223277D01*
G01X4579493Y-2223772D01*
G01X4579578Y-2224266D01*
G01X4608492Y-2240960D01*
G01X4609441Y-2240705D01*
G01X4613423Y-2233809D01*
G01X4632139Y-2233809D01*
G01X4632318Y-2234293D01*
G01X4632497Y-2234777D01*
G01X4639648Y-2238817D01*
G01X4639648Y-2238817D01*
G01X4646800Y-2242857D01*
G01X4650974Y-2235783D01*
G01X4654521Y-2229768D01*
G01X4694619Y-2229768D01*
G01X4694800Y-2230258D01*
G01X4694981Y-2230748D01*
G01X4702133Y-2234788D01*
G01X4702133Y-2234788D01*
G01X4709285Y-2238828D01*
G01X4713169Y-2232255D01*
G01X4717053Y-2225682D01*
G01X4716965Y-2225168D01*
G01X4716877Y-2224653D01*
G01X4709666Y-2220578D01*
G01X4702455Y-2216504D01*
G01X4698537Y-2223136D01*
G01X4694619Y-2229768D01*
G01X4654521Y-2229768D01*
G01X4655147Y-2228708D01*
G01X4654974Y-2227691D01*
G01X4641098Y-2219680D01*
G01X4640624Y-2219807D01*
G01X4640149Y-2219934D01*
G01X4632139Y-2233809D01*
G01X4613423Y-2233809D01*
G01X4625851Y-2212284D01*
G01X4664608Y-2212284D01*
G01X4664782Y-2213301D01*
G01X4664782Y-2213301D01*
G01X4678657Y-2221312D01*
G01X4679132Y-2221185D01*
G01X4679606Y-2221058D01*
G01X4687170Y-2207957D01*
G01X4687098Y-2207688D01*
G01X4687066Y-2207570D01*
G01X4687560Y-2207570D01*
G01X4702349Y-2216108D01*
G01X4706523Y-2209034D01*
G01X4710696Y-2201959D01*
G01X4710520Y-2200931D01*
G01X4703309Y-2196856D01*
G01X4696099Y-2192781D01*
G01X4687560Y-2207570D01*
G01X4687560Y-2207570D01*
G01X4687066Y-2207570D01*
G01X4687025Y-2207418D01*
G01X4679701Y-2203278D01*
G01X4672376Y-2199138D01*
G01X4664608Y-2212284D01*
G01X4625851Y-2212284D01*
G01X4626135Y-2211791D01*
G01X4625961Y-2211321D01*
G01X4625787Y-2210850D01*
G01X4611618Y-2202493D01*
G01X4620156Y-2187704D01*
G01X4634332Y-2195802D01*
G01X4648509Y-2203901D01*
G01X4649013Y-2203815D01*
G01X4649516Y-2203729D01*
G01X4653301Y-2197019D01*
G01X4657086Y-2190310D01*
G01X4656906Y-2190204D01*
G01X4657481Y-2190204D01*
G01X4672270Y-2198742D01*
G01X4676459Y-2191640D01*
G01X4680649Y-2184538D01*
G01X4680711Y-2184147D01*
G01X4680773Y-2183756D01*
G01X4673396Y-2179586D01*
G01X4666019Y-2175415D01*
G01X4666019Y-2175415D01*
G01X4657481Y-2190204D01*
G01X4656906Y-2190204D01*
G01X4642746Y-2181863D01*
G01X4628405Y-2173417D01*
G01X4645375Y-2143444D01*
G01X4645199Y-2143338D01*
G01X4645771Y-2143338D01*
G01X4653093Y-2147733D01*
G01X4660415Y-2152127D01*
G01X4652323Y-2166449D01*
G01X4652494Y-2167450D01*
G01X4659204Y-2171235D01*
G01X4665914Y-2175020D01*
G01X4670308Y-2167698D01*
G01X4674702Y-2160376D01*
G01X4689491Y-2168915D01*
G01X4685347Y-2176381D01*
G01X4685347Y-2176381D01*
G01X4681204Y-2183848D01*
G01X4695992Y-2192386D01*
G01X4699927Y-2185659D01*
G01X4720091Y-2185659D01*
G01X4720270Y-2186143D01*
G01X4720449Y-2186626D01*
G01X4720449Y-2186626D01*
G01X4735121Y-2195011D01*
G01X4749794Y-2203396D01*
G01X4758332Y-2188607D01*
G01X4758156Y-2188502D01*
G01X4758728Y-2188502D01*
G01X4773326Y-2197016D01*
G01X4773326Y-2197016D01*
G01X4787924Y-2205530D01*
G01X4788934Y-2205358D01*
G01X4797099Y-2191216D01*
G01X4797028Y-2190949D01*
G01X4796995Y-2190828D01*
G01X4797490Y-2190828D01*
G01X4811586Y-2199053D01*
G01X4825683Y-2207278D01*
G01X4826188Y-2207192D01*
G01X4826693Y-2207106D01*
G01X4843541Y-2177924D01*
G01X4843469Y-2177655D01*
G01X4843397Y-2177385D01*
G01X4836072Y-2173245D01*
G01X4828748Y-2169105D01*
G01X4824353Y-2176427D01*
G01X4819959Y-2183748D01*
G01X4806028Y-2176040D01*
G01X4797490Y-2190828D01*
G01X4797490Y-2190828D01*
G01X4796995Y-2190828D01*
G01X4796956Y-2190682D01*
G01X4767266Y-2173713D01*
G01X4758728Y-2188502D01*
G01X4758156Y-2188502D01*
G01X4751010Y-2184213D01*
G01X4743688Y-2179818D01*
G01X4747749Y-2172638D01*
G01X4751810Y-2165458D01*
G01X4751940Y-2164687D01*
G01X4744563Y-2160517D01*
G01X4737187Y-2156347D01*
G01X4720091Y-2185659D01*
G01X4699927Y-2185659D01*
G01X4709070Y-2170025D01*
G01X4722147Y-2147664D01*
G01X4729614Y-2151808D01*
G01X4737081Y-2155951D01*
G01X4741270Y-2148849D01*
G01X4745459Y-2141748D01*
G01X4745521Y-2141359D01*
G01X4745569Y-2141057D01*
G01X4746014Y-2141057D01*
G01X4760659Y-2149846D01*
G01X4756515Y-2157312D01*
G01X4756515Y-2157312D01*
G01X4752371Y-2164779D01*
G01X4767160Y-2173317D01*
G01X4771115Y-2166467D01*
G01X4791324Y-2166467D01*
G01X4791500Y-2167495D01*
G01X4805922Y-2175644D01*
G01X4810111Y-2168543D01*
G01X4814300Y-2161441D01*
G01X4814362Y-2161049D01*
G01X4814424Y-2160658D01*
G01X4807048Y-2156488D01*
G01X4799671Y-2152317D01*
G01X4795498Y-2159392D01*
G01X4791324Y-2166467D01*
G01X4791324Y-2166467D01*
G01X4771115Y-2166467D01*
G01X4784381Y-2143490D01*
G01X4784205Y-2143384D01*
G01X4784776Y-2143384D01*
G01X4799565Y-2151922D01*
G01X4803755Y-2144820D01*
G01X4807944Y-2137718D01*
G01X4808005Y-2137332D01*
G01X4808053Y-2137027D01*
G01X4808499Y-2137027D01*
G01X4815821Y-2141422D01*
G01X4823143Y-2145816D01*
G01X4818999Y-2153283D01*
G01X4814855Y-2160750D01*
G01X4828642Y-2168709D01*
G01X4833036Y-2161387D01*
G01X4837430Y-2154065D01*
G01X4852220Y-2162604D01*
G01X4848076Y-2170070D01*
G01X4843932Y-2177537D01*
G01X4843932Y-2177537D01*
G01X4858721Y-2186076D01*
G01X4862756Y-2179224D01*
G01X4882885Y-2179224D01*
G01X4882972Y-2179733D01*
G01X4882972Y-2179733D01*
G01X4883059Y-2180242D01*
G01X4896934Y-2188253D01*
G01X4897883Y-2187999D01*
G01X4905292Y-2175165D01*
G01X4905164Y-2174685D01*
G01X4905035Y-2174204D01*
G01X4897844Y-2170141D01*
G01X4890653Y-2166078D01*
G01X4882885Y-2179224D01*
G01X4862756Y-2179224D01*
G01X4867167Y-2171735D01*
G01X4875614Y-2157395D01*
G01X4883080Y-2161539D01*
G01X4890547Y-2165683D01*
G01X4899085Y-2150894D01*
G01X4891763Y-2146500D01*
G01X4884441Y-2142105D01*
G01X4888487Y-2134944D01*
G01X4892533Y-2127782D01*
G01X4892448Y-2127288D01*
G01X4892364Y-2126794D01*
G01X4863410Y-2110078D01*
G01X4862926Y-2110257D01*
G01X4862443Y-2110436D01*
G01X4858402Y-2117587D01*
G01X4854362Y-2124739D01*
G01X4861684Y-2129133D01*
G01X4869007Y-2133528D01*
G01X4860468Y-2148317D01*
G01X4845679Y-2139778D01*
G01X4849823Y-2132312D01*
G01X4853967Y-2124845D01*
G01X4840181Y-2116885D01*
G01X4835786Y-2124207D01*
G01X4831392Y-2131529D01*
G01X4824230Y-2127483D01*
G01X4817069Y-2123438D01*
G01X4816068Y-2123609D01*
G01X4812284Y-2130318D01*
G01X4808499Y-2137027D01*
G01X4808053Y-2137027D01*
G01X4808066Y-2136945D01*
G01X4793824Y-2128722D01*
G01X4793341Y-2128902D01*
G01X4792857Y-2129080D01*
G01X4788817Y-2136232D01*
G01X4784776Y-2143384D01*
G01X4784776Y-2143384D01*
G01X4784205Y-2143384D01*
G01X4777059Y-2139095D01*
G01X4769737Y-2134701D01*
G01X4773783Y-2127539D01*
G01X4777828Y-2120378D01*
G01X4777744Y-2119884D01*
G01X4777659Y-2119390D01*
G01X4763745Y-2111356D01*
G01X4763265Y-2111534D01*
G01X4762784Y-2111712D01*
G01X4746014Y-2141057D01*
G01X4745569Y-2141057D01*
G01X4745583Y-2140969D01*
G01X4715791Y-2123941D01*
G01X4711396Y-2131263D01*
G01X4707002Y-2138585D01*
G01X4699840Y-2134539D01*
G01X4692679Y-2130494D01*
G01X4692190Y-2130577D01*
G01X4691701Y-2130661D01*
G01X4687491Y-2137801D01*
G01X4683279Y-2144941D01*
G01X4668794Y-2136745D01*
G01X4654309Y-2128550D01*
G01X4645771Y-2143338D01*
G01X4645199Y-2143338D01*
G01X4638053Y-2139050D01*
G01X4630731Y-2134655D01*
G01X4634875Y-2127188D01*
G01X4639019Y-2119722D01*
G01X4631697Y-2115327D01*
G01X4624375Y-2110933D01*
G01X4628420Y-2103771D01*
G01X4632466Y-2096610D01*
G01X4632382Y-2096116D01*
G01X4632297Y-2095622D01*
G01X4618383Y-2087588D01*
G01X4617909Y-2087763D01*
G01X4617436Y-2087939D01*
G01X4608919Y-2102541D01*
G01X4600402Y-2117144D01*
G01X4585967Y-2108988D01*
G01X4585499Y-2109161D01*
G01X4585030Y-2109334D01*
G01X4576513Y-2123937D01*
G01X4567996Y-2138540D01*
G01X4560835Y-2134494D01*
G01X4553674Y-2130448D01*
G01X4553179Y-2130533D01*
G01X4552685Y-2130617D01*
G01X4545231Y-2143528D01*
G01X4545406Y-2144002D01*
G01X4545581Y-2144475D01*
G01X4574787Y-2161510D01*
G01X4566249Y-2176299D01*
G01X4536893Y-2159523D01*
G01X4536395Y-2159608D01*
G01X4535898Y-2159693D01*
G01X4527865Y-2173607D01*
G01X4528039Y-2174077D01*
G01X4528213Y-2174547D01*
G01X4535297Y-2178726D01*
G01X4542382Y-2182906D01*
G01X4525606Y-2212260D01*
G01X4505421Y-2212260D01*
G01X4518466Y-2189894D01*
G01X4518380Y-2189389D01*
G01X4518294Y-2188884D01*
G01X4475304Y-2164063D01*
G01X4474833Y-2164237D01*
G01X4474363Y-2164411D01*
G01X4470184Y-2171496D01*
G01X4466005Y-2178580D01*
G01X4458538Y-2174436D01*
G01X4451071Y-2170292D01*
G01X4446898Y-2177367D01*
G01X4442724Y-2184441D01*
G01X4406296Y-2184441D01*
G01X4403260Y-2182706D01*
G01X4388587Y-2174321D01*
G01X4384193Y-2181643D01*
G01X4379798Y-2188965D01*
G01X4365009Y-2180427D01*
G01X4373547Y-2165638D01*
G01X4381014Y-2169782D01*
G01X4388481Y-2173926D01*
G01X4392468Y-2167166D01*
G01X4412604Y-2167166D01*
G01X4412731Y-2167640D01*
G01X4412731Y-2167640D01*
G01X4412858Y-2168115D01*
G01X4426694Y-2176103D01*
G01X4427169Y-2175976D01*
G01X4427643Y-2175849D01*
G01X4435786Y-2161746D01*
G01X4435715Y-2161482D01*
G01X4435682Y-2161358D01*
G01X4436176Y-2161358D01*
G01X4450966Y-2169897D01*
G01X4459312Y-2155747D01*
G01X4459226Y-2155239D01*
G01X4459139Y-2154730D01*
G01X4445224Y-2146697D01*
G01X4444741Y-2146876D01*
G01X4444257Y-2147055D01*
G01X4444257Y-2147055D01*
G01X4436176Y-2161358D01*
G01X4435682Y-2161358D01*
G01X4435645Y-2161218D01*
G01X4421541Y-2153076D01*
G01X4421067Y-2153203D01*
G01X4420592Y-2153330D01*
G01X4412604Y-2167166D01*
G01X4392468Y-2167166D01*
G01X4392688Y-2166792D01*
G01X4396896Y-2159658D01*
G01X4396719Y-2159179D01*
G01X4396541Y-2158700D01*
G01X4381939Y-2150183D01*
G01X4367336Y-2141665D01*
G01X4368635Y-2139414D01*
G01X4468731Y-2139414D01*
G01X4468859Y-2139889D01*
G01X4468859Y-2139889D01*
G01X4468986Y-2140363D01*
G01X4511899Y-2165139D01*
G01X4512373Y-2165012D01*
G01X4512848Y-2164885D01*
G01X4537623Y-2121973D01*
G01X4537496Y-2121498D01*
G01X4537369Y-2121024D01*
G01X4494456Y-2096248D01*
G01X4493981Y-2096375D01*
G01X4493507Y-2096502D01*
G01X4468731Y-2139414D01*
G01X4368635Y-2139414D01*
G01X4375874Y-2126877D01*
G01X4383035Y-2130923D01*
G01X4390197Y-2134968D01*
G01X4390696Y-2134883D01*
G01X4391196Y-2134798D01*
G01X4395271Y-2127587D01*
G01X4399346Y-2120376D01*
G01X4399169Y-2120270D01*
G01X4399741Y-2120270D01*
G01X4414339Y-2128784D01*
G01X4428937Y-2137299D01*
G01X4429442Y-2137213D01*
G01X4429947Y-2137126D01*
G01X4438112Y-2122984D01*
G01X4438041Y-2122717D01*
G01X4438008Y-2122597D01*
G01X4438503Y-2122597D01*
G01X4445578Y-2126770D01*
G01X4445578Y-2126770D01*
G01X4452653Y-2130944D01*
G01X4453161Y-2130857D01*
G01X4453670Y-2130770D01*
G01X4461680Y-2116895D01*
G01X4461426Y-2115946D01*
G01X4447551Y-2107935D01*
G01X4447067Y-2108114D01*
G01X4446583Y-2108293D01*
G01X4442543Y-2115445D01*
G01X4438503Y-2122597D01*
G01X4438008Y-2122597D01*
G01X4437969Y-2122451D01*
G01X4408279Y-2105481D01*
G01X4399741Y-2120270D01*
G01X4399741Y-2120270D01*
G01X4399169Y-2120270D01*
G01X4392023Y-2115981D01*
G01X4384702Y-2111587D01*
G01X4393240Y-2096798D01*
G01X4400706Y-2100942D01*
G01X4408173Y-2105086D01*
G01X4416711Y-2090297D01*
G01X4409389Y-2085903D01*
G01X4402067Y-2081509D01*
G01X4410606Y-2066720D01*
G01X4425394Y-2075258D01*
G01X4421251Y-2082725D01*
G01X4417107Y-2090192D01*
G01X4424241Y-2094399D01*
G01X4431375Y-2098607D01*
G01X4431854Y-2098429D01*
G01X4432333Y-2098252D01*
G01X4440561Y-2084151D01*
G01X4448789Y-2070049D01*
G01X4478144Y-2086825D01*
G01X4478636Y-2086741D01*
G01X4479128Y-2086657D01*
G01X4483340Y-2079517D01*
G01X4487551Y-2072376D01*
G01X4509747Y-2085106D01*
G01X4531943Y-2097835D01*
G01X4532448Y-2097749D01*
G01X4532952Y-2097663D01*
G01X4537027Y-2090452D01*
G01X4541101Y-2083242D01*
G01X4540918Y-2083135D01*
G01X4541497Y-2083135D01*
G01X4555593Y-2091361D01*
G01X4569690Y-2099585D01*
G01X4570689Y-2099415D01*
G01X4574900Y-2092275D01*
G01X4579111Y-2085134D01*
G01X4586273Y-2089180D01*
G01X4593434Y-2093226D01*
G01X4594423Y-2093057D01*
G01X4602456Y-2079143D01*
G01X4602282Y-2078673D01*
G01X4602108Y-2078202D01*
G01X4595024Y-2074023D01*
G01X4587939Y-2069844D01*
G01X4591840Y-2062939D01*
G01X4611811Y-2062939D01*
G01X4611938Y-2063414D01*
G01X4611938Y-2063414D01*
G01X4612065Y-2063888D01*
G01X4625902Y-2071877D01*
G01X4626376Y-2071750D01*
G01X4626851Y-2071623D01*
G01X4634993Y-2057519D01*
G01X4634922Y-2057255D01*
G01X4634852Y-2056992D01*
G01X4620748Y-2048849D01*
G01X4620274Y-2048976D01*
G01X4619799Y-2049103D01*
G01X4611811Y-2062939D01*
G01X4591840Y-2062939D01*
G01X4591985Y-2062683D01*
G01X4596030Y-2055522D01*
G01X4595945Y-2055022D01*
G01X4595860Y-2054522D01*
G01X4588649Y-2050447D01*
G01X4581438Y-2046373D01*
G01X4563966Y-2076056D01*
G01X4557000Y-2072201D01*
G01X4550035Y-2068347D01*
G01X4541497Y-2083135D01*
G01X4541497Y-2083135D01*
G01X4540918Y-2083135D01*
G01X4503942Y-2061703D01*
G01X4466783Y-2040164D01*
G01X4466285Y-2040249D01*
G01X4465788Y-2040334D01*
G01X4461577Y-2047474D01*
G01X4457366Y-2054615D01*
G01X4442577Y-2046076D01*
G01X4446622Y-2038915D01*
G01X4450069Y-2032815D01*
G01X4490171Y-2032815D01*
G01X4490425Y-2033764D01*
G01X4504262Y-2041753D01*
G01X4504736Y-2041626D01*
G01X4505211Y-2041498D01*
G01X4513353Y-2027395D01*
G01X4513283Y-2027131D01*
G01X4513212Y-2026868D01*
G01X4499108Y-2018725D01*
G01X4498159Y-2018979D01*
G01X4490171Y-2032815D01*
G01X4490171Y-2032815D01*
G01X4450069Y-2032815D01*
G01X4450668Y-2031754D01*
G01X4450501Y-2030777D01*
G01X4436220Y-2022354D01*
G01X4453441Y-1992526D01*
G01X4460659Y-1996605D01*
G01X4467876Y-2000683D01*
G01X4468345Y-2000509D01*
G01X4468815Y-2000335D01*
G01X4481672Y-1978213D01*
G01X4494529Y-1956091D01*
G01X4501691Y-1960137D01*
G01X4508852Y-1964183D01*
G01X4509347Y-1964098D01*
G01X4509841Y-1964014D01*
G01X4516601Y-1952304D01*
G01X4556707Y-1952304D01*
G01X4556884Y-1952784D01*
G01X4557062Y-1953263D01*
G01X4557062Y-1953263D01*
G01X4579255Y-1965991D01*
G01X4601448Y-1978719D01*
G01X4609986Y-1963930D01*
G01X4602664Y-1959535D01*
G01X4595342Y-1955141D01*
G01X4603463Y-1940780D01*
G01X4603528Y-1940400D01*
G01X4603592Y-1940019D01*
G01X4589350Y-1931796D01*
G01X4588880Y-1931971D01*
G01X4588409Y-1932145D01*
G01X4580052Y-1946313D01*
G01X4572890Y-1942268D01*
G01X4565729Y-1938222D01*
G01X4565235Y-1938306D01*
G01X4564740Y-1938391D01*
G01X4556707Y-1952304D01*
G01X4516601Y-1952304D01*
G01X4517295Y-1951103D01*
G01X4517121Y-1950633D01*
G01X4516947Y-1950162D01*
G01X4509863Y-1945983D01*
G01X4502778Y-1941804D01*
G01X4511316Y-1927015D01*
G01X4525994Y-1935403D01*
G01X4540672Y-1943791D01*
G01X4541170Y-1943706D01*
G01X4541667Y-1943621D01*
G01X4549701Y-1929707D01*
G01X4549527Y-1929237D01*
G01X4549353Y-1928767D01*
G01X4542268Y-1924588D01*
G01X4535184Y-1920409D01*
G01X4539130Y-1913504D01*
G01X4559056Y-1913504D01*
G01X4559310Y-1914453D01*
G01X4573146Y-1922441D01*
G01X4573621Y-1922314D01*
G01X4574095Y-1922187D01*
G01X4582238Y-1908084D01*
G01X4582167Y-1907820D01*
G01X4582096Y-1907556D01*
G01X4567993Y-1899414D01*
G01X4567044Y-1899668D01*
G01X4559056Y-1913504D01*
G01X4559056Y-1913504D01*
G01X4539130Y-1913504D01*
G01X4543571Y-1905731D01*
G01X4551959Y-1891054D01*
G01X4551875Y-1890559D01*
G01X4551790Y-1890064D01*
G01X4537130Y-1881514D01*
G01X4522471Y-1872964D01*
G01X4531009Y-1858176D01*
G01X4590916Y-1892763D01*
G01X4586772Y-1900230D01*
G01X4582628Y-1907696D01*
G01X4589763Y-1911904D01*
G01X4596897Y-1916111D01*
G01X4597373Y-1915935D01*
G01X4597848Y-1915759D01*
G01X4602027Y-1908675D01*
G01X4606206Y-1901591D01*
G01X4620995Y-1910129D01*
G01X4604025Y-1940102D01*
G01X4611347Y-1944496D01*
G01X4618669Y-1948891D01*
G01X4614525Y-1956358D01*
G01X4610381Y-1963824D01*
G01X4624023Y-1972034D01*
G01X4615484Y-1986823D01*
G01X4608519Y-1982968D01*
G01X4601554Y-1979114D01*
G01X4597159Y-1986436D01*
G01X4592765Y-1993758D01*
G01X4563049Y-1976686D01*
G01X4533334Y-1959615D01*
G01X4532335Y-1959786D01*
G01X4524880Y-1972697D01*
G01X4525232Y-1973648D01*
G01X4554874Y-1990846D01*
G01X4584516Y-2008045D01*
G01X4575978Y-2022834D01*
G01X4538743Y-2001421D01*
G01X4501508Y-1980008D01*
G01X4500508Y-1980179D01*
G01X4492475Y-1994093D01*
G01X4492650Y-1994566D01*
G01X4492826Y-1995040D01*
G01X4507429Y-2003557D01*
G01X4522032Y-2012075D01*
G01X4517888Y-2019541D01*
G01X4513744Y-2027008D01*
G01X4520819Y-2031181D01*
G01X4527894Y-2035355D01*
G01X4528397Y-2035269D01*
G01X4528900Y-2035183D01*
G01X4533110Y-2028043D01*
G01X4537322Y-2020902D01*
G01X4552110Y-2029441D01*
G01X4543723Y-2044118D01*
G01X4535335Y-2058795D01*
G01X4535421Y-2059299D01*
G01X4535507Y-2059802D01*
G01X4542718Y-2063877D01*
G01X4549929Y-2067952D01*
G01X4558665Y-2053110D01*
G01X4567401Y-2038268D01*
G01X4581332Y-2045977D01*
G01X4585726Y-2038655D01*
G01X4590121Y-2031333D01*
G01X4597338Y-2035412D01*
G01X4604555Y-2039490D01*
G01X4605496Y-2039142D01*
G01X4626746Y-2002482D01*
G01X4647996Y-1965823D01*
G01X4655157Y-1969869D01*
G01X4662318Y-1973914D01*
G01X4662813Y-1973830D01*
G01X4663307Y-1973746D01*
G01X4671340Y-1959832D01*
G01X4671166Y-1959361D01*
G01X4670992Y-1958891D01*
G01X4663908Y-1954712D01*
G01X4656823Y-1950533D01*
G01X4660902Y-1943316D01*
G01X4664368Y-1937181D01*
G01X4704460Y-1937181D01*
G01X4704548Y-1937695D01*
G01X4704635Y-1938210D01*
G01X4711846Y-1942284D01*
G01X4711846Y-1942284D01*
G01X4719057Y-1946359D01*
G01X4723231Y-1939284D01*
G01X4727404Y-1932209D01*
G01X4727316Y-1931695D01*
G01X4727229Y-1931181D01*
G01X4720018Y-1927107D01*
G01X4712807Y-1923032D01*
G01X4708633Y-1930107D01*
G01X4704460Y-1937181D01*
G01X4664368Y-1937181D01*
G01X4664980Y-1936099D01*
G01X4664808Y-1935634D01*
G01X4664636Y-1935169D01*
G01X4657551Y-1930990D01*
G01X4650467Y-1926810D01*
G01X4654453Y-1919906D01*
G01X4674339Y-1919906D01*
G01X4674466Y-1920380D01*
G01X4674466Y-1920380D01*
G01X4674593Y-1920855D01*
G01X4688430Y-1928843D01*
G01X4688904Y-1928716D01*
G01X4689378Y-1928589D01*
G01X4697521Y-1914485D01*
G01X4697451Y-1914222D01*
G01X4697380Y-1913958D01*
G01X4683276Y-1905815D01*
G01X4682802Y-1905942D01*
G01X4682327Y-1906070D01*
G01X4674339Y-1919906D01*
G01X4654453Y-1919906D01*
G01X4675792Y-1882946D01*
G01X4683009Y-1887025D01*
G01X4690227Y-1891103D01*
G01X4690705Y-1890926D01*
G01X4691183Y-1890748D01*
G01X4695224Y-1883597D01*
G01X4699264Y-1876445D01*
G01X4691942Y-1872051D01*
G01X4684620Y-1867656D01*
G01X4719207Y-1807750D01*
G01X4726531Y-1811890D01*
G01X4733856Y-1816030D01*
G01X4733928Y-1816300D01*
G01X4734000Y-1816569D01*
G01X4717152Y-1845751D01*
G01X4717326Y-1846221D01*
G01X4717500Y-1846692D01*
G01X4724585Y-1850871D01*
G01X4731669Y-1855050D01*
G01X4723131Y-1869838D01*
G01X4715914Y-1865760D01*
G01X4708696Y-1861682D01*
G01X4708218Y-1861859D01*
G01X4707740Y-1862036D01*
G01X4703699Y-1869188D01*
G01X4699659Y-1876339D01*
G01X4714303Y-1885128D01*
G01X4706107Y-1899613D01*
G01X4697912Y-1914098D01*
G01X4712701Y-1922636D01*
G01X4720911Y-1908995D01*
G01X4728128Y-1913074D01*
G01X4735345Y-1917152D01*
G01X4735810Y-1916980D01*
G01X4736275Y-1916808D01*
G01X4744633Y-1902639D01*
G01X4759567Y-1910927D01*
G01X4763961Y-1903605D01*
G01X4768355Y-1896283D01*
G01X4783144Y-1904821D01*
G01X4779000Y-1912288D01*
G01X4774857Y-1919755D01*
G01X4782179Y-1924149D01*
G01X4789501Y-1928544D01*
G01X4780963Y-1943332D01*
G01X4766174Y-1934794D01*
G01X4770318Y-1927327D01*
G01X4774461Y-1919861D01*
G01X4759672Y-1911322D01*
G01X4746885Y-1933182D01*
G01X4734097Y-1955042D01*
G01X4726630Y-1950898D01*
G01X4719163Y-1946754D01*
G01X4714956Y-1953888D01*
G01X4710748Y-1961022D01*
G01X4711100Y-1961974D01*
G01X4718185Y-1966153D01*
G01X4725269Y-1970332D01*
G01X4699365Y-2015199D01*
G01X4684431Y-2006911D01*
G01X4680037Y-2014233D01*
G01X4675643Y-2021555D01*
G01X4660854Y-2013017D01*
G01X4664998Y-2005550D01*
G01X4669141Y-1998083D01*
G01X4668961Y-1997977D01*
G01X4669537Y-1997977D01*
G01X4684326Y-2006516D01*
G01X4701354Y-1977320D01*
G01X4701268Y-1976815D01*
G01X4701182Y-1976310D01*
G01X4687268Y-1968277D01*
G01X4686787Y-1968455D01*
G01X4686306Y-1968633D01*
G01X4677921Y-1983305D01*
G01X4669537Y-1997977D01*
G01X4669537Y-1997977D01*
G01X4668961Y-1997977D01*
G01X4662066Y-1993910D01*
G01X4654992Y-1989736D01*
G01X4654483Y-1989823D01*
G01X4653975Y-1989910D01*
G01X4629154Y-2032900D01*
G01X4629328Y-2033370D01*
G01X4629502Y-2033840D01*
G01X4636587Y-2038020D01*
G01X4643671Y-2042198D01*
G01X4635384Y-2057132D01*
G01X4642706Y-2061526D01*
G01X4650028Y-2065921D01*
G01X4645950Y-2073138D01*
G01X4641872Y-2080355D01*
G01X4642044Y-2080820D01*
G01X4642216Y-2081285D01*
G01X4649300Y-2085464D01*
G01X4656385Y-2089643D01*
G01X4647899Y-2104630D01*
G01X4639414Y-2119616D01*
G01X4654203Y-2128154D01*
G01X4662992Y-2113510D01*
G01X4677314Y-2121602D01*
G01X4677809Y-2121517D01*
G01X4678303Y-2121433D01*
G01X4682307Y-2114498D01*
G01X4701023Y-2114498D01*
G01X4701202Y-2114982D01*
G01X4701381Y-2115466D01*
G01X4701381Y-2115466D01*
G01X4708533Y-2119506D01*
G01X4715685Y-2123546D01*
G01X4719858Y-2116471D01*
G01X4724032Y-2109396D01*
G01X4723858Y-2108379D01*
G01X4722010Y-2107313D01*
G01X4825477Y-2107313D01*
G01X4825565Y-2107827D01*
G01X4825653Y-2108341D01*
G01X4832864Y-2112415D01*
G01X4832864Y-2112415D01*
G01X4840075Y-2116490D01*
G01X4844248Y-2109415D01*
G01X4848421Y-2102341D01*
G01X4848334Y-2101826D01*
G01X4848246Y-2101313D01*
G01X4841035Y-2097238D01*
G01X4835503Y-2094112D01*
G01X4871878Y-2094112D01*
G01X4872005Y-2094586D01*
G01X4872005Y-2094586D01*
G01X4872132Y-2095061D01*
G01X4885968Y-2103049D01*
G01X4886443Y-2102922D01*
G01X4886917Y-2102795D01*
G01X4895060Y-2088691D01*
G01X4894989Y-2088428D01*
G01X4894918Y-2088164D01*
G01X4880815Y-2080022D01*
G01X4880340Y-2080148D01*
G01X4879866Y-2080276D01*
G01X4871878Y-2094112D01*
G01X4835503Y-2094112D01*
G01X4833824Y-2093163D01*
G01X4829651Y-2100238D01*
G01X4825477Y-2107313D01*
G01X4722010Y-2107313D01*
G01X4709983Y-2100369D01*
G01X4709508Y-2100496D01*
G01X4709034Y-2100623D01*
G01X4701023Y-2114498D01*
G01X4682307Y-2114498D01*
G01X4694735Y-2092972D01*
G01X4733492Y-2092972D01*
G01X4733666Y-2093990D01*
G01X4747541Y-2102001D01*
G01X4748490Y-2101747D01*
G01X4756054Y-2088646D01*
G01X4755982Y-2088376D01*
G01X4755910Y-2088107D01*
G01X4748585Y-2083967D01*
G01X4741261Y-2079826D01*
G01X4733492Y-2092972D01*
G01X4733492Y-2092972D01*
G01X4694735Y-2092972D01*
G01X4695020Y-2092480D01*
G01X4694844Y-2092006D01*
G01X4694669Y-2091533D01*
G01X4665463Y-2074498D01*
G01X4669502Y-2067502D01*
G01X4689376Y-2067502D01*
G01X4689463Y-2068011D01*
G01X4689463Y-2068011D01*
G01X4689550Y-2068520D01*
G01X4717463Y-2084635D01*
G01X4717937Y-2084508D01*
G01X4718411Y-2084381D01*
G01X4725975Y-2071280D01*
G01X4725871Y-2070892D01*
G01X4726366Y-2070892D01*
G01X4741155Y-2079431D01*
G01X4745344Y-2072329D01*
G01X4749533Y-2065227D01*
G01X4749657Y-2064444D01*
G01X4742281Y-2060274D01*
G01X4734904Y-2056104D01*
G01X4726366Y-2070892D01*
G01X4726366Y-2070892D01*
G01X4725871Y-2070892D01*
G01X4725832Y-2070746D01*
G01X4697145Y-2054356D01*
G01X4693260Y-2060929D01*
G01X4689376Y-2067502D01*
G01X4669502Y-2067502D01*
G01X4682105Y-2045673D01*
G01X4689572Y-2049817D01*
G01X4697039Y-2053961D01*
G01X4714511Y-2024278D01*
G01X4729299Y-2032816D01*
G01X4721208Y-2047138D01*
G01X4721379Y-2048139D01*
G01X4728088Y-2051924D01*
G01X4734798Y-2055708D01*
G01X4739193Y-2048386D01*
G01X4743587Y-2041065D01*
G01X4758376Y-2049603D01*
G01X4754232Y-2057069D01*
G01X4750088Y-2064536D01*
G01X4757410Y-2068931D01*
G01X4764732Y-2073325D01*
G01X4756445Y-2088259D01*
G01X4771043Y-2096773D01*
G01X4785641Y-2105288D01*
G01X4786152Y-2105200D01*
G01X4786662Y-2105113D01*
G01X4790737Y-2097902D01*
G01X4794812Y-2090691D01*
G01X4794635Y-2090585D01*
G01X4795207Y-2090585D01*
G01X4802282Y-2094759D01*
G01X4809356Y-2098933D01*
G01X4809865Y-2098846D01*
G01X4810373Y-2098759D01*
G01X4818539Y-2084616D01*
G01X4818397Y-2084089D01*
G01X4804255Y-2075924D01*
G01X4803287Y-2076282D01*
G01X4799247Y-2083434D01*
G01X4795207Y-2090585D01*
G01X4795207Y-2090585D01*
G01X4794635Y-2090585D01*
G01X4787489Y-2086297D01*
G01X4780167Y-2081902D01*
G01X4784246Y-2074685D01*
G01X4788324Y-2067468D01*
G01X4787980Y-2066538D01*
G01X4780895Y-2062359D01*
G01X4773811Y-2058180D01*
G01X4782349Y-2043392D01*
G01X4827217Y-2069296D01*
G01X4823073Y-2076763D01*
G01X4818929Y-2084229D01*
G01X4833718Y-2092768D01*
G01X4838113Y-2085446D01*
G01X4842507Y-2078124D01*
G01X4849668Y-2082170D01*
G01X4856830Y-2086215D01*
G01X4857324Y-2086131D01*
G01X4857818Y-2086047D01*
G01X4865851Y-2072133D01*
G01X4865677Y-2071662D01*
G01X4865503Y-2071192D01*
G01X4858419Y-2067013D01*
G01X4851334Y-2062834D01*
G01X4859873Y-2048045D01*
G01X4903738Y-2073371D01*
G01X4899594Y-2080837D01*
G01X4895450Y-2088304D01*
G01X4902773Y-2092699D01*
G01X4910095Y-2097093D01*
G01X4906049Y-2104255D01*
G01X4902003Y-2111416D01*
G01X4902087Y-2111904D01*
G01X4902170Y-2112393D01*
G01X4909311Y-2116604D01*
G01X4916451Y-2120816D01*
G01X4907966Y-2135802D01*
G01X4899481Y-2150788D01*
G01X4906556Y-2154962D01*
G01X4913631Y-2159135D01*
G01X4914139Y-2159048D01*
G01X4914647Y-2158961D01*
G01X4940046Y-2114969D01*
G01X4939872Y-2114499D01*
G01X4939698Y-2114029D01*
G01X4932614Y-2109849D01*
G01X4925529Y-2105670D01*
G01X4934068Y-2090882D01*
G01X4963896Y-2108103D01*
G01X4877790Y-2257242D01*
G01X4863002Y-2248704D01*
G01X4867080Y-2241487D01*
G01X4871158Y-2234270D01*
G01X4870804Y-2233313D01*
G01X4856500Y-2225232D01*
G01X4843645Y-2247351D01*
G01X4830789Y-2269470D01*
G01X4830960Y-2270471D01*
G01X4845620Y-2279021D01*
G01X4860280Y-2287571D01*
G37*
G36*
G01X4608910Y-2172020D02*
G01X4596328Y-2193665D01*
G01X4581539Y-2185126D01*
G01X4589637Y-2170950D01*
G01X4597735Y-2156774D01*
G01X4597651Y-2156282D01*
G01X4597568Y-2155790D01*
G01X4590427Y-2151579D01*
G01X4583286Y-2147368D01*
G01X4591825Y-2132579D01*
G01X4606721Y-2141093D01*
G01X4621616Y-2149607D01*
G01X4621555Y-2149992D01*
G01X4621493Y-2150376D01*
G01X4608910Y-2172020D01*
G37*
G36*
G01X4515472Y-2127941D02*
G01X4511282Y-2135043D01*
G01X4507093Y-2142145D01*
G01X4492304Y-2133607D01*
G01X4500843Y-2118818D01*
G01X4508219Y-2122989D01*
G01X4515596Y-2127159D01*
G01X4515534Y-2127550D01*
G01X4515472Y-2127941D01*
G37*
G36*
G01X4818823Y-2014518D02*
G01X4805965Y-2036640D01*
G01X4791177Y-2028102D01*
G01X4795255Y-2020884D01*
G01X4799333Y-2013667D01*
G01X4799156Y-2013189D01*
G01X4798979Y-2012710D01*
G01X4791827Y-2008670D01*
G01X4784675Y-2004630D01*
G01X4780281Y-2011952D01*
G01X4775886Y-2019274D01*
G01X4768669Y-2015196D01*
G01X4761452Y-2011117D01*
G01X4760987Y-2011289D01*
G01X4760522Y-2011461D01*
G01X4756343Y-2018546D01*
G01X4752164Y-2025630D01*
G01X4723338Y-2008988D01*
G01X4731877Y-1994199D01*
G01X4739094Y-1998277D01*
G01X4746311Y-2002355D01*
G01X4746786Y-2002179D01*
G01X4747261Y-2002004D01*
G01X4751231Y-1995057D01*
G01X4769972Y-1995057D01*
G01X4770147Y-1996085D01*
G01X4770147Y-1996085D01*
G01X4784569Y-2004234D01*
G01X4788758Y-1997133D01*
G01X4792948Y-1990031D01*
G01X4793010Y-1989640D01*
G01X4793072Y-1989248D01*
G01X4785695Y-1985078D01*
G01X4778318Y-1980908D01*
G01X4774145Y-1987982D01*
G01X4769972Y-1995057D01*
G01X4751231Y-1995057D01*
G01X4755646Y-1987331D01*
G01X4764031Y-1972659D01*
G01X4756709Y-1968264D01*
G01X4749387Y-1963870D01*
G01X4757925Y-1949081D01*
G01X4772714Y-1957619D01*
G01X4768570Y-1965086D01*
G01X4764426Y-1972553D01*
G01X4778213Y-1980512D01*
G01X4782607Y-1973190D01*
G01X4787001Y-1965868D01*
G01X4801790Y-1974407D01*
G01X4797646Y-1981873D01*
G01X4793503Y-1989340D01*
G01X4800637Y-1993547D01*
G01X4807771Y-1997755D01*
G01X4808252Y-1997577D01*
G01X4808733Y-1997400D01*
G01X4825641Y-1968259D01*
G01X4842550Y-1939119D01*
G01X4849768Y-1943198D01*
G01X4856985Y-1947276D01*
G01X4857450Y-1947104D01*
G01X4857915Y-1946932D01*
G01X4862094Y-1939848D01*
G01X4866273Y-1932763D01*
G01X4873490Y-1936842D01*
G01X4880707Y-1940920D01*
G01X4881644Y-1940573D01*
G01X4898678Y-1911368D01*
G01X4906055Y-1915538D01*
G01X4913431Y-1919708D01*
G01X4913369Y-1920095D01*
G01X4913307Y-1920482D01*
G01X4878880Y-1979812D01*
G01X4871719Y-1975767D01*
G01X4864557Y-1971721D01*
G01X4864063Y-1971805D01*
G01X4863569Y-1971890D01*
G01X4855535Y-1985804D01*
G01X4855710Y-1986274D01*
G01X4855884Y-1986744D01*
G01X4870052Y-1995102D01*
G01X4853410Y-2023928D01*
G01X4838621Y-2015389D01*
G01X4842667Y-2008228D01*
G01X4846713Y-2001067D01*
G01X4846628Y-2000572D01*
G01X4846544Y-2000078D01*
G01X4832630Y-1992045D01*
G01X4832155Y-1992220D01*
G01X4831680Y-1992396D01*
G01X4818823Y-2014518D01*
G37*
G36*
G01X4783053Y-2420801D02*
G01X4782416Y-2421082D01*
G01X4730938Y-2391448D01*
G01X4679461Y-2361814D01*
G01X4679283Y-2361334D01*
G01X4679106Y-2360853D01*
G01X4683055Y-2354014D01*
G01X4702606Y-2354014D01*
G01X4702816Y-2355240D01*
G01X4775478Y-2397192D01*
G01X4776113Y-2397212D01*
G01X4776113Y-2397212D01*
G01X4776747Y-2397233D01*
G01X4819269Y-2323583D01*
G01X4818687Y-2322565D01*
G01X4782314Y-2301555D01*
G01X4745941Y-2280545D01*
G01X4744774Y-2280977D01*
G01X4702606Y-2354014D01*
G01X4683055Y-2354014D01*
G01X4738925Y-2257244D01*
G01X4739874Y-2256990D01*
G01X4842145Y-2316089D01*
G01X4842443Y-2316440D01*
G01X4842741Y-2316792D01*
G01X4842827Y-2317368D01*
G01X4842912Y-2317944D01*
G01X4783689Y-2420520D01*
G01X4783053Y-2420801D01*
G37*
G36*
G01X4770396Y-2373954D02*
G01X4769962Y-2374289D01*
G01X4726443Y-2349163D01*
G01X4726112Y-2348452D01*
G01X4725780Y-2347740D01*
G01X4750927Y-2304183D01*
G01X4751710Y-2304114D01*
G01X4752492Y-2304046D01*
G01X4796011Y-2329171D01*
G01X4795938Y-2329714D01*
G01X4795864Y-2330257D01*
G01X4770829Y-2373620D01*
G01X4770396Y-2373954D01*
G37*
G36*
G01X4704161Y-1799946D02*
G01X4644564Y-1903170D01*
G01X4643921Y-1902981D01*
G01X4643279Y-1902791D01*
G01X4539836Y-1842886D01*
G01X4543423Y-1836674D01*
G01X4563643Y-1836674D01*
G01X4563951Y-1837054D01*
G01X4563951Y-1837054D01*
G01X4564260Y-1837436D01*
G01X4637060Y-1879467D01*
G01X4638009Y-1879213D01*
G01X4680474Y-1805662D01*
G01X4680233Y-1805355D01*
G01X4679993Y-1805048D01*
G01X4643782Y-1784120D01*
G01X4607571Y-1763192D01*
G01X4606920Y-1763017D01*
G01X4606269Y-1762843D01*
G01X4563643Y-1836674D01*
G01X4543423Y-1836674D01*
G01X4599652Y-1739282D01*
G01X4599981Y-1739193D01*
G01X4600311Y-1739105D01*
G01X4652069Y-1768902D01*
G01X4703826Y-1798698D01*
G01X4703993Y-1799322D01*
G01X4704161Y-1799946D01*
G37*
G36*
G01X4632267Y-1856145D02*
G01X4631357Y-1856623D01*
G01X4609399Y-1844034D01*
G01X4587441Y-1831446D01*
G01X4587272Y-1830816D01*
G01X4587103Y-1830186D01*
G01X4599855Y-1808247D01*
G01X4612606Y-1786309D01*
G01X4634972Y-1799136D01*
G01X4657336Y-1811963D01*
G01X4657408Y-1812229D01*
G01X4657479Y-1812495D01*
G01X4632267Y-1856145D01*
G37*
G36*
G01X4973102Y-2092448D02*
G01X4972097Y-2092620D01*
G01X4868700Y-2032755D01*
G01X4872891Y-2025497D01*
G01X4892108Y-2025497D01*
G01X4892259Y-2026195D01*
G01X4892259Y-2026195D01*
G01X4892409Y-2026892D01*
G01X4965423Y-2069047D01*
G01X4966372Y-2068793D01*
G01X5008839Y-1995238D01*
G01X5008094Y-1994502D01*
G01X4971812Y-1973516D01*
G01X4935529Y-1952529D01*
G01X4934895Y-1952509D01*
G01X4934260Y-1952488D01*
G01X4892108Y-2025497D01*
G01X4872891Y-2025497D01*
G01X4928757Y-1928734D01*
G01X4980287Y-1958440D01*
G01X5031817Y-1988145D01*
G01X5032164Y-1988491D01*
G01X5032511Y-1988837D01*
G01X5031929Y-1990556D01*
G01X4973102Y-2092448D01*
G37*
G36*
G01X4960233Y-2045562D02*
G01X4959650Y-2045778D01*
G01X4959067Y-2045993D01*
G01X4915764Y-2020993D01*
G01X4915552Y-2020202D01*
G01X4915340Y-2019411D01*
G01X4940490Y-1975851D01*
G01X4940974Y-1975928D01*
G01X4941458Y-1976005D01*
G01X4985221Y-2001271D01*
G01X4985308Y-2001780D01*
G01X4985395Y-2002289D01*
G01X4960233Y-2045562D01*
G37*
G36*
G01X4835754Y-1915876D02*
G01X4822897Y-1937998D01*
G01X4810039Y-1960120D01*
G01X4795250Y-1951581D01*
G01X4807980Y-1929385D01*
G01X4820709Y-1907190D01*
G01X4820624Y-1906694D01*
G01X4820540Y-1906197D01*
G01X4792223Y-1889676D01*
G01X4796268Y-1882515D01*
G01X4800314Y-1875354D01*
G01X4800143Y-1874354D01*
G01X4785721Y-1866205D01*
G01X4781327Y-1873526D01*
G01X4776933Y-1880848D01*
G01X4747104Y-1863627D01*
G01X4751248Y-1856160D01*
G01X4755391Y-1848694D01*
G01X4748070Y-1844299D01*
G01X4740747Y-1839904D01*
G01X4749286Y-1825116D01*
G01X4764074Y-1833654D01*
G01X4759931Y-1841121D01*
G01X4755787Y-1848588D01*
G01X4785615Y-1865809D01*
G01X4790010Y-1858487D01*
G01X4794404Y-1851165D01*
G01X4838132Y-1876240D01*
G01X4838203Y-1876506D01*
G01X4838274Y-1876772D01*
G01X4830109Y-1890914D01*
G01X4830284Y-1891388D01*
G01X4830460Y-1891862D01*
G01X4845063Y-1900379D01*
G01X4859665Y-1908896D01*
G01X4851127Y-1923685D01*
G01X4843910Y-1919606D01*
G01X4836693Y-1915528D01*
G01X4836223Y-1915702D01*
G01X4835754Y-1915876D01*
G37*
G36*
G01X4673443Y-2318564D02*
G01X4680765Y-2322958D01*
G01X4663544Y-2352786D01*
G01X4606716Y-2319977D01*
G01X4642548Y-2319977D01*
G01X4642675Y-2320451D01*
G01X4642802Y-2320926D01*
G01X4642802Y-2320926D01*
G01X4656638Y-2328914D01*
G01X4657113Y-2328787D01*
G01X4657587Y-2328660D01*
G01X4665730Y-2314556D01*
G01X4665589Y-2314029D01*
G01X4651485Y-2305886D01*
G01X4650536Y-2306141D01*
G01X4642548Y-2319977D01*
G01X4606716Y-2319977D01*
G01X4603636Y-2318198D01*
G01X4607780Y-2310732D01*
G01X4611924Y-2303265D01*
G01X4597135Y-2294727D01*
G01X4592741Y-2302049D01*
G01X4588346Y-2309371D01*
G01X4559521Y-2292728D01*
G01X4576742Y-2262900D01*
G01X4591530Y-2271439D01*
G01X4583439Y-2285761D01*
G01X4583610Y-2286762D01*
G01X4590319Y-2290546D01*
G01X4597029Y-2294331D01*
G01X4601424Y-2287009D01*
G01X4605818Y-2279687D01*
G01X4620607Y-2288226D01*
G01X4616463Y-2295692D01*
G01X4612319Y-2303159D01*
G01X4619453Y-2307367D01*
G01X4626588Y-2311574D01*
G01X4627068Y-2311397D01*
G01X4627548Y-2311219D01*
G01X4653263Y-2266975D01*
G01X4660587Y-2271115D01*
G01X4667912Y-2275256D01*
G01X4668056Y-2275795D01*
G01X4659891Y-2289937D01*
G01X4660065Y-2290407D01*
G01X4660240Y-2290878D01*
G01X4667324Y-2295057D01*
G01X4674408Y-2299236D01*
G01X4670264Y-2306702D01*
G01X4666121Y-2314169D01*
G01X4673443Y-2318564D01*
G37*
G36*
G01X4766696Y-2243739D02*
G01X4762507Y-2250841D01*
G01X4747718Y-2242302D01*
G01X4756257Y-2227514D01*
G01X4763633Y-2231684D01*
G01X4771010Y-2235854D01*
G01X4770948Y-2236246D01*
G01X4770886Y-2236637D01*
G01X4766696Y-2243739D01*
G37*
G36*
G01X4524083Y-1904479D02*
G01X4519894Y-1911581D01*
G01X4505105Y-1903043D01*
G01X4513643Y-1888254D01*
G01X4521019Y-1892424D01*
G01X4528396Y-1896595D01*
G01X4528334Y-1896986D01*
G01X4528272Y-1897377D01*
G01X4524083Y-1904479D01*
G37*
G04 Image End*

G04 Text Start*
G54D10*
G01X6484620Y-4030980D02*
G01X6484620Y-4090162D01*
G01X6484620Y-4030980D02*
G01X6459474Y-4030980D01*
G01X6450838Y-4033774D01*
G01X6448044Y-4036568D01*
G01X6445250Y-4042410D01*
G01X6445250Y-4047998D01*
G01X6448044Y-4053586D01*
G01X6450838Y-4056380D01*
G01X6459474Y-4059174D01*
G01X6484620Y-4059174D02*
G01X6459474Y-4059174D01*
G01X6450838Y-4061968D01*
G01X6448044Y-4064762D01*
G01X6445250Y-4070350D01*
G01X6445250Y-4078986D01*
G01X6448044Y-4084574D01*
G01X6450838Y-4087368D01*
G01X6459474Y-4090162D01*
G01X6484620Y-4090162D01*
G01X6399276Y-4030980D02*
G01X6421628Y-4090162D01*
G01X6399276Y-4030980D02*
G01X6376670Y-4090162D01*
G01X6413246Y-4070350D02*
G01X6385306Y-4070350D01*
G01X6333490Y-4030980D02*
G01X6333490Y-4090162D01*
G01X6353048Y-4030980D02*
G01X6313678Y-4030980D01*
G01X6264910Y-4039362D02*
G01X6264910Y-4090162D01*
G01X6290056Y-4064762D02*
G01X6239510Y-4064762D01*
G01X6116320Y-4030980D02*
G01X6116320Y-4090162D01*
G01X6116320Y-4030980D02*
G01X6091174Y-4030980D01*
G01X6082538Y-4033774D01*
G01X6079744Y-4036568D01*
G01X6076950Y-4042410D01*
G01X6076950Y-4047998D01*
G01X6079744Y-4053586D01*
G01X6082538Y-4056380D01*
G01X6091174Y-4059174D01*
G01X6116320Y-4059174D02*
G01X6091174Y-4059174D01*
G01X6082538Y-4061968D01*
G01X6079744Y-4064762D01*
G01X6076950Y-4070350D01*
G01X6076950Y-4078986D01*
G01X6079744Y-4084574D01*
G01X6082538Y-4087368D01*
G01X6091174Y-4090162D01*
G01X6116320Y-4090162D01*
G01X6030976Y-4030980D02*
G01X6053328Y-4090162D01*
G01X6030976Y-4030980D02*
G01X6008370Y-4090162D01*
G01X6044946Y-4070350D02*
G01X6017006Y-4070350D01*
G01X5965190Y-4030980D02*
G01X5965190Y-4090162D01*
G01X5984748Y-4030980D02*
G01X5945378Y-4030980D01*
G01X5921756Y-4064762D02*
G01X5871210Y-4064762D01*
G04 Text End*

G04 Circle Start*
G54D11*
G01X3524132Y-977976D03*
G01X3815971Y-977976D03*
G04 Circle End*

M02*

