<?xml version="1.0" encoding="UTF-8" standalone="no"?>
<!-- Created with Inkscape (http://www.inkscape.org/) -->

<svg
   width="33.851315mm"
   height="29.730425mm"
   viewBox="0 0 33.851315 29.730425"
   version="1.1"
   id="svg1"
   xml:space="preserve"
   xmlns="http://www.w3.org/2000/svg"
   xmlns:svg="http://www.w3.org/2000/svg"><defs
     id="defs1" /><g
     id="layer1"
     transform="translate(-14.80719,-86.786306)"><path
       style="fill:#000000"
       d="m 22.039454,116.48505 c -2.110165,-0.19073 -3.977776,-1.17628 -5.357669,-2.82727 -1.059634,-1.26782 -1.661171,-2.72969 -1.839538,-4.4705 -0.03277,-0.31986 -0.04222,-1.43342 -0.0298,-3.51253 0.01953,-3.26909 0.03336,-3.52029 0.269293,-4.89106 0.500567,-2.908352 1.765088,-5.615351 3.74148,-8.009499 0.50262,-0.608861 1.674559,-1.754454 2.322133,-2.269931 3.556259,-2.830828 7.838629,-4.088266 12.340401,-3.623526 3.211496,0.331538 6.282424,1.598187 8.862504,3.655468 0.637844,0.508598 1.930568,1.78752 2.434285,2.408294 1.994044,2.457434 2.46023,4.126553 2.734855,4.714995 0.247528,0.53038 0.642175,1.966244 0.802834,3.128819 0.189205,1.36914 0.309679,2.23978 0.332532,4.56708 0.03222,3.28165 -0.0708,4.18111 -0.318925,5.19429 -0.475072,1.93988 -1.620125,3.54961 -3.324578,4.67373 -1.23941,0.81742 -2.587749,1.23756 -4.087307,1.27362 l -0.553489,0.0133 -0.01076,-7.63177 -0.01076,-7.63177 0.436521,3.5e-4 c 1.970784,0.002 4.040752,0.78654 5.428571,2.0586 0.162122,0.14859 0.180949,0.15633 0.180949,0.0743 0,-0.23101 -0.177272,-1.77974 -0.254762,-2.22573 -0.505271,-2.908004 -1.870694,-5.576029 -3.937139,-7.693134 -2.276912,-2.332732 -5.032391,-3.7392 -8.368053,-4.271272 -0.560953,-0.08948 -0.753493,-0.09838 -2.107518,-0.09746 -1.429031,9.72e-4 -1.519857,0.0059 -2.213958,0.120274 -2.627673,0.432965 -4.814034,1.398184 -6.89733,3.044986 -0.665357,0.52595 -1.855228,1.721886 -2.356477,2.368488 -1.659608,2.140862 -2.666423,4.457212 -3.007217,6.918618 -0.07886,0.56955 -0.195172,1.84228 -0.17061,1.86684 0.0092,0.009 0.12497,-0.0796 0.257184,-0.19746 1.34977,-1.20303 3.415984,-1.96741 5.318134,-1.96741 h 0.406267 l -0.01076,7.63177 -0.01076,7.63177 -0.298033,0.006 c -0.163918,0.003 -0.480046,-0.0108 -0.702506,-0.0309 z m 6.114685,-6.34187 c -0.269415,-0.0677 -0.652836,-0.2946 -0.838975,-0.49653 -0.09562,-0.10374 -0.234485,-0.31659 -0.308588,-0.47301 -0.122007,-0.25753 -0.134733,-0.3228 -0.134733,-0.69107 0,-0.38383 0.0089,-0.42476 0.15901,-0.72842 0.191513,-0.3875 0.438055,-0.62887 0.833882,-0.8164 0.257193,-0.12184 0.323074,-0.13473 0.688865,-0.13473 0.36579,0 0.431671,0.0129 0.688864,0.13473 0.395827,0.18753 0.642369,0.4289 0.833882,0.8164 0.150257,0.30403 0.15901,0.34425 0.15901,0.73063 0,0.38638 -0.0088,0.4266 -0.15901,0.73062 -0.287711,0.58215 -0.798835,0.92371 -1.426983,0.9536 -0.181462,0.009 -0.404313,-0.003 -0.495224,-0.0258 z m 6.556722,0 c -0.269415,-0.0677 -0.652836,-0.2946 -0.838976,-0.49653 -0.09562,-0.10374 -0.234484,-0.31659 -0.308587,-0.47301 -0.122008,-0.25753 -0.134733,-0.3228 -0.134733,-0.69107 0,-0.38383 0.0089,-0.42476 0.15901,-0.72842 0.191512,-0.3875 0.438055,-0.62887 0.833881,-0.8164 0.257194,-0.12184 0.323074,-0.13473 0.688865,-0.13473 0.365791,0 0.431672,0.0129 0.688865,0.13473 0.395827,0.18753 0.642369,0.4289 0.833882,0.8164 0.150257,0.30403 0.15901,0.34425 0.15901,0.73063 0,0.38638 -0.0088,0.4266 -0.15901,0.73062 -0.287711,0.58215 -0.798835,0.92371 -1.426983,0.9536 -0.181463,0.009 -0.404314,-0.003 -0.495224,-0.0258 z"
       id="path1" /></g></svg>
