999
"DXF R12 Output" (www.mydxf.blogspot.com)
 0 
SECTION
 2 
HEADER
 9 
$ACADVER
 1 
AC1009
 9 
$EXTMIN
 10 
 0 
 20 
 0 
 9 
$EXTMAX
 10 
 8.5 
 20 
 11 
 0 
ENDSEC
 0 
SECTION
 2 
ENTITIES
0
POLYLINE
8
Layer 1
62
7
70
0
10
0.000000
20
0.000000
66
1
0
VERTEX
8
Layer 1
10
7.232254
20
0.031950
70
0
0
VERTEX
8
Layer 1
10
5.698940
20
0.322005
70
0
0
VERTEX
8
Layer 1
10
4.279568
20
0.897987
70
0
0
VERTEX
8
Layer 1
10
2.997121
20
1.747769
70
0
0
VERTEX
8
Layer 1
10
1.874585
20
2.859220
70
0
0
VERTEX
8
Layer 1
10
1.165207
20
3.847796
70
0
0
VERTEX
8
Layer 1
10
0.624341
20
4.917099
70
0
0
VERTEX
8
Layer 1
10
0.248712
20
6.075087
70
0
0
VERTEX
8
Layer 1
10
0.035047
20
7.329720
70
0
0
VERTEX
8
Layer 1
10
0.005247
20
10.842250
70
0
0
VERTEX
8
Layer 1
10
0.058742
20
13.999650
70
0
0
VERTEX
8
Layer 1
10
0.274540
20
15.733310
70
0
0
VERTEX
8
Layer 1
10
0.792393
20
17.875078
70
0
0
VERTEX
8
Layer 1
10
1.591846
20
19.930886
70
0
0
VERTEX
8
Layer 1
10
2.668016
20
21.890281
70
0
0
VERTEX
8
Layer 1
10
4.016020
20
23.742809
70
0
0
VERTEX
8
Layer 1
10
6.338153
20
26.012740
70
0
0
VERTEX
8
Layer 1
10
7.704797
20
27.000257
70
0
0
VERTEX
8
Layer 1
10
9.133576
20
27.838526
70
0
0
VERTEX
8
Layer 1
10
10.618551
20
28.525801
70
0
0
VERTEX
8
Layer 1
10
12.153786
20
29.060341
70
0
0
VERTEX
8
Layer 1
10
13.733342
20
29.440401
70
0
0
VERTEX
8
Layer 1
10
15.351280
20
29.664237
70
0
0
VERTEX
8
Layer 1
10
17.001664
20
29.730107
70
0
0
VERTEX
8
Layer 1
10
18.678554
20
29.636266
70
0
0
VERTEX
8
Layer 1
10
21.055346
20
29.214537
70
0
0
VERTEX
8
Layer 1
10
23.346587
20
28.455686
70
0
0
VERTEX
8
Layer 1
10
25.519437
20
27.373258
70
0
0
VERTEX
8
Layer 1
10
27.541058
20
25.980798
70
0
0
VERTEX
8
Layer 1
10
29.975343
20
23.572504
70
0
0
VERTEX
8
Layer 1
10
31.205282
20
21.881806
70
0
0
VERTEX
8
Layer 1
10
31.987553
20
20.514134
70
0
0
VERTEX
8
Layer 1
10
32.710198
20
18.857509
70
0
0
VERTEX
8
Layer 1
10
33.144191
20
17.530173
70
0
0
VERTEX
8
Layer 1
10
33.513032
20
15.728690
70
0
0
VERTEX
8
Layer 1
10
33.741680
20
13.804460
70
0
0
VERTEX
8
Layer 1
10
33.845564
20
11.161610
70
0
0
VERTEX
8
Layer 1
10
33.791231
20
7.713789
70
0
0
VERTEX
8
Layer 1
10
33.526639
20
5.967320
70
0
0
VERTEX
8
Layer 1
10
33.046441
20
4.576742
70
0
0
VERTEX
8
Layer 1
10
32.325368
20
3.324545
70
0
0
VERTEX
8
Layer 1
10
31.373785
20
2.225303
70
0
0
VERTEX
8
Layer 1
10
30.202061
20
1.293590
70
0
0
VERTEX
8
Layer 1
10
29.251419
20
0.754809
70
0
0
VERTEX
8
Layer 1
10
28.255963
20
0.363770
70
0
0
VERTEX
8
Layer 1
10
27.211730
20
0.119236
70
0
0
VERTEX
8
Layer 1
10
26.114754
20
0.019970
70
0
0
VERTEX
8
Layer 1
10
25.561265
20
0.006670
70
0
0
VERTEX
8
Layer 1
10
25.550505
20
7.638440
70
0
0
VERTEX
8
Layer 1
10
25.539745
20
15.270210
70
0
0
VERTEX
8
Layer 1
10
25.976266
20
15.269860
70
0
0
VERTEX
8
Layer 1
10
27.460743
20
15.126243
70
0
0
VERTEX
8
Layer 1
10
28.909163
20
14.716833
70
0
0
VERTEX
8
Layer 1
10
30.248278
20
14.069285
70
0
0
VERTEX
8
Layer 1
10
31.404837
20
13.211260
70
0
0
VERTEX
8
Layer 1
10
31.585786
20
13.136960
70
0
0
VERTEX
8
Layer 1
10
31.331024
20
15.362690
70
0
0
VERTEX
8
Layer 1
10
30.793279
20
17.493838
70
0
0
VERTEX
8
Layer 1
10
29.947895
20
19.505844
70
0
0
VERTEX
8
Layer 1
10
28.809791
20
21.369556
70
0
0
VERTEX
8
Layer 1
10
27.393885
20
23.055824
70
0
0
VERTEX
8
Layer 1
10
25.594882
20
24.632509
70
0
0
VERTEX
8
Layer 1
10
23.606890
20
25.866708
70
0
0
VERTEX
8
Layer 1
10
21.420382
20
26.763282
70
0
0
VERTEX
8
Layer 1
10
19.025832
20
27.327096
70
0
0
VERTEX
8
Layer 1
10
16.918314
20
27.424556
70
0
0
VERTEX
8
Layer 1
10
14.704356
20
27.304282
70
0
0
VERTEX
8
Layer 1
10
12.811062
20
26.877427
70
0
0
VERTEX
8
Layer 1
10
11.051550
20
26.236978
70
0
0
VERTEX
8
Layer 1
10
9.394108
20
25.368934
70
0
0
VERTEX
8
Layer 1
10
7.807026
20
24.259296
70
0
0
VERTEX
8
Layer 1
10
6.567247
20
23.120297
70
0
0
VERTEX
8
Layer 1
10
5.450549
20
21.890808
70
0
0
VERTEX
8
Layer 1
10
4.328448
20
20.252733
70
0
0
VERTEX
8
Layer 1
10
3.452385
20
18.551703
70
0
0
VERTEX
8
Layer 1
10
2.823600
20
16.790571
70
0
0
VERTEX
8
Layer 1
10
2.443332
20
14.972190
70
0
0
VERTEX
8
Layer 1
10
2.272722
20
13.105350
70
0
0
VERTEX
8
Layer 1
10
2.529906
20
13.302810
70
0
0
VERTEX
8
Layer 1
10
3.662809
20
14.117746
70
0
0
VERTEX
8
Layer 1
10
4.981831
20
14.737651
70
0
0
VERTEX
8
Layer 1
10
6.404423
20
15.131988
70
0
0
VERTEX
8
Layer 1
10
7.848040
20
15.270220
70
0
0
VERTEX
8
Layer 1
10
8.254307
20
15.270220
70
0
0
VERTEX
8
Layer 1
10
8.243547
20
7.638450
70
0
0
VERTEX
8
Layer 1
10
8.232787
20
0.006680
70
0
0
VERTEX
8
Layer 1
10
7.934754
20
0.000680
70
0
0
VERTEX
8
Layer 1
10
7.232248
20
0.031580
70
0
0
VERTEX
8
Layer 1
10
7.232254
20
0.031950
70
0
0
SEQEND
8
Layer 1
0
POLYLINE
8
Layer 1
62
7
70
0
10
0.000000
20
0.000000
66
1
0
VERTEX
8
Layer 1
10
13.346939
20
6.373820
70
0
0
VERTEX
8
Layer 1
10
12.507964
20
6.870350
70
0
0
VERTEX
8
Layer 1
10
12.199376
20
7.343360
70
0
0
VERTEX
8
Layer 1
10
12.064643
20
8.034430
70
0
0
VERTEX
8
Layer 1
10
12.223653
20
8.762850
70
0
0
VERTEX
8
Layer 1
10
12.563976
20
9.246039
70
0
0
VERTEX
8
Layer 1
10
13.057535
20
9.579250
70
0
0
VERTEX
8
Layer 1
10
13.746400
20
9.713980
70
0
0
VERTEX
8
Layer 1
10
14.435264
20
9.579250
70
0
0
VERTEX
8
Layer 1
10
14.928823
20
9.246039
70
0
0
VERTEX
8
Layer 1
10
15.269146
20
8.762850
70
0
0
VERTEX
8
Layer 1
10
15.428156
20
8.032220
70
0
0
VERTEX
8
Layer 1
10
15.269146
20
7.301600
70
0
0
VERTEX
8
Layer 1
10
14.683318
20
6.617702
70
0
0
VERTEX
8
Layer 1
10
13.842163
20
6.348000
70
0
0
VERTEX
8
Layer 1
10
13.346939
20
6.373800
70
0
0
VERTEX
8
Layer 1
10
13.346939
20
6.373820
70
0
0
SEQEND
8
Layer 1
0
POLYLINE
8
Layer 1
62
7
70
0
10
0.000000
20
0.000000
66
1
0
VERTEX
8
Layer 1
10
19.903661
20
6.373820
70
0
0
VERTEX
8
Layer 1
10
19.064685
20
6.870350
70
0
0
VERTEX
8
Layer 1
10
18.756098
20
7.343360
70
0
0
VERTEX
8
Layer 1
10
18.621365
20
8.034430
70
0
0
VERTEX
8
Layer 1
10
18.780375
20
8.762850
70
0
0
VERTEX
8
Layer 1
10
19.120698
20
9.246039
70
0
0
VERTEX
8
Layer 1
10
19.614256
20
9.579250
70
0
0
VERTEX
8
Layer 1
10
20.303121
20
9.713980
70
0
0
VERTEX
8
Layer 1
10
20.991986
20
9.579250
70
0
0
VERTEX
8
Layer 1
10
21.485545
20
9.246039
70
0
0
VERTEX
8
Layer 1
10
21.825868
20
8.762850
70
0
0
VERTEX
8
Layer 1
10
21.984878
20
8.032220
70
0
0
VERTEX
8
Layer 1
10
21.825868
20
7.301600
70
0
0
VERTEX
8
Layer 1
10
21.240040
20
6.617702
70
0
0
VERTEX
8
Layer 1
10
20.398885
20
6.348000
70
0
0
VERTEX
8
Layer 1
10
19.903661
20
6.373800
70
0
0
VERTEX
8
Layer 1
10
19.903661
20
6.373820
70
0
0
SEQEND
8
Layer 1
 0 
ENDSEC
 0 
EOF