<?xml version="1.0" encoding="UTF-8" standalone="no"?>
<!-- Created with Inkscape (http://www.inkscape.org/) -->

<svg
   width="183.49738mm"
   height="29.731737mm"
   viewBox="0 0 183.49738 29.731737"
   version="1.1"
   id="svg1"
   xml:space="preserve"
   xmlns="http://www.w3.org/2000/svg"
   xmlns:svg="http://www.w3.org/2000/svg"><defs
     id="defs1" /><g
     id="layer1"
     transform="translate(-14.807188,-86.784995)"><path
       style="fill:#000000"
       d="m 22.039454,116.48505 c -2.110165,-0.19073 -3.977776,-1.17628 -5.357669,-2.82727 -1.059634,-1.26782 -1.661171,-2.72969 -1.839538,-4.4705 -0.03277,-0.31986 -0.04222,-1.43342 -0.0298,-3.51253 0.01953,-3.26909 0.03336,-3.52029 0.269293,-4.89106 0.500567,-2.908352 1.765088,-5.615351 3.74148,-8.009499 0.50262,-0.608861 1.674559,-1.754454 2.322133,-2.269931 3.556259,-2.830828 7.838629,-4.088266 12.340401,-3.623526 3.211496,0.331538 6.282424,1.598187 8.862504,3.655468 0.637844,0.508598 1.930568,1.78752 2.434285,2.408294 1.050025,1.294037 1.968741,2.828867 2.53156,4.229287 0.104371,0.259698 0.195854,0.478267 0.203295,0.485708 0.0074,0.0074 0.09162,-0.174634 0.187065,-0.404612 1.596956,-3.847996 4.511722,-6.964409 8.178507,-8.744307 3.286898,-1.595497 6.796697,-2.090681 10.349084,-1.460111 5.252015,0.932264 9.749877,4.250042 12.11742,8.938227 1.06245,2.103853 1.616961,4.183282 1.805217,6.769602 0.06117,0.84033 0.05675,5.86989 -0.0057,6.48585 l -0.04944,0.48761 -1.102267,-0.0225 c -0.606247,-0.0124 -1.110104,-0.0303 -1.119682,-0.0399 -0.0096,-0.01 0.02132,-1.37691 0.06865,-3.0385 0.06381,-2.23993 0.07467,-3.11466 0.04201,-3.38298 -0.02423,-0.19904 -0.06512,-0.58223 -0.09087,-0.85152 -0.280461,-2.933282 -1.282988,-5.469748 -3.079529,-7.791433 -0.444703,-0.574694 -1.786234,-1.922621 -2.388516,-2.399903 -2.060715,-1.633028 -4.36417,-2.61829 -7.089991,-3.032617 -0.606302,-0.09216 -2.754845,-0.130629 -3.436588,-0.06153 -2.492126,0.252582 -4.744543,1.07163 -6.802968,2.473769 -1.3549,0.922919 -2.772086,2.322581 -3.754595,3.708167 -1.115481,1.573111 -1.97019,3.499486 -2.330435,5.252417 -0.278232,1.35386 -0.350132,2.30924 -0.362006,4.81017 -0.01558,3.28177 -0.0708,4.18111 -0.318925,5.19429 -0.475072,1.93988 -1.620125,3.54961 -3.324578,4.67373 -1.23941,0.81742 -2.587749,1.23756 -4.087307,1.27362 l -0.553489,0.0133 -0.01076,-7.63177 -0.01076,-7.63177 0.436521,3.5e-4 c 1.970784,0.002 4.040752,0.78654 5.428571,2.0586 0.162122,0.14859 0.180949,0.15633 0.180949,0.0743 0,-0.23101 -0.177272,-1.77974 -0.254762,-2.22573 -0.505271,-2.908004 -1.870694,-5.576029 -3.937139,-7.693134 -2.276912,-2.332732 -5.032391,-3.7392 -8.368053,-4.271272 -0.560953,-0.08948 -0.753493,-0.09838 -2.107518,-0.09746 -1.429031,9.72e-4 -1.519857,0.0059 -2.213958,0.120274 -2.627673,0.432965 -4.814034,1.398184 -6.89733,3.044986 -0.665357,0.52595 -1.855228,1.721886 -2.356477,2.368488 -1.659608,2.140862 -2.666423,4.457212 -3.007217,6.918618 -0.07886,0.56955 -0.195172,1.84228 -0.17061,1.86684 0.0092,0.009 0.12497,-0.0796 0.257184,-0.19746 1.34977,-1.20303 3.415984,-1.96741 5.318134,-1.96741 h 0.406267 l -0.01076,7.63177 -0.01076,7.63177 -0.298033,0.006 c -0.163918,0.003 -0.480046,-0.0108 -0.702506,-0.0309 z m 6.114685,-6.34187 c -0.269415,-0.0677 -0.652836,-0.2946 -0.838975,-0.49653 -0.09562,-0.10374 -0.234485,-0.31659 -0.308588,-0.47301 -0.122007,-0.25753 -0.134733,-0.3228 -0.134733,-0.69107 0,-0.38383 0.0089,-0.42476 0.15901,-0.72842 0.191513,-0.3875 0.438055,-0.62887 0.833882,-0.8164 0.257193,-0.12184 0.323074,-0.13473 0.688865,-0.13473 0.36579,0 0.431671,0.0129 0.688864,0.13473 0.395827,0.18753 0.642369,0.4289 0.833882,0.8164 0.150257,0.30403 0.15901,0.34425 0.15901,0.73063 0,0.38638 -0.0088,0.4266 -0.15901,0.73062 -0.287711,0.58215 -0.798835,0.92371 -1.426983,0.9536 -0.181462,0.009 -0.404313,-0.003 -0.495224,-0.0258 z m 6.556722,0 c -0.269415,-0.0677 -0.652836,-0.2946 -0.838976,-0.49653 -0.09562,-0.10374 -0.234484,-0.31659 -0.308587,-0.47301 -0.122008,-0.25753 -0.134733,-0.3228 -0.134733,-0.69107 0,-0.38383 0.0089,-0.42476 0.15901,-0.72842 0.191512,-0.3875 0.438055,-0.62887 0.833881,-0.8164 0.257194,-0.12184 0.323074,-0.13473 0.688865,-0.13473 0.365791,0 0.431672,0.0129 0.688865,0.13473 0.395827,0.18753 0.642369,0.4289 0.833882,0.8164 0.150257,0.30403 0.15901,0.34425 0.15901,0.73063 0,0.38638 -0.0088,0.4266 -0.15901,0.73062 -0.287711,0.58215 -0.798835,0.92371 -1.426983,0.9536 -0.181463,0.009 -0.404314,-0.003 -0.495224,-0.0258 z m 58.302977,-0.0437 c -2.156473,-0.11372 -4.135139,-0.81876 -5.769064,-2.05564 -0.437462,-0.33116 -1.250141,-1.14385 -1.58236,-1.58239 -1.037648,-1.36973 -1.603733,-2.77655 -1.849898,-4.5973 -0.03828,-0.28316 -0.05597,-2.164162 -0.06774,-7.206005 l -0.01594,-6.822823 h 1.513157 1.513156 v 6.579688 c 0,4.374626 0.01522,6.71824 0.04542,6.99313 0.101826,0.92682 0.333202,1.71595 0.728133,2.48337 1.507055,2.92847 4.990977,4.32704 8.294223,3.3296 1.112423,-0.3359 2.035152,-0.88915 2.856197,-1.71252 1.067611,-1.07064 1.589748,-2.09915 1.904178,-3.75088 0.0613,-0.32189 0.0704,-1.11133 0.0829,-7.142142 l 0.014,-6.780246 h 1.49013 1.49012 l -0.0134,6.993127 c -0.0134,6.965841 -0.0138,6.995041 -0.1057,7.482751 -0.24436,1.29665 -0.5491,2.17046 -1.08192,3.10233 -1.79986,3.14782 -5.337063,4.90262 -9.445632,4.68595 z m 79.063852,0 c -2.15648,-0.11372 -4.13514,-0.81876 -5.76907,-2.05564 -0.43746,-0.33116 -1.25014,-1.14385 -1.58236,-1.58239 -1.03765,-1.36973 -1.60373,-2.77655 -1.8499,-4.5973 -0.0383,-0.28316 -0.056,-2.164162 -0.0677,-7.206005 l -0.0159,-6.822823 h 1.51316 1.51316 v 6.579688 c 0,4.374626 0.0152,6.71824 0.0454,6.99313 0.10183,0.92682 0.3332,1.71595 0.72813,2.48337 1.50706,2.92847 4.99098,4.32704 8.29423,3.3296 1.11242,-0.3359 2.03515,-0.88915 2.85619,-1.71252 1.06761,-1.07064 1.58975,-2.09915 1.90418,-3.75088 0.0613,-0.32189 0.0704,-1.11133 0.0829,-7.142142 l 0.014,-6.780246 h 1.49012 1.49013 l -0.0134,6.993127 c -0.0134,6.965841 -0.0138,6.995041 -0.10571,7.482751 -0.24436,1.29665 -0.54909,2.17046 -1.08191,3.10233 -1.79986,3.14782 -5.33707,4.90262 -9.44563,4.68595 z m -62.79977,-8.35455 c 0,-5.170306 0.0155,-8.042102 0.0454,-8.419422 0.13178,-1.662131 0.64185,-2.863217 1.63544,-3.851006 0.61639,-0.612801 1.28925,-1.016854 2.15101,-1.291697 0.94651,-0.301874 1.47521,-0.347483 4.02795,-0.347483 h 2.06043 v 1.295934 1.295934 l -2.01172,0.01552 c -1.93571,0.01494 -2.0254,0.0192 -2.37362,0.112848 -1.32165,0.35543 -2.08111,1.165372 -2.43961,2.601775 -0.0902,0.361411 -0.0903,0.372694 -0.1036,8.398137 l -0.0133,8.03624 h -1.4892 -1.4892 z m 12.91135,0.7898 c 0.0137,-6.988266 0.0148,-7.062386 0.10542,-7.610485 0.17756,-1.073513 0.41393,-1.822347 0.86561,-2.742295 0.72823,-1.483205 1.72628,-2.589808 3.14139,-3.48305 1.90229,-1.200766 4.5267,-1.646111 7.07431,-1.200461 1.58915,0.277989 2.65577,0.719388 3.83185,1.585732 0.94276,0.694471 1.73367,1.722347 2.22461,2.891122 0.0761,0.181176 0.1492,0.32966 0.16244,0.329965 0.0132,3.06e-4 0.17153,-0.291622 0.35174,-0.64873 0.76875,-1.523347 1.78185,-2.537701 3.32457,-3.328689 1.97725,-1.013785 4.89467,-1.27895 7.28641,-0.662265 3.11476,0.803107 5.43112,3.148758 6.21588,6.294488 0.30519,1.22335 0.28948,0.78196 0.30591,8.595948 l 0.0148,7.03571 h -1.49086 -1.49086 l -0.013,-7.12086 -0.013,-7.120853 -0.0932,-0.394699 c -0.31419,-1.33081 -0.8467,-2.299182 -1.77454,-3.227018 -0.89496,-0.894968 -1.79197,-1.401584 -2.96865,-1.676655 -1.48125,-0.34627 -3.19282,-0.151575 -4.51645,0.513757 -1.78674,0.898116 -3.04013,2.498815 -3.48982,4.456821 l -0.0948,0.412946 -0.013,7.078281 -0.013,7.07828 h -1.48919 -1.4892 l -3e-5,-6.65252 c -4e-5,-6.675976 -0.0104,-7.209371 -0.15336,-7.901763 -0.50347,-2.43826 -2.5691,-4.501928 -5.01112,-5.00634 -2.71016,-0.559799 -5.28073,0.456593 -6.77598,2.67919 -0.61193,0.90959 -0.96572,2.016958 -1.04739,3.278361 -0.0212,0.327836 -0.039,3.522642 -0.0395,7.099572 l -9.1e-4,6.5035 h -1.47042 -1.47041 z m 66.19507,-0.7898 c 0,-5.170306 0.0155,-8.042102 0.0454,-8.419422 0.13178,-1.662131 0.64185,-2.863217 1.63544,-3.851006 0.6164,-0.612801 1.28925,-1.016854 2.15101,-1.291697 0.94651,-0.301874 1.47521,-0.347483 4.02795,-0.347483 h 2.06043 v 1.295934 1.295934 l -2.01172,0.01552 c -1.93571,0.01494 -2.02539,0.0192 -2.37362,0.112848 -1.32165,0.35543 -2.08111,1.165372 -2.4396,2.601775 -0.0902,0.361411 -0.0903,0.372694 -0.10361,8.398137 l -0.0133,8.03624 h -1.4892 -1.4892 z m -138.772741,0.99868 c -0.01473,-0.0238 -0.006,-0.0562 0.01932,-0.0718 0.06546,-0.0405 0.107695,0.015 0.05305,0.0696 -0.03058,0.0306 -0.05439,0.0313 -0.07237,0.002 z"
       id="path1" /></g></svg>
