<?xml version="1.0" encoding="UTF-8" standalone="no"?>
<!-- Created with Inkscape (http://www.inkscape.org/) -->

<svg
   version="1.1"
   id="svg1"
   width="5809.1558"
   height="931.08307"
   viewBox="0 0 5809.1558 931.08307"
   xmlns="http://www.w3.org/2000/svg"
   xmlns:svg="http://www.w3.org/2000/svg">
  <defs
     id="defs1" />
  <g
     id="g1"
     transform="translate(-66.387901,-102.22953)">
    <path
       style="fill:#000000"
       d="m 292.87682,1032.33 c -66.0829,-5.9729 -124.56986,-36.83682 -167.78322,-88.54012 -33.18402,-39.7036 -52.02202,-85.4842 -57.60785,-140 -1.02636,-10.017 -1.32218,-44.8897 -0.93312,-110 0.61174,-102.3765 1.04487,-110.2433 8.43329,-153.1709 15.67598,-91.0793 55.27632,-175.8529 117.16992,-250.8291 15.7403,-19.0674 52.44127,-54.9433 72.72098,-71.0863 111.36947,-88.6515 245.47816,-128.030001 386.45774,-113.476 100.57269,10.3826 196.74328,50.0496 277.54223,114.4764 19.975,15.9275 60.4586,55.9788 76.23321,75.4192 32.8831,40.5247 61.654,88.5901 79.2795,132.4463 3.2686,8.1328 6.1335,14.9776 6.3665,15.2107 0.2331,0.233 2.8693,-5.4689 5.8582,-12.6711 50.0111,-120.5056 141.2912,-218.1006 256.1219,-273.8407 102.9341,-49.9653 212.8485,-65.472701 324.0967,-45.7255 164.4746,29.1952 305.3317,133.0963 379.4748,279.9136 33.2722,65.8852 50.6375,131.0056 56.533,212 1.9155,26.3162 1.7771,183.8243 -0.1785,203.1139 l -1.5482,15.2701 -34.5191,-0.7037 c -18.9855,-0.387 -34.7645,-0.949 -35.0644,-1.249 -0.3,-0.2999 0.6674,-43.1197 2.1498,-95.155 1.9984,-70.1466 2.3386,-97.54 1.3156,-105.9429 -0.7588,-6.2334 -2.0394,-18.2334 -2.8457,-26.6667 -8.783,-91.8599 -40.1787,-171.2931 -96.4399,-244 -13.9266,-17.9974 -55.9386,-60.2097 -74.7999,-75.1565 -64.5343,-51.1406 -136.6704,-81.9955 -222.0335,-94.9708 -18.9872,-2.8861 -86.272,-4.0908 -107.6217,-1.927 -78.0446,7.91 -148.5823,33.5596 -213.0449,77.4697 -42.4307,28.9025 -86.812,72.735 -117.5807,116.1267 -34.9329,49.2642 -61.6994,109.5915 -72.981,164.4871 -8.7132,42.3982 -10.9649,72.3173 -11.3367,150.6375 -0.488,102.7733 -2.2172,130.9374 -9.9876,162.6666 -14.8776,60.7504 -50.7366,111.1615 -104.114,146.365 -38.81401,25.59852 -81.03921,38.75592 -128.00004,39.88492 l -17.33334,0.4168 -0.33697,-239.00002 -0.33698,-239 13.67031,0.011 c 61.71791,0.049 126.54202,24.6317 170.00362,64.468 5.0771,4.6536 5.6667,4.8957 5.6667,2.3271 0,-7.2344 -5.5515,-55.735 -7.9783,-69.7017 -15.8232,-91.0685 -58.58351,-174.6216 -123.29721,-240.9218 -71.30483,-73.0529 -157.59668,-117.0985 -262.05783,-133.7611 -17.56708,-2.8022 -23.59672,-3.081 -66,-3.0521 -44.75221,0.031 -47.59655,0.1849 -69.33334,3.7665 -82.28943,13.559 -150.75853,43.7862 -216,95.3582 -20.83662,16.4709 -58.09916,53.9234 -73.79652,74.1727 -51.97305,67.0442 -83.50293,139.5841 -94.17538,216.6666 -2.46953,17.8364 -6.11209,57.6938 -5.34292,58.463 0.28927,0.2893 3.91362,-2.4935 8.05411,-6.1838 42.27001,-37.6747 106.97653,-61.6125 166.54514,-61.6125 h 12.72286 l -0.33698,239 -0.33697,239.00002 -9.33334,0.1758 c -5.13333,0.097 -15.03333,-0.3393 -22,-0.969 z M 2528.8768,845.64828 c -57.0689,-6.443 -117.1431,-30.6501 -161.3333,-65.0099 -14.1863,-11.0304 -34.2562,-30.892 -45.3189,-44.8485 -34.3169,-43.2936 -51.6384,-84.831 -60.8834,-146 -2.1163,-14.0022 -2.3569,-34.8086 -2.7719,-239.6667 l -0.4544,-224.3333 h 18.0032 18.0033 l 0.5197,223 c 0.3621,155.3639 0.9713,225.8308 2.0087,232.3333 10.8671,68.1173 31.6814,112.4473 72.852,155.1592 28.8366,29.9162 62.3819,50.6177 105.0765,64.8451 83.5853,27.8536 178.3638,15.5169 249.8154,-32.5169 59.0334,-39.6855 97.2952,-98.9257 109.7989,-169.9998 5.1848,-29.4721 5.3509,-37.469 5.3509,-257.6289 v -215.192 h 18.0404 18.0405 l -0.4396,225.6666 c -0.4815,247.1952 -0.075,234.0857 -8.3923,270.9552 -9.7511,43.2275 -29.6849,83.1205 -59.0669,118.2089 -47.629,56.8794 -118.2816,93.6678 -200.5837,104.4426 -17.0638,2.234 -60.7662,2.5606 -78.2651,0.5851 z m 2525.3334,-0.012 c -55.612,-6.3474 -113.1342,-28.8485 -156.6667,-61.2837 -52.1147,-38.8297 -89.2986,-95.505 -104.4679,-159.229 -9.1705,-38.524 -8.6873,-24.1101 -9.1734,-273.6667 l -0.4396,-225.6666 h 18.0032 18.0032 l 0.416,223.6666 c 0.4595,247.1066 -0.1192,229.9089 9.0166,267.9769 13.0205,54.2547 43.7769,103.2138 87.3086,138.9805 30.3869,24.9666 74.7595,45.2494 118,53.9381 77.0628,15.4849 160.0208,-1.9447 223.1027,-46.8742 23.6968,-16.8778 53.852,-50.0008 70.1202,-77.0213 17.2015,-28.5704 27.888,-60.728 35.0041,-105.3333 1.0374,-6.5025 1.6466,-76.9694 2.0087,-232.3333 l 0.5197,-223 h 17.9998 17.9997 l -0.4619,224.3333 c -0.501,243.3194 -0.2228,233.7215 -7.7956,268.8757 -15.697,72.8679 -59.9026,136.2484 -124.1852,178.0524 -17.5718,11.4273 -47.5922,25.3461 -71.9284,33.3495 -37.8727,12.4551 -65.8282,16.8148 -106.1188,16.5494 -14.4458,-0.095 -30.765,-0.6866 -36.265,-1.3143 z M 484.36714,833.72518 c -8.43712,-2.1194 -20.44452,-9.2258 -26.27375,-15.5498 -2.99448,-3.2486 -7.34322,-9.9143 -9.66387,-14.8127 -3.82084,-8.065 -4.21936,-10.1091 -4.21936,-21.642 0,-12.0202 0.27978,-13.3019 4.97962,-22.8114 5.99751,-12.1351 13.71834,-19.6941 26.11423,-25.5667 8.0544,-3.8159 10.11754,-4.2194 21.57281,-4.2194 11.45528,0 13.51842,0.4035 21.57282,4.2194 12.39589,5.8726 20.11672,13.4316 26.11422,25.5667 4.70552,9.521 4.97963,10.7805 4.97963,22.8806 0,12.1001 -0.27411,13.3596 -4.97963,22.8805 -9.0101,18.2307 -25.01669,28.9274 -44.68805,29.8634 -5.68278,0.2705 -12.66168,-0.093 -15.50867,-0.8086 z m 205.33334,0 c -8.43713,-2.1194 -20.44452,-9.2258 -26.27376,-15.5498 -2.99448,-3.2486 -7.34322,-9.9143 -9.66387,-14.8127 -3.82084,-8.065 -4.21936,-10.1091 -4.21936,-21.642 0,-12.0202 0.27978,-13.3019 4.97963,-22.8114 5.9975,-12.1351 13.71833,-19.6941 26.11422,-25.5667 8.0544,-3.8159 10.11754,-4.2194 21.57282,-4.2194 11.45527,0 13.51841,0.4035 21.57281,4.2194 12.39589,5.8726 20.11672,13.4316 26.11423,25.5667 4.70551,9.521 4.97962,10.7805 4.97962,22.8806 0,12.1001 -0.27411,13.3596 -4.97962,22.8805 -9.01011,18.2307 -25.0167,28.9274 -44.68806,29.8634 -5.68277,0.2705 -12.66167,-0.093 -15.50866,-0.8086 z M 3083.9195,559.45648 c 0.3988,-249.3877 0.6101,-271.2114 2.7267,-281.6666 8.7796,-43.3677 22.4335,-70.5614 48.8973,-97.3866 28.0944,-28.478 55.3478,-42.37 100.99,-51.4782 7.9066,-1.5778 23.1432,-2.2198 64.6767,-2.7251 l 54.3333,-0.6611 v 15.2641 15.264 l -44.3333,0.7816 c -30.1891,0.5323 -48.5828,1.4501 -57.6528,2.8768 -44.3699,6.9794 -76.2843,23.5891 -98.2136,51.1148 -18.6128,23.3626 -29.2997,49.7009 -35.431,87.321 -2.0064,12.3106 -2.2655,38.6774 -2.6793,272.6287 l -0.458,259 h -16.6442 -16.6441 z m 382.2907,41.9602 c 0,-197.2414 0.2791,-230.6397 2.0474,-245 9.847,-79.9665 48.1497,-149.2932 106.9526,-193.581 44.1356,-33.241 87.8332,-48.8575 148.8836,-53.2073 52.5323,-3.7429 118.3017,8.7647 162.5386,30.9104 31.3509,15.6948 62.7087,40.6035 82.9349,65.8783 18.0991,22.6168 35.3086,57.3923 45.8205,92.5904 2.2806,7.6364 4.3823,14.1201 4.6705,14.4083 0.2882,0.2881 2.7213,-6.4528 5.4069,-14.9799 20.228,-64.2266 51.4512,-107.184 102.745,-141.3586 25.5431,-17.0181 49.1515,-27.5657 79.1369,-35.356 40.672,-10.5668 77.4113,-14.532 111.8878,-12.0758 61.9386,4.4125 106.5835,20.6831 151.1761,55.0951 57.3963,44.2928 94.9602,115.2716 103.7265,195.9967 0.9298,8.5627 1.406,90.1794 1.406,241 v 228.0526 h -15.95 -15.9501 l -0.4762,-229.6667 c -0.4985,-240.3469 -0.346,-234.0723 -6.4233,-264.3333 -19.1083,-95.1459 -94.3372,-172.2815 -186.5337,-191.2614 -64.6984,-13.319 -134.7987,-1.9431 -188.7172,30.6252 -57.7691,34.8942 -99.5781,90.9849 -115.7597,155.3028 -8.5006,33.7876 -8.028,18.7804 -8.5141,270.3334 l -0.4425,229 h -16.5597 -16.5597 l -0.471,-228.3334 c -0.5095,-247.002 -0.2014,-236.1076 -7.5468,-266.844 -17.1543,-71.781 -68.4036,-135.8075 -135.6142,-169.4248 -50.68,-25.3491 -114.7185,-32.7263 -172.4604,-19.8674 -91.6069,20.4006 -163.9395,95.6161 -182.528,189.8029 -6.102,30.9187 -5.9522,24.7655 -6.4504,265 l -0.4762,229.6667 h -15.9501 -15.95 z m 2141.3539,-23.2935 c 0.013,-156.5992 0.5336,-259.2217 1.3785,-271.6667 1.5857,-23.355 4.9434,-41.24 11.3534,-60.475 19.9817,-59.9602 67.7141,-101.5971 131.6705,-114.856 21.7409,-4.5072 34.0394,-5.3356 79.2087,-5.3356 h 44.3683 v 15.3333 15.3333 l -28.3333,0.02 c -49.9429,0.035 -78.9964,3.2134 -102.9886,11.2673 -60.4255,20.2842 -94.4374,69.8268 -100.6252,146.5733 -0.8931,11.0778 -1.3862,105.8123 -1.3862,266.3333 v 249.1397 h -17.3334 -17.3333 z m -4451.2252,23.875 c -0.4614,-0.7466 -0.1892,-1.7589 0.6049,-2.2497 2.05,-1.267 3.3726,0.4685 1.6613,2.1798 -0.9576,0.9575 -1.7034,0.9805 -2.2662,0.07 z"
       id="path1" />
  </g>
</svg>
